<svg xmlns="http://www.w3.org/2000/svg" viewBox="0 0 750 500"><g id="freepik--background-complete--inject-6"><g style="opacity:0.4"><path d="M559.65,124.76c7.38,0,131.64.82,139.45.57.56,0,.86-.84.3-1.12-4.92-2.44-10.5-1.95-15.62-3.67-3-1-4.86-3-6.95-5.24a14.35,14.35,0,0,0-6.46-4.22,13.67,13.67,0,0,0-7-.22c-2.52.6-4.71,2-7.12,3-6,2.25-11.77.11-16-4.3-3.51-3.64-7-7.08-11.75-9A15.63,15.63,0,0,0,616,100.3c-4.55,2.06-7.68,6.22-12,8.71-5.08,3-11.15,2.27-16.75,3.16s-9.91,5.62-14.82,8.34a10.59,10.59,0,0,1-5.36,1.66,33,33,0,0,1-3.27-.47c-1.69-.2-3.3-.16-4.43,1.26C559.11,123.3,559.17,124.76,559.65,124.76Z" style="fill:#ebebeb"></path><path d="M202.81,177.55c7.38,0,131.64.82,139.45.57a.61.61,0,0,0,.3-1.12c-4.92-2.43-10.51-1.94-15.62-3.67-3-1-4.86-3-6.95-5.24a14.43,14.43,0,0,0-6.46-4.22,13.67,13.67,0,0,0-7-.22c-2.52.6-4.71,2-7.12,3-6,2.25-11.77.11-16-4.31-3.52-3.64-7-7.07-11.75-9a15.63,15.63,0,0,0-12.45-.17c-4.55,2.07-7.68,6.22-12,8.72-5.08,3-11.15,2.26-16.75,3.16s-9.91,5.61-14.83,8.33a10.43,10.43,0,0,1-5.35,1.66,33,33,0,0,1-3.27-.46c-1.69-.21-3.3-.16-4.44,1.25C202.27,176.09,202.32,177.55,202.81,177.55Z" style="fill:#ebebeb"></path><path d="M50.62,154.56c5.39,0,96.1.6,101.81.42.41,0,.62-.62.22-.82-3.6-1.78-7.67-1.42-11.41-2.68-2.2-.74-3.54-2.18-5.07-3.82a10.53,10.53,0,0,0-4.72-3.09,10.07,10.07,0,0,0-5.14-.16c-1.84.44-3.44,1.5-5.19,2.16-4.36,1.65-8.6.08-11.71-3.14-2.57-2.66-5.09-5.17-8.58-6.6a11.4,11.4,0,0,0-9.09-.13c-3.32,1.51-5.61,4.54-8.73,6.37-3.71,2.16-8.14,1.65-12.23,2.3s-7.23,4.1-10.82,6.09A7.62,7.62,0,0,1,56,152.67c-.8,0-1.58-.24-2.38-.34-1.23-.15-2.41-.11-3.24.92C50.22,153.5,50.26,154.56,50.62,154.56Z" style="fill:#ebebeb"></path><path d="M415.54,80.32c5.39,0,96.11.59,101.81.41a.45.45,0,0,0,.23-.82c-3.6-1.77-7.68-1.42-11.41-2.68-2.2-.74-3.55-2.17-5.07-3.82a10.48,10.48,0,0,0-4.72-3.08,9.86,9.86,0,0,0-5.14-.16c-1.84.43-3.44,1.49-5.2,2.15-4.35,1.65-8.59.08-11.7-3.14-2.57-2.66-5.09-5.17-8.58-6.6a11.36,11.36,0,0,0-9.09-.12c-3.32,1.5-5.61,4.54-8.73,6.36-3.71,2.17-8.14,1.65-12.23,2.31s-7.24,4.1-10.82,6.08A7.65,7.65,0,0,1,421,78.42a23.89,23.89,0,0,1-2.38-.33c-1.24-.16-2.41-.12-3.24.91C415.15,79.25,415.19,80.32,415.54,80.32Z" style="fill:#ebebeb"></path><path d="M429.23,172.58c.14.4,187.55,0,185.18,0-1.08,0,1.64-1.61.58-2.13-6.1-3-12.77-3.11-19.42-3.73-3.87-.35-7.86-.91-11.34-2.75s-5.74-5.06-8.24-8a35.22,35.22,0,0,0-32-12.13c-13.32,2.09-23.82,12.24-37.17,14.11-8,1.12-15.61-2-23.44-3.08-6.45-.89-11.83.36-17.6,3.22-4.23,2.1-8.14,3.86-12.91,4.19-3.67.26-7.36-.16-11-.2a24.77,24.77,0,0,0-16.24,6.49C425,169.08,423.11,172.58,429.23,172.58Z" style="fill:#ebebeb"></path><path d="M190.22,113.57c.14.4,187.55,0,185.18,0-1.08,0,1.64-1.61.58-2.13-6.1-3-12.77-3.11-19.42-3.72-3.87-.36-7.85-.92-11.34-2.76s-5.73-5.06-8.24-8a35.23,35.23,0,0,0-32-12.13c-13.33,2.09-23.83,12.24-37.18,14.11-8,1.12-15.6-2-23.44-3.08-6.45-.89-11.83.36-17.6,3.22-4.23,2.1-8.13,3.86-12.91,4.19-3.67.26-7.36-.16-11-.2a24.72,24.72,0,0,0-16.23,6.49C186,110.07,184.1,113.57,190.22,113.57Z" style="fill:#ebebeb"></path></g><path d="M129.8,159.36S90,143.64,58.57,198.55C26.28,254.86,66.87,291.9,99,269.79c0,0,25.29,53,75.74,40.29S233.36,257,233.36,257s44.79,3.11,46-30.33-31.61-63-31.61-63-2-83.26-56.23-82.57S129.8,159.36,129.8,159.36Z" style="fill:#ebebeb"></path><polygon points="167.03 454.39 178.11 206.62 189.74 454.37 167.03 454.39" style="fill:#dbdbdb"></polygon><polygon points="174.69 299.45 139.94 230.27 181.56 288.77 174.69 299.45" style="fill:#dbdbdb"></polygon><path d="M552.35,224.34s-31-12.27-55.56,30.56c-25.17,43.92,6.48,72.8,31.55,55.55,0,0,19.72,41.3,59.06,31.42s45.71-41.37,45.71-41.37S668,302.92,669,276.85s-24.65-49.17-24.65-49.17-1.54-64.93-43.85-64.39S552.35,224.34,552.35,224.34Z" style="fill:#dbdbdb"></path><polygon points="581.38 454.42 590.02 261.19 599.09 454.4 581.38 454.42" style="fill:#c7c7c7"></polygon><polygon points="587.36 333.59 560.25 279.63 592.71 325.26 587.36 333.59" style="fill:#c7c7c7"></polygon></g><g id="freepik--Floor--inject-6"><path d="M58.37,454.44c202.85-.62,430.41-.62,633.26,0-202.85.61-430.41.61-633.26,0Z" style="fill:#263238"></path></g><g id="freepik--Sign--inject-6"><rect x="310.14" y="61.32" width="7.15" height="393.11" style="fill:#dbdbdb"></rect><rect x="273.09" y="80.09" width="81.25" height="81.25" transform="translate(6.53 257.19) rotate(-45)" style="fill:#F448FF"></rect><path d="M313.72,171.88l-51.17-51.16,51.17-51.17,51.17,51.17ZM264,120.72l49.75,49.75,49.75-49.75L313.72,71Z" style="fill:#263238"></path><path d="M287.93,116.86v-7.71a.71.71,0,0,1,.72-.72h1.54a4.58,4.58,0,0,1,0,9.15h-1.54A.72.72,0,0,1,287.93,116.86Zm1.45-.73h.81a3.13,3.13,0,0,0,0-6.25h-.81Z" style="fill:#263238"></path><path d="M303.13,116.49a.73.73,0,0,1-.46.92,1.32,1.32,0,0,1-.29,0h0a.94.94,0,0,1-.51-.15,1.17,1.17,0,0,1-.42-.46,3.52,3.52,0,0,1-.27-1.56,1.24,1.24,0,0,0-.16-.57,1.26,1.26,0,0,0-.39-.37,2.52,2.52,0,0,0-.74-.32h-1.54v2.84a.73.73,0,0,1-1.45,0v-7.71a.71.71,0,0,1,.72-.72H300a2.79,2.79,0,0,1,1.78,4.95,2.07,2.07,0,0,1,.45.48,2.44,2.44,0,0,1,.44,1.42,2.8,2.8,0,0,0,.05.77A.7.7,0,0,1,303.13,116.49Zm-1.83-5.25a1.35,1.35,0,0,0-1.35-1.36h-1.61v2.69H300A1.35,1.35,0,0,0,301.3,111.24Z" style="fill:#263238"></path><path d="M305.34,109.15a.7.7,0,0,1,.72-.72.73.73,0,0,1,.73.72v7.71a.73.73,0,0,1-.73.72.71.71,0,0,1-.72-.72Z" style="fill:#263238"></path><path d="M312.22,117.45l-.1-.07s0,0,0,0-.05,0-.06-.08,0,0,0,0a.6.6,0,0,0-.06-.11l-3.2-7.63a.7.7,0,0,1,.39-.93.72.72,0,0,1,.93.38l2.54,6.05,2.55-6.05a.72.72,0,0,1,1.34.55l-3.23,7.63s0,.08-.05.11,0,0,0,0-.05,0-.06.08l0,0-.08.07h0s-.07.05-.11.06l0,0-.11,0h0a.32.32,0,0,1-.13,0,.3.3,0,0,1-.13,0h0l-.11,0s0,0,0,0h0l-.12-.07Z" style="fill:#263238"></path><path d="M318.48,109.15a.71.71,0,0,1,.72-.72.73.73,0,0,1,.73.72v7.71a.73.73,0,0,1-.73.72.72.72,0,0,1-.72-.72Z" style="fill:#263238"></path><path d="M323.82,116.86a.72.72,0,1,1-1.43,0v-7.6h0a.7.7,0,0,1,.29-.6.71.71,0,0,1,1,.16l4.22,5.84v-5.39a.71.71,0,0,1,.71-.7.72.72,0,0,1,.72.7v7.6a.73.73,0,0,1-.72.72.71.71,0,0,1-.54-.27l-.06-.07-4.18-5.81Z" style="fill:#263238"></path><path d="M331.4,112.88a4.83,4.83,0,0,1,7.8-3.69.74.74,0,0,1,.15,1,.76.76,0,0,1-1.06.12,3.39,3.39,0,0,0-2.06-.7,3.25,3.25,0,0,0-2.36,1,3.1,3.1,0,0,0,0,4.52,3.26,3.26,0,0,0,2.36,1,3.64,3.64,0,0,0,1.79-.5V113.8h-1.87a.76.76,0,0,1-.75-.75.74.74,0,0,1,.75-.73h2.6a.74.74,0,0,1,.76.73v2.89a1.24,1.24,0,0,1,0,.22.21.21,0,0,0,0,.07h0a.63.63,0,0,1-.25.32,4.82,4.82,0,0,1-7.79-3.68Z" style="fill:#263238"></path><path d="M285.93,129.5a.7.7,0,0,1,1-.09,4.25,4.25,0,0,0,2.49,1,2.9,2.9,0,0,0,1.64-.48,1.19,1.19,0,0,0,.56-.95.71.71,0,0,0-.12-.41,1.44,1.44,0,0,0-.39-.4,5.35,5.35,0,0,0-1.79-.61h0a6.88,6.88,0,0,1-1.68-.51,2.77,2.77,0,0,1-1.22-1,2,2,0,0,1-.3-1.07,2.41,2.41,0,0,1,1.05-1.91,3.88,3.88,0,0,1,2.26-.69,5.16,5.16,0,0,1,2.85,1,.67.67,0,0,1,.18.93.66.66,0,0,1-.93.2,3.77,3.77,0,0,0-2.1-.84,2.47,2.47,0,0,0-1.47.45,1,1,0,0,0-.49.82.62.62,0,0,0,.09.37,1.12,1.12,0,0,0,.35.33,4.42,4.42,0,0,0,1.63.58h0a7.46,7.46,0,0,1,1.8.55,3,3,0,0,1,1.31,1.08,2.11,2.11,0,0,1,.31,1.11,2.54,2.54,0,0,1-1.12,2,4.09,4.09,0,0,1-2.42.75,5.64,5.64,0,0,1-3.34-1.31A.7.7,0,0,1,285.93,129.5Z" style="fill:#263238"></path><path d="M294.54,127.07a4.79,4.79,0,0,1,4.79-4.7,4.89,4.89,0,0,1,3,1,.75.75,0,0,1-.91,1.19,3.29,3.29,0,0,0-2.11-.72,3.44,3.44,0,0,0-2.35.94,3.2,3.2,0,0,0,0,4.55,3.49,3.49,0,0,0,2.35.94,3.31,3.31,0,0,0,2.11-.72.79.79,0,0,1,1,.14.77.77,0,0,1-.13,1,4.89,4.89,0,0,1-3,1A4.78,4.78,0,0,1,294.54,127.07Z" style="fill:#263238"></path><path d="M305,131.06v-7.71a.71.71,0,0,1,.72-.72.72.72,0,0,1,.74.72v3.14h3.38v-3.14a.7.7,0,0,1,.72-.72.72.72,0,0,1,.73.72v7.71a.73.73,0,0,1-.73.72.71.71,0,0,1-.72-.72v-3.14h-3.38v3.14a.73.73,0,0,1-.74.72A.72.72,0,0,1,305,131.06Z" style="fill:#263238"></path><path d="M321.12,123.77a4.8,4.8,0,0,1,0,6.61,4.28,4.28,0,0,1-3.13,1.4,4.42,4.42,0,0,1-3.2-1.4,4.88,4.88,0,0,1,0-6.61,4.34,4.34,0,0,1,3.2-1.4A4.21,4.21,0,0,1,321.12,123.77Zm-.17,3.3a3.34,3.34,0,0,0-.89-2.28,2.81,2.81,0,0,0-4.18,0,3.37,3.37,0,0,0,0,4.56,2.79,2.79,0,0,0,4.18,0A3.32,3.32,0,0,0,321,127.07Z" style="fill:#263238"></path><path d="M332.1,123.77a4.8,4.8,0,0,1,0,6.61,4.27,4.27,0,0,1-3.12,1.4,4.38,4.38,0,0,1-3.2-1.4,4.85,4.85,0,0,1,0-6.61,4.31,4.31,0,0,1,3.2-1.4A4.2,4.2,0,0,1,332.1,123.77Zm-.17,3.3a3.34,3.34,0,0,0-.89-2.28,2.79,2.79,0,0,0-2.06-.93,2.84,2.84,0,0,0-2.12.93,3.37,3.37,0,0,0,0,4.56,2.85,2.85,0,0,0,2.12.94,2.8,2.8,0,0,0,2.06-.94A3.32,3.32,0,0,0,331.93,127.07Z" style="fill:#263238"></path><path d="M335.94,131.06v-7.71a.72.72,0,0,1,.72-.72.73.73,0,0,1,.73.72v7h3.54a.73.73,0,0,1,0,1.45h-4.27A.72.72,0,0,1,335.94,131.06Z" style="fill:#263238"></path><path d="M315.3,80.47a1.58,1.58,0,1,1-1.58-1.58A1.58,1.58,0,0,1,315.3,80.47Z" style="fill:#fff"></path><path d="M315.3,161a1.58,1.58,0,1,1-1.58-1.58A1.58,1.58,0,0,1,315.3,161Z" style="fill:#fff"></path></g><g id="freepik--character-1--inject-6"><path d="M476.22,300.6c0,.11,0,.24,0,.39-11.36.42-46.54,1.41-58.08,1.75.46-1.6,6.89-26.21,8.81-27.6s34.29-1.37,35.06-.75c2.54,2.05,6.64,19,6.64,19s.74.55,1.77,1.37l.53.43.57.46a42.17,42.17,0,0,1,3.48,3.13l.31.31a9.39,9.39,0,0,1,.67.87,2.53,2.53,0,0,1,.13.22,1.78,1.78,0,0,1,.09.23A.67.67,0,0,1,476.22,300.6Z" style="fill:#37474f"></path><path d="M421.47,254c6.78,7,2.62,13.85,5.53,16.07,7.6,5.78,2.9,8.48,5,10.65,1.69,1.79,7.89,2.82,6.28,9.86l-27.81,2.25c-1.2-4.5,3.19-7.32,3.22-10.58s-4.08-6.15,1.48-13.54C418.74,263.93,418.21,250.64,421.47,254Z" style="fill:#263238"></path><path d="M434.73,291.11c-8.62,12.7-30.1,27-35.1,28.53-5.91,1.86-29.94.64-40.58-2.24-2.75-.75-.55-24.3,4.26-23.73,6.35.75,29.29,4.85,32.37,4.07s23.33-9.65,34.26-14.58C441.42,278,438.15,286.06,434.73,291.11Z" style="fill:#eb9481"></path><path d="M434.73,291.11c-8.62,12.7-30.1,27-35.1,28.53-5.91,1.86-29.94.64-40.58-2.24-2.75-.75-.55-24.3,4.26-23.73,6.35.75,29.29,4.85,32.37,4.07s23.33-9.65,34.26-14.58C441.42,278,438.15,286.06,434.73,291.11Z" style="opacity:0.1"></path><path d="M363.47,316.84c2.81-1,3.69-19.83,1.38-21.85-.44-.38-1.09-.91-2.44-2.23h0a43.47,43.47,0,0,1-7.63-10.14c-2.28-4.53-5.13-11.51-7.62-10.38-3.62,1.64-1.07,10.91.72,16.14-2.95-.55-5.55-.74-7.1-.3-5.16,1.46-1.54,25.33,3.48,27.44C349.11,317.56,360.65,317.84,363.47,316.84Z" style="fill:#eb9481"></path><g style="opacity:0.1"><path d="M363.47,316.84c2.81-1,3.69-19.83,1.38-21.85-.44-.38-1.09-.91-2.44-2.23h0a43.47,43.47,0,0,1-7.63-10.14c-2.28-4.53-5.13-11.51-7.62-10.38-3.62,1.64-1.07,10.91.72,16.14-2.95-.55-5.55-.74-7.1-.3-5.16,1.46-1.54,25.33,3.48,27.44C349.11,317.56,360.65,317.84,363.47,316.84Z"></path></g><path d="M349.18,287.4c1.64,2.25-2,2.9-2,2.9s5.4.32,6.19,3.3-3.61,3.49-3.92,3.54c.28,0,5.23.44,5.72,3.52s-4,3.07-4.28,3.06c.26.1,3.73,1.52,3.57,3.94-.28,4.16-9.24.77-12.25,2.28,0,0,2,5.41,2,5.57,0,0-8.59-3.05-10.4-7.23a2.91,2.91,0,0,1,.9-3.53s-2.87-.68-3.33-3.08C331.19,300.43,333,299,333,299a3.64,3.64,0,0,1-2.55-2.81c-.23-1.73,1.58-2.94,1.58-2.94s-1.9-1.63-1.56-3.47C331.11,286,345.66,282.58,349.18,287.4Z" style="fill:#eb9481"></path><path d="M349.18,287.4c1.64,2.25-2,2.9-2,2.9s5.4.32,6.19,3.3-3.61,3.49-3.92,3.54c.28,0,5.23.44,5.72,3.52s-4,3.07-4.28,3.06c.26.1,3.73,1.52,3.57,3.94-.28,4.16-9.24.77-12.25,2.28,0,0,2,5.41,2,5.57,0,0-8.59-3.05-10.4-7.23a2.91,2.91,0,0,1,.9-3.53s-2.87-.68-3.33-3.08C331.19,300.43,333,299,333,299a3.64,3.64,0,0,1-2.55-2.81c-.23-1.73,1.58-2.94,1.58-2.94s-1.9-1.63-1.56-3.47C331.11,286,345.66,282.58,349.18,287.4Z" style="opacity:0.1"></path><path d="M332.25,293c-.05,0-.08-.05,0-.07a25.88,25.88,0,0,1,15.19-2.67c.17,0,.2.31,0,.31A53.16,53.16,0,0,0,332.25,293Z" style="fill:#263238"></path><path d="M332.88,298.94c-.05,0-.08-.07,0-.1A24.32,24.32,0,0,1,349.61,297c.2,0,.32.3.09.25C345.83,296.45,337.47,297.43,332.88,298.94Z" style="fill:#263238"></path><path d="M351.29,304c-5.52-1.31-10.9-.72-16.34.68-.07,0-.09-.08,0-.11,2.47-1.41,6-1.94,8.84-2.12a15,15,0,0,1,7.58,1.36C351.43,303.82,351.41,304,351.29,304Z" style="fill:#263238"></path><path d="M347.29,290.23c.2,0-.07.29.13.32.83.16,5.73,1.53,5.79,3.35,0,1.46-1.9,2.52-2.8,2.63l-2.26.3,2.23.51a9.39,9.39,0,0,1,2.81,1.12,3.37,3.37,0,0,1,1.68,2.16,1.89,1.89,0,0,1-1,2.16,5.7,5.7,0,0,1-2.86.49l-2.7-.14,2.5,1a8.56,8.56,0,0,1,2,1.1,3.5,3.5,0,0,1,1.31,1.62,1.71,1.71,0,0,1-.38,1.78,3.81,3.81,0,0,1-2,.77,30.44,30.44,0,0,1-4.69.11c-.79,0-1.59,0-2.38,0a5.82,5.82,0,0,0-2.34.43,6.29,6.29,0,0,1,2.33-.21c.79,0,1.58.12,2.37.19a25.56,25.56,0,0,0,4.8.14,4.6,4.6,0,0,0,2.41-.85,2.45,2.45,0,0,0,.66-2.6,4.41,4.41,0,0,0-1.57-2.06,9.29,9.29,0,0,0-2.16-1.25l-.2.87a6.65,6.65,0,0,0,3.38-.54,2.73,2.73,0,0,0,1.31-1.33,3.1,3.1,0,0,0,.19-1.84,4.19,4.19,0,0,0-2.13-2.73,10,10,0,0,0-3.11-1.19l0,.8c1.14-.18,3.42-1.13,3.65-3.4C354,291,348.33,290.28,347.29,290.23Z" style="fill:#263238"></path><path d="M347.22,290.3a5.7,5.7,0,0,0,1.48-.86,1.29,1.29,0,0,0,.5-1.21,2.61,2.61,0,0,0-.81-1.26c-.41-.39-.86-.78-1.33-1.16a4.52,4.52,0,0,1,1.71.68,2.63,2.63,0,0,1,1.2,1.6,1.89,1.89,0,0,1-.18,1.1,1.86,1.86,0,0,1-.73.74A3,3,0,0,1,347.22,290.3Z" style="fill:#263238"></path><path d="M415.42,288.8l7.43,19s9.76-10.79,14.39-18.75,3.15-12-9.25-6.25C420.79,286.17,415.42,288.8,415.42,288.8Z" style="fill:#455a64"></path><path d="M425.52,303.53a104,104,0,0,0-6-14.84.08.08,0,1,0-.15.05c.42,1.29,4.7,12.56,6,14.84C425.45,303.64,425.54,303.59,425.52,303.53Z" style="fill:#263238"></path><path d="M437.24,289.06c-4.64,8-14.39,18.75-14.39,18.75l-5.67-14.49,21-13C440.56,281.12,439.93,284.44,437.24,289.06Z" style="opacity:0.1"></path><path d="M461.07,311.42l-7.71.3-3.63.14c-11.37.44-21.4.88-30.79,1.17a12.77,12.77,0,0,1-.9-9.91c1.33-4.51,7.23-13,10.93-17.21,9-10.33,16.5-5.4,18.87-2.63C452.44,288.65,457.36,300.8,461.07,311.42Z" style="fill:#455a64"></path><path d="M442.8,281.38c-.09,1-4,8.21-8.64,8.62-1.51.13-2.58-8.06-2.58-8.06l-.22-.59-3.05-8.21,9.09-7.73,1.32-1s.69,2.3,1.51,5.18c0,.13.08.26.12.41s.1.31.14.46c.13.43.26.87.38,1.31s.18.65.27,1,.17.69.27,1.05A55.21,55.21,0,0,1,442.8,281.38Z" style="fill:#eb9481"></path><path d="M440.23,269.55a17.56,17.56,0,0,1-8.87,11.8l-3.05-8.21,9.09-7.73,1.32-1S439.41,266.67,440.23,269.55Z" style="fill:#263238"></path><path d="M416.09,250.53s-3.33,2.08-3.69,4.78c-.59,4.39,2,10.81,2,10.81Z" style="fill:#263238"></path><path d="M414.07,262.76c.58,15.36,9.85,16.75,13.16,16.62,3-.12,13.24-.9,14.25-16.23s-6.33-19.93-13.22-20S413.48,247.4,414.07,262.76Z" style="fill:#eb9481"></path><path d="M416.81,260.31c.36-.08.67-.21,1-.32a1.77,1.77,0,0,0,1-.54.55.55,0,0,0-.08-.66,1.35,1.35,0,0,0-1.36-.17,2,2,0,0,0-1.17.83A.58.58,0,0,0,416.81,260.31Z" style="fill:#263238"></path><path d="M427,259.47c-.36,0-.7-.07-1.06-.11a1.75,1.75,0,0,1-1-.31.54.54,0,0,1-.07-.67,1.36,1.36,0,0,1,1.29-.46,2,2,0,0,1,1.32.57A.59.59,0,0,1,427,259.47Z" style="fill:#263238"></path><path d="M425.2,263.48s.08,0,.08.09c.06,1,.3,2.23,1.27,2.5,0,0,0,.06,0,.06C425.38,266.06,425.08,264.48,425.2,263.48Z" style="fill:#263238"></path><path d="M426,262.32c1.67-.27,2.09,3.08.54,3.33S424.64,262.54,426,262.32Z" style="fill:#263238"></path><path d="M426.72,262.41a2.44,2.44,0,0,0,1,.45c.41,0,.68-.4.9-.77,0,0,.06,0,.06,0,.09.64-.07,1.33-.75,1.51s-1.14-.35-1.38-1C426.51,262.54,426.59,262.35,426.72,262.41Z" style="fill:#263238"></path><path d="M419.07,263.91s-.08.06-.07.1c.08,1,0,2.25-.93,2.64,0,0,0,.07,0,.06C419.23,266.49,419.32,264.89,419.07,263.91Z" style="fill:#263238"></path><path d="M418.09,262.86c-1.69,0-1.66,3.34-.1,3.38S419.5,262.9,418.09,262.86Z" style="fill:#263238"></path><path d="M417.42,263.05c-.29.19-.58.53-.93.57s-.73-.31-1-.64c0,0-.06,0-.06,0,0,.64.25,1.31.95,1.4s1.08-.5,1.24-1.15C417.65,263.15,417.54,263,417.42,263.05Z" style="fill:#263238"></path><path d="M426.29,271.6c-.21.29-.4.66-.77.76a2.8,2.8,0,0,1-1.15-.07,0,0,0,0,0,0,.06,1.4,1.4,0,0,0,1.41.33,1.13,1.13,0,0,0,.66-1.05C426.4,271.57,426.32,271.56,426.29,271.6Z" style="fill:#263238"></path><path d="M421.51,268.33a22.65,22.65,0,0,0,.05,2.31c0,.07.19.08.44.07,0,0,0,0,0,0a3.51,3.51,0,0,0,3.23-1.68c.05-.08-.06-.14-.12-.09a5.26,5.26,0,0,1-3.08,1.27c-.07-.2.16-2.7,0-2.7a6.52,6.52,0,0,0-1.62.56c0-3.28.51-6.55.45-9.82,0-.12-.18-.13-.2,0a53.78,53.78,0,0,0-.93,10.56C419.79,269.21,421.24,268.49,421.51,268.33Z" style="fill:#263238"></path><path d="M442.09,262.65c-1.73.35-5.79,1.14-8.63-.66-1.57-1-3.07-2.84-4.28-6.32-2.12-6.09-6.88-9.65-13.09-5.14,0,0-2.14-5.62,1.48-8.42s8.09.57,8.09.57,8.56-2,14,4S442.09,262.65,442.09,262.65Z" style="fill:#263238"></path><path d="M417.21,269.35c-1.77.13-3.37-1.94-3.56-4.62s1.09-5,2.86-5.09,3.36,1.95,3.56,4.62S419,269.22,417.21,269.35Zm-.66-9.06c-1.41.11-2.42,2.07-2.25,4.39s1.45,4.12,2.86,4,2.43-2.07,2.26-4.39S418,260.19,416.55,260.29Z" style="fill:#37474f"></path><path d="M428.09,268.56a4.88,4.88,0,1,1,4.18-5.18A4.71,4.71,0,0,1,428.09,268.56Zm-.66-9.05a4.22,4.22,0,1,0,4.19,3.92A4.05,4.05,0,0,0,427.43,259.51Z" style="fill:#37474f"></path><path d="M423.39,263.58c-2.49-.67-3.53.2-3.54.21l-.44-.48c0-.05,1.28-1.14,4.15-.36Z" style="fill:#37474f"></path><path d="M431.93,263l-.07-.65c.42,0,7-1,8.13-1s3.67,1.71,4,1.9l-.37.54A12.25,12.25,0,0,0,440,262h0C439.14,261.94,435.53,262.58,431.93,263Z" style="fill:#37474f"></path><path d="M442.16,293.91c-10.75,13.93-28.5,28.26-33.82,28.79-8.29.82-29.56-.36-43.2-5.3-2.84-1,7.75-27.66,10.38-25.79,5.23,3.7,29.28,7.53,29.54,7.82.56.62,18.61-7.53,29.21-13.57C446.58,278.84,448,286.38,442.16,293.91Z" style="fill:#eb9481"></path><path d="M342.56,284.17a4,4,0,0,0,.07,4.63,6.1,6.1,0,0,0-3.05,2.74c-1.06,2.24,2,4.9,2,4.9a7.36,7.36,0,0,0-2.75,3.4c-.81,2.25,1.88,5.37,1.88,5.37a6.5,6.5,0,0,0-.54,4.51c1.15,4,7.29,5.8,11.18,7s16,.83,18.34,1l7.69-24.92s-16-10.19-20.73-10.91C352.61,281.25,344.42,281.6,342.56,284.17Z" style="fill:#eb9481"></path><path d="M342.93,288.46c4.42-.38,8.72.57,13.07,1.27.09,0,.07.17,0,.15-4.31-.75-8.72-.64-13.05-1.21A.11.11,0,0,1,342.93,288.46Z" style="fill:#263238"></path><path d="M341.74,296.14a11.39,11.39,0,0,1,3,.43c1.05.22,2.09.46,3.14.72,2.08.52,4.16,1.09,6.21,1.71.09,0,.07.18,0,.15-2.08-.51-4.17-1-6.27-1.42l-3.16-.61a13.47,13.47,0,0,1-2.95-.69A.15.15,0,0,1,341.74,296.14Z" style="fill:#263238"></path><path d="M340.78,305.22a8.34,8.34,0,0,1,2.68.53l2.84.76c1.89.49,3.79,1,5.7,1.4.1,0,.07.17,0,.15-2-.42-3.9-.81-5.84-1.25l-2.86-.66a7.69,7.69,0,0,1-2.53-.83A.06.06,0,0,1,340.78,305.22Z" style="fill:#263238"></path><path d="M422.24,290.85l7.44,19s9.75-10.78,14.38-18.75,3.16-12-9.25-6.24C427.61,288.21,422.24,290.85,422.24,290.85Z" style="fill:#455a64"></path><path d="M432.35,305.58a104.85,104.85,0,0,0-6-14.85.08.08,0,0,0-.15.06c.42,1.29,4.71,12.56,6,14.84A.06.06,0,0,0,432.35,305.58Z" style="fill:#263238"></path><path d="M429,308.06a9,9,0,0,1,.72,1.75c1.22-1.72,2.59-3.27,3.93-4.9s2.86-3.56,4.29-5.34c.8-1,1.55-2,2.36-3,.05-.06.13,0,.09.08-.79,1.29-1.66,2.54-2.57,3.77.6-.62,1.2-1.24,1.82-1.84a.05.05,0,0,1,.08.07,26.11,26.11,0,0,1-2.57,2.69l-.69.92c-1.39,1.81-2.78,3.62-4.3,5.33-.85,1-2.5,3-2.45,2.92a15.18,15.18,0,0,1-.74-2.39S429,308.06,429,308.06Z" style="fill:#263238"></path><path d="M425.66,242.68c7.27-1.33,13.52-.46,16.88,2.81,7,6.83,4.92,20.06,7.89,22.18,7.78,5.55,3.17,8.39,5.29,10.5,1.75,1.73,8,2.57,6.59,9.66l-27.73,3.11c-1.35-4.46,3-7.42,2.88-10.67s-4.26-6,1.07-13.59C442,261.77,425.66,242.68,425.66,242.68Z" style="fill:#263238"></path><path d="M437.34,263.6s2.73-5.17,5-4.25.67,8.13-1.75,9.39a2.6,2.6,0,0,1-3.63-1Z" style="fill:#eb9481"></path><path d="M441.86,261.4s.06.05,0,.07c-1.69.94-2.42,2.7-2.86,4.5a1.43,1.43,0,0,1,2.08-.66s0,.11,0,.1a1.62,1.62,0,0,0-1.68.77,7.6,7.6,0,0,0-.66,1.52c-.06.17-.36.12-.32-.07v0C438.09,265.33,439.45,261.93,441.86,261.4Z" style="fill:#263238"></path><path d="M325.24,274.84c-14.5,0-24.6,11-22.56,24.64s15.44,24.62,29.94,24.62,24.62-11,22.58-24.62S339.74,274.84,325.24,274.84ZM331.71,318c-10.91,0-21-8.29-22.53-18.52s6.07-18.53,17-18.53,21,8.3,22.53,18.53S342.62,318,331.71,318Z" style="fill:#263238"></path><polygon points="306.01 294.11 348.51 294.11 349.66 301.77 337.43 305.42 334.76 319.5 326.63 319.5 320.66 306.05 307.24 302.28 306.01 294.11" style="fill:#263238"></polygon><path d="M207,414.72l123.47.82s-6.6-76.37-66-71.24S207,414.72,207,414.72Z" style="fill:#F448FF"></path><path d="M207,414.72l123.47.82s-6.6-76.37-66-71.24S207,414.72,207,414.72Z" style="opacity:0.5"></path><path d="M534.56,414.64l123.12-9.3s-12.84-75.58-71.62-65.59S534.56,414.64,534.56,414.64Z" style="fill:#F448FF"></path><path d="M534.56,414.64l123.12-9.3s-12.84-75.58-71.62-65.59S534.56,414.64,534.56,414.64Z" style="opacity:0.5"></path><path d="M217,408c.63,20.77,13.65,46.25,33.83,46.25,2,0,29,.48,30.78-.06,16.26-4.92,25.9-32,24.07-55.8-1.42-18.57-7.89-39.36-24.91-41.85-1.13-.17-29.56,0-30.79,0C229.64,356.53,216.35,385.65,217,408Z" style="fill:#263238"></path><path d="M243.89,408c.81,20.77,12.58,46.25,38.79,46.25s38.21-29.44,35.58-55.86c-2-19.8-11.09-41.85-36.68-41.85C255.11,356.53,243,385.65,243.89,408Z" style="fill:#37474f"></path><path d="M254.8,407.39c.67,16,9.44,35.61,28.82,35.61s28.15-22.66,26.12-43c-1.52-15.25-8.32-32.23-27.24-32.23C262.94,367.76,254.08,390.19,254.8,407.39Z" style="fill:#c7c7c7"></path><path d="M288.7,371.22c-.4,6.5-1.79,27.2-3.81,27.2-1.69,0-6.66-19.54-8.41-26.61a19.89,19.89,0,0,1,6.85-1.18A23.38,23.38,0,0,1,288.7,371.22Z" style="fill:#263238"></path><path d="M281.26,399.66c-1.07.56-10.56-8.78-17.46-15.78a28.39,28.39,0,0,1,6.22-8.15C274.49,383.74,282.71,398.9,281.26,399.66Z" style="fill:#263238"></path><path d="M279.47,402.06c-.49.85-10.7-2.42-19.89-5.57a47.77,47.77,0,0,1,2.08-7.74C270.08,394.22,280.06,401,279.47,402.06Z" style="fill:#263238"></path><path d="M278.51,405c.09,1-10.23,2.36-19.61,3.4,0-.38,0-.76-.07-1.14a48.1,48.1,0,0,1,.17-6.43C268.38,402.17,278.4,403.89,278.51,405Z" style="fill:#263238"></path><path d="M261.82,421.94a47.64,47.64,0,0,1-2.37-8.85c9-2.93,19.49-6.09,20.27-5.07S269.67,416.62,261.82,421.94Z" style="fill:#263238"></path><path d="M273,436.82a26.16,26.16,0,0,1-8.3-8.92c5.78-6.92,15.66-18.39,17.19-17.66S275.48,430.73,273,436.82Z" style="fill:#263238"></path><path d="M293.19,438.12a18.54,18.54,0,0,1-8.61,2,21.46,21.46,0,0,1-3.55-.28c.31-5.43,1.73-28,3.84-28C286.53,411.9,291.37,430.75,293.19,438.12Z" style="fill:#263238"></path><path d="M304.37,425a30.26,30.26,0,0,1-5.26,8.54c-4.48-8.06-11.7-21.49-10.33-22.21C289.78,410.78,297.79,418.44,304.37,425Z" style="fill:#263238"></path><path d="M307.47,413.09a48.12,48.12,0,0,1-1.44,7.09c-7.35-4.87-14.9-10.19-14.37-11.14C292.08,408.31,299.66,410.54,307.47,413.09Z" style="fill:#263238"></path><path d="M307.83,402.61a55.55,55.55,0,0,1,0,6.58c-7.79-1.15-15.05-2.47-15.14-3.43S300,403.68,307.83,402.61Z" style="fill:#263238"></path><path d="M307.43,398.43c-7.54,2.52-15.09,4.76-15.76,3.88s7.18-6.93,14.1-12A52.8,52.8,0,0,1,307.43,398.43Z" style="fill:#263238"></path><path d="M303.6,384.4s0,0,0,0c-5.58,6.77-13.42,15.87-14.79,15.21s4.79-17.66,7.5-24.78A25.2,25.2,0,0,1,303.6,384.4Z" style="fill:#263238"></path><path d="M530,405c.62,20.77,13.65,46.25,33.83,46.25,2,0,29,.48,30.77-.06,16.27-4.92,25.91-32,24.08-55.8-1.42-18.57-7.9-39.36-24.91-41.85-1.13-.17-29.56,0-30.79,0C542.64,353.53,529.36,382.65,530,405Z" style="fill:#263238"></path><path d="M556.9,405c.81,20.77,12.58,46.25,38.79,46.25s38.21-29.44,35.58-55.86c-2-19.8-11.09-41.85-36.69-41.85C568.12,353.53,556,382.65,556.9,405Z" style="fill:#37474f"></path><path d="M567.81,404.39c.67,16,9.44,35.61,28.82,35.61s28.15-22.66,26.12-43c-1.52-15.25-8.32-32.23-27.24-32.23C576,364.76,567.09,387.19,567.81,404.39Z" style="fill:#c7c7c7"></path><path d="M601.71,368.22c-.4,6.5-1.79,27.2-3.81,27.2-1.69,0-6.66-19.54-8.42-26.61a20,20,0,0,1,6.86-1.18A23.44,23.44,0,0,1,601.71,368.22Z" style="fill:#263238"></path><path d="M594.27,396.66c-1.07.56-10.56-8.78-17.46-15.78a28.39,28.39,0,0,1,6.22-8.15C587.5,380.74,595.72,395.9,594.27,396.66Z" style="fill:#263238"></path><path d="M592.48,399.06c-.49.85-10.7-2.42-19.89-5.57a47.77,47.77,0,0,1,2.08-7.74C583.09,391.22,593.07,398,592.48,399.06Z" style="fill:#263238"></path><path d="M591.52,402c.09,1-10.23,2.36-19.61,3.4,0-.38,0-.76-.07-1.14a46.48,46.48,0,0,1,.17-6.43C581.39,399.17,591.41,400.89,591.52,402Z" style="fill:#263238"></path><path d="M574.83,418.94a47.64,47.64,0,0,1-2.37-8.85c9-2.93,19.49-6.09,20.27-5.07S582.68,413.62,574.83,418.94Z" style="fill:#263238"></path><path d="M586,433.82a26.28,26.28,0,0,1-8.31-8.92c5.79-6.92,15.67-18.39,17.2-17.66S588.49,427.73,586,433.82Z" style="fill:#263238"></path><path d="M606.2,435.12a18.54,18.54,0,0,1-8.61,2,21.46,21.46,0,0,1-3.55-.28c.31-5.43,1.73-28,3.84-28C599.54,408.9,604.38,427.75,606.2,435.12Z" style="fill:#263238"></path><path d="M617.38,422a30.26,30.26,0,0,1-5.26,8.54c-4.48-8.06-11.7-21.49-10.33-22.21C602.78,407.78,610.8,415.44,617.38,422Z" style="fill:#263238"></path><path d="M620.48,410.09a48.12,48.12,0,0,1-1.44,7.09c-7.36-4.87-14.9-10.19-14.37-11.14C605.08,405.31,612.67,407.54,620.48,410.09Z" style="fill:#263238"></path><path d="M620.84,399.61a57.77,57.77,0,0,1,0,6.58c-7.8-1.15-15.05-2.47-15.14-3.43S613,400.68,620.84,399.61Z" style="fill:#263238"></path><path d="M620.44,395.43c-7.54,2.52-15.09,4.76-15.76,3.88s7.18-6.93,14.1-12A52.8,52.8,0,0,1,620.44,395.43Z" style="fill:#263238"></path><path d="M616.61,381.4s0,0,0,0c-5.58,6.77-13.42,15.87-14.79,15.21s4.79-17.66,7.5-24.78A25.2,25.2,0,0,1,616.61,381.4Z" style="fill:#263238"></path><path d="M83.24,408c.63,20.77,13.66,46.25,33.84,46.25,2,0,29,.48,30.77-.06,16.27-4.92,25.91-32,24.08-55.8C170.5,379.81,164,359,147,356.53c-1.13-.17-29.56,0-30.79,0C95.85,356.53,82.57,385.65,83.24,408Z" style="fill:#263238"></path><path d="M110.1,408c.82,20.77,12.58,46.25,38.8,46.25s38.21-29.44,35.58-55.86c-2-19.8-11.09-41.85-36.69-41.85C121.33,356.53,109.23,385.65,110.1,408Z" style="fill:#37474f"></path><path d="M121,407.39c.67,16,9.44,35.61,28.82,35.61S178,420.34,176,400c-1.52-15.25-8.32-32.23-27.24-32.23C129.16,367.76,120.3,390.19,121,407.39Z" style="fill:#c7c7c7"></path><path d="M154.92,371.22c-.4,6.5-1.8,27.2-3.81,27.2-1.69,0-6.67-19.54-8.42-26.61a20,20,0,0,1,6.86-1.18A23.44,23.44,0,0,1,154.92,371.22Z" style="fill:#263238"></path><path d="M147.48,399.66c-1.07.56-10.56-8.78-17.46-15.78a28.39,28.39,0,0,1,6.22-8.15C140.71,383.74,148.93,398.9,147.48,399.66Z" style="fill:#263238"></path><path d="M145.68,402.06c-.48.85-10.69-2.42-19.88-5.57a46.77,46.77,0,0,1,2.08-7.74C136.29,394.22,146.27,401,145.68,402.06Z" style="fill:#263238"></path><path d="M144.72,405c.1,1-10.22,2.36-19.6,3.4,0-.38-.06-.76-.07-1.14a46.45,46.45,0,0,1,.16-6.43C134.6,402.17,144.62,403.89,144.72,405Z" style="fill:#263238"></path><path d="M128,421.94a47.64,47.64,0,0,1-2.37-8.85c9-2.93,19.48-6.09,20.27-5.07S135.89,416.62,128,421.94Z" style="fill:#263238"></path><path d="M139.19,436.82a26.18,26.18,0,0,1-8.31-8.92c5.78-6.92,15.67-18.39,17.2-17.66S141.7,430.73,139.19,436.82Z" style="fill:#263238"></path><path d="M159.41,438.12a18.57,18.57,0,0,1-8.61,2,21.46,21.46,0,0,1-3.55-.28c.31-5.43,1.72-28,3.84-28C152.75,411.9,157.58,430.75,159.41,438.12Z" style="fill:#263238"></path><path d="M170.59,425a30.26,30.26,0,0,1-5.26,8.54c-4.49-8.06-11.7-21.49-10.33-22.21C156,410.78,164,418.44,170.59,425Z" style="fill:#263238"></path><path d="M173.69,413.09a48.12,48.12,0,0,1-1.44,7.09c-7.36-4.87-14.9-10.19-14.37-11.14C158.29,408.31,165.87,410.54,173.69,413.09Z" style="fill:#263238"></path><path d="M174,402.61a53.5,53.5,0,0,1,0,6.58c-7.79-1.15-15-2.47-15.13-3.43S166.24,403.68,174,402.61Z" style="fill:#263238"></path><path d="M173.65,398.43c-7.54,2.52-15.09,4.76-15.76,3.88s7.18-6.93,14.1-12A54,54,0,0,1,173.65,398.43Z" style="fill:#263238"></path><path d="M169.82,384.4s0,0,0,0c-5.58,6.77-13.42,15.87-14.79,15.21s4.79-17.66,7.5-24.78A25.2,25.2,0,0,1,169.82,384.4Z" style="fill:#263238"></path><path d="M393.52,408c.63,20.77,13.65,46.25,33.83,46.25,2,0,29,.48,30.78-.06,16.26-4.92,25.9-32,24.07-55.8-1.42-18.57-7.89-39.36-24.91-41.85-1.13-.17-29.56,0-30.79,0C406.13,356.53,392.84,385.65,393.52,408Z" style="fill:#263238"></path><path d="M420.38,408c.82,20.77,12.58,46.25,38.79,46.25s38.21-29.44,35.58-55.86c-2-19.8-11.08-41.85-36.68-41.85C431.6,356.53,419.5,385.65,420.38,408Z" style="fill:#37474f"></path><path d="M431.29,407.39c.67,16,9.44,35.61,28.82,35.61s28.15-22.66,26.13-43c-1.52-15.25-8.33-32.23-27.25-32.23C439.43,367.76,430.58,390.19,431.29,407.39Z" style="fill:#c7c7c7"></path><path d="M465.19,371.22c-.4,6.5-1.79,27.2-3.8,27.2-1.7,0-6.67-19.54-8.42-26.61a19.89,19.89,0,0,1,6.85-1.18A23.38,23.38,0,0,1,465.19,371.22Z" style="fill:#263238"></path><path d="M457.76,399.66c-1.07.56-10.57-8.78-17.46-15.78a28.18,28.18,0,0,1,6.21-8.15C451,383.74,459.2,398.9,457.76,399.66Z" style="fill:#263238"></path><path d="M456,402.06c-.48.85-10.69-2.42-19.89-5.57a47.77,47.77,0,0,1,2.08-7.74C446.57,394.22,456.55,401,456,402.06Z" style="fill:#263238"></path><path d="M455,405c.1,1-10.23,2.36-19.61,3.4,0-.38-.05-.76-.07-1.14a48.1,48.1,0,0,1,.17-6.43C444.87,402.17,454.89,403.89,455,405Z" style="fill:#263238"></path><path d="M438.31,421.94a47.64,47.64,0,0,1-2.37-8.85c9-2.93,19.49-6.09,20.27-5.07S446.16,416.62,438.31,421.94Z" style="fill:#263238"></path><path d="M449.46,436.82a26.16,26.16,0,0,1-8.3-8.92c5.78-6.92,15.67-18.39,17.2-17.66S452,430.73,449.46,436.82Z" style="fill:#263238"></path><path d="M469.69,438.12a18.61,18.61,0,0,1-8.62,2,21.54,21.54,0,0,1-3.55-.28c.31-5.43,1.73-28,3.84-28C463,411.9,467.86,430.75,469.69,438.12Z" style="fill:#263238"></path><path d="M480.86,425a30.24,30.24,0,0,1-5.25,8.54c-4.49-8.06-11.71-21.49-10.34-22.21C466.27,410.78,474.29,418.44,480.86,425Z" style="fill:#263238"></path><path d="M484,413.09a49.46,49.46,0,0,1-1.45,7.09c-7.35-4.87-14.9-10.19-14.37-11.14C468.57,408.31,476.15,410.54,484,413.09Z" style="fill:#263238"></path><path d="M484.32,402.61a55.55,55.55,0,0,1,0,6.58c-7.79-1.15-15-2.47-15.14-3.43S476.51,403.68,484.32,402.61Z" style="fill:#263238"></path><path d="M483.93,398.43c-7.54,2.52-15.1,4.76-15.77,3.88s7.18-6.93,14.1-12A52.83,52.83,0,0,1,483.93,398.43Z" style="fill:#263238"></path><path d="M480.09,384.4h0c-5.59,6.77-13.42,15.87-14.8,15.21s4.79-17.66,7.51-24.78A25.27,25.27,0,0,1,480.09,384.4Z" style="fill:#263238"></path><path d="M692.94,356.14c0-6-8.12-20.2-8.12-20.2s-7-30.26-11.14-34c-4.9-4.38-44.81-18.05-44.81-18.05s-46.4-39.24-70.4-44.33c-42.3-9-157.79-7.09-198.25-5.18-7.14.34-17,.94-21.65,2.85-5.87,2.43-145.43,61.56-146.42,61.56s-85.61,18.58-98,25.14c-11.47,6.09-30.28,36.13-31.66,36.94s-4.67,1-5.25,6.23.15,10.6,1.31,11.72,4.9,2.29,5.28,2.72.88,13,.68,13.46-1.69.82-1.85,1.93-.48,4.59.28,5.84c0,0,12.46,11.39,16.33,12.45s146.57,4.27,148.69,3.57,1.77-68.47,47.55-68.47c54.57,0,44.22,71.2,45.74,71.17s219.61-2,220.77-3.07-7.83-70.48,51.61-68.6c42.91,1.36,40.66,60.25,42.91,60.32S679.8,405,683.47,404s9-11.61,9.39-12.53-.78-3.35-.78-3.35S692.94,363.34,692.94,356.14ZM287.28,299.53c-1.59.62-60.23-1.84-77.21-2.25-.64,0,127.59-54.95,127.59-54.95l52.57-.43C347.39,260.06,289.15,298.79,287.28,299.53Zm307.29-8.77c-1.17,3.66-57.27,7.05-120.36,9.36-11.2.42-22.62.79-34,1.13C368.54,303.4,310.75,304,309.9,302c-1.28-3,81.07-59.77,100-62.06s57.22-1.86,90.6-1c33.11.84,43.16,1.77,56.94,8.19C569.5,252.79,596.72,284.08,594.57,290.76Z" style="fill:#F448FF"></path><path d="M692.94,356.14c0-6-8.12-20.2-8.12-20.2s-7-30.26-11.14-34c-4.9-4.38-44.81-18.05-44.81-18.05s-46.4-39.24-70.4-44.33c-42.3-9-157.79-7.09-198.25-5.18-7.14.34-17,.94-21.65,2.85-5.87,2.43-145.43,61.56-146.42,61.56s-85.61,18.58-98,25.14c-11.47,6.09-30.28,36.13-31.66,36.94s-4.67,1-5.25,6.23.15,10.6,1.31,11.72,4.9,2.29,5.28,2.72.88,13,.68,13.46-1.69.82-1.85,1.93-.48,4.59.28,5.84c0,0,12.46,11.39,16.33,12.45s146.57,4.27,148.69,3.57,1.77-68.47,47.55-68.47c54.57,0,44.22,71.2,45.74,71.17s219.61-2,220.77-3.07-7.83-70.48,51.61-68.6c42.91,1.36,40.66,60.25,42.91,60.32S679.8,405,683.47,404s9-11.61,9.39-12.53-.78-3.35-.78-3.35S692.94,363.34,692.94,356.14ZM287.28,299.53c-1.59.62-60.23-1.84-77.21-2.25-.64,0,127.59-54.95,127.59-54.95l52.57-.43C347.39,260.06,289.15,298.79,287.28,299.53Zm307.29-8.77c-1.17,3.66-57.27,7.05-120.36,9.36-11.2.42-22.62.79-34,1.13C368.54,303.4,310.75,304,309.9,302c-1.28-3,81.07-59.77,100-62.06s57.22-1.86,90.6-1c33.11.84,43.16,1.77,56.94,8.19C569.5,252.79,596.72,284.08,594.57,290.76Z" style="opacity:0.2"></path><path d="M64.54,395s114.07,4.48,166.77,4.58c-2.15,10.71-2.59,19-3.32,19.21-2.12.7-144.81-2.5-148.69-3.57S63,402.8,63,402.8c-.71-1.12-.65-3.37-.28-5.84.16-1.09,1.79-1.83,1.79-1.83Z" style="fill:#37474f"></path><path d="M543,397.25c-1.45,11.58-.56,20.81-1,21.2-1.16,1.09-219.26,3-220.77,3.07-.56,0,.5-9.73-.71-22,62.78-.16,141.64-.58,204.64-1.71C530.8,397.71,536.78,397.52,543,397.25Z" style="fill:#37474f"></path><path d="M692.86,391.5c-.39.92-5.72,11.55-9.39,12.53s-44.64,6.22-46.9,6.14c-.86,0-1.06-8.71-3.41-19.49,33.27-3.08,58.92-6,58.92-6S693.24,390.59,692.86,391.5Z" style="fill:#37474f"></path><path d="M63.79,381.57s126.21,2.47,155,2.66c-.31,1-.62,2-.91,3.07-31.67-.09-153.77-2.81-153.77-2.81h0A1.89,1.89,0,0,1,63.79,381.57Z" style="fill:#263238"></path><path d="M317.75,383.88c78.05-.46,189.89-1.29,228.67-2.14-.36,1.07-.68,2.14-1,3.21-42.35,1-150.48,1.62-226.9,2C318.3,385.92,318,384.9,317.75,383.88Z" style="fill:#263238"></path><path d="M677.85,375.84c-1.28.12-21.52,2.09-47.65,4.18-.38-1.09-.79-2.18-1.23-3.26,26.34-2.12,47.85-4.17,48.88-4.42C679.84,371.85,680.29,375.62,677.85,375.84Z" style="fill:#263238"></path><g style="opacity:0.1"><path d="M395.38,252.15l-2.41.95Z" style="fill:#fff"></path></g><path d="M314.11,374a63.45,63.45,0,0,1,3.23,8.49c45-1.41,228.35-6.87,228-8.85S350,373.45,314.11,374Z" style="fill:#fff;opacity:0.30000000000000004"></path><path d="M675.82,305.47c3.46,1,10.18,10.36,10.51,12.19s.79,13.87-.62,15.45-6.25,5.3-9.9,4.92-26.64-11.28-28-13-1.26-10.67,1-13.23S671.41,304.24,675.82,305.47Z" style="fill:#fff"></path><path d="M647.79,325.08c1.38,1.68,24.39,12.57,28,12.95,2.78.29,6.26-1.82,8.37-3.53-2.89,1.3-5.48,1.68-7.4,1.2s-24-9.91-25.83-12.16-.87-9.61-.39-10.89,18.83-7,18.83-7c-8.28.75-19,4.43-20.56,6.16C646.54,314.4,646.41,323.39,647.79,325.08Z" style="fill:#ebebeb"></path><path d="M230.93,351c-5.43,7.3-12.52,14-21.71,15.4-10.81,1.69-44.11-.15-46-1.24s6.19-17.47,13.17-22.9,39-5.6,44.23-5.77C227.25,336.32,232.83,348.5,230.93,351Z" style="fill:#fff"></path><path d="M64.88,356.25c4.23,6.64,5,6.14,12.46,7.1,4,.51,11.49.67,13-.34s-1.17-21.12-4-24c-.84-.86-6.5-3.21-8.84-3C72.25,336.48,63.4,353.94,64.88,356.25Z" style="fill:#fff"></path><path d="M99.5,363.88c3.54,1,49.55.7,50.73.65s9.54-22.22,8-22.16-62.51-.85-63.37-.31S98.48,363.58,99.5,363.88Z" style="fill:#263238"></path><path d="M157.34,347.12c-.21.65-.43,1.34-.7,2.06l-61-.36c-.14-.72-.26-1.41-.37-2.06ZM96.4,352.6c.15.69.3,1.38.44,2l57.66.32c.27-.68.53-1.38.8-2.05Zm1.32,5.81c.18.75.36,1.43.53,2.06l53.84.31c.28-.63.58-1.33.89-2.06Z" style="opacity:0.2"></path><g style="opacity:0.1"><path d="M229.36,411.36c-.89,5.47-.9,7.3-1.37,7.46-2.13.7-144.82-2.48-148.7-3.56S63,402.8,63,402.8s23.93,6.64,41.17,7.3C106.64,410.19,219.9,411.46,229.36,411.36Z"></path><path d="M542.54,402.11c-.74,9.24-.14,16-.49,16.34-1.16,1.1-219.26,3-220.77,3.07-.41,0,.08-5.63-.16-13.35C400.55,406.51,460.36,404.13,542.54,402.11Z"></path><path d="M692.86,391.5c-.4.92-5.72,11.55-9.39,12.53s-44.65,6.22-46.9,6.14c-.59,0-.61-2.92-1.62-9.3,21.76-.6,34.58-4.95,35.92-5.26a123.27,123.27,0,0,0,21.21-7.46S693.24,390.59,692.86,391.5Z"></path></g><g style="opacity:0.2"><path d="M334.74,408.6c-.55-21.63-.94-44.05-.62-65.64-.61-7.06-3.47-28-4.34-35.28,1.89,11.87,4.13,23.74,5.23,35.72-.11,20.1.11,45.1-.27,65.2Z"></path><path d="M480.64,301c2.5,8.34,5,16.68,6.82,25.22.49,1.86.27,4.65.25,6.57-.3,17.32-.94,41.38-1.57,58.73l-.56,13,.07-13.05c.2-18.71.73-43.34,1.29-62-.1-5.36-2-10.63-3.12-15.87L480.64,301Z"></path><path d="M589.93,292.16c2.55,9.07,5.57,18.06,7.07,27.37-.19,4.34-1.65,8.48-2.89,12.59l-.1.29h-.32a67.26,67.26,0,0,0-25.4,5.61c-26.14,11-36.69,37.3-37,64.19-.15-17.47,3.78-35.89,15.38-49.5s29.41-20.86,47.05-21.16l-.42.3c1.24-4,2.78-8.09,3-12.3-1.39-9.25-4.19-18.29-6.4-27.39Z"></path><path d="M636.57,368.37c4.5-4.26,11.25-9.95,15.22-14.55,4.32-5.54,8.52-11.23,12.92-16.73-3.9,5.9-7.88,11.7-12.17,17.33-4.61,5.4-10.27,9.76-16,13.95Z"></path><path d="M445.14,324.27a13.12,13.12,0,0,0,3.14,4.84,2.24,2.24,0,0,0,1.65.45c5.21,0,10.52-.18,15.71-.62a7.58,7.58,0,0,0,1.78-.34c1.44-1.2,2.26-3.15,3.11-4.83-.63,1.9-1.21,3.93-2.75,5.35a4.33,4.33,0,0,1-1,.38,55.7,55.7,0,0,1-8.91.89,53,53,0,0,1-9-.22c-2.22-1-3.06-3.73-3.7-5.9Z"></path><path d="M444.93,320.88c.27-2,.61-4.27,2.29-5.65a8.94,8.94,0,0,1,2.06-.53,57.06,57.06,0,0,1,12.11-.48,16.23,16.23,0,0,1,4.07.66,9.91,9.91,0,0,1,3.29,2.5,11,11,0,0,1,2.16,3.42,12.41,12.41,0,0,0-2.51-3.07c-1.91-2.06-4.35-2.58-7.06-2.57a97.34,97.34,0,0,0-12,.29,9.57,9.57,0,0,0-1.85.33c-1.49,1.14-2.09,3.31-2.6,5.1Z"></path><path d="M445.75,320.66c-4.05.93-3.86,3.3.28,3.68,6.4.34,13-.19,19.38-.43,1.9-.15,3.82,0,5.5-.84,1.24-.66,1.12-1.34-.16-1.83-3-.91-6.33-.65-9.49-.88-5.16-.1-10.38-.38-15.51.3Zm0,0a154.35,154.35,0,0,1,15.52-.8c2.6,0,5.17-.08,7.81.09a6.22,6.22,0,0,1,3,.94c2.11,1.8-1,3.5-2.65,3.74-5.3.46-10.36.32-15.63.26-3.2-.19-6.56.1-9.66-.88-3.07-1.25-.31-3.05,1.63-3.35Z"></path><path d="M565.57,316.81a13.26,13.26,0,0,0,3.32,4.71,2.28,2.28,0,0,0,1.67.39c5.2-.23,10.5-.59,15.67-1.23a8.14,8.14,0,0,0,1.77-.41c1.39-1.26,2.13-3.24,2.92-4.95-.56,1.93-1.06,4-2.54,5.45a3.85,3.85,0,0,1-1,.42,54.3,54.3,0,0,1-8.86,1.24,53,53,0,0,1-9,.13c-2.26-.95-3.2-3.61-3.92-5.75Z"></path><path d="M565.23,313.42c.19-2,.44-4.28,2.07-5.72a8.52,8.52,0,0,1,2-.62,57.6,57.6,0,0,1,12.08-.95,16.21,16.21,0,0,1,4.1.51,9.83,9.83,0,0,1,3.38,2.37,10.83,10.83,0,0,1,2.29,3.33,12.21,12.21,0,0,0-2.62-3c-2-2-4.45-2.41-7.16-2.29a95.22,95.22,0,0,0-11.94.75,10,10,0,0,0-1.84.4c-1.44,1.2-2,3.39-2.39,5.19Z"></path><path d="M566,313.18c-4,1.08-3.73,3.44.43,3.66,6.41.1,13-.69,19.35-1.18,1.89-.23,3.82-.12,5.46-1.05,1.21-.71,1.07-1.38-.23-1.83-3-.79-6.35-.4-9.52-.51-5.16.1-10.38,0-15.49.91Zm0,0a154.27,154.27,0,0,1,15.48-1.41c2.6-.12,5.16-.28,7.81-.21a6.12,6.12,0,0,1,3,.83c2.18,1.71-.85,3.52-2.51,3.83-5.27.66-10.34.73-15.6.87-3.21-.07-6.55.36-9.69-.5-3.11-1.13-.43-3,1.49-3.41Z"></path></g><g style="opacity:0.5"><path d="M585.66,285.79c-.7,2.67-30.66,5-89.79,7.85.21-9.89,1.11-48.08,1.57-49.55a2.55,2.55,0,0,1,1.15-1.31c29.23.28,46.19,4.15,54.85,8C561.37,254.25,586.48,282.64,585.66,285.79Z" style="fill:#ebebeb;opacity:0.30000000000000004"></path></g><g style="opacity:0.6000000000000001"><path d="M511.94,243.19l43.23,47c12.08-.9,20.56-1.77,25.47-2.67l-36.78-40h0C536.29,245.59,525.87,243.93,511.94,243.19Z" style="fill:#fff"></path><path d="M473.43,242.89h1.32l-1.31,0Z" style="fill:#fff"></path><path d="M532.27,291.72l-1.89.11-2.91.16c-2.19.14-4.43.25-6.73.38l-1.75.09L496.49,268l-15.85-17.24c.68-4.11,1.1-6.82,1.09-7a1.55,1.55,0,0,0-.73-.94l6.3-.05,9.64,10.49Z" style="fill:#fff"></path></g><path d="M557.41,247.16c-13.78-6.41-23.83-7.35-56.94-8.19-33.38-.85-71.7-1.29-90.61,1S308.62,299,309.9,302c.85,2,58.64,1.36,130.32-.79,11.37-.33,22.79-.71,34-1.13,63.1-2.31,119.2-5.7,120.37-9.35C596.71,284.09,569.5,252.79,557.41,247.16Zm-76.77,3.58c-1.91,11.88-5.85,35.61-7.32,43.95l-3.75.18-9.89.44-15.87.68-2.12.08-1.72.07q-25.58,1-44.82,1.57l-1.8.05-3.52.1-1.72.05-6.59.16c-2.81.07,6.53.13,4,.19-1.34,0-2.64,0-3.9.08q-13.58.24-21.81.26c-3.2,0-5.79,0-7.81,0h-1l-1.23,0-1.72-.06-.64,0a2.26,2.26,0,0,1-.52-.06c-.15-.06-.2-.53-.16-1.27,0-.13,0-.26,0-.41s0-.1,0-.16,0-.42.07-.65a1.31,1.31,0,0,1,0-.27c0-.2.05-.4.08-.62.05-.43.12-.89.2-1.37,0-.23.07-.48.12-.74.16-1,.36-2.07.58-3.18.11-.56.22-1.12.34-1.68s.23-1.11.36-1.67c.87-3.92,1.86-7.5,2.45-8.3.29-.4,47.6-32.2,57.78-33.44,7.5-.91,39-1.47,64.67-1.71l1.31,0,4.09,0,2.15,0h0a1.55,1.55,0,0,1,.73.94C481.74,243.92,481.32,246.63,480.64,250.74Zm105,35.05c-.36,1.37-8.39,2.64-24.08,3.94l-.33,0-2.77.22-2.19.17q-10.23.78-24,1.57l-1.89.11-2.91.16c-2.19.14-4.43.25-6.73.38l-1.75.09q-10.69.57-23.12,1.18c.09-4.61.34-15.34.62-25.66.15-5.31.31-10.52.45-14.7.19-5.14.36-8.76.5-9.19a2.55,2.55,0,0,1,1.15-1.31c4.78,0,9.22.19,13.35.41l1.83.1,2,.13,3.66.28,1.16.11q1.17.09,2.28.21c.55.06,1.09.11,1.62.18l.59.06,2.15.25c3.87.47,7.36,1,10.48,1.66.53.09,1.06.2,1.58.31.79.16,1.56.34,2.3.5l1.18.29,1.08.27h0a62.45,62.45,0,0,1,9.57,3.2C561.37,254.25,586.48,282.64,585.66,285.79Z" style="fill:#263238"></path><path d="M594.94,301.54c-104,10.61-209.38,14.65-314,16.35-.58,0-1.73.05-2.29.1l-3,.78c-7,1.8-25.19,6.15-32.41,7.76-33.81.09-75.68-.13-109.66-.44l-36.56-.52,36.56-.52c33.7-.3,76.77-.57,109.45-.42,9-2,26.77-6,35.59-7.87C384,315.1,490.1,311.85,594.94,301.54Z" style="fill:#fff;opacity:0.4"></path><path d="M347,318.09c1.58-2.37-2.17-20-3.89-21.17s-21.66,1.52-21,12.82S344.55,321.8,347,318.09Z" style="fill:#F448FF"></path><path d="M347,318.09c1.58-2.37-2.17-20-3.89-21.17s-21.66,1.52-21,12.82S344.55,321.8,347,318.09Z" style="opacity:0.30000000000000004"></path><path d="M219,291.51l6,.08s6.66-3,7.26-3l16.46.22c1.69,0,2.41,3.17,2.41,3.17l14,.06s2.76-3.11,4.37-3.08l23.08.31c1.87,0,2.84,3.18,2.84,3.18l.31.14-8.16,4.95-77-1.57Z" style="fill:#263238"></path><path d="M330.47,242.33s-128.23,54.94-127.59,54.95c17,.41,82.81,2.87,84.4,2.25,1.87-.74,60.12-39.47,103-57.63ZM286,297.28c-1.39.54-59.09-1.61-74-2-.56,0,118.88-51.32,118.88-51.32h48.46C341.85,259.91,287.67,296.63,286,297.28Z" style="fill:#263238"></path><path d="M379.39,244c-37.54,15.92-91.72,52.64-93.36,53.29-1.39.54-59.09-1.61-74-2-.56,0,118.88-51.32,118.88-51.32Z" style="fill:#ebebeb;opacity:0.30000000000000004"></path><g style="opacity:0.6000000000000001"><path d="M276.49,297.27c-4.65-.11-10.64-.28-17.13-.48l-10.05-17.67,13.54-5.84Z" style="fill:#fff"></path><path d="M355.67,255.45c-4.28,2.27-8.59,4.64-12.86,7L332.29,244h16.86Z" style="fill:#fff"></path><path d="M238.18,296.12,221,295.56l-1.92-3.37,13.53-5.86Z" style="fill:#fff"></path><path d="M306.2,284.45l-6.91,4.39L285,263.74l7.56-3.26Z" style="fill:#fff"></path><path d="M253.9,296.63l-2.52-.08L243,281.83l2-.85Z" style="fill:#fff"></path><path d="M363.12,251.6l-1.92,1L356.31,244h2.48Z" style="fill:#fff"></path></g><g style="opacity:0.4"><path d="M534.81,379.57c4.38-17.94,17.89-33.85,35.39-40.37,25.76-9.67,55.56-4.45,72.51,18.35a60.5,60.5,0,0,1,9.08,16.94,63.72,63.72,0,0,0-23.94-29c-17.42-11.14-40.36-11.34-59.22-3.77-16.18,6.76-28.62,21.14-33.82,37.83Z" style="fill:#fff"></path><path d="M222.05,380.59c3.7-17.69,15.94-34.31,33.26-40.82,24.44-9,50.28-2.1,64.75,20.08a63.09,63.09,0,0,1,7.81,16.33,64.73,64.73,0,0,0-21.08-28.49c-14.34-10.86-34.22-12.2-50.81-6.15-17,6.2-29.12,21.91-33.93,39Z" style="fill:#fff"></path></g><rect x="477.97" y="230.03" width="3.72" height="5.18" transform="translate(959.65 465.25) rotate(180)" style="fill:#263238"></rect><rect x="493.84" y="230.03" width="3.72" height="5.18" transform="translate(991.39 465.25) rotate(180)" style="fill:#263238"></rect><rect x="390.23" y="230.03" width="3.72" height="5.18" transform="translate(784.17 465.25) rotate(180)" style="fill:#263238"></rect><rect x="406.1" y="230.03" width="3.72" height="5.18" transform="translate(815.91 465.25) rotate(180)" style="fill:#263238"></rect><polygon points="402.4 206.25 488.82 206.25 510.12 230.72 423.7 230.72 402.4 206.25" style="fill:#F448FF"></polygon><polygon points="402.4 206.25 488.82 206.25 510.12 230.72 423.7 230.72 402.4 206.25" style="fill:#fff;opacity:0.4"></polygon><polygon points="488.57 206.25 402.15 206.25 380.85 230.72 467.27 230.72 488.57 206.25" style="fill:#F448FF"></polygon><polygon points="488.57 206.25 402.15 206.25 380.85 230.72 467.27 230.72 488.57 206.25" style="fill:#fff;opacity:0.7000000000000001"></polygon><polygon points="420.78 224.77 393.97 224.77 409.81 206.25 436.63 206.25 420.78 224.77" style="fill:#F448FF"></polygon><polygon points="421.17 217.97 417.99 221.69 403.54 221.69 414.48 208.91 419.48 208.91 411.72 217.97 421.17 217.97" style="fill:#263238"></polygon></g><g id="freepik--character-2--inject-6"><path d="M542.5,453.5c2.28.73,67.12-.11,69.56-1.71.94-.59,1.37-10.05,1.56-21.49,0-.12,0-.24,0-.36,0-2.35.07-4.78.07-7.24,0-.34,0-.68,0-1l-3.15-33.63-43.37.43,4.28,33.32,0,1.32.26,6.9,0,.71s-24.67,11.42-27.18,13.47S540.23,452.77,542.5,453.5Z" style="fill:#ad6359"></path><path d="M542.5,453.5c2.28.73,67.12-.11,69.56-1.71.94-.59,1.37-10.05,1.56-21.49,0-.12,0-.24,0-.36,0-2.35.07-4.78.07-7.24,0-.34,0-.68,0-1l-42.24.12,0,1.32.26,6.9,0,.71s-24.67,11.42-27.18,13.47S540.23,452.77,542.5,453.5Z" style="fill:#ebebeb"></path><path d="M542.5,453.49c1.17.38,18.78.34,36,0,3.47-.07,6.91-.15,10.19-.24,12.28-.33,22.43-.84,23.37-1.45s1.36-9.78,1.55-21c0-.16,0-.32,0-.48s0-.25,0-.37h0l-41.79.08,0,.72s-24.68,11.41-27.18,13.46S540.23,452.77,542.5,453.49Z" style="fill:#a6a6a6"></path><path d="M543.21,451c10.92-.41,55-1,65.86-.61.09,0,.09.07,0,.07-10.82.65-54.93.91-65.86.72C543,451.15,543,451,543.21,451Z" style="fill:#263238"></path><path d="M567.13,430.2c4.29-.86,9.56-.27,12.89,2.75.13.12,0,.3-.18.26a60.66,60.66,0,0,0-12.68-2.47A.27.27,0,0,1,567.13,430.2Z" style="fill:#263238"></path><path d="M564.05,432.11c4.29-.86,9.56-.27,12.89,2.75.13.12,0,.3-.18.26a60.78,60.78,0,0,0-12.68-2.47A.27.27,0,0,1,564.05,432.11Z" style="fill:#263238"></path><path d="M561,434c4.29-.86,9.56-.27,12.89,2.76.13.11,0,.29-.18.25A60.78,60.78,0,0,0,561,434.56.27.27,0,0,1,561,434Z" style="fill:#263238"></path><path d="M578.5,453.48c3.47-.07,6.91-.15,10.19-.24,12.28-.33,22.43-.84,23.37-1.45s1.36-9.78,1.55-21c0-.16,0-.32,0-.48s0-.25,0-.37h0C607.85,434,587.68,447.38,578.5,453.48Z" style="fill:#263238"></path><path d="M568.94,430.16h46.7s-9.4-109.06-9-111c.47-2.44,3.23-13.48,6.9-27.9,1.15-4.51,2.39-9.35,3.68-14.37,3.48-13.57,7.32-28.4,10.66-41.3,5-19.34,8.94-34.35,8.94-34.35H597.2s-4.61,14.62-10.42,33.64c-9.48,30.92-22.13,73.47-23.38,83.82C561.37,335.43,568.94,430.16,568.94,430.16Z" style="fill:#263238"></path><path d="M571,422.2c7.13-.15,5.08-.21,12.22-.28,3.49,0,26.42-.23,29.69.31a.07.07,0,0,1,0,.14c-3.27.54-26.2.34-29.69.31-7.14-.07-5.09-.13-12.22-.28A.1.1,0,0,1,571,422.2Z" style="fill:#37474f"></path><path d="M597.82,312.53c1.53-6.75,3.82-13.37,5.81-20q6.07-20.19,12.21-40.36Q618.92,242.08,622,232c1-3.39,2.09-6.79,3.15-10.17s2.22-6.6,3.16-10c.38-1.36.59-.61.1,1.12-1,3.48-1.95,7-3,10.44q-3,10.32-6.07,20.63-6.07,20.52-12.25,41-3.09,10.28-6.18,20.55a83.67,83.67,0,0,0-2.53,9.94,46.19,46.19,0,0,0-.41,10.64c.45,7.14,1.28,14.28,1.93,21.4s1.33,14.29,2,21.43q2,21.33,3.91,42.65c.16,1.8.32,3.61.46,5.41.05.6-.38.68-.44.1-1.54-14.06-3.21-28.28-4.53-42.36s-2.63-28-3.93-42c-.33-3.52-.71-7.05-.71-10.58A43.46,43.46,0,0,1,597.82,312.53Z" style="fill:#37474f"></path><path d="M601.69,201.27c2.75,21.25,8,61.11,11.81,90,8.92-35,23.28-90,23.28-90Z" style="fill:#37474f"></path><path d="M592,454.12c2.28.74,67.12.14,69.57-1.45.94-.59,1.4-10.05,1.64-21.48v-.36c.05-2.36.09-4.79.1-7.25,0-.34,0-.67,0-1,.15-16.51-1-33.64-1-33.64l-42.38.28,1.18,33.32.05,1.32.23,6.9,0,.71s-24.71,11.33-27.23,13.37S589.7,453.39,592,454.12Z" style="fill:#ad6359"></path><path d="M592,454.12c2.28.74,67.12.14,69.57-1.45.94-.59,1.4-10.05,1.64-21.48v-.36c.05-2.36.09-4.79.1-7.25,0-.34,0-.67,0-1l-42.24,0,.05,1.32.23,6.9,0,.71s-24.71,11.33-27.23,13.37S589.7,453.39,592,454.12Z" style="fill:#ebebeb"></path><path d="M592,454.12c2.28.74,67.12.14,69.57-1.45.94-.59,1.4-10.05,1.64-21.48v-.36l-41.84-.08,0,.71s-24.71,11.33-27.23,13.37S589.7,453.39,592,454.12Z" style="fill:#a6a6a6"></path><path d="M592.68,451.6c10.93-.37,55-.83,65.87-.37.09,0,.09.07,0,.07-10.82.6-54.93.71-65.87.48C592.45,451.77,592.45,451.61,592.68,451.6Z" style="fill:#263238"></path><path d="M616.69,430.91c4.29-.84,9.56-.23,12.87,2.81.13.11,0,.29-.18.25a59.87,59.87,0,0,0-12.67-2.51A.28.28,0,0,1,616.69,430.91Z" style="fill:#263238"></path><path d="M613.6,432.81c4.29-.84,9.56-.23,12.88,2.81.12.11-.05.29-.18.25a60.09,60.09,0,0,0-12.68-2.51A.28.28,0,0,1,613.6,432.81Z" style="fill:#263238"></path><path d="M610.51,434.71c4.3-.84,9.56-.23,12.88,2.81.13.11,0,.29-.18.25a60.09,60.09,0,0,0-12.68-2.51A.28.28,0,0,1,610.51,434.71Z" style="fill:#263238"></path><path d="M598.48,201.27s.91,18.93,5.25,33.93c.34,1.24.72,2.46,1.13,3.63a70.78,70.78,0,0,1,11.4,5.86s.46,15.24.92,32.23c.5,19,1,40.18.92,44.67-.4,16.81,2.1,109.26,2.1,109.26l46.69.19s-8.44-103.24-8.38-109.4c.09-9.9-2.26-53.65-4.08-85.56a252.14,252.14,0,0,0-4.36-34.81Z" style="fill:#263238"></path><path d="M621.8,422.54c7.13-.12,5.09-.18,12.22-.22,3.49,0,26.43-.12,29.69.43.07,0,.07.14,0,.15-3.27.52-26.2.23-29.69.18-7.14-.1-5.09-.15-12.22-.33A.11.11,0,0,1,621.8,422.54Z" style="fill:#37474f"></path><path d="M648.49,208c.85,26.05,1.77,52.1,2.93,78.14s7.3,119.64,8.87,134.16c0,.1-.13.14-.15,0-3.4-25.84-5.29-64.09-7-90.09s-2.81-52-3.69-78.07c-.51-14.73-.89-29.46-1.33-44.19C648.15,207.81,648.48,207.83,648.49,208Z" style="fill:#37474f"></path><path d="M602.92,237.7a86.83,86.83,0,0,1,13.34,7,.16.16,0,0,1-.14.28c-4.5-2.19-9.1-4.3-13.48-6.73A.3.3,0,0,1,602.92,237.7Z" style="fill:#37474f"></path><path d="M602.66,221.64c.3,1.66.71,3.3,1.06,5s.59,3.13,1,4.66a7.89,7.89,0,0,0,2.17,3.9c.6.56,1.27,1.06,1.92,1.58.35.28.73.54,1.09.83,0-.22-.09-.45-.13-.67-.11-.63-.21-1.26-.32-1.89-.23-1.4-.46-2.8-.67-4.2-.42-2.75-.81-5.53-1.38-8.26,0-.11.14-.15.17,0,.68,2.7,1.44,5.37,2,8.1.29,1.33,1.34,7.93,1.38,8.39s.09,1,.11,1.45a6.19,6.19,0,0,1,0,1.49c0,.12-.17.1-.23,0h0a5.88,5.88,0,0,1-.42-1.43c-.12-.47-.23-1-.31-1.43,0-.17-.06-.35-.08-.53-.65-.39-1.26-.91-1.87-1.35s-1.32-.94-1.94-1.46a7.44,7.44,0,0,1-2.36-3.7,27.25,27.25,0,0,1-.78-4.74c-.21-1.88-.36-3.76-.63-5.63C602.47,221.57,602.63,221.52,602.66,221.64Z" style="fill:#37474f"></path><path d="M611.22,156.09c-3.29,9.23-17.73,38.47-23.59,40.41-6.09,2-29.48,4.19-34.58,0-2.49-2.06-2.91-23.43.49-22.84s24,1.8,26.44,1,19.34-24.28,26.1-29.9C617.74,135,613,151.12,611.22,156.09Z" style="fill:#ad6359"></path><path d="M558.73,173.41,558.5,200s23.93.58,30.38-2.64S609.48,163.7,613.1,152s-1.73-13.63-10.48-5.18-22,26.27-23.58,26.61S558.73,173.41,558.73,173.41Z" style="fill:#F448FF"></path><path d="M565.43,186.69c0-2.11.07-10.54-.08-12.63,0,0-.06,0-.06,0-.25,2-.54,10.35-.57,12.46a115.86,115.86,0,0,0,.2,12.64c0,.07.13.09.14,0C565.46,195,565.38,190.85,565.43,186.69Z" style="fill:#263238"></path><path d="M613.11,152c-3.63,11.71-17.78,42.16-24.23,45.38-3.09,1.54-10.19,2.22-16.76,2.49L611,141.65C614.18,141.36,615.32,144.86,613.11,152Z" style="opacity:0.1"></path><path d="M591.13,218.77l62.77,0s-10.66-54.63-31.77-74.7c-2.61-2.48-9.5-4.52-15.08,1.51C599.57,153.65,591,218.56,591.13,218.77Z" style="fill:#F448FF"></path><polygon points="612.62 156.41 609.31 153.06 606.63 157.06 608.1 160.07 611.46 159.85 612.62 156.41" style="fill:#263238"></polygon><polygon points="611.46 159.85 616.05 199.5 608.48 213.72 602.45 200.09 608.1 160.07 611.46 159.85" style="fill:#263238"></polygon><path d="M602.09,157s1.84-5-1.66-6-4.52,4.24-4.52,4.24Z" style="fill:#455a64"></path><path d="M585.87,191.09h0l1.08,5.09.34,1.69,1.19-1.25,3.57-3.8h0l10.09-36L596,155.08l-10.09,36Z" style="fill:#455a64"></path><polygon points="586.95 196.19 587.3 197.87 588.48 196.62 586.95 196.19" style="fill:#37474f"></polygon><rect x="595.16" y="155.73" width="7.49" height="1.49" transform="translate(1133.35 468.79) rotate(-164.34)" style="fill:#37474f"></rect><rect x="594.72" y="157.31" width="7.49" height="1.49" transform="translate(1132.06 471.77) rotate(-164.34)" style="fill:#37474f"></rect><polygon points="601.87 159.78 599.54 159.13 597.17 172.51 598.05 172.7 601.87 159.78" style="fill:#37474f"></polygon><path d="M629.59,148.41c16,16.67,34.26,45,27,51.4-6.67,5.82-25.41,2.2-41.26-3.48-3-1.09.83-27.22,3.92-25.74a66.44,66.44,0,0,0,12.46,4.19c.87.21-5.25-7-10.89-20.73C615.05,140.14,620.45,138.88,629.59,148.41Z" style="fill:#ad6359"></path><path d="M582.73,171.37c.23,3,7.53,1.8,7.53,1.8a5.52,5.52,0,0,0-2,3.17c-.38,2.24,3,3.82,3,3.82a6.78,6.78,0,0,0-1.57,3.68c-.15,2.19,3,4.25,3,4.25a6,6,0,0,0,.66,4.12c2,3.25,7.9,2.84,11.59,3.31,4,.5,10,.7,12.43,1.53l4.15-25.44s-16.29-8.65-20.67-8.08C597.15,164,582.39,166.81,582.73,171.37Z" style="fill:#ad6359"></path><path d="M590.32,173.08a49.72,49.72,0,0,1,11.94-2.46c.09,0,.11.13,0,.14-4,.42-8,1.92-11.92,2.5A.09.09,0,0,1,590.32,173.08Z" style="fill:#263238"></path><path d="M591.32,179.85a10.61,10.61,0,0,1,2.75-.38q1.47-.1,2.94-.15,3-.1,5.91-.06c.09,0,.1.14,0,.14-2,.07-3.92.17-5.87.33-1,.07-2,.16-2.94.25a12.23,12.23,0,0,1-2.77.13A.14.14,0,0,1,591.32,179.85Z" style="fill:#263238"></path><path d="M592.76,188.09a7.42,7.42,0,0,1,2.49-.21l2.69,0c1.79,0,3.59-.09,5.38-.2.09,0,.1.14,0,.14-1.82.12-3.63.26-5.45.36l-2.68.14a7.13,7.13,0,0,1-2.44-.09A0,0,0,0,1,592.76,188.09Z" style="fill:#263238"></path><path d="M622.92,169.5l-5.14,29.81s37.39,8.64,41-.86-19.22-43.74-32.07-53.34-7.7,5.95-7.29,7.19c1.86,5.52,10.18,19.82,10.18,19.82Z" style="fill:#F448FF"></path><path d="M623.56,169.51c4.31,1.38,15.63,6.63,18.15,8.85.07.07,0,.19-.08.13-2.47-1.63-16.46-8-18.64-8.77,0,0-.37,2.18-.41,2.25s-.13,0-.13-.05.25-2.68.28-2.72S623.09,169.36,623.56,169.51Z" style="fill:#263238"></path><path d="M627.2,186c.35-2.08,1.66-10.41,1.83-12.5,0,0,0-.05-.06,0-.55,2-2.09,10.14-2.44,12.23a114.82,114.82,0,0,0-1.71,12.52c0,.08.11.11.13,0C626,194.24,626.53,190.1,627.2,186Z" style="fill:#263238"></path><path d="M629.87,172.29c-1.23-2.49-2.72-4.86-4.07-7.29s-2.74-4.83-4-7.29a0,0,0,0,0-.06,0c.77,1.69,1.54,3.36,2.36,5-.24-.26-.47-.53-.69-.8-.41-.49-.79-1-1.16-1.53,0,0-.07,0,0,0a8.52,8.52,0,0,0,1.08,1.65,11.32,11.32,0,0,0,1,1.06c.34.67.68,1.34,1,2a53.59,53.59,0,0,0,4.09,7.14C629.5,172.38,629.91,172.37,629.87,172.29Z" style="fill:#263238"></path><path d="M653.24,202.1c-10,1.33-31.2-2-35.31-2.75,0-.44.15-1.37.21-2,0-.08-.12-.12-.14,0a12.31,12.31,0,0,0-.42,2.6c2,.71,25.27,4.62,35.67,2.36C653.36,202.26,653.35,202.09,653.24,202.1Z" style="fill:#263238"></path><rect x="558.78" y="158.96" width="35.02" height="45.59" transform="translate(-24.74 119.22) rotate(-11.56)" style="fill:#F448FF"></rect><rect x="558.78" y="158.96" width="35.02" height="45.59" transform="translate(-24.74 119.22) rotate(-11.56)" style="opacity:0.6000000000000001"></rect><rect x="557.31" y="159.27" width="35.02" height="45.59" transform="translate(-24.83 118.93) rotate(-11.56)" style="fill:#F448FF"></rect><rect x="557.31" y="159.27" width="35.02" height="45.59" transform="translate(-24.83 118.93) rotate(-11.56)" style="opacity:0.4"></rect><rect x="562.13" y="157.36" width="16.6" height="5.03" transform="translate(-20.42 116.93) rotate(-11.5)" style="fill:#c7c7c7"></rect><polygon points="574.37 156.51 572.37 156.91 571.9 154.64 567.04 155.63 567.5 157.9 565.5 158.31 564.65 154.17 573.56 152.36 574.37 156.51" style="fill:#c7c7c7"></polygon><path d="M552.51,169.65c-1.3,3.66-5,8.42-5.09,11.31a3.32,3.32,0,0,0,2.19,3.3s-2.71,1.71-2.32,4.34c.2,1.35,2.53,2.23,2.53,2.23a3.94,3.94,0,0,0-1.62,3.78c.39,1.84,2.67,2.44,2.67,2.44s-1.37,2.35-.37,4.1c2,3.56,18.14,1.92,20-4.26.88-2.89-3-2.28-3-2.28s5.41-2.24,5.16-5.57-5.29-2.22-5.29-2.22,5.23-2.22,4.62-5.65-5.49-1.6-5.49-1.6,3.34-2.79,2.27-5.31c-1.76-4.15-8,1.93-11.62,1.45l-2.55-5.64Z" style="fill:#ad6359"></path><path d="M549.8,175.05c.93-3.57-3.77-7.39-3.37-10.94.54-4.8,6.29-.74,8.16,6l.54,5.46Z" style="fill:#ad6359"></path><path d="M551.22,197.2c-.06,0-.07.08,0,.08a28.06,28.06,0,0,0,16.5-2.67c.16-.09.09-.38-.11-.32A57.39,57.39,0,0,1,551.22,197.2Z" style="fill:#263238"></path><path d="M549.75,190.87c-.07,0-.07.1,0,.11a26.29,26.29,0,0,0,17.82-4c.18-.12.21-.41,0-.29C563.88,188.81,555,190.78,549.75,190.87Z" style="fill:#263238"></path><path d="M566.79,179.19c-5.17,3.3-10.89,4.61-17,5.11-.08,0-.06.12,0,.13,3,.57,6.87-.16,9.8-1a16.2,16.2,0,0,0,7.27-4.09C567,179.29,566.91,179.12,566.79,179.19Z" style="fill:#263238"></path><path d="M607.69,152.9c3.43,1.26,9-4,10.84-8.51.12-.31-1.63-11.79-1.89-14.12-.06-.48-14.21,5.23-14.21,5.23a37.3,37.3,0,0,1,2.44,8.78,6.32,6.32,0,0,1,0,1c0,.05,0,.1,0,.16C604.79,147.26,605.93,152.26,607.69,152.9Z" style="fill:#ad6359"></path><path d="M604.87,145.41a8.91,8.91,0,0,0,1.51-.09c7.65-1,9.33-10.75,9.7-15-2.64.71-13.66,5.15-13.66,5.15a36.76,36.76,0,0,1,2.44,8.79,5.19,5.19,0,0,1,0,1S604.87,145.35,604.87,145.41Z" style="fill:#263238"></path><path d="M615.87,112c2.53,4.84,2.59,20.15-.44,24.14-4.39,5.77-13,7.85-18.22,2.25-5.09-5.42-4.82-25.38-1.31-29.14C601.08,103.69,612.15,104.85,615.87,112Z" style="fill:#ad6359"></path><path d="M603.59,123.54s.08,0,.08.09c0,1,.12,2.21,1.06,2.55,0,0,0,.06,0,.06C603.58,126.09,603.4,124.51,603.59,123.54Z" style="fill:#263238"></path><path d="M604.5,122.45c1.66-.14,1.81,3.19.28,3.32S603.11,122.57,604.5,122.45Z" style="fill:#263238"></path><path d="M597.66,123.94s-.08,0-.07.09c.08,1,0,2.22-.92,2.61a0,0,0,0,0,0,.06C597.81,126.48,597.9,124.9,597.66,123.94Z" style="fill:#263238"></path><path d="M596.69,122.9c-1.66,0-1.63,3.29-.09,3.33S598.08,122.94,596.69,122.9Z" style="fill:#263238"></path><path d="M605.35,120.41a12.62,12.62,0,0,1-1.37-.1,2.14,2.14,0,0,1-1.37-.37.69.69,0,0,1-.11-.85,1.73,1.73,0,0,1,1.65-.63,2.53,2.53,0,0,1,1.72.68A.75.75,0,0,1,605.35,120.41Z" style="fill:#263238"></path><path d="M595.42,122.21a12.48,12.48,0,0,0,1.35-.18,2.24,2.24,0,0,0,1.35-.45.72.72,0,0,0,.06-.86,1.75,1.75,0,0,0-1.69-.53,2.53,2.53,0,0,0-1.67.79A.75.75,0,0,0,595.42,122.21Z" style="fill:#263238"></path><path d="M605.39,133c-.23.26-.47.6-.84.65a2.59,2.59,0,0,1-1.12-.21,0,0,0,0,0,0,.06,1.42,1.42,0,0,0,1.34.5,1.1,1.1,0,0,0,.76-.95C605.5,133,605.42,133,605.39,133Z" style="fill:#263238"></path><path d="M604.16,130a3.5,3.5,0,0,1-2.27,1.67,4.06,4.06,0,0,1-1.26.12h-.24l-.23,0a.27.27,0,0,1-.22-.22h0a.38.38,0,0,1,0-.1h0v-.09c-.06-.79,0-2,0-2-.29.16-1.73.89-1.73.48a53.37,53.37,0,0,1,.85-10.69c0-.11.2-.09.19,0,.09,3.31-.4,6.61-.36,9.94a6.27,6.27,0,0,1,1.64-.59c.11,0-.08,2.34,0,2.7v0a4.85,4.85,0,0,0,3.58-1.3C604.13,129.86,604.22,129.93,604.16,130Z" style="fill:#263238"></path><path d="M617.67,126.46c-.21,4.16-.94,8-2.24,9.67-4.39,5.77-13,7.85-18.21,2.25-1.76-1.87-2.88-5.46-3.45-9.53,2.07,3.27,5.17.14,5.17.14l1.8-.23c2.34,2.63,7.51,1.11,9.93-1.14,1.75-1.64,2.37-6.54,2.37-6.54Z" style="fill:#263238;opacity:0.30000000000000004"></path><path d="M617.94,124.43c-2.12.92-4.23-1.47-5-2.77s-.81-9.08-2.16-11-3.81-2.75-5.55-2-3.77,3.49-5.13,3.55-2.07-2.8-3-2.67c-2.06.28-3.53,5.65-3.6,8,0,0-1.38-9.64,8.34-11.86,9.48-2.18,13.47,4,14.7,6.77C618.92,117.76,617.94,124.43,617.94,124.43Z" style="fill:#263238"></path><path d="M595.07,108.77c1.52-.18,9.75,1,13.27,3.08s9.46,8.15,9.77,8.47,3.61-13.08-7.12-16.87C599.3,99.32,595.07,108.77,595.07,108.77Z" style="fill:#F448FF"></path><path d="M617.54,119.69s-6.15-10.49-9.94-13.16-12.72-5-18.62-3.19c-4.6,1.4,5.41,8.3,5.41,8.3a3.05,3.05,0,0,1,2-1.91c2.86-.76,7.95.69,10.79,2C610.7,113.46,617.54,119.69,617.54,119.69Z" style="fill:#F448FF"></path><path d="M617.54,119.69s-6.15-10.49-9.94-13.16-12.72-5-18.62-3.19c-4.6,1.4,5.41,8.3,5.41,8.3a3.05,3.05,0,0,1,2-1.91c2.86-.76,7.95.69,10.79,2C610.7,113.46,617.54,119.69,617.54,119.69Z" style="opacity:0.2"></path><path d="M613.76,124.28s2.45-5.42,4.85-4.63,1.17,8.21-1.2,9.63a2.64,2.64,0,0,1-3.74-.75Z" style="fill:#ad6359"></path><path d="M618.21,121.77a0,0,0,1,1,0,.06c-1.65,1.06-2.28,2.9-2.62,4.74a1.45,1.45,0,0,1,2.07-.79c.05,0,0,.11,0,.1a1.64,1.64,0,0,0-1.66.89,7.83,7.83,0,0,0-.57,1.58c-.06.17-.36.14-.33,0v-.05C614.62,126,615.8,122.46,618.21,121.77Z" style="fill:#263238"></path><path d="M604.58,143.12l4.75,8.08,8.59-12.88,3.24,3.38s-6.84,18-7,17.3l-4.79-6.16-4,5.76-2-12Z" style="fill:#F448FF"></path><path d="M604,152.71c-.26-2-.58-4-.75-6,0-.08.1-.13.14,0,.79,1.82,1.76,9.47,2.13,11.28l0,0c.16-.25,3.72-5.11,3.78-5.06,1,.94,4.47,5.42,4.73,5.83,1.08-2.85,5.82-14.22,7.22-17,0-.08.16,0,.13,0-.86,3-6.92,17.93-7.06,17.92a77.75,77.75,0,0,1-5-6.52c-.56,1-4,6.41-4.13,6.12A62.73,62.73,0,0,1,604,152.71Z" style="fill:#263238"></path></g><g id="freepik--traffic-cones--inject-6"><polygon points="367.08 442.07 315.86 442.07 337.5 347.58 345.45 347.58 367.08 442.07" style="fill:#F448FF"></polygon><rect x="301.07" y="442.07" width="80.8" height="12.37" style="fill:#F448FF"></rect><polygon points="362.84 423.52 320.1 423.52 323.94 406.75 359 406.75 362.84 423.52" style="fill:#ebebeb"></polygon><polygon points="352.58 378.71 330.37 378.71 334.22 361.94 348.74 361.94 352.58 378.71" style="fill:#ebebeb"></polygon><polygon points="315.86 442.07 316.65 438.57 365.22 433.93 367.08 442.07 315.86 442.07" style="opacity:0.1"></polygon><polygon points="124.39 442.07 73.16 442.07 94.81 347.58 102.75 347.58 124.39 442.07" style="fill:#F448FF"></polygon><rect x="58.37" y="442.07" width="80.8" height="12.37" style="fill:#F448FF"></rect><polygon points="120.14 423.52 77.4 423.52 81.25 406.75 116.3 406.75 120.14 423.52" style="fill:#ebebeb"></polygon><polygon points="109.89 378.71 87.68 378.71 91.52 361.94 106.04 361.94 109.89 378.71" style="fill:#ebebeb"></polygon><polygon points="73.16 442.07 73.96 438.57 122.52 433.93 124.39 442.07 73.16 442.07" style="opacity:0.1"></polygon></g><g id="freepik--speech-bubble--inject-6"><path d="M680.72,89a25.85,25.85,0,0,1-43.21,16.36l-12.94,1.9L631,96.07A25.87,25.87,0,1,1,680.72,89Z" style="fill:#fff"></path><path d="M680.72,89a26.07,26.07,0,0,1-5.22,13.11,28.66,28.66,0,0,1-2.34,2.7,30,30,0,0,1-2.73,2.31,26.11,26.11,0,0,1-13.21,5.14,26.86,26.86,0,0,1-3.59.07,22.65,22.65,0,0,1-3.58-.38,26,26,0,0,1-12.8-6.32l.31.1-12.93,2-.94.15.48-.83,6.43-11.21,0,.44a26.17,26.17,0,0,1,1.6-23.05,26.53,26.53,0,0,1,8.1-8.63A26.32,26.32,0,0,1,663,61.52a26.47,26.47,0,0,1,10,6.12A26,26,0,0,1,680.72,89Zm0,0a25.58,25.58,0,0,0-29.33-28,25.46,25.46,0,0,0-10.68,4.22A26.48,26.48,0,0,0,633,73.67a25.6,25.6,0,0,0-3.29,10.94,26,26,0,0,0,1.82,11.27l.1.23-.13.22L625,107.49l-.46-.68,13-1.82.18,0,.13.12a25.45,25.45,0,0,0,12.38,6.38,21.84,21.84,0,0,0,3.51.42,24.6,24.6,0,0,0,3.54,0,25.68,25.68,0,0,0,6.91-1.52,24.44,24.44,0,0,0,6.24-3.36,23.59,23.59,0,0,0,5.08-5A25.92,25.92,0,0,0,680.72,89Z" style="fill:#263238"></path><polygon points="651.97 101.06 640.92 89.88 644.63 86.21 651.09 92.74 664.49 71.72 668.89 74.53 651.97 101.06" style="fill:#F448FF"></polygon></g></svg>
