<svg xmlns="http://www.w3.org/2000/svg" viewBox="0 0 500 500"><g id="freepik--background-complete--inject-8"><polygon points="132.38 427.35 98.26 275.28 99.23 275.06 131.81 420.21 115.22 213.32 116.21 213.24 133.37 427.2 132.38 427.35" style="fill:#a6a6a6"></polygon><rect x="51.04" y="341.74" width="170.12" height="1" transform="translate(-210.96 465.54) rotate(-87.87)" style="fill:#a6a6a6"></rect><g style="opacity:0.9"><path d="M110.84,202.45s-2.59,12-1.9,12.53,15.63-.76,15.88-1.41-3.45-12.06-3.45-12.06Z" style="fill:#ebebeb"></path><path d="M107.51,109.2c-25.33,2.25-44.05,24.37-39.88,55.15s34.36,41.42,47.1,40.29c9.2-.82,45.1-11.62,41.64-50.56C153.41,120.82,132.76,107,107.51,109.2Z" style="fill:#ebebeb"></path><g style="opacity:0.30000000000000004"><path d="M138.11,139.5a16.84,16.84,0,1,1-8.46-22.26A16.83,16.83,0,0,1,138.11,139.5Z" style="fill:#fff"></path></g></g><g style="opacity:0.9"><path d="M92.82,271.45s.22,12.24,1,12.64,15-4.31,15.14-5-6.12-10.95-6.12-10.95Z" style="fill:#c7c7c7"></path><path d="M68.24,181.44c-24.14,8-37.3,33.81-26.21,62.82S85,276.71,97.11,272.69c8.77-2.9,41.24-21.63,29-58.74C115.58,182.25,92.3,173.48,68.24,181.44Z" style="fill:#c7c7c7"></path><g style="opacity:0.30000000000000004"><path d="M103,209.62a16.84,16.84,0,1,1-10-21.62A16.83,16.83,0,0,1,103,209.62Z" style="fill:#fff"></path></g></g><g style="opacity:0.9"><path d="M134.25,250.3s-4.34,11.44-3.75,12.11,15.57,1.58,15.92,1-1.61-12.44-1.61-12.44Z" style="fill:#dbdbdb"></path><path d="M144.88,157.6c-25.39-1.55-47.2,17.53-47.67,48.59s27.79,46.07,40.56,46.86c9.22.56,46.33-4.77,48.72-43.78C188.52,175.94,170.18,159.15,144.88,157.6Z" style="fill:#dbdbdb"></path><g style="opacity:0.30000000000000004"><path d="M166.85,194.81a16.84,16.84,0,1,1,2.3-23.7A16.85,16.85,0,0,1,166.85,194.81Z" style="fill:#fff"></path></g></g><path d="M126.64,433s-7.5-8-5.9-9.73,6.47,1.33,7.75,1,3.68-3.11,6.31-1.56,2.65,3.9,4.77,3.9,3.17-2.87,5.3-1.81-5.62,8.19-5.62,8.19,6.84,5.31,9.9,11.91-1.89,20.15-4.28,20.15H118.44c-3.67,0-5.57-10.05-5.46-13.88S126.64,433,126.64,433Z" style="fill:#dbdbdb"></path><polygon points="367.62 427.35 366.63 427.2 383.79 213.24 384.78 213.32 368.19 420.21 400.77 275.06 401.74 275.28 367.62 427.35" style="fill:#a6a6a6"></polygon><rect x="363.4" y="257.18" width="1" height="170.12" transform="translate(-12.72 14.05) rotate(-2.17)" style="fill:#a6a6a6"></rect><g style="opacity:0.9"><path d="M389.17,202.45s2.58,12,1.89,12.53-15.63-.76-15.88-1.41,3.45-12.06,3.45-12.06Z" style="fill:#ebebeb"></path><path d="M392.49,109.2c25.33,2.25,44.05,24.37,39.88,55.15s-34.36,41.42-47.1,40.29c-9.2-.82-45.1-11.62-41.64-50.56C346.59,120.82,367.24,107,392.49,109.2Z" style="fill:#ebebeb"></path><g style="opacity:0.30000000000000004"><path d="M361.89,139.5a16.84,16.84,0,1,0,8.46-22.26A16.83,16.83,0,0,0,361.89,139.5Z" style="fill:#fff"></path></g></g><g style="opacity:0.9"><path d="M407.18,271.45s-.22,12.24-1,12.64-15-4.31-15.14-5,6.12-10.95,6.12-10.95Z" style="fill:#c7c7c7"></path><path d="M431.76,181.44c24.14,8,37.3,33.81,26.21,62.82S415,276.71,402.89,272.69c-8.77-2.9-41.24-21.63-29-58.74C384.42,182.25,407.7,173.48,431.76,181.44Z" style="fill:#c7c7c7"></path><g style="opacity:0.30000000000000004"><path d="M397,209.62A16.84,16.84,0,1,0,407,188,16.83,16.83,0,0,0,397,209.62Z" style="fill:#fff"></path></g></g><g style="opacity:0.9"><path d="M365.75,250.3s4.34,11.44,3.75,12.11-15.57,1.58-15.92,1,1.61-12.44,1.61-12.44Z" style="fill:#dbdbdb"></path><path d="M355.12,157.6c25.39-1.55,47.2,17.53,47.67,48.59S375,252.26,362.23,253.05c-9.22.56-46.33-4.77-48.72-43.78C311.48,175.94,329.82,159.15,355.12,157.6Z" style="fill:#dbdbdb"></path><g style="opacity:0.30000000000000004"><path d="M333.15,194.81a16.84,16.84,0,1,0-2.3-23.7A16.85,16.85,0,0,0,333.15,194.81Z" style="fill:#fff"></path></g></g><path d="M373.36,433s7.5-8,5.9-9.73-6.47,1.33-7.75,1-3.68-3.11-6.31-1.56-2.65,3.9-4.77,3.9-3.17-2.87-5.3-1.81,5.62,8.19,5.62,8.19-6.84,5.31-9.9,11.91,1.89,20.15,4.28,20.15h26.43c3.67,0,5.57-10.05,5.46-13.88S373.36,433,373.36,433Z" style="fill:#dbdbdb"></path></g><g id="freepik--Table--inject-8"><path d="M40,465.08c134.56-.61,285.5-.61,420.06,0-134.56.62-285.5.61-420.06,0Z" style="fill:#263238"></path></g><g id="freepik--Gifts--inject-8"><polygon points="454.2 465.08 326.53 465.08 345.15 335.03 435.59 335.03 454.2 465.08" style="fill:#F448FF"></polygon><polygon points="454.2 465.08 326.53 465.08 345.15 335.03 435.59 335.03 454.2 465.08" style="fill:#fff;opacity:0.6000000000000001"></polygon><polygon points="435.58 335.03 421.4 465.08 454.2 465.08 435.58 335.03" style="fill:#F448FF"></polygon><path d="M370.62,344l-4-.85c0-.11,2.33-11,4.81-22.06,2.67-11.92,14.39-17.41,24.19-15.83,7.33,1.19,15.46,6.91,14.24,19.13-1.31,13.09-2.3,19.25-2.35,19.51l-4-.65c0-.06,1-6.32,2.31-19.26.94-9.4-5-13.75-10.83-14.7-7.92-1.28-17.41,3.11-19.56,12.69C373,333,370.64,343.89,370.62,344Z" style="fill:#263238"></path><path d="M423.12,464.08c2.63-1.86,5.35-3.57,8.06-5.29s5.49-3.32,8.28-4.91l.38-.22.35.26c2.16,1.62,4.32,3.24,6.41,4.95s4.21,3.39,6.23,5.2c-2.33-1.4-4.58-2.89-6.81-4.41s-4.44-3.07-6.62-4.66l.73,0q-4.15,2.43-8.39,4.71C428.9,461.25,426.06,462.74,423.12,464.08Z" style="fill:#fff"></path><path d="M439.79,454.46c-.56-8.29-1-16.59-1.36-24.89s-.67-16.6-1-24.9-.51-16.6-.69-24.91l-.23-12.46c0-4.15-.11-8.31-.09-12.46.29,4.14.5,8.29.75,12.44l.62,12.45c.39,8.29.66,16.6,1,24.9s.52,16.6.69,24.91S439.79,446.15,439.79,454.46Z" style="fill:#fff"></path><path d="M374,343.57a5.42,5.42,0,1,1-5.42-5.41A5.41,5.41,0,0,1,374,343.57Z" style="fill:#263238"></path><path d="M410.51,343.57a5.42,5.42,0,1,1-5.42-5.41A5.41,5.41,0,0,1,410.51,343.57Z" style="fill:#263238"></path><path d="M435.67,370.76a8.19,8.19,0,0,1-1.31,4.08,8.33,8.33,0,0,0-.17-.84,8,8,0,0,0-.25-.89,16.57,16.57,0,0,0-3.18-5.48l-.47-.55-.13-.14h0l-.23-.25c-12.88-16.31-25.12,10.12-25.38,10.73h0s-.71-26.35,13.34-27.09C428.89,349.76,436.31,362.61,435.67,370.76Z" style="fill:#F448FF"></path><path d="M434.36,374.84a5.51,5.51,0,0,1-1.15,1.21c-6.71,5.14-27.32,1.62-28.6,1.4l-.07,0c19.38,1.86,24.69-5.19,25.62-10.49l.13.14.47.55a16.85,16.85,0,0,1,3.18,5.48c.1.3.18.6.25.89A8.33,8.33,0,0,1,434.36,374.84Z" style="fill:#F448FF"></path><path d="M434.36,374.84a5.51,5.51,0,0,1-1.15,1.21c-6.71,5.14-27.32,1.62-28.6,1.4l-.07,0c19.38,1.86,24.69-5.19,25.62-10.49l.13.14.47.55a16.85,16.85,0,0,1,3.18,5.48c.1.3.18.6.25.89A8.33,8.33,0,0,1,434.36,374.84Z" style="opacity:0.2"></path><path d="M372.92,373.78a8.26,8.26,0,0,0,1.7,3.93,6.47,6.47,0,0,1,.09-.85,7.56,7.56,0,0,1,.16-.91,16.64,16.64,0,0,1,2.64-5.76c.14-.2.27-.39.42-.59l.11-.15h0a2.69,2.69,0,0,0,.2-.27c11.26-17.46,26,7.67,26.3,8.25h0s-1.81-26.3-15.87-25.68C377.65,352.23,371.5,365.73,372.92,373.78Z" style="fill:#F448FF"></path><path d="M374.62,377.71a5.31,5.31,0,0,0,1.26,1.1c7.17,4.47,27.35-1,28.6-1.36l.06,0c-19.1,3.71-25.07-2.8-26.5-8l-.11.15c-.15.2-.28.39-.42.59a16.91,16.91,0,0,0-2.64,5.76c-.07.31-.12.61-.16.91A6.47,6.47,0,0,0,374.62,377.71Z" style="fill:#F448FF"></path><path d="M374.62,377.71a5.31,5.31,0,0,0,1.26,1.1c7.17,4.47,27.35-1,28.6-1.36l.06,0c-19.1,3.71-25.07-2.8-26.5-8l-.11.15c-.15.2-.28.39-.42.59a16.91,16.91,0,0,0-2.64,5.76c-.07.31-.12.61-.16.91A6.47,6.47,0,0,0,374.62,377.71Z" style="opacity:0.2"></path><polygon points="442.27 465.05 367.34 465.08 373.5 380.56 434.76 383.16 442.27 465.05" style="fill:#455a64"></polygon><polygon points="459.56 465.04 436.3 465.05 433.01 383.16 455.38 385.1 459.56 465.04" style="fill:#263238"></polygon><polygon points="366.29 380.57 366.3 397.07 433.02 395 433.01 376.12 366.29 380.57" style="fill:#37474f"></polygon><polygon points="458.11 397.03 433.02 395 433.01 376.12 459.53 380.53 458.11 397.03" style="fill:#455a64"></polygon><polygon points="410.31 465.06 394.63 465.07 393.02 378.78 411.53 377.55 410.31 465.06" style="fill:#F448FF"></polygon><polygon points="445.91 465.05 451.24 465.05 450.73 379.06 443.28 377.82 445.91 465.05" style="fill:#F448FF"></polygon><path d="M315.66,396.57c1.55-3.66,5.76-7.08,13.19-4.84,11.28,3.4,9.09,20,8.77,22,.43-2.32,4-23.66-7.35-27.16C321.29,383.83,316.54,391.18,315.66,396.57Z" style="fill:#455a64"></path><path d="M315.66,396.57a6.7,6.7,0,0,0,.44,4.35c2.25,3.55,8.86,9.55,20.69,12.83l.79.21a1.76,1.76,0,0,0,0-.21.6.6,0,0,1,0-.12l-.09,0c-11.07-5.32-16.9-11.61-18.75-14.92-.73-1.31-.36-3.64,1-5.71a9.76,9.76,0,0,1,1.07-1.35A8.93,8.93,0,0,0,315.66,396.57Z" style="fill:#263238"></path><path d="M360.38,396.57c-1.55-3.66-5.76-7.08-13.18-4.84-11.29,3.4-9.09,20-8.78,22-.42-2.32-4-23.66,7.35-27.16C354.75,383.83,359.5,391.18,360.38,396.57Z" style="fill:#455a64"></path><path d="M360.38,396.57a6.7,6.7,0,0,1-.44,4.35c-2.25,3.55-8.86,9.55-20.69,12.83l-.79.21s0-.07,0-.21,0-.08,0-.12a.3.3,0,0,0,.08,0c11.07-5.32,16.9-11.61,18.75-14.92.73-1.31.37-3.64-1-5.71a9.83,9.83,0,0,0-1.08-1.35A8.9,8.9,0,0,1,360.38,396.57Z" style="fill:#263238"></path><path d="M308.16,413c-.94-3.16.49-7.43,8.09-9.53,11.54-3.18,19.85,8.77,20.84,10.28-1.06-1.74-11.13-17.5-22.79-14.34C305.07,401.94,305.59,409.06,308.16,413Z" style="fill:#455a64"></path><path d="M308.16,413a6.2,6.2,0,0,0,3,2.65c4.06,1.25,13.27,2,25.21-1.51l.79-.24-.1-.15s0-.06-.06-.09l-.09,0c-12.55,1.82-21.29.48-24.87-.81a4.77,4.77,0,0,1-2.67-4.23,6.12,6.12,0,0,1,.07-1.41A6,6,0,0,0,308.16,413Z" style="fill:#263238"></path><path d="M367.12,413c.94-3.16-.49-7.43-8.09-9.53-11.55-3.18-19.85,8.77-20.85,10.28,1.07-1.74,11.13-17.5,22.8-14.34C370.21,401.94,369.69,409.06,367.12,413Z" style="fill:#455a64"></path><path d="M367.12,413a6.29,6.29,0,0,1-3,2.65c-4.06,1.25-13.28,2-25.21-1.51-.27-.07-.53-.16-.79-.24l.09-.15.06-.09.1,0c12.54,1.82,21.28.48,24.87-.81a4.79,4.79,0,0,0,2.67-4.23,6.12,6.12,0,0,0-.07-1.41A6,6,0,0,1,367.12,413Z" style="fill:#263238"></path><polygon points="366.92 465.08 296.11 465.08 293.21 415.89 370.04 417.42 366.92 465.08" style="fill:#F448FF"></polygon><polygon points="391.76 465.08 366.92 465.08 367.95 417.42 394.8 419.55 391.76 465.08" style="fill:#F448FF"></polygon><polygon points="391.76 465.08 366.92 465.08 367.95 417.42 394.8 419.55 391.76 465.08" style="fill:#fff;opacity:0.6000000000000001"></polygon><polygon points="289.17 415.81 290.89 433.64 367.95 433.64 367.95 412.17 289.17 415.81" style="fill:#F448FF"></polygon><polygon points="289.17 415.81 290.89 433.64 367.95 433.64 367.95 412.17 289.17 415.81" style="opacity:0.1"></polygon><polygon points="397.12 433.64 367.95 433.64 367.95 412.17 399.95 415.95 397.12 433.64" style="fill:#F448FF"></polygon><polygon points="397.12 433.64 367.95 433.64 367.95 412.17 399.95 415.95 397.12 433.64" style="fill:#fff;opacity:0.4"></polygon><polygon points="388.52 414.6 383.06 464.94 376.83 464.94 380.29 413.63 388.52 414.6" style="fill:#455a64"></polygon><polygon points="337.08 413.6 337.08 465.08 320.69 465.08 318.84 414.44 337.08 413.6" style="fill:#455a64"></polygon></g><g id="freepik--Elements--inject-8"><path d="M339.16,69.42a19.94,19.94,0,0,1-2.23,3.22c-3.13,4-8.41,10.14-8.7,11a4.16,4.16,0,0,0,.23,1.67h0c.63,2.5,2,6.88-.13,8.53a2.83,2.83,0,0,1-.79.43c-1.42.5-4.35-.4-7.57-2a49,49,0,0,1-8.06-5c-3.08-2.4-5.34-4.9-5.28-6.58.06-1.39,1.06-4.19,2.49-7.43a104.51,104.51,0,0,1,7.33-13.65c1.47-2.23,2.74-3.79,3.51-4.06,1.15-.39,4,1,7.08,3C332.79,62.31,339.59,68.23,339.16,69.42Z" style="fill:#F448FF"></path><path d="M339.16,69.42a19.94,19.94,0,0,1-2.23,3.22c-3.13,4-8.41,10.14-8.7,11a4.16,4.16,0,0,0,.23,1.67h0c.63,2.5,2,6.88-.13,8.53a2.83,2.83,0,0,1-.79.43c-1.42.5-4.35-.4-7.57-2a49,49,0,0,1-8.06-5c-3.08-2.4-5.34-4.9-5.28-6.58.06-1.39,1.06-4.19,2.49-7.43a104.51,104.51,0,0,1,7.33-13.65c1.47-2.23,2.74-3.79,3.51-4.06,1.15-.39,4,1,7.08,3C332.79,62.31,339.59,68.23,339.16,69.42Z" style="fill:#fff;opacity:0.8"></path><path d="M311.92,87.26c-3.09-2.4-5.35-4.9-5.29-6.58.06-1.39,1.05-4.19,2.49-7.43C311.66,75.47,315.84,80.5,311.92,87.26Z" style="fill:#F448FF"></path><path d="M327.54,94.3c-1.42.51-4.35-.4-7.57-2a9.77,9.77,0,0,1,8.49-7h0C329.15,88.1,330.76,93.15,327.54,94.3Z" style="fill:#F448FF"></path><path d="M317,76.12c-1.2,4.83,1.07,9.7,4.31,13.22a16.24,16.24,0,0,0,7,4.53,2.83,2.83,0,0,1-.79.43c-1.42.5-4.35-.4-7.57-2a49,49,0,0,1-8.06-5c-3.08-2.4-5.34-4.9-5.28-6.58.06-1.39,1.06-4.19,2.49-7.43a104.51,104.51,0,0,1,7.33-13.65c1.47-2.23,2.74-3.79,3.51-4.06,1.15-.39,4,1,7.08,3-1.49,2.07-3,4.16-4.32,6.32C320.51,68.39,318,72.07,317,76.12Z" style="opacity:0.1"></path><path d="M341.52,67.3c.14.53-.58,2-1.52,3.21s-1.91,2.19-2.63,2.23c-1.63.08-20.76-11.64-21.27-13.67-.38-1.51,3.33-6.12,4.27-6.36,1.12-.29,6.59,3,11.69,6.62C336.82,62.67,341.25,66.23,341.52,67.3Z" style="fill:#F448FF"></path><path d="M340,70.51c-.86,1.17-1.91,2.19-2.63,2.23-1.63.08-20.76-11.64-21.27-13.67-.38-1.51,3.33-6.12,4.27-6.36,1.12-.29,6.59,3,11.69,6.62H332a12,12,0,0,0-4.09-1c-4.48.39-2.26,4.07-.72,5.64a24.09,24.09,0,0,0,5.52,4,21.41,21.41,0,0,0,6.93,2.54Z" style="opacity:0.1"></path><path d="M372.62,64.31a19.8,19.8,0,0,1-1.53,3.61c-2.25,4.55-6.17,11.63-6.27,12.57a4.22,4.22,0,0,0,.57,1.58h0c1.12,2.32,3.36,6.32,1.61,8.38a2.83,2.83,0,0,1-.69.58c-1.29.78-4.34.49-7.82-.41a49.74,49.74,0,0,1-8.91-3.3c-3.51-1.73-6.23-3.71-6.51-5.37-.23-1.37.17-4.32.92-7.78a104.43,104.43,0,0,1,4.4-14.85c1-2.49,1.91-4.28,2.61-4.7,1-.61,4.08.17,7.55,1.53C364.94,58.64,372.8,63.06,372.62,64.31Z" style="fill:#F448FF"></path><path d="M372.62,64.31a19.8,19.8,0,0,1-1.53,3.61c-2.25,4.55-6.17,11.63-6.27,12.57a4.22,4.22,0,0,0,.57,1.58h0c1.12,2.32,3.36,6.32,1.61,8.38a2.83,2.83,0,0,1-.69.58c-1.29.78-4.34.49-7.82-.41a49.74,49.74,0,0,1-8.91-3.3c-3.51-1.73-6.23-3.71-6.51-5.37-.23-1.37.17-4.32.92-7.78a104.43,104.43,0,0,1,4.4-14.85c1-2.49,1.91-4.28,2.61-4.7,1-.61,4.08.17,7.55,1.53C364.94,58.64,372.8,63.06,372.62,64.31Z" style="fill:#fff;opacity:0.8"></path><path d="M349.58,87.32c-3.52-1.73-6.23-3.71-6.51-5.37-.23-1.38.17-4.32.92-7.78C346.93,75.83,352,79.9,349.58,87.32Z" style="fill:#F448FF"></path><path d="M366.31,91c-1.29.78-4.34.49-7.82-.41a9.77,9.77,0,0,1,6.9-8.55h0C366.63,84.64,369.23,89.25,366.31,91Z" style="fill:#F448FF"></path><path d="M352.27,75.38c-.19,5,3,9.28,6.91,12.07a16.22,16.22,0,0,0,7.82,3,2.83,2.83,0,0,1-.69.58c-1.29.78-4.34.49-7.82-.41a49.74,49.74,0,0,1-8.91-3.3c-3.51-1.73-6.23-3.71-6.51-5.37-.23-1.37.17-4.32.92-7.78a104.43,104.43,0,0,1,4.4-14.85c1-2.49,1.91-4.28,2.61-4.7,1-.61,4.08.17,7.55,1.53-1,2.34-2.05,4.68-2.95,7.08C354.15,67.09,352.43,71.21,352.27,75.38Z" style="opacity:0.1"></path><path d="M374.5,61.75c.24.49-.17,2-.83,3.45s-1.42,2.54-2.13,2.72c-1.57.41-22.69-7.17-23.6-9.06-.68-1.39,2-6.67,2.88-7.09,1-.51,7.08,1.63,12.79,4.1C369,58.17,374,60.76,374.5,61.75Z" style="fill:#F448FF"></path><path d="M373.67,65.2c-.6,1.33-1.42,2.54-2.13,2.72-1.57.41-22.69-7.17-23.6-9.06-.68-1.39,2-6.67,2.88-7.09,1-.51,7.08,1.63,12.79,4.1h-.05a11.53,11.53,0,0,0-4.21-.17c-4.31,1.3-1.39,4.45.44,5.67A24.21,24.21,0,0,0,366,64.15a21.57,21.57,0,0,0,7.31,1.08Z" style="opacity:0.1"></path><path d="M275.68,102.21a16.82,16.82,0,0,1-1.1,1.52c-4.23,5.21-11.18,7.53-19.73,7.88a36.83,36.83,0,0,1-24-7.75,14.71,14.71,0,0,1-5.17-15.6c2.3-7,9.63-10.28,9.38-10.92-.15-.38-2.23-1.55-3.58-4.15a11.31,11.31,0,0,1-.94-7.33A15.18,15.18,0,0,1,232.25,61c3-5.47,9.29-9.66,16.48-8.65a19.45,19.45,0,0,1,7.82,2.82,15.4,15.4,0,0,1,7.2,12.95c.1,7.9-6.94,12.23-6.57,12.14,10.45-2.6,15,2.43,15.3,2s.28-8.59,1.33-8.52,3.53,3.59,5.1,8C281,87.67,279.74,95.93,275.68,102.21Z" style="fill:#F448FF"></path><path d="M234.22,68.09c-.23,1.74-2.76,5.1-2.76,5.1s-3,.61-7.29-2.32-4.47-6.92-3.73-7.44,3.07,1.06,5.34,1,5.92-2.39,6.46-3.46h0C232.37,61.24,234.57,65.39,234.22,68.09Z" style="fill:#F448FF"></path><path d="M234.22,68.09c-.23,1.74-2.76,5.1-2.76,5.1s-3,.61-7.29-2.32-4.47-6.92-3.73-7.44,3.07,1.06,5.34,1,5.92-2.39,6.46-3.46h0C232.37,61.24,234.57,65.39,234.22,68.09Z" style="fill:#fff;opacity:0.4"></path><path d="M243.32,66.33c-3.36-1.82-6.19,3.4-2.82,5.22S246.69,68.15,243.32,66.33Z" style="fill:#263238"></path><path d="M271.65,94.72A35.42,35.42,0,0,0,254,86.05a.17.17,0,0,0-.09.33,37.59,37.59,0,0,1,16,8.88c-7.26,5.94-17,8.56-25.54,3.37-.15-.09-.32.13-.18.24,8.51,6.87,20.11,4.33,27.48-3A.79.79,0,0,0,271.65,94.72Z" style="opacity:0.1"></path><path d="M274.58,103.73c-4.23,5.21-11.18,7.53-19.73,7.88a36.83,36.83,0,0,1-24-7.75,14.71,14.71,0,0,1-5.17-15.6c2.3-7,9.63-10.28,9.38-10.92-.15-.38-2.23-1.55-3.58-4.15,0,0-3,.61-7.29-2.32s-4.47-6.92-3.73-7.44,3.07,1.06,5.34,1,5.92-2.39,6.46-3.46h0c3-5.47,9.29-9.66,16.48-8.65a19.45,19.45,0,0,1,7.82,2.82.49.49,0,0,1-.36-.08l-.27-.19c-5.47-.82-11.23,1.61-13.58,6.86a11.4,11.4,0,0,0-1,4.26,12.54,12.54,0,0,0,1.24,5.82A29.69,29.69,0,0,0,246,77.33a.33.33,0,0,1,0,.41c-4.89,4.61-10.48,10-10.32,17.3.18,7.86,8.06,11.4,14.73,12.78A34,34,0,0,0,274.58,103.73Z" style="opacity:0.1"></path><path d="M270,52.39c-33.87,0-68.9-1.64-104.72-4.9C69.54,38.77.56,21.22-.12,21l.24-1c.69.18,69.61,17.72,165.23,26.43,56.15,5.11,110.39,6.22,161.2,3.3,63.51-3.66,121.82-13.65,173.3-29.72l.3,1c-51.57,16.09-110,26.11-173.55,29.77Q298.92,52.39,270,52.39Z" style="fill:#F448FF"></path><path d="M270,52.39c-33.87,0-68.9-1.64-104.72-4.9C69.54,38.77.56,21.22-.12,21l.24-1c.69.18,69.61,17.72,165.23,26.43,56.15,5.11,110.39,6.22,161.2,3.3,63.51-3.66,121.82-13.65,173.3-29.72l.3,1c-51.57,16.09-110,26.11-173.55,29.77Q298.92,52.39,270,52.39Z" style="opacity:0.4"></path><path d="M160.54,72.91a14.64,14.64,0,0,1-.39,3.53A14.08,14.08,0,0,1,136,82a15.59,15.59,0,0,1-3-6.31c-1.91-8.25-.49-22.76,8.59-24.85a10,10,0,0,1,1.93-.23c8.21-.08,14.88,11.19,16.62,18.86A16,16,0,0,1,160.54,72.91Z" style="fill:#455a64"></path><path d="M154.52,65.07a45.63,45.63,0,0,0-18.38,4.22c-.54-10.23,3.12-14.83,6.12-15.52h0C145.26,53.08,150.55,55.64,154.52,65.07Z" style="fill:#F448FF"></path><path d="M154.52,65.07a45.63,45.63,0,0,0-18.38,4.22c-.54-10.23,3.12-14.83,6.12-15.52h0C145.26,53.08,150.55,55.64,154.52,65.07Z" style="fill:#fff;opacity:0.7000000000000001"></path><path d="M160.15,76.44A14.07,14.07,0,0,1,136,82a22.78,22.78,0,0,1,24.13-5.53Z" style="fill:#fff"></path><path d="M138.17,71.35a1.41,1.41,0,0,1-1-2.59A33.18,33.18,0,0,1,153.31,65a1.41,1.41,0,0,1-.06,2.82,30.6,30.6,0,0,0-14.69,3.35A1.56,1.56,0,0,1,138.17,71.35Z" style="fill:#fff"></path><path d="M138.94,74.74a1.4,1.4,0,0,1-1.53-.67,1.42,1.42,0,0,1,.51-1.93,33.2,33.2,0,0,1,16.17-3.72,1.41,1.41,0,0,1-.06,2.82,30.56,30.56,0,0,0-14.69,3.35A1.49,1.49,0,0,1,138.94,74.74Z" style="fill:#fff"></path><path d="M160.54,72.91a14.64,14.64,0,0,1-.39,3.53A14.08,14.08,0,0,1,136,82a15.59,15.59,0,0,1-3-6.31c-1.91-8.25-.49-22.76,8.59-24.85a10,10,0,0,1,1.93-.23c-3.74,2.84-5,8-5.54,12.54-.61,5.07.27,10.85,4.49,14.21a11.8,11.8,0,0,0,12.44,1A13.54,13.54,0,0,0,160.54,72.91Z" style="opacity:0.1"></path><path d="M192.27,76.64A14.83,14.83,0,0,1,191.1,80a14.08,14.08,0,0,1-24.76,0,15.43,15.43,0,0,1-1.54-6.82c0-8.47,4.62-22.3,13.93-22.3a9.45,9.45,0,0,1,1.94.21c8,1.75,12,14.24,12,22.1A17.08,17.08,0,0,1,192.27,76.64Z" style="fill:#455a64"></path><path d="M188.16,67.66a45.68,45.68,0,0,0-18.87,0c1.77-10.09,6.36-13.75,9.44-13.75h0C181.81,53.9,186.4,57.57,188.16,67.66Z" style="fill:#F448FF"></path><path d="M188.16,67.66a45.68,45.68,0,0,0-18.87,0c1.77-10.09,6.36-13.75,9.44-13.75h0C181.81,53.9,186.4,57.57,188.16,67.66Z" style="fill:#fff;opacity:0.7000000000000001"></path><path d="M191.1,80a14.07,14.07,0,0,1-24.76,0,22.77,22.77,0,0,1,24.76,0Z" style="fill:#fff"></path><path d="M170.81,70.12a1.41,1.41,0,0,1-.42-2.76,33.14,33.14,0,0,1,16.59,0,1.41,1.41,0,1,1-.69,2.73,30.66,30.66,0,0,0-15.06,0A1.23,1.23,0,0,1,170.81,70.12Z" style="fill:#fff"></path><path d="M170.81,73.59a1.41,1.41,0,0,1-.42-2.76,33.27,33.27,0,0,1,16.59,0,1.41,1.41,0,0,1-.69,2.74,30.66,30.66,0,0,0-15.06,0A1.58,1.58,0,0,1,170.81,73.59Z" style="fill:#fff"></path><path d="M192.27,76.64A14.83,14.83,0,0,1,191.1,80a14.08,14.08,0,0,1-24.76,0,15.43,15.43,0,0,1-1.54-6.82c0-8.47,4.62-22.3,13.93-22.3a9.45,9.45,0,0,1,1.94.21c-4.28,1.92-6.66,6.65-8.22,11-1.72,4.8-2.16,10.63,1.2,14.86a11.81,11.81,0,0,0,11.91,3.73A13.56,13.56,0,0,0,192.27,76.64Z" style="opacity:0.1"></path><path d="M97.74,99.56c-10.07,7.34-23.27,5.35-27.81,4.25s-17.19-5.4-22.77-16.54,5.29-41.28,17-47.85c5.46-3.06,11.75,1.33,11.8,3.93.07,3.31-4.66,10.58-4.49,13.75.23,4.37,4.4,6.88,7.9,7.73s8.36.54,10.57-3.25c1.61-2.74.73-11.36,2.32-14.28,1.24-2.28,8.83-3.29,12.29,1.93C112,60.44,107.8,92.22,97.74,99.56Z" style="fill:#F448FF"></path><path d="M98.43,100.48a23.34,23.34,0,0,1-8.72,4.43,35.74,35.74,0,0,1-9.84,1.23A46.52,46.52,0,0,1,69.76,105l-.1,0,.27-1.16.29-1.15a45.44,45.44,0,0,0,13.34,1c4.61-.4,9.59-1.72,13.49-5,7.12-6,10.53-21.23,10.21-33.27-.24-8.87-2.38-15.55-5.75-17.88a7.49,7.49,0,0,0-6-.84A4,4,0,0,0,93,48.26a27.09,27.09,0,0,0-.88,5.49c-.56,5.38-1,9-2.64,10.41-3.8,3.4-9.63,2-10.34,1.83l-.07,0a13.82,13.82,0,0,1-2.59-.88,10.39,10.39,0,0,1-5.77-5.49c-.76-2,.46-5.43,2.42-10.46a25.94,25.94,0,0,0,1.75-5.28,4.09,4.09,0,0,0-1.51-2.59,7.45,7.45,0,0,0-5.69-2c-4.06.52-9,5.47-13.31,13.25-5.8,10.55-9.79,25.69-6.19,34.24,5,11.87,21.85,15.84,22,15.88l-.26,1.16-.3,1.15-.11,0a46.17,46.17,0,0,1-9.5-3.61C53.2,97.84,48.4,93.16,46.13,87.78,43.27,81,44,66.69,52.44,51.38c4.7-8.56,10.18-13.83,15-14.45a9.57,9.57,0,0,1,7.41,2.53,6.23,6.23,0,0,1,2.27,4.31c0,1.2-.73,3.15-1.92,6.23-1.08,2.77-2.9,7.42-2.42,8.67,1.47,3.82,6.78,5,6.83,5h.07a7.89,7.89,0,0,0,1,.19c1.67.27,5.13.51,7.38-1.5,1-.89,1.51-5.85,1.83-8.81.34-3.29.58-5.35,1.15-6.41a6.14,6.14,0,0,1,4-2.79,9.59,9.59,0,0,1,7.75,1.14c4,2.78,6.48,10,6.74,19.74C110,82.71,104.09,95.75,98.43,100.48Z" style="fill:#F448FF"></path><path d="M98.43,100.48a23.34,23.34,0,0,1-8.72,4.43,35.74,35.74,0,0,1-9.84,1.23A46.52,46.52,0,0,1,69.76,105l-.1,0,.27-1.16.29-1.15a45.44,45.44,0,0,0,13.34,1c4.61-.4,9.59-1.72,13.49-5,7.12-6,10.53-21.23,10.21-33.27-.24-8.87-2.38-15.55-5.75-17.88a7.49,7.49,0,0,0-6-.84A4,4,0,0,0,93,48.26a27.09,27.09,0,0,0-.88,5.49c-.56,5.38-1,9-2.64,10.41-3.8,3.4-9.63,2-10.34,1.83l-.07,0a13.82,13.82,0,0,1-2.59-.88,10.39,10.39,0,0,1-5.77-5.49c-.76-2,.46-5.43,2.42-10.46a25.94,25.94,0,0,0,1.75-5.28,4.09,4.09,0,0,0-1.51-2.59,7.45,7.45,0,0,0-5.69-2c-4.06.52-9,5.47-13.31,13.25-5.8,10.55-9.79,25.69-6.19,34.24,5,11.87,21.85,15.84,22,15.88l-.26,1.16-.3,1.15-.11,0a46.17,46.17,0,0,1-9.5-3.61C53.2,97.84,48.4,93.16,46.13,87.78,43.27,81,44,66.69,52.44,51.38c4.7-8.56,10.18-13.83,15-14.45a9.57,9.57,0,0,1,7.41,2.53,6.23,6.23,0,0,1,2.27,4.31c0,1.2-.73,3.15-1.92,6.23-1.08,2.77-2.9,7.42-2.42,8.67,1.47,3.82,6.78,5,6.83,5h.07a7.89,7.89,0,0,0,1,.19c1.67.27,5.13.51,7.38-1.5,1-.89,1.51-5.85,1.83-8.81.34-3.29.58-5.35,1.15-6.41a6.14,6.14,0,0,1,4-2.79,9.59,9.59,0,0,1,7.75,1.14c4,2.78,6.48,10,6.74,19.74C110,82.71,104.09,95.75,98.43,100.48Z" style="fill:#fff;opacity:0.7000000000000001"></path><polygon points="69.66 104.97 69.63 104.96 69.93 103.81 69.66 104.97" style="fill:#e7c1c1"></polygon><polygon points="69.66 104.97 69.63 104.96 69.93 103.81 69.66 104.97" style="fill:#e7c1c1"></polygon><g style="opacity:0.7000000000000001"><path d="M84.05,82.46c-3.37,6.71-10.51,9.14-10.74,9,0,0-5.6-5.9-6.21-12.09-.36-3.67,1.62-8,4.31-8.7,3.84-1,4.91,4.54,3.94,11.78,1.85-6.52,5.65-11.36,9-8.57C86.47,75.68,85.08,80.4,84.05,82.46Z" style="fill:#fff"></path><path d="M65.51,83.15a10.38,10.38,0,0,1-2.9,7.46s-4.42-1.41-6.43-4.34c-1.2-1.73-1.39-4.43-.25-5.54,1.63-1.58,3.71.92,5.22,4.81-.87-3.77-.3-7.24,2.13-6.76C64.85,79.09,65.46,81.83,65.51,83.15Z" style="fill:#fff"></path><path d="M91,93.42a10.43,10.43,0,0,1-7.65,2.36s-1.64-4.34-.6-7.74c.62-2,2.61-3.84,4.2-3.63,2.25.29,1.58,3.48-.53,7.07,2.42-3,5.48-4.73,6.62-2.53C93.8,90.38,92,92.56,91,93.42Z" style="fill:#fff"></path></g><path d="M89.71,104.91a35.74,35.74,0,0,1-9.84,1.23A46.52,46.52,0,0,1,69.76,105l-.1,0,.27-1.16-.3,1.15-.11,0a46.17,46.17,0,0,1-9.5-3.61C53.2,97.84,48.4,93.16,46.13,87.78,43.27,81,44,66.69,52.44,51.38c4.7-8.56,10.18-13.83,15-14.45a9.57,9.57,0,0,1,7.41,2.53,6.23,6.23,0,0,1,2.27,4.31c0,1.2-.73,3.15-1.92,6.23-1.08,2.77-2.9,7.42-2.42,8.67,1.47,3.82,6.78,5,6.83,5h.07a7.89,7.89,0,0,0,1,.19,22.44,22.44,0,0,0-2.48.61c-.59.18-1.16.38-1.72.61A18.27,18.27,0,0,0,66.1,75.19a19.59,19.59,0,0,0,3.82,19.88,29.29,29.29,0,0,0,13.64,8.54c.9.27,1.8.51,2.72.71C87.41,104.57,88.56,104.77,89.71,104.91Z" style="opacity:0.1"></path><path d="M454.4,88.33c-5.19,11.32-17.68,16-22.18,17.31s-17.63,3.7-28-3.29-15.58-38.6-8.56-50.06c3.27-5.34,10.9-4.59,12.21-2.35,1.69,2.86,1.12,11.51,2.82,14.19,2.34,3.7,7.2,3.85,10.67,2.88S429,63.39,429,59c.06-3.18-4.92-10.27-5-13.59,0-2.6,6.09-7.19,11.66-4.33C447.69,47.25,459.59,77,454.4,88.33Z" style="fill:#455a64"></path><path d="M455.45,88.79A23.16,23.16,0,0,1,450,96.92a35.3,35.3,0,0,1-8,5.89,46.32,46.32,0,0,1-9.38,3.94l-.1,0-.33-1.14-.31-1.15A44.89,44.89,0,0,0,444,98.8c3.83-2.6,7.53-6.19,9.33-10.94,3.31-8.66-1.2-23.66-7.36-34-4.54-7.62-9.68-12.39-13.75-12.78a7.47,7.47,0,0,0-5.63,2.19,4.09,4.09,0,0,0-1.42,2.64,27.4,27.4,0,0,0,1.93,5.22c2.13,5,3.48,8.36,2.78,10.37-1.65,4.82-7.41,6.47-8.13,6.66h-.06a15,15,0,0,1-2.7.5,10.45,10.45,0,0,1-7.71-2c-1.63-1.35-2.25-5-3-10.31a26.37,26.37,0,0,0-1.06-5.46,4.06,4.06,0,0,0-2.59-1.52,7.44,7.44,0,0,0-5.93,1.05c-3.29,2.44-5.21,9.19-5.13,18.06.1,12,4,27.2,11.34,32.9,10.18,7.9,26.81,3.13,27,3.09l.34,1.14.3,1.15-.1,0a46.59,46.59,0,0,1-10.07,1.49c-7.64.31-14.12-1.43-18.73-5-5.83-4.53-12.16-17.36-12.3-34.83-.08-9.77,2.12-17,6.05-20a9.6,9.6,0,0,1,7.7-1.41,6.17,6.17,0,0,1,4.08,2.65c.6,1,.91,3.1,1.37,6.37.42,3,1.11,7.89,2.14,8.74,3.15,2.62,8.35,1,8.4,1h.06s.39-.1.95-.32c1.6-.58,4.73-2.06,5.7-4.91.44-1.27-1.53-5.85-2.71-8.59-1.31-3-2.1-4.95-2.13-6.15A6.17,6.17,0,0,1,425,41.51a9.6,9.6,0,0,1,7.32-2.8c4.87.46,10.53,5.53,15.53,13.92C456.83,67.65,458.08,81.9,455.45,88.79Z" style="fill:#37474f"></path><polygon points="432.55 106.78 432.52 106.79 432.22 105.64 432.55 106.78" style="fill:#e7c1c1"></polygon><polygon points="432.55 106.78 432.52 106.79 432.22 105.64 432.55 106.78" style="fill:#e7c1c1"></polygon><path d="M402,82.72s-2.72,1.11-2.29,3.71,4.12,1.71,4.12,1.71a3.94,3.94,0,0,0,3.61,2.54,5.2,5.2,0,0,0,4.67-2.26,2.84,2.84,0,0,0,2.45.61,2.35,2.35,0,0,0,1.84-1.65,4.71,4.71,0,0,0,3.29-.5,3.59,3.59,0,0,0,1.67-2.45s2.29-.11,2.35-2.24-2.56-2.34-2.56-2.34-.62-3.35-3.11-3.92a6.06,6.06,0,0,0-5.18,1.28s-3.46-3.25-7.54-1.69S402,82.72,402,82.72Z" style="fill:#fff"></path><path d="M434.32,81.65a2.53,2.53,0,0,0-1.6,2.58c.31,1.82,2.87,1.19,2.87,1.19a2.75,2.75,0,0,0,2.52,1.77,3.61,3.61,0,0,0,3.25-1.57,2,2,0,0,0,1.71.42,1.64,1.64,0,0,0,1.28-1.15,3.28,3.28,0,0,0,2.3-.35,2.54,2.54,0,0,0,1.16-1.71,1.68,1.68,0,0,0,1.64-1.56c0-1.48-1.79-1.63-1.79-1.63s-.43-2.33-2.16-2.73a4.22,4.22,0,0,0-3.62.9s-2.4-2.27-5.25-1.18S434.32,81.65,434.32,81.65Z" style="fill:#fff"></path><path d="M425.31,95.16a1.92,1.92,0,0,1,1.84,1.38c.29,1.37-1.69,1.64-1.69,1.64a2.08,2.08,0,0,1-1.29,1.94,2.73,2.73,0,0,1-2.72-.21,1.51,1.51,0,0,1-1.09.77,1.24,1.24,0,0,1-1.22-.45,2.45,2.45,0,0,1-1.71.38,1.92,1.92,0,0,1-1.3-.88,1.26,1.26,0,0,1-1.58-.64c-.44-1,.81-1.65.81-1.65s-.35-1.76.76-2.52a3.22,3.22,0,0,1,2.8-.37,4.1,4.1,0,0,1,3.37-2.28C424.59,92.25,425.31,95.16,425.31,95.16Z" style="fill:#fff"></path><path d="M442.22,63.44a1.92,1.92,0,0,1,1.84,1.38c.29,1.37-1.69,1.64-1.69,1.64a2.08,2.08,0,0,1-1.28,1.94,2.75,2.75,0,0,1-2.73-.21,1.5,1.5,0,0,1-1.08.77,1.27,1.27,0,0,1-1.23-.45,2.45,2.45,0,0,1-1.71.38,1.89,1.89,0,0,1-1.29-.88,1.27,1.27,0,0,1-1.59-.64c-.44-1,.81-1.65.81-1.65s-.34-1.76.77-2.52a3.19,3.19,0,0,1,2.79-.37,4.1,4.1,0,0,1,3.37-2.28C441.51,60.53,442.22,63.44,442.22,63.44Z" style="fill:#fff"></path><path d="M450,96.92a35.3,35.3,0,0,1-8,5.89,46.32,46.32,0,0,1-9.38,3.94l-.1,0-.33-1.14.3,1.15-.1,0a46.59,46.59,0,0,1-10.07,1.49c-7.64.31-14.12-1.43-18.73-5-5.83-4.53-12.16-17.36-12.3-34.83-.08-9.77,2.12-17,6.05-20a9.6,9.6,0,0,1,7.7-1.41,6.17,6.17,0,0,1,4.08,2.65c.6,1,.91,3.1,1.37,6.37.42,3,1.11,7.89,2.14,8.74,3.15,2.62,8.35,1,8.4,1h.06s.39-.1.95-.32a20.57,20.57,0,0,0-1.86,1.75A17.43,17.43,0,0,0,419,68.66a18.26,18.26,0,0,0-4.11,13.89A19.55,19.55,0,0,0,427.94,98,29.24,29.24,0,0,0,444,98.8c.92-.2,1.82-.44,2.72-.71C447.84,97.75,448.93,97.36,450,96.92Z" style="opacity:0.1"></path><path d="M247,54.62a5.77,5.77,0,0,1-1.1-.1,5.15,5.15,0,0,1-1.07-.25c-.14-.07.82-10.9.92-11.17s1.52-.18,2-.1,1.86.44,1.88.73S247.15,54.6,247,54.62Z" style="fill:#F448FF"></path><g style="opacity:0.4"><path d="M247,54.62a5.77,5.77,0,0,1-1.1-.1,5.15,5.15,0,0,1-1.07-.25c-.14-.07.82-10.9.92-11.17s1.52-.18,2-.1,1.86.44,1.88.73S247.15,54.6,247,54.62Z"></path></g><path d="M432.44,43.17a4.92,4.92,0,0,1-1.09-.1,5.45,5.45,0,0,1-1.08-.25c-.13-.07.82-10.9.93-11.17s1.51-.18,2-.1,1.86.44,1.88.73S432.59,43.15,432.44,43.17Z" style="fill:#F448FF"></path><g style="opacity:0.4"><path d="M432.44,43.17a4.92,4.92,0,0,1-1.09-.1,5.45,5.45,0,0,1-1.08-.25c-.13-.07.82-10.9.93-11.17s1.51-.18,2-.1,1.86.44,1.88.73S432.59,43.15,432.44,43.17Z"></path></g><path d="M402.15,49.23a6.14,6.14,0,0,1-1,.48,5,5,0,0,1-1.05.35c-.15,0-5-9.72-5.05-10s1.19-1,1.66-1.14,1.82-.6,2-.36S402.26,49.13,402.15,49.23Z" style="fill:#F448FF"></path><g style="opacity:0.4"><path d="M402.15,49.23a6.14,6.14,0,0,1-1,.48,5,5,0,0,1-1.05.35c-.15,0-5-9.72-5.05-10s1.19-1,1.66-1.14,1.82-.6,2-.36S402.26,49.13,402.15,49.23Z"></path></g><path d="M323.12,57.06a5.4,5.4,0,0,1-1,.4,5.48,5.48,0,0,1-1.07.27c-.15,0-4.18-10.11-4.21-10.39s1.27-.85,1.76-1,1.86-.44,2-.2S323.24,57,323.12,57.06Z" style="fill:#F448FF"></path><g style="opacity:0.4"><path d="M323.12,57.06a5.4,5.4,0,0,1-1,.4,5.48,5.48,0,0,1-1.07.27c-.15,0-4.18-10.11-4.21-10.39s1.27-.85,1.76-1,1.86-.44,2-.2S323.24,57,323.12,57.06Z"></path></g><path d="M354.9,54.53a6.9,6.9,0,0,1-1.1.08,6.34,6.34,0,0,1-1.1-.06c-.14,0-1-10.89-1-11.17s1.46-.43,2-.44,1.91.12,2,.4S355,54.47,354.9,54.53Z" style="fill:#F448FF"></path><g style="opacity:0.4"><path d="M354.9,54.53a6.9,6.9,0,0,1-1.1.08,6.34,6.34,0,0,1-1.1-.06c-.14,0-1-10.89-1-11.17s1.46-.43,2-.44,1.91.12,2,.4S355,54.47,354.9,54.53Z"></path></g><path d="M179.33,53.66a5.89,5.89,0,0,1-1.1-.11,5.45,5.45,0,0,1-1.08-.25c-.13-.07.83-10.9.93-11.17s1.52-.18,2-.1,1.86.45,1.88.73S179.47,53.63,179.33,53.66Z" style="fill:#F448FF"></path><g style="opacity:0.4"><path d="M179.33,53.66a5.89,5.89,0,0,1-1.1-.11,5.45,5.45,0,0,1-1.08-.25c-.13-.07.83-10.9.93-11.17s1.52-.18,2-.1,1.86.45,1.88.73S179.47,53.63,179.33,53.66Z"></path></g><path d="M72.36,38.81a5.77,5.77,0,0,1-1.1-.1,5.15,5.15,0,0,1-1.07-.25c-.14-.07.82-10.9.92-11.17s1.52-.18,2-.1,1.86.44,1.88.73S72.51,38.79,72.36,38.81Z" style="fill:#F448FF"></path><g style="opacity:0.4"><path d="M72.36,38.81a5.77,5.77,0,0,1-1.1-.1,5.15,5.15,0,0,1-1.07-.25c-.14-.07.82-10.9.92-11.17s1.52-.18,2-.1,1.86.44,1.88.73S72.51,38.79,72.36,38.81Z"></path></g><path d="M144.35,51.37a6.24,6.24,0,0,1-1,.49,5.74,5.74,0,0,1-1.05.35c-.15,0-5-9.7-5.1-10s1.19-.95,1.66-1.15,1.82-.6,2-.37S144.46,51.27,144.35,51.37Z" style="fill:#F448FF"></path><g style="opacity:0.4"><path d="M144.35,51.37a6.24,6.24,0,0,1-1,.49,5.74,5.74,0,0,1-1.05.35c-.15,0-5-9.7-5.1-10s1.19-.95,1.66-1.15,1.82-.6,2-.37S144.46,51.27,144.35,51.37Z"></path></g><path d="M101.5,46.14a6.76,6.76,0,0,1-1-.53,6,6,0,0,1-.89-.66c-.09-.11,5.06-9.69,5.27-9.89s1.46.43,1.89.7,1.53,1.14,1.44,1.42S101.64,46.17,101.5,46.14Z" style="fill:#F448FF"></path><g style="opacity:0.4"><path d="M101.5,46.14a6.76,6.76,0,0,1-1-.53,6,6,0,0,1-.89-.66c-.09-.11,5.06-9.69,5.27-9.89s1.46.43,1.89.7,1.53,1.14,1.44,1.42S101.64,46.17,101.5,46.14Z"></path></g></g><g id="freepik--Character--inject-8"><path d="M261.43,301.36c-20.81,29.21-65.94,33.12-90.07,5.67-12.68-14.42-14.42-34-12.05-52.37,2.89-22.47,8.49-44.56,11.38-67.1,2.5-19.51,1.52-41.49,9.9-59.66,5.3-11.49,16.14-21.14,28.71-21.92a33.81,33.81,0,0,1,41.22,9.84c13.75,17.35,13.23,42.37,16.6,63.2,3.49,21.7,7.71,43.46,8,65.5C275.33,263.89,273,285.16,261.43,301.36Z" style="fill:#263238"></path><path d="M183.06,308.31c-34.81-5.46-30.22-52.26-23.63-77,4-15.06,10.14-29.37,13.23-44.71,3-14.77,4.3-29.73,5.51-44.73,0-.13-.19-.13-.21,0-2.25,18-4.36,36.22-9,53.83-4.36,16.63-11.49,32.28-14.08,49.38-2.16,14.27-3.47,30.07,2.27,43.7,4.48,10.62,13.89,19.61,25.74,20.62C183.53,309.47,183.69,308.4,183.06,308.31Z" style="fill:#263238"></path><path d="M276.66,237.14c-1.79-20.44-5.85-40.76-9.4-60.95-3.41-19.34-6.12-39.32-15.12-57a.1.1,0,0,0-.17.1c8.13,16.48,10.19,35.38,13.25,53.29,3.32,19.41,7.08,38.85,9.44,58.41,2.18,18.12,3,37.79-5.29,54.6A60.21,60.21,0,0,1,233.94,316c-.6.2-.34,1.17.27,1a61.33,61.33,0,0,0,34.58-28.09C277.57,273.18,278.18,254.61,276.66,237.14Z" style="fill:#263238"></path><path d="M190.33,121.23c-14,9.1-17.17,25.83-19.92,41.11-3.45,19.25-7.63,38.31-11.81,57.41-3.7,16.91-7.32,35-3.5,52.23,3.52,15.86,12.88,29.32,24.39,40.45.17.16.42-.09.26-.25-11.13-11.12-20.26-24.95-23.59-40.49-3.79-17.65.25-36.23,4.13-53.51,3.84-17.11,7.57-34.22,10.72-51.47,2.93-16,5.18-34.57,20-44.32C191.73,121.92,191.06,120.76,190.33,121.23Z" style="fill:#263238"></path><path d="M282.37,252.14c-1-16.19-5.19-32.08-8.33-47.94-3.26-16.44-4.26-33.18-7.26-49.65-2.83-15.51-8.17-29.36-18.64-41.42-.12-.13-.3.06-.19.19,11.76,14.42,16.36,31.24,18.9,49.29,2.64,18.69,4.77,37.14,8.75,55.62,3.92,18.19,9.38,38.61,3.6,57a54,54,0,0,1-33.88,34.37c-.36.13-.21.69.15.57C270.59,301.89,284,277.74,282.37,252.14Z" style="fill:#263238"></path><path d="M226.73,465.08H136.81c2.43-12.25,5.4-27.23,7.62-38.37,1.87-9.42,3.2-16.12,3.2-16.14-21.55-22.69-15.43-64.41-15.2-65.94a.16.16,0,0,0,0,0l114.78-.07v0C250.8,374.9,236.89,432.75,226.73,465.08Z" style="fill:#263238"></path><path d="M270.81,465.08H170.27c-4.93-12.77-9.94-24.73-9.94-24.73a68.34,68.34,0,0,1-15.9-13.64,67,67,0,0,1-15.21-29.8c-5.53-25.42,2.81-51.08,3.21-52.28a.16.16,0,0,0,0,0l114.78,0,36.31,0s12.1,40.61-19.31,75.6C263.71,420.68,267.81,445.73,270.81,465.08Z" style="fill:#37474f"></path><path d="M246.38,224.08c38.87,35.2,66.5,65.54,66.13,79.33-.82,30.9-17.12,37.57-20,36.58-30.64-10.39-50.12-68.74-63-104C216.69,201,235.25,214,246.38,224.08Z" style="fill:#f7a9a0"></path><path d="M266.91,325.92l50.33-37.56s-48.49-50.07-73.69-68.72C222.37,204,211.73,215,225,246.05,237.54,275.42,266.91,325.92,266.91,325.92Z" style="fill:#dbdbdb"></path><path d="M302.65,283.06a102.79,102.79,0,0,0-10.12,6.6c-3.43,2.34-6.76,4.8-10.1,7.25s-16.29,12.69-19.51,15.25c-.15.12.08.36.23.25,3.44-2.33,17.07-11.6,20.34-14s6.56-4.8,9.74-7.31a103.36,103.36,0,0,0,9.54-7.85C302.83,283.16,302.74,283,302.65,283.06Z" style="fill:#263238"></path><path d="M296,304.22l-29.07,21.7s-29.38-50.5-41.93-79.87c-8.61-20.14-7.14-31.87.73-33.33C238.32,229,271.64,272.08,296,304.22Z" style="opacity:0.1"></path><path d="M274.38,407.7c5.61-6.18,9.3-16,11.35-25.75,1.93-9.12,2.42-18.2,1.73-24.23-3.56-31.12-23.36-47-23.36-47s12.4-14.81,6.51-31.17c-3-8.29-30.84-57.46-43.55-68.51-11.91-10.36-31.62-2.49-38.78,4.53-21.44,21-35.91,74.29-53.64,121.44-8.91,23.7-8.91,39.13-8.91,39.13C222.8,415.79,274.38,407.7,274.38,407.7Z" style="fill:#dbdbdb"></path><path d="M224,208.82H199.19a39,39,0,0,1,4-1.38h17.87A18.08,18.08,0,0,1,224,208.82Zm9.46,9.16H186c-.4.45-.81.91-1.2,1.39h49.76Zm7.67,10.55h-63c-.28.45-.57.91-.85,1.38H242C241.73,229.44,241.42,229,241.1,228.53Zm6.9,10.54H172.13l-.71,1.38h77.45C248.59,240,248.3,239.52,248,239.07Zm6.47,10.54H167.08c-.21.45-.41.92-.62,1.38H255.3Zm6.14,10.54h-98c-.19.46-.37.92-.55,1.39h99.35Zm5.78,10.55H158.44c-.17.46-.35.91-.53,1.38H267.1Zm4.77,10.54H154.52l-.49,1.38H271.52C271.42,282.17,271.3,281.7,271.16,281.24Zm-120.4,10.54-.49,1.38H271.84c.07-.45.14-.91.19-1.38Zm-3.71,10.54c-.16.47-.33.92-.49,1.39H268.45c.22-.45.44-.91.64-1.39Zm119.41,10.55H143.35c-.16.46-.32.91-.48,1.38H267.81C267.31,313.72,266.86,313.27,266.46,312.87ZM275,323.41H139.62l-.49,1.38h136.8C275.63,324.32,275.33,323.85,275,323.41ZM280.89,334H135.78c-.17.47-.34.93-.52,1.38H281.51C281.31,334.87,281.11,334.41,280.89,334Zm3.92,10.55H132c-.16.46-.3.92-.45,1.38H285.2C285.07,345.41,285,345,284.81,344.5Zm2.3,10.54H129c-.12.46-.23.93-.34,1.38H287.3C287.24,356,287.18,355.49,287.11,355ZM126.83,365.58c-.08.47-.15.94-.22,1.38H287.67c0-.46,0-.93.05-1.38Zm-1.08,10.54,3.43,1.39H286.56c.07-.47.14-.93.22-1.39Zm27.82,10.55,4,1.38H284.22q.21-.69.39-1.38Zm34.13,10.54q2.72.72,5.33,1.38H280.3c.22-.45.43-.92.63-1.38Zm58.69,10.54c16.35,1.27,25.68.25,27.61,0Z" style="fill:#c7c7c7"></path><path d="M249,304.84A73,73,0,0,0,230.15,308c-6.14,1.74-19.71,7.12-23.12,8.44a.07.07,0,0,0,0,.14,116.27,116.27,0,0,0,13.07-3.93c6-2.05,12.1-3.9,18.26-5.5A84.23,84.23,0,0,1,249,305.21C249.21,305.18,249.21,304.83,249,304.84Z" style="fill:#263238"></path><path d="M260.17,308.07a58.27,58.27,0,0,0-19.76,1.76c-.08,0-.06.15,0,.14,3.28-.39,6.54-.78,9.83-1.05s6.61-.45,9.92-.67C260.3,308.25,260.29,308.08,260.17,308.07Z" style="fill:#263238"></path><path d="M202.14,215.57c.53,2.75,12.85,25.43,27.46,23.32,6.15-.89,2.71-24.64,2.71-24.64l6.52-24.36L208.78,169S201.94,214.4,202.14,215.57Z" style="fill:#f7a9a0"></path><path d="M238.82,189.89l-6.32,23.65a50,50,0,0,1-26.27-27.44c1.37-9.24,2.55-17.07,2.55-17.07Z" style="fill:#263238"></path><path d="M269.15,152.92c6.42,40.81-17.29,49.26-26.09,50.63-8,1.25-35.36,4.49-46-35.44s6.34-55.81,24.46-59.63S262.73,112.11,269.15,152.92Z" style="fill:#f7a9a0"></path><path d="M261.74,148a27,27,0,0,1-2.83-.33,4.55,4.55,0,0,1-2.82-.88,1.46,1.46,0,0,1-.16-1.78,3.64,3.64,0,0,1,3.49-1.18,5.33,5.33,0,0,1,3.51,1.57A1.56,1.56,0,0,1,261.74,148Z" style="fill:#263238"></path><path d="M234.54,155.86a25.78,25.78,0,0,0,2.71-.85,4.56,4.56,0,0,0,2.61-1.38,1.48,1.48,0,0,0-.17-1.79,3.63,3.63,0,0,0-3.64-.51,5.31,5.31,0,0,0-3.16,2.19A1.56,1.56,0,0,0,234.54,155.86Z" style="fill:#263238"></path><path d="M241,161.16c0-.1-.2.16-.18.27.41,2.78.42,6-2,7.25-.08,0-.05.18,0,.15C241.85,168,241.79,163.72,241,161.16Z" style="fill:#263238"></path><path d="M238.12,158.54c-4.52.19-3.82,9.22.37,9.05S241.91,158.39,238.12,158.54Z" style="fill:#263238"></path><path d="M236.39,159.16c-.75.57-1.45,1.53-2.4,1.7s-2-.69-2.78-1.54c-.08-.09-.16,0-.15.12.11,1.73.91,3.45,2.79,3.56,1.71.11,2.81-1.52,3.1-3.29C237,159.38,236.69,158.93,236.39,159.16Z" style="fill:#263238"></path><path d="M257.29,158.68c0-.11.22.12.23.23.11,2.81.7,6,3.3,6.76.08,0,.08.16,0,.15C257.68,165.6,256.94,161.36,257.29,158.68Z" style="fill:#263238"></path><path d="M259.58,155.58c4.48-.65,5.46,8.35,1.31,9S255.83,156.13,259.58,155.58Z" style="fill:#263238"></path><path d="M261.52,156c.77.4,1.57,1.19,2.42,1.15s1.62-1.09,2.14-2.1c.06-.1.14,0,.15.09.24,1.71-.13,3.57-1.75,4.08s-2.75-.89-3.34-2.56C261,156.32,261.22,155.81,261.52,156Z" style="fill:#263238"></path><path d="M242.79,184.61c.7.63,1.4,1.51,2.42,1.57a7.42,7.42,0,0,0,3-.81c.08,0,.18.06.12.14a3.76,3.76,0,0,1-3.51,1.64,3,3,0,0,1-2.28-2.41C242.48,184.58,242.69,184.51,242.79,184.61Z" style="fill:#263238"></path><path d="M253.68,171.52s1,4.13,1.13,6.09c0,.19-.45.32-1.12.42,0,0,0,0-.07,0a9.41,9.41,0,0,1-9.4-2.68.2.2,0,0,1,.26-.3,14.23,14.23,0,0,0,8.77,1.68c.09-.56-1.86-7-1.55-7.06,1.06-.19,3.25.36,4.56.62-1.73-8.65-4.84-16.94-6.43-25.58a.27.27,0,0,1,.5-.17c3.87,8.46,6.08,18.37,8.1,27.25C258.69,172.9,254.5,171.79,253.68,171.52Z" style="fill:#263238"></path><path d="M253.5,177.54a11.58,11.58,0,0,1-4.12,4.18,5.12,5.12,0,0,1-3.11.62c-2.35-.29-2.69-2.36-2.51-4.2a12.55,12.55,0,0,1,.65-2.87A15,15,0,0,0,253.5,177.54Z" style="fill:#263238"></path><path d="M249.38,181.72a5.12,5.12,0,0,1-3.11.62c-2.35-.29-2.69-2.36-2.51-4.2C246.23,178.06,248.86,179.39,249.38,181.72Z" style="fill:#ff9cbd"></path><path d="M199.38,174.47c8.51-5.66,7.5-15.29,7.5-15.29a45.07,45.07,0,0,0,16-17.27c-.16.9-1.25,7.35-1.91,10.62,25.52-8.77,30.69-30,30.69-30,9.76,7.24,12.26,12.43,13.89,15,0,0-2.18-16.13-12-25.7C241.42,100,228,104.57,228,104.57a37.5,37.5,0,0,0-34.59,16.48C179.06,142.13,199.38,174.47,199.38,174.47Z" style="fill:#263238"></path><path d="M240.27,145.25a49.09,49.09,0,0,1-12.74,6.92s-.05,0,0-.06a41.49,41.49,0,0,0,17.55-14.48,39,39,0,0,0,4.5-8.75c1.18-3.24,2.24-7,2-10.52a.21.21,0,0,1,.41,0c.23,3.67.4,7-.56,10.65a29.15,29.15,0,0,1-4.55,9.54,33.41,33.41,0,0,1-6.61,6.72" style="fill:#263238"></path><path d="M204.07,167.38s-9.89-12.24-15.5-8.62,2.45,21.79,9.48,23.86a7,7,0,0,0,9.07-4.4Z" style="fill:#f7a9a0"></path><path d="M191,163.91c-.11,0-.12.15,0,.19,4.94,1.61,7.78,5.89,9.87,10.38-1.55-1.68-3.57-2.51-5.83-.65-.12.1,0,.29.15.25a4.28,4.28,0,0,1,4.82,1.17,20.15,20.15,0,0,1,2.52,3.66c.26.41,1,.13.82-.36l-.05-.11C203,172.31,197.63,164.07,191,163.91Z" style="fill:#263238"></path><path d="M174.12,232.42c-35.7,38.41-60.63,71-59.08,84.71,3.48,30.71,20.28,36,23.09,34.73,29.64-13,50.36-77.09,60.17-113.31C208,202.59,184.35,221.42,174.12,232.42Z" style="fill:#f7a9a0"></path><path d="M113.22,293.81l53.14,33.45s28.28-61.19,33.73-93.3c4.41-26-3.25-31.53-27.43-8C149.77,248.24,113.22,293.81,113.22,293.81Z" style="fill:#dbdbdb"></path><path d="M166.06,311.74a101.15,101.15,0,0,0-9.79-7.07c-3.43-2.36-6.92-4.58-10.4-6.82s-17.7-10.63-21.25-12.72c-.16-.09-.31.2-.15.31,3.41,2.37,17,11.76,20.39,13.94s6.84,4.39,10.33,6.45A102.15,102.15,0,0,0,166,311.91C166,311.94,166.14,311.81,166.06,311.74Z" style="fill:#263238"></path><path d="M160.5,323.41c2.3,1.27,4.57,2.59,6.84,3.9l-.5.16c6.58-18.75,13.8-37.26,21.14-55.73,2.43-6.15,5-12.28,7.34-18.46-5.34,19.16-12.68,37.7-20.07,56.15-2.56,6.27-5.17,12.51-7.95,18.69-2.27-1.56-4.55-3.11-6.8-4.71Z" style="fill:#263238"></path><path d="M196,258.09a18.25,18.25,0,0,1-6,10c2-3.32,3.82-6.76,6-10Z" style="fill:#263238"></path><path d="M290.13,337.57c-7.08-13.4-11.74-43.31,4.93-101,2.3-8,61,4.44,59,13.09-2.55,10.91-14.81,52.66-16.09,55.6C327.12,330,294.93,346.66,290.13,337.57Z" style="fill:#f7a9a0"></path><path d="M285.41,326.53a65.22,65.22,0,0,1-3-13.39c-.27-2.28-.5-4.56-.59-6.85a55,55,0,0,1,.15-6.92,135.06,135.06,0,0,1,1.68-13.62,103.29,103.29,0,0,1,3.12-13.34c-.8,4.49-1.38,9-1.91,13.51s-1,9-1.27,13.56c-.12,2.25-.23,4.51-.15,6.74s.19,4.52.37,6.78C284.15,317.51,284.61,322,285.41,326.53Z" style="fill:#263238"></path><path d="M321.71,265c-7.08.07-26.77-21.15-26.65-28.42.31-19.84,16.34-40.65,17.92-54.87,1.35-11.94,2-29.84,8.44-29.35,9.41.68,11.32,23.4,11.62,36.51,6.13-3.64,11.75-6.2,15.57-6.49,12.68-1,24.2,55.09,14.75,63.92C354.24,254.78,328.79,264.88,321.71,265Z" style="fill:#f7a9a0"></path><path d="M341,248.5h-1.4v-8.23c0-.47.31-.64,1-1,1.54-.85,5.63-3.09,5.63-7.14,0-6.36-4.53-6.85-5.92-6.85-3.48,0-7,2.09-7,6.77H332c0-5.61,4.35-8.17,8.39-8.17,3.38,0,7.32,2.16,7.32,8.25,0,4.88-4.62,7.41-6.36,8.36l-.26.14Z" style="fill:#263238"></path><path d="M385.5,272.57h-3a5,5,0,0,0-2-3.91c-2.32-1.78-16.24-5.05-19.73-6.31s-14.05-6.06-16-6.9a13.62,13.62,0,0,0-9,0c-1.9.84-12.46,5.64-15.95,6.9s-17.41,4.53-19.73,6.31a5,5,0,0,0-2,3.91h-3.05c-1.81-2-1.86-4.48,1.49-7.1s15.34-6.42,19.52-8.15,17.86-11,19.93-11.59a20.8,20.8,0,0,1,8.7,0c2.07.57,15.74,9.88,19.92,11.59s16.2,5.54,19.53,8.15S387.32,270.58,385.5,272.57Z" style="fill:#F448FF"></path><path d="M385.5,272.57h-3a5,5,0,0,0-2-3.91c-2.32-1.78-16.24-5.05-19.73-6.31s-14.05-6.06-16-6.9a13.62,13.62,0,0,0-9,0c-1.9.84-12.46,5.64-15.95,6.9s-17.41,4.53-19.73,6.31a5,5,0,0,0-2,3.91h-3.05c-1.81-2-1.86-4.48,1.49-7.1s15.34-6.42,19.52-8.15,17.86-11,19.93-11.59a20.8,20.8,0,0,1,8.7,0c2.07.57,15.74,9.88,19.92,11.59s16.2,5.54,19.53,8.15S387.32,270.58,385.5,272.57Z" style="opacity:0.5"></path><path d="M394.07,271.82c1.95,9.86-10.16,24-15.25,24.28-3.1.19-7.27-2.41-7.27-2.41,1.92,11.94,3.36,37.61,3.22,50.08,0,4.1-.27,6.77-.69,7.08-1.74,1.28-6.95.26-16,5.95s-7.64,13.57-10.32,14.51c-12,4.2-25,.23-25.53-2.11-3.81-18.35-18.31-17.36-20.82-21.66-4.2-7.17,3.36-50.36,3.49-51.13-.21.21-4.58,4.46-6.92,3.42-6.12-2.73-16.5-20.92-13.31-26.14,4.15-6.79,32.24-21.35,33.56-20.48s4.34,18.47,19,19c.29,0,.58,0,.86,0,18.89.09,22.23-17.81,24.15-18S393.18,267.34,394.07,271.82Z" style="fill:#ebebeb"></path><path d="M378.82,296.1c-3.1.19-7.28-2.41-7.28-2.41,1.93,11.93,3.37,37.61,3.22,50.08,0,4.1-.26,6.77-.69,7.08-1.73,1.28-6.94.26-16,5.95s-7.63,13.56-10.32,14.51c-12,4.2-25,.23-25.52-2.11-3.81-18.35-18.31-17.36-20.82-21.67-4.2-7.16,3.37-50.35,3.5-51.12-.23.22-4.59,4.46-6.92,3.42-6.13-2.73-16.51-20.92-13.31-26.14,3.55-5.83,24.72-17.37,31.51-20,8.55,29.41,22.61,37.89,22.61,37.89s16.15-8.05,24.74-37.11c6,2,29.73,13.27,30.53,17.32C396,281.68,383.91,295.8,378.82,296.1Z" style="fill:#37474f"></path><path d="M346.63,273.18a24,24,0,0,1-7.74,1.36c-14.28.16-21.27-13.53-23-20.79a2.37,2.37,0,0,1,4.62-1.08,31.13,31.13,0,0,0,4,8.89c3.68,5.53,8.5,8.3,14.3,8.24,6.12-.07,11.52-2.8,16.05-8.12a32.66,32.66,0,0,0,5.17-8.35,2.38,2.38,0,0,1,3.07-1.36,2.36,2.36,0,0,1,1.36,3.05,37,37,0,0,1-5.89,9.61A27.74,27.74,0,0,1,346.63,273.18Z" style="fill:#F448FF"></path><rect x="313.26" y="292.31" width="16.96" height="3.19" transform="translate(23 -23.35) rotate(4.31)" style="fill:#263238"></rect><path d="M337.8,273.68a5.3,5.3,0,0,1-.12,1.36,6,6,0,0,1-.31,1.13,12.09,12.09,0,0,1-6.08,6.38,9.38,9.38,0,0,1-3.9.79,4.94,4.94,0,0,1-3-1c-3.5-2.83-5.44-17.46-.26-19.4,2-.76,4.4.26,6.55,1.81a34,34,0,0,1,6.24,6.22,5.15,5.15,0,0,1,.68,1.37,5.75,5.75,0,0,1,.18.8s0,0,0,.06S337.79,273.52,337.8,273.68Z" style="fill:#F448FF"></path><path d="M334.66,275.9a10.55,10.55,0,0,0,3-.86,6,6,0,0,1-.31,1.13,10,10,0,0,1-3.52.91h0a5.67,5.67,0,0,1-2.06-.26,2.76,2.76,0,0,1-2.08-3.06c.46-2.07,2.38-2.61,4.42-2.41a10.88,10.88,0,0,1,3.44,1,5.75,5.75,0,0,1,.18.8s0,0,0,.06,0,.31,0,.47a8.4,8.4,0,0,0-3.51-1.24,4.63,4.63,0,0,0-2.16.27,1.62,1.62,0,0,0,0,3.07,5.27,5.27,0,0,0,2,.17Z" style="mix-blend-mode:multiply;opacity:0.1"></path><path d="M337.8,273.68a5.3,5.3,0,0,1-.12,1.36,6,6,0,0,1-.31,1.13,12.09,12.09,0,0,1-6.08,6.38,9.38,9.38,0,0,1-3.9.79c3-1.38,5.45-3.28,6.46-6.26h0a9.84,9.84,0,0,0,.3-1.13,10.67,10.67,0,0,0,.21-2.1,13.05,13.05,0,0,0-.07-1.41c0-.37-.09-.73-.16-1.09a12.9,12.9,0,0,0-3.48-6.59,34,34,0,0,1,6.24,6.22,5.15,5.15,0,0,1,.68,1.37,5.75,5.75,0,0,1,.18.8s0,0,0,.06S337.79,273.52,337.8,273.68Z" style="mix-blend-mode:multiply;opacity:0.1"></path><g style="opacity:0.5"><path d="M323.47,265.06a11.06,11.06,0,0,0-1,9.35.61.61,0,0,0,1.19-.22,21.91,21.91,0,0,1,0-4.58,28.52,28.52,0,0,1,1.1-4.05C325.07,264.7,323.89,264.43,323.47,265.06Z" style="fill:#fff"></path><path d="M323.38,275.65a.72.72,0,0,0,0,1.44A.72.72,0,0,0,323.38,275.65Z" style="fill:#fff"></path></g><path d="M354,282.35c-1.83,1.48-4.91,1.1-6.93.2a11.65,11.65,0,0,1-3.22-2.19,11.4,11.4,0,0,1-2.83-4.12,7.45,7.45,0,0,1-.37-1.28,6.05,6.05,0,0,1,0-1.75s0,0,0-.06v0a5.32,5.32,0,0,1,.86-2.14c.12-.17,5-6.61,9.63-8a4.79,4.79,0,0,1,3.15,0C359.44,264.89,357.5,279.52,354,282.35Z" style="fill:#F448FF"></path><path d="M354,282.35c-1.83,1.48-4.91,1.1-6.93.2a11.65,11.65,0,0,1-3.22-2.19,8,8,0,0,0,5.81-.5c2-1,2.76-2.81,3.24-5,.66-2.94,1.72-10.17-1.8-11.93a4.79,4.79,0,0,1,3.15,0C359.44,264.89,357.5,279.52,354,282.35Z" style="mix-blend-mode:multiply;opacity:0.1"></path><path d="M348.21,274.29c-.56,3.07-4.42,3-7.19,1.95a7.45,7.45,0,0,1-.37-1.28,6.33,6.33,0,0,0,5.18.47,1.62,1.62,0,0,0-.1-3.07,6.26,6.26,0,0,0-2.55,0,10.27,10.27,0,0,0-2.57.77,4.92,4.92,0,0,1,.33-1.16,7.65,7.65,0,0,1,5.08-.65A2.76,2.76,0,0,1,348.21,274.29Z" style="mix-blend-mode:multiply;opacity:0.1"></path><path d="M339.76,279.68a5.09,5.09,0,0,1-5.68-2.88,5.61,5.61,0,0,1-.37-1.22,5.22,5.22,0,0,1,4.2-6.18l.23,0a5.23,5.23,0,0,1,5.71,4.08A5,5,0,0,1,339.76,279.68Z" style="fill:#F448FF"></path><path d="M339.76,279.68a5.09,5.09,0,0,1-5.68-2.88,4.66,4.66,0,0,0,2.46,1.73,4.28,4.28,0,0,0,4.75-2c1.7-2.83-.15-6.81-3.15-7.19a5.23,5.23,0,0,1,5.71,4.08A5,5,0,0,1,339.76,279.68Z" style="mix-blend-mode:multiply;opacity:0.1"></path><path d="M337.52,270.34a4.25,4.25,0,0,0-3,3.73.53.53,0,0,0,1,.26c.38-.54.61-1.16,1-1.68s1-.82,1.44-1.32C338.19,271,338.08,270.27,337.52,270.34Z" style="fill:#fff;opacity:0.5"></path><path d="M350.48,263.93a9.57,9.57,0,0,0-4.51,3.85c-.3.49.35.93.75.59.71-.61,1.36-1.27,2.07-1.87s1.53-1.05,2.22-1.66A.55.55,0,0,0,350.48,263.93Z" style="fill:#fff;opacity:0.5"></path><path d="M329.38,187.73c-1.81,6.36,6.72,4.85,6.72,4.85S324.35,197.72,325,205c.67,7,10.91,4.82,11.64,4.67-.62.28-11.29,5.28-9.85,12.52,1.49,7.52,11.39,3.56,12,3.3-.51.44-7.05,6.44-4.71,11.7,4,9,21.18-5.86,29.13-5,0,0,0,13.64.1,14,0,0,16.6-13.83,17.21-24.62a6.89,6.89,0,0,0-4.91-7.11s5.85-3.87,4.9-9.6c-.5-3-5.64-4.77-5.64-4.77s4.55-3.29,3.39-8.34c-.92-4-5.94-5.24-5.94-5.24s2.91-5.19.63-9C368.45,169.87,333.25,174.12,329.38,187.73Z" style="fill:#f7a9a0"></path><path d="M371.61,186.27a.1.1,0,0,0,0-.19c-11.92-1.43-25.45.66-36,6.53-.35.19-.18.84.24.7C347.9,189.34,358.89,186.77,371.61,186.27Z" style="fill:#263238"></path><path d="M375.09,200.06c.14,0,.13-.23,0-.25-12.29-1.4-27.47,1.37-38.83,9.57-.39.28-.46.92,0,.63C344.24,205.13,363.64,200.46,375.09,200.06Z" style="fill:#263238"></path><path d="M338.25,226.32c11.2-7.44,23.66-10.54,36.92-11.88.17,0,.13-.26,0-.29-6.67-1.11-15,.63-21.41,2.53A35.56,35.56,0,0,0,338,225.93C337.82,226.11,338,226.48,338.25,226.32Z" style="fill:#263238"></path><path d="M335.9,192.48c-.42.23.38.58,0,.83-1.72,1-11.51,8.1-10.13,12.19,1.11,3.27,6.27,4.05,8.37,3.57l5.29-1.21-4.55,3a22.48,22.48,0,0,0-5.34,4.81c-1.44,1.85-2.39,4.08-2,6.17a4.52,4.52,0,0,0,4.09,4,13.66,13.66,0,0,0,6.75-1.26l5.91-2.53-4.73,4.3a20.6,20.6,0,0,0-3.45,4.05,8.6,8.6,0,0,0-1.59,4.69,4.09,4.09,0,0,0,2.31,3.63,9.06,9.06,0,0,0,5.05.09,71.11,71.11,0,0,0,10.53-3.59c1.76-.69,3.51-1.38,5.3-2a13.45,13.45,0,0,1,5.56-.95,14.39,14.39,0,0,0-5.37,1.44c-1.72.73-3.41,1.54-5.11,2.36a59.64,59.64,0,0,1-10.57,4.23,10.52,10.52,0,0,1-6.05.09,5.82,5.82,0,0,1-3.62-5.23,10.59,10.59,0,0,1,1.81-5.88,22.87,22.87,0,0,1,3.78-4.56l1.17,1.78a15.78,15.78,0,0,1-8,1.57,6.57,6.57,0,0,1-4-1.89,7.37,7.37,0,0,1-1.93-3.94c-.52-3,.85-5.78,2.5-7.82a24,24,0,0,1,6-5.19l.74,1.76c-2.69.52-8.56.28-10.92-4.58C321.54,199.57,333.61,193.44,335.9,192.48Z" style="fill:#263238"></path><path d="M336.1,192.58a13.38,13.38,0,0,1-4-.7,3.07,3.07,0,0,1-2.1-2.29,6.29,6.29,0,0,1,.78-3.47c.58-1.19,1.26-2.42,2-3.66a10.65,10.65,0,0,0-3.25,2.92,6.21,6.21,0,0,0-1.36,4.54,4.39,4.39,0,0,0,1.28,2.29,4.57,4.57,0,0,0,2.26,1.06A7.15,7.15,0,0,0,336.1,192.58Z" style="fill:#263238"></path><path d="M132.59,348.66c-5.24-14.22-5.89-32.17,18.3-87.16,3.34-7.61,57.35-1.32,56.26,7.5-2.15,17.28-17,45-22.89,53.95C169.31,345.5,136.14,358.3,132.59,348.66Z" style="fill:#f7a9a0"></path><path d="M130.09,339a56.09,56.09,0,0,1-.94-12.6c.08-2.11.2-4.21.45-6.31a48.4,48.4,0,0,1,1.2-6.24,115.08,115.08,0,0,1,3.72-12.06,88.42,88.42,0,0,1,5.1-11.59c-1.47,3.94-2.72,7.94-3.93,11.94s-2.33,8-3.3,12.07c-.47,2-.92,4-1.18,6.08s-.49,4.13-.66,6.2A118.39,118.39,0,0,0,130.09,339Z" style="fill:#263238"></path><path d="M210.6,248.31c3.46,13.91-5.49,29.42-5.49,29.42-23.87,10.47-56.66,1.38-57.43-.18,0,0-1-10.5-2.73-13.46s-14.73-18.17-18.19-22-4.62-20.88-3.44-24.07,22.65-2.77,27.56-.58a176.06,176.06,0,0,0,23.75,8.09s7.82-33.28,23.45-32.71c7.18.26-1.49,14.53-2.68,29.13C194.72,230.42,208,237.93,210.6,248.31Z" style="fill:#f7a9a0"></path><path d="M141,230c2.27,1.4,5.16,1.5,7.75,2.13l8,1.68a130.79,130.79,0,0,1,15.74,4.46,46.62,46.62,0,0,1,7.46,3.54,14.61,14.61,0,0,1,5.9,5.94,25,25,0,0,1,2.54,16,27.32,27.32,0,0,0-3.63-15.39c-2.62-4.59-7.94-6.68-12.86-8.57a159.63,159.63,0,0,0-15.45-4.77C151.28,233.44,145.69,232.71,141,230Z" style="fill:#263238"></path><path d="M186.91,225.15h-1.4v-8.22c0-.47.31-.64,1-1,1.54-.84,5.63-3.09,5.63-7.14,0-6.35-4.53-6.85-5.92-6.85-3.48,0-7,2.1-7,6.78h-1.39c0-5.62,4.35-8.17,8.39-8.17,3.38,0,7.32,2.16,7.32,8.24,0,4.88-4.62,7.42-6.36,8.37l-.26.14Z" style="fill:#263238"></path><path d="M231.37,249.23h-3a5,5,0,0,0-2-3.91c-2.33-1.79-16.24-5.06-19.73-6.32s-14.05-6.05-16-6.89a13.62,13.62,0,0,0-9,0c-1.9.84-12.46,5.63-15.95,6.89s-17.41,4.53-19.73,6.32a5,5,0,0,0-2,3.91h-3c-1.81-2-1.86-4.48,1.49-7.11s15.34-6.42,19.52-8.14,17.86-11,19.93-11.59a20.37,20.37,0,0,1,8.7,0c2.07.57,15.74,9.88,19.92,11.59s16.2,5.53,19.53,8.14S233.19,247.24,231.37,249.23Z" style="fill:#F448FF"></path><path d="M231.37,249.23h-3a5,5,0,0,0-2-3.91c-2.33-1.79-16.24-5.06-19.73-6.32s-14.05-6.05-16-6.89a13.62,13.62,0,0,0-9,0c-1.9.84-12.46,5.63-15.95,6.89s-17.41,4.53-19.73,6.32a5,5,0,0,0-2,3.91h-3c-1.81-2-1.86-4.48,1.49-7.11s15.34-6.42,19.52-8.14,17.86-11,19.93-11.59a20.37,20.37,0,0,1,8.7,0c2.07.57,15.74,9.88,19.92,11.59s16.2,5.53,19.53,8.14S233.19,247.24,231.37,249.23Z" style="opacity:0.5"></path><path d="M147.47,322.12s-1,6.54,1.23,8.1,5-1.47,5-1.47-1,4.15,1,5.57,5.64-1.09,5.64-1.09-2.09,4.06-.74,5.78c1.81,2.29,5.83.26,5.83.26s-2.58,2.53-1.51,4.92c1.23,2.75,5.62,1.42,5.62,1.42A27.13,27.13,0,0,0,147.47,322.12Z" style="fill:#F448FF"></path><path d="M219,325.47s.31,6.6-2.1,7.91-4.84-2-4.84-2,.51,4.24-1.55,5.44S205,335.1,205,335.1s1.64,4.27.1,5.83c-2,2.09-5.82-.38-5.82-.38s2.29,2.8,1,5.07c-1.53,2.59-5.75.79-5.75.79S195.18,327.32,219,325.47Z" style="fill:#F448FF"></path><path d="M132,250.58s-6.82,5.32-6,9.16c.69,3.4,5.71,2.56,5.71,2.56s-3.76,3.95-1.81,7,6.8.68,6.8.68-2.37,4.2-.3,6.55c2.36,2.66,10.5-2.18,10.5-2.18S134,259,132,250.58Z" style="fill:#F448FF"></path><path d="M236.93,247.1s7.16,4.86,6.64,8.73c-.47,3.44-5.53,2.94-5.53,2.94s4,3.69,2.26,6.86-6.74,1.12-6.74,1.12,2.65,4,.74,6.52c-2.18,2.81-10.62-1.47-10.62-1.47S235.46,255.63,236.93,247.1Z" style="fill:#F448FF"></path><path d="M239.94,248.48c1.95,9.86-10.16,24-15.25,24.28-3.1.18-7.27-2.42-7.27-2.42,1.92,12,3.36,37.61,3.22,50.09,0,4.1-.27,6.77-.69,7.08-1.74,1.28-6.95.26-16,5.95S196.31,347,193.62,348c-12,4.21-25,.24-25.52-2.1-3.81-18.35-18.31-17.36-20.82-21.67-4.2-7.17,3.36-50.36,3.49-51.12-.21.21-4.58,4.46-6.92,3.42-6.12-2.73-16.5-20.92-13.31-26.14,4.15-6.79,32.24-21.36,33.56-20.48s4.34,18.46,19,18.95H184c18.89.09,22.23-17.82,24.15-18S239.05,244,239.94,248.48Z" style="fill:#F448FF"></path><path d="M239.94,248.48c1.95,9.86-10.16,24-15.25,24.28-3.1.18-7.27-2.42-7.27-2.42,1.92,12,3.36,37.61,3.22,50.09,0,4.1-.27,6.77-.69,7.08-1.74,1.28-6.95.26-16,5.95S196.31,347,193.62,348c-12,4.21-25,.24-25.52-2.1-3.81-18.35-18.31-17.36-20.82-21.67-4.2-7.17,3.36-50.36,3.49-51.12-.21.21-4.58,4.46-6.92,3.42-6.12-2.73-16.5-20.92-13.31-26.14,4.15-6.79,32.24-21.36,33.56-20.48s4.34,18.46,19,18.95H184c18.89.09,22.23-17.82,24.15-18S239.05,244,239.94,248.48Z" style="fill:#fff;opacity:0.8"></path><path d="M239.94,248.48c1.95,9.86-10.16,24-15.25,24.28-3.1.18-7.27-2.42-7.27-2.42.49,3.09,1.32,8.5,2.27,14.82.1.68.21,1.37.31,2.07s.26,1.71.39,2.59c2.6,17.55,5.68,39.1,5.33,39.21-35.35,11.07-82.14,3.33-83.92-1.32-.41-1.07,3.67-24.71,6.46-40.54,1.39-7.89,2.47-13.85,2.51-14.1-.21.21-4.58,4.46-6.92,3.42-6.12-2.73-16.5-20.92-13.31-26.14,4.15-6.79,32.24-21.36,33.56-20.48s2.93,19,19.9,19c18.89.09,22.23-17.82,24.15-18S239.05,244,239.94,248.48Z" style="fill:#F448FF;opacity:0.6000000000000001"></path><path d="M170.17,242.59a3.6,3.6,0,0,1-2,.64,3.57,3.57,0,0,1-1.55-6.78A25.08,25.08,0,0,0,170.17,242.59Z" style="fill:#fff"></path><path d="M205.41,239.66a3.57,3.57,0,0,1-5.42,3.05,28,28,0,0,0,4.36-5.58A3.53,3.53,0,0,1,205.41,239.66Z" style="fill:#fff"></path><circle cx="168.13" cy="289" r="3.57" style="fill:#fff"></circle><circle cx="201.84" cy="289" r="3.57" style="fill:#fff"></circle><circle cx="151.27" cy="265.73" r="3.57" style="fill:#fff"></circle><circle cx="184.98" cy="265.73" r="3.57" style="fill:#fff"></circle><circle cx="218.69" cy="265.73" r="3.57" style="fill:#fff"></circle><circle cx="151.27" cy="315.06" r="3.57" style="fill:#fff"></circle><circle cx="184.98" cy="315.06" r="3.57" style="fill:#fff"></circle><circle cx="218.69" cy="315.06" r="3.57" style="fill:#fff"></circle><path d="M192.5,249.84a24,24,0,0,1-7.74,1.35c-14.28.17-21.27-13.52-23-20.78a2.37,2.37,0,1,1,4.62-1.08,31.13,31.13,0,0,0,4,8.89c3.68,5.53,8.49,8.3,14.3,8.23,6.12-.07,11.52-2.8,16-8.12a32.47,32.47,0,0,0,5.17-8.35,2.37,2.37,0,0,1,4.43,1.7,37.3,37.3,0,0,1-5.89,9.61A27.8,27.8,0,0,1,192.5,249.84Z" style="fill:#F448FF"></path><path d="M185.11,286.86a192.15,192.15,0,0,1-35.79-3.13,1.49,1.49,0,0,1-1.15-1.77A1.5,1.5,0,0,1,150,280.8c.33.07,33.1,6.87,69.32,0a1.5,1.5,0,0,1,.56,2.95A187.43,187.43,0,0,1,185.11,286.86Z" style="fill:#F448FF"></path><path d="M156.7,204.53s-1.32-5.92,1-10.1,11.56-5.33,15-4.58,16.94,9.4,20.92,14.26,2.29,12.63-5.27,10.72S156.7,204.53,156.7,204.53Z" style="fill:#f7a9a0"></path><path d="M187.11,198.31c5.51,2.89,13.5,10.94,6.57,16.55-4.6,2.69-10.84-2.09-15.47-3.08,3,.33,5.89,1.48,8.74,2.26,2.62.74,6,1.18,7.43-1.59,3.11-5.41-3.47-11-7.27-14.14Z" style="fill:#263238"></path><path d="M151.71,194.15s2.93-5.31,7.43-6.91,12.18,3.66,14.24,6.48,6.47,18.27,6.23,24.54-6.65,11-11,4.55S151.71,194.15,151.71,194.15Z" style="fill:#f7a9a0"></path><path d="M167.62,189.08a23,23,0,0,1,7.64,7.48c2,3.05,2.86,6.78,3.52,10.17a55.18,55.18,0,0,1,1.42,10.61,8.16,8.16,0,0,1-5.7,8.39,7.63,7.63,0,0,0,4.6-8.35,93.2,93.2,0,0,0-1.9-10.31c-.72-3.51-1.32-6.83-3.09-9.84A29.51,29.51,0,0,0,167.62,189.08Z" style="fill:#263238"></path><path d="M136.85,201.52s1.53-6.15,5.71-8.93,13.59.57,16.51,2.9,11.82,16.89,13.34,23.33-3.76,12.87-10.1,7.47S136.85,201.52,136.85,201.52Z" style="fill:#f7a9a0"></path><path d="M151.83,192.26a25.34,25.34,0,0,1,10,5.63c2.94,2.58,4.87,6.15,6.5,9.43a58.91,58.91,0,0,1,4.46,10.41,8.37,8.37,0,0,1-3.51,10,7.82,7.82,0,0,0,2.39-9.67,99,99,0,0,0-4.88-10c-1.72-3.38-3.28-6.6-5.95-9.2A32.54,32.54,0,0,0,151.83,192.26Z" style="fill:#263238"></path><path d="M123,221.22c.2-5.18,2.33-15.06,7.29-20.43s23.11,4.26,28,8.84,12.18,20.08,7.91,22.79-16.81-10.25-20-12.32S123,221.22,123,221.22Z" style="fill:#f7a9a0"></path><path d="M134.63,224.32c2.33-2.87,5.92-5.13,9.88-4.76,4,.57,6.83,3.58,9.73,5.88s5.56,5.17,8.7,6.77c1.6.7,3.29,1,3.57-.57a11.77,11.77,0,0,0-.12-5.2l0,.09a60.27,60.27,0,0,0-4.09-9.91c-1.67-3.15-3.64-6.14-6.5-8.14a61,61,0,0,0-9.25-5.29q-4.8-2.4-9.79-4.42c6.8,2.23,13.6,4.65,19.77,8.63,3.21,2,5.37,5.29,7.12,8.47A62.83,62.83,0,0,1,168,226v.08a12.83,12.83,0,0,1,0,6.07,3.59,3.59,0,0,1-.94,1.55,2.77,2.77,0,0,1-1.77.67,6.31,6.31,0,0,1-3.07-.75c-3.52-1.91-6.16-4.64-8.92-7.19s-5.46-5.43-9-6S137.17,221.63,134.63,224.32Z" style="fill:#263238"></path><path d="M167.73,271.6V260.24a1.06,1.06,0,0,1,1.06-1.06h2.73a3.66,3.66,0,0,1,3.66,3.66,3.6,3.6,0,0,1-.73,2.19,4.18,4.18,0,0,1,1.94,3.49,4.12,4.12,0,0,1-4.11,4.14h-3.41a0,0,0,0,1,0,0s0,0-.06,0A1.07,1.07,0,0,1,167.73,271.6Zm2.14-7.2h1.65a1.55,1.55,0,0,0,1.53-1.56,1.52,1.52,0,0,0-1.53-1.52h-1.65Zm0,6.12h2.41a2,2,0,0,0,0-4h-2.41Z" style="fill:#37474f"></path><path d="M189.79,260.86a7.06,7.06,0,0,1,0,9.74,6.3,6.3,0,0,1-4.6,2.06,6.48,6.48,0,0,1-4.71-2.06,7.16,7.16,0,0,1,0-9.74,6.4,6.4,0,0,1,4.71-2.06A6.23,6.23,0,0,1,189.79,260.86Zm-.25,4.87a5,5,0,0,0-1.31-3.37,4.13,4.13,0,0,0-3-1.37,4.19,4.19,0,0,0-3.12,1.37,4.94,4.94,0,0,0-1.3,3.37,4.85,4.85,0,0,0,1.3,3.35,4.24,4.24,0,0,0,3.12,1.38,4.18,4.18,0,0,0,3-1.38A4.9,4.9,0,0,0,189.54,265.73Z" style="fill:#37474f"></path><path d="M203.75,261l-3.95,5.41v5.2a1,1,0,0,1-1.06,1.06,1.07,1.07,0,0,1-1.05-1.06v-5.2L193.78,261a1,1,0,0,1,.21-1.46,1,1,0,0,1,1.46.23l3.29,4.51,3.3-4.51a1.05,1.05,0,0,1,1.48-.23A1.06,1.06,0,0,1,203.75,261Z" style="fill:#37474f"></path><path d="M319.51,312.14a6.45,6.45,0,0,1,10.41-4.93,1,1,0,1,1-1.22,1.57,4.5,4.5,0,0,0-2.75-.94,4.32,4.32,0,0,0-3.14,1.27,4.12,4.12,0,0,0,0,6,4.32,4.32,0,0,0,3.14,1.27,4.77,4.77,0,0,0,2.38-.66v-2.39h-2.49a1,1,0,0,1-1-1,1,1,0,0,1,1-1h3.47a1,1,0,0,1,1,1v3.85a1.45,1.45,0,0,1-.05.3l0,.08v0a.77.77,0,0,1-.33.42A6.45,6.45,0,0,1,326,318.4,6.34,6.34,0,0,1,319.51,312.14Z" style="fill:#fff"></path><path d="M334.37,307.16a1,1,0,0,1,1-1,1,1,0,0,1,1,1v10.28a1,1,0,0,1-1,1,1,1,0,0,1-1-1Z" style="fill:#fff"></path><path d="M347.64,317a1,1,0,0,1-.61,1.22,1.37,1.37,0,0,1-.39.06h0a1.28,1.28,0,0,1-.68-.2,1.71,1.71,0,0,1-.55-.61,4.57,4.57,0,0,1-.37-2.09,1.52,1.52,0,0,0-.21-.75,1.56,1.56,0,0,0-.52-.5,3.07,3.07,0,0,0-1-.42h-2.05v3.78a1,1,0,0,1-1,1,1,1,0,0,1-1-1V307.16a1,1,0,0,1,1-1h3.12a3.73,3.73,0,0,1,3.73,3.74,3.66,3.66,0,0,1-1.36,2.86,2.71,2.71,0,0,1,.61.65,3.28,3.28,0,0,1,.58,1.88,4,4,0,0,0,.07,1A1,1,0,0,1,347.64,317Zm-2.44-7a1.8,1.8,0,0,0-1.8-1.81h-2.14v3.59h2.14A1.79,1.79,0,0,0,345.2,309.94Z" style="fill:#fff"></path><path d="M350.46,317.44V307.16a1,1,0,0,1,1-1,1,1,0,0,1,1,1v9.3h4.72a1,1,0,0,1,0,1.94h-5.7A1,1,0,0,1,350.46,317.44Z" style="fill:#fff"></path></g><g id="freepik--Blocks--inject-8"><rect x="61.44" y="427.77" width="32.79" height="32.79" style="fill:#fff"></rect><path d="M98.75,465.08H56.92V423.25H98.75Zm-37.31-4.52H94.23V427.77H61.44Z" style="fill:#F448FF"></path><path d="M98.75,465.08H56.92V423.25H98.75Zm-37.31-4.52H94.23V427.77H61.44Z" style="fill:#fff;opacity:0.5"></path><path d="M84.37,437.53l-4.64,6.36V450a1.22,1.22,0,0,1-1.24,1.24A1.25,1.25,0,0,1,77.25,450v-6.1l-4.59-6.36a1.22,1.22,0,1,1,2-1.44l3.87,5.29,3.87-5.29a1.24,1.24,0,0,1,1.74-.28A1.26,1.26,0,0,1,84.37,437.53Z" style="fill:#F448FF"></path><g style="opacity:0.5"><path d="M84.37,437.53l-4.64,6.36V450a1.22,1.22,0,0,1-1.24,1.24A1.25,1.25,0,0,1,77.25,450v-6.1l-4.59-6.36a1.22,1.22,0,1,1,2-1.44l3.87,5.29,3.87-5.29a1.24,1.24,0,0,1,1.74-.28A1.26,1.26,0,0,1,84.37,437.53Z" style="fill:#fff"></path></g><rect x="98.75" y="423.25" width="12.8" height="41.83" style="fill:#F448FF"></rect><rect x="61.34" y="427.77" width="2.3" height="32.79" style="fill:#F448FF"></rect><rect x="101.44" y="427.77" width="7.96" height="32.79" transform="translate(210.84 888.33) rotate(180)" style="fill:#fff"></rect><rect x="107.87" y="427.77" width="1.53" height="32.79" transform="translate(217.27 888.33) rotate(180)" style="fill:#F448FF"></rect><rect x="107.87" y="427.77" width="1.53" height="32.79" transform="translate(217.27 888.33) rotate(180)" style="fill:#fff;opacity:0.5"></rect><rect x="64.97" y="344.1" width="32.79" height="32.79" style="fill:#fff"></rect><path d="M102.28,381.41H60.45V339.58h41.83ZM65,376.89H97.76V344.1H65Z" style="fill:#F448FF"></path><path d="M102.28,381.41H60.45V339.58h41.83ZM65,376.89H97.76V344.1H65Z" style="fill:#fff;opacity:0.5"></path><path d="M84.76,363.87H79.31l-1.1,2.91a1.25,1.25,0,0,1-1.16.78,1.49,1.49,0,0,1-.43-.06,1.28,1.28,0,0,1-.74-1.62l5-13.19A1.24,1.24,0,0,1,82,351.9a1.23,1.23,0,0,1,1.19.79l5,13.19a1.28,1.28,0,0,1-.74,1.62,1.33,1.33,0,0,1-.42.06,1.21,1.21,0,0,1-1.15-.78Zm-.92-2.47L82,356.59l-1.81,4.81Z" style="fill:#F448FF"></path><g style="opacity:0.5"><path d="M84.76,363.87H79.31l-1.1,2.91a1.25,1.25,0,0,1-1.16.78,1.49,1.49,0,0,1-.43-.06,1.28,1.28,0,0,1-.74-1.62l5-13.19A1.24,1.24,0,0,1,82,351.9a1.23,1.23,0,0,1,1.19.79l5,13.19a1.28,1.28,0,0,1-.74,1.62,1.33,1.33,0,0,1-.42.06,1.21,1.21,0,0,1-1.15-.78Zm-.92-2.47L82,356.59l-1.81,4.81Z" style="fill:#fff"></path></g><rect x="102.28" y="339.58" width="19.8" height="41.83" style="fill:#F448FF"></rect><rect x="64.87" y="344.1" width="2.3" height="32.79" style="fill:#F448FF"></rect><rect x="104.97" y="344.1" width="14.96" height="32.79" transform="translate(224.89 720.99) rotate(180)" style="fill:#fff"></rect><rect x="118.4" y="344.1" width="1.53" height="32.79" transform="translate(238.32 720.99) rotate(180)" style="fill:#F448FF"></rect><rect x="118.4" y="344.1" width="1.53" height="32.79" transform="translate(238.32 720.99) rotate(180)" style="fill:#fff;opacity:0.5"></rect><path d="M89.24,423.24H47.4V381.41H89.24Zm-37.31-4.52H84.71V385.93H51.93Z" style="fill:#455a64"></path><rect x="51.93" y="385.93" width="32.79" height="32.79" style="fill:#fff"></rect><rect x="51.93" y="385.93" width="2.3" height="32.79" style="fill:#37474f"></rect><path d="M64,408.15V394.82a1.24,1.24,0,0,1,1.24-1.25h3.21a4.31,4.31,0,0,1,3.44,6.88,4.84,4.84,0,0,1-2.56,8.95h-4a0,0,0,0,1,0,0s0,0-.07,0A1.25,1.25,0,0,1,64,408.15Zm2.5-8.45h2a1.82,1.82,0,0,0,1.79-1.83,1.78,1.78,0,0,0-1.79-1.79h-2Zm0,7.19h2.83a2.34,2.34,0,0,0,0-4.68H66.46Z" style="fill:#455a64"></path><rect x="89.24" y="381.41" width="22.6" height="41.83" style="fill:#37474f"></rect><rect x="92.09" y="385.93" width="17.59" height="32.79" transform="translate(201.76 804.65) rotate(180)" style="fill:#fff"></rect><rect x="107.81" y="385.93" width="1.87" height="32.79" transform="translate(217.48 804.65) rotate(180)" style="fill:#455a64"></rect><path d="M75.52,297.75h41.84v41.83H75.52Zm37.31,4.52H80.05v32.79h32.78Z" style="fill:#455a64"></path><rect x="80.05" y="302.27" width="32.79" height="32.79" transform="translate(192.88 637.32) rotate(180)" style="fill:#fff"></rect><rect x="110.53" y="302.27" width="2.3" height="32.79" transform="translate(223.36 637.32) rotate(180)" style="fill:#37474f"></rect><path d="M91,324.49V311.15a1.23,1.23,0,0,1,1.24-1.24h3.21a4.29,4.29,0,0,1,3.44,6.87,4.84,4.84,0,0,1-2.56,9h-4a0,0,0,0,1,0,0s0,0-.07,0A1.25,1.25,0,0,1,91,324.49Zm2.5-8.46h2a1.82,1.82,0,0,0,1.79-1.83,1.78,1.78,0,0,0-1.79-1.78h-2Zm0,7.19H96.3a2.34,2.34,0,0,0,0-4.68H93.47Z" style="fill:#455a64"></path><rect x="57.56" y="297.75" width="17.96" height="41.83" transform="translate(133.08 637.32) rotate(180)" style="fill:#37474f"></rect><rect x="60.88" y="302.27" width="10.79" height="32.79" style="fill:#fff"></rect><rect x="60.88" y="302.27" width="1.63" height="32.79" style="fill:#455a64"></rect></g><g id="freepik--feeding-bottle--inject-8"><path d="M103.66,463.81c-5.59-3.39-3.28-41.87,3.65-44.78,4.59-1.93,57.9,5.61,67.72,9.7,1.74.73,4.17,6,3.71,19-.13,3.71-1.92,14.34-4.53,16.36C171.33,466.35,109,467,103.66,463.81Z" style="fill:#fff"></path><path d="M166.06,432.66a25.76,25.76,0,0,1,1.52-6.06l1.18.28a55.53,55.53,0,0,0-2.06,5.86C166.6,433.11,166,433.07,166.06,432.66Z" style="fill:#a9b7c4"></path><path d="M138.84,427.81a26.42,26.42,0,0,1,1.51-6l1.22.18a56.66,56.66,0,0,0-2.08,5.92C139.38,428.25,138.79,428.22,138.84,427.81Z" style="fill:#a9b7c4"></path><path d="M125.62,425.47a26.18,26.18,0,0,1,1.3-5.44l1.22.14a55,55,0,0,0-1.87,5.38C126.16,425.92,125.57,425.88,125.62,425.47Z" style="fill:#a9b7c4"></path><path d="M159,431.42a26.63,26.63,0,0,1,1.6-6.26l1.2.23a58,58,0,0,0-2.15,6.11C159.58,431.87,159,431.83,159,431.42Z" style="fill:#a9b7c4"></path><path d="M145.06,429a26.39,26.39,0,0,1,1.57-6.22l1.23.2A55.54,55.54,0,0,0,145.7,429C145.6,429.39,145,429.35,145.06,429Z" style="fill:#a9b7c4"></path><path d="M119.39,424.4a26.91,26.91,0,0,1,1.17-5h0l1.19.12c-.64,1.63-1.2,3.3-1.7,5C119.94,424.85,119.34,424.82,119.39,424.4Z" style="fill:#a9b7c4"></path><path d="M151,433.16a26.91,26.91,0,0,1,2.09-9.38l1.2.21a52.66,52.66,0,0,0-2.63,9.18C151.54,433.55,150.94,433.57,151,433.16Z" style="fill:#a9b7c4"></path><path d="M131.52,429.71a26.81,26.81,0,0,1,1.87-8.88l1.23.16a52.48,52.48,0,0,0-2.45,8.74C132.09,430.11,131.5,430.13,131.52,429.71Z" style="fill:#a9b7c4"></path><path d="M103.66,463.81c-5.59-3.39-3.28-41.87,3.65-44.78,4.59-1.93,57.9,5.61,67.72,9.7,1.74.73,4.17,6,3.71,19-.13,3.71-1.92,14.34-4.53,16.36C171.33,466.35,109,467,103.66,463.81Z" style="fill:#fff"></path><path d="M103.66,463.81a5.76,5.76,0,0,1-1.79-2.93,41.15,41.15,0,0,1-1.35-10.37c-.06-9.28.46-18.8,3.65-27.6.7-1.56,1.55-3.46,3.26-4.11,2.89-.59,5.88-.18,8.79-.07a418.46,418.46,0,0,1,41.6,5.43c4.59.84,9.18,1.72,13.71,2.92a16.23,16.23,0,0,1,4.27,1.57c2.35,2.43,2.67,6.15,3.13,9.29a53.78,53.78,0,0,1-1.73,20.93c-.72,2-1.26,4.8-3.36,5.79-4.78,1-9.6.95-14.44,1.21-14,.41-28,.38-41.93-.25-4.59-.4-9.44-.22-13.81-1.81Zm0,0c4.38,1.56,9.22,1.36,13.81,1.74,4.66.21,9.32.31,14,.35,11.65,0,23.3-.14,34.91-1a47.21,47.21,0,0,0,7.28-.94,1.83,1.83,0,0,0,.84-.67c2.16-3.38,2.69-7.57,3.4-11.46a55.57,55.57,0,0,0,.13-13.82,24.68,24.68,0,0,0-1.53-6.65c-.46-1-1-2.06-1.92-2.32a32.11,32.11,0,0,0-3.28-1c-9-2.35-18.21-3.84-27.38-5.3s-18.43-2.73-27.71-3.51a51,51,0,0,0-7.81-.21,2.89,2.89,0,0,0-1.54.51c-6.09,4.52-8.94,39.38-3.17,44.28Z" style="fill:#c7c7c7"></path><path d="M166.06,432.66a25.76,25.76,0,0,1,1.52-6.06l1.18.28a55.53,55.53,0,0,0-2.06,5.86C166.6,433.11,166,433.07,166.06,432.66Z" style="fill:#dbdbdb"></path><path d="M138.84,427.81a26.42,26.42,0,0,1,1.51-6l1.22.18a56.66,56.66,0,0,0-2.08,5.92C139.38,428.25,138.79,428.22,138.84,427.81Z" style="fill:#dbdbdb"></path><path d="M125.62,425.47a26.18,26.18,0,0,1,1.3-5.44l1.22.14a55,55,0,0,0-1.87,5.38C126.16,425.92,125.57,425.88,125.62,425.47Z" style="fill:#dbdbdb"></path><path d="M159,431.42a26.63,26.63,0,0,1,1.6-6.26l1.2.23a58,58,0,0,0-2.15,6.11C159.58,431.87,159,431.83,159,431.42Z" style="fill:#dbdbdb"></path><path d="M145.06,429a26.39,26.39,0,0,1,1.57-6.22l1.23.2A55.54,55.54,0,0,0,145.7,429C145.6,429.39,145,429.35,145.06,429Z" style="fill:#dbdbdb"></path><path d="M119.39,424.4a26.91,26.91,0,0,1,1.17-5h0l1.19.12c-.64,1.63-1.2,3.3-1.7,5C119.94,424.85,119.34,424.82,119.39,424.4Z" style="fill:#dbdbdb"></path><path d="M151,433.16a26.91,26.91,0,0,1,2.09-9.38l1.2.21a52.66,52.66,0,0,0-2.63,9.18C151.54,433.55,150.94,433.57,151,433.16Z" style="fill:#dbdbdb"></path><path d="M131.52,429.71a26.81,26.81,0,0,1,1.87-8.88l1.23.16a52.48,52.48,0,0,0-2.45,8.74C132.09,430.11,131.5,430.13,131.52,429.71Z" style="fill:#dbdbdb"></path><path d="M176.6,462.11c-1.72-.27-3.1-.62-3.25-1-.41-1-2.49-4.84-2.23-13.87.24-8.51,3.37-14.33,4.2-14.85s9.06.05,9.74.47,2.59,4.16,2.85,10.41a34.88,34.88,0,0,1-.14,4.6c-.78,7.88-2.78,13.88-3.62,14.5C183.62,462.77,179.59,462.57,176.6,462.11Z" style="fill:#F448FF"></path><path d="M181.68,458.21c-.45-.55-2.18-4.14-1.58-11,.55-6.45,2.74-10.07,3.6-10.36,0,0,3.93.11,6.34,2.7,1.57,1.68,2.11,4.73,3.7,4.83s3.72-2.49,6.28-2.12a6.08,6.08,0,0,1,4.79,6.29,11.81,11.81,0,0,1-.44,2.11c-.68,2.19-2.11,4-5.1,3.66-3.93-.48-4.08-2.86-5.9-2.84s-1.88,1.68-3.51,4.5a5.37,5.37,0,0,1-3.39,2.17C184.29,458.69,181.94,458.55,181.68,458.21Z" style="fill:#F448FF"></path><g style="opacity:0.5"><path d="M181.68,458.21c-.45-.55-2.18-4.14-1.58-11,.55-6.45,2.74-10.07,3.6-10.36,0,0,3.93.11,6.34,2.7,1.57,1.68,2.11,4.73,3.7,4.83s3.72-2.49,6.28-2.12a6.08,6.08,0,0,1,4.79,6.29,11.81,11.81,0,0,1-.44,2.11c-.68,2.19-2.11,4-5.1,3.66-3.93-.48-4.08-2.86-5.9-2.84s-1.88,1.68-3.51,4.5a5.37,5.37,0,0,1-3.39,2.17C184.29,458.69,181.94,458.55,181.68,458.21Z" style="fill:#fff"></path></g><g style="opacity:0.2"><path d="M103.67,463.81c-4.38-2.65-3.92-26.83-.18-38.59l.3-.91c0-.1.08-.19.11-.29h0c.06-.14.11-.29.16-.42h0c.09-.23.17-.45.27-.67v0l.14-.32c.09-.19.19-.38.27-.57s.24-.47.37-.68a7.12,7.12,0,0,1,1.21-1.61h0a3.32,3.32,0,0,1,1-.67c-2.9,7.17-1.58,17.12.56,24.37a.22.22,0,0,0,0,.1c.25.9.54,1.76.82,2.56a1.86,1.86,0,0,0,.1.25c.28.8.57,1.54.86,2.22v0l.08.15,0,.08.07.18h0a17,17,0,0,0,1.64,2.95h0l.14.19h0l.06.06a2.12,2.12,0,0,0,.65.59.51.51,0,0,0,.15.07,42.47,42.47,0,0,0,7.68,2.6l0,0,.14,0h0l.39.11h0l.35.09c1.25.31,2.58.62,4,.93l.22.05.84.18.09,0,1.62.34,2,.4.29.06,1.25.24.46.09.75.14.18,0h0l1.22.23.37.06.35.07.88.15c.39.08.78.14,1.18.21l.75.13.75.13h0l.32.06h0l.13,0,1.37.23.68.11.15,0h0l.54.09,1.42.23.21,0,.5.08,1.68.26,3.5.53h0l.15,0c.15,0,.29,0,.43.06l.27,0,1.23.17.32,0h0l.27,0,.68.1h0l.22,0,.15,0,.52.07h.1l.24,0,1,.14.24,0c6.53.91,12.24,1.61,15.76,2l2.72.31.21,0h.08l.29,0h.13l.3,0h0a.1.1,0,0,1,0,0h0a3.7,3.7,0,0,1-1.05.33h0a39.66,39.66,0,0,1-4.43.57h-.11l-.43,0-.37,0-.84.07-.49,0c-.85.06-1.74.12-2.69.17l-3.17.16-.85,0h-.05l-1.16,0C138.8,466.41,107.37,466.07,103.67,463.81Z" style="fill:#ebebeb"></path></g></g></svg>
