<svg xmlns="http://www.w3.org/2000/svg" viewBox="0 0 500 500"><g id="freepik--background-complete--inject-9"><path d="M139.84,108.68c5.13,0,133.14-.89,169.3-.89,2.53,0-.67-4.38-2.07-4.68-4.44-1-9.07-1-13.59-1.49a44.94,44.94,0,0,1-13-3.25c-3.55-1.5-7.1-3.24-11-3.84-7.45-1.17-14,2.87-21,4.65a15.79,15.79,0,0,1-12.7-1.74c-3.23-1.93-6.16-4.26-9.54-6a52.38,52.38,0,0,0-41.83-1.91,48.44,48.44,0,0,0-9.15,4.68c-3.41,2.24-6.35,5.1-9.78,7.31-7.58,4.91-17,3.31-25.22,6.13C139.91,107.83,139.4,108.68,139.84,108.68Z" style="fill:#ebebeb"></path><path d="M56.48,219.17c5.13,0,133.14-.89,169.29-.89,2.53,0-.66-4.38-2.06-4.68-4.45-1-9.08-1-13.59-1.5a44.52,44.52,0,0,1-13-3.24c-3.56-1.5-7.11-3.24-11-3.84-7.45-1.17-14,2.87-21,4.65a15.79,15.79,0,0,1-12.7-1.74c-3.23-1.93-6.17-4.26-9.54-6A52.38,52.38,0,0,0,101.16,200,48.18,48.18,0,0,0,92,204.73c-3.42,2.24-6.36,5.1-9.78,7.31-7.58,4.91-17,3.31-25.23,6.12C56.55,218.32,56,219.17,56.48,219.17Z" style="fill:#ebebeb"></path><path d="M289.69,300.84c7.48,0,133.46.83,141.38.58.57,0,.88-.86.31-1.14-5-2.47-10.65-2-15.84-3.72-3.05-1-4.92-3-7-5.31a14.56,14.56,0,0,0-6.56-4.28,13.83,13.83,0,0,0-7.14-.22c-2.55.61-4.77,2.07-7.21,3-6,2.29-11.93.11-16.25-4.36-3.57-3.69-7.07-7.18-11.92-9.17A15.83,15.83,0,0,0,346.8,276c-4.62,2.09-7.79,6.3-12.13,8.84-5.14,3-11.3,2.29-17,3.2s-10.05,5.69-15,8.45a10.66,10.66,0,0,1-5.43,1.68,33.37,33.37,0,0,1-3.31-.47c-1.72-.21-3.35-.16-4.5,1.27C289.14,299.36,289.2,300.84,289.69,300.84Z" style="fill:#ebebeb"></path><path d="M322.38,142.81c4.95,0,88.27.55,93.51.38.37,0,.58-.57.2-.75-3.3-1.64-7-1.31-10.47-2.46a11.09,11.09,0,0,1-4.66-3.52,9.64,9.64,0,0,0-4.34-2.83,9.32,9.32,0,0,0-4.72-.15,41.38,41.38,0,0,0-4.77,2c-4,1.51-7.89.07-10.75-2.89-2.36-2.44-4.67-4.75-7.88-6.06a10.47,10.47,0,0,0-8.34-.12c-3.06,1.39-5.16,4.17-8,5.85-3.4,2-7.47,1.52-11.23,2.12s-6.64,3.76-9.94,5.59a7.11,7.11,0,0,1-3.59,1.11c-.74,0-1.46-.22-2.19-.31a3,3,0,0,0-3,.84C322,141.83,322.05,142.81,322.38,142.81Z" style="fill:#ebebeb"></path><path d="M125.94,259.13c5,0,88.28.55,93.51.39.38,0,.58-.57.21-.75-3.3-1.64-7-1.31-10.48-2.47a11.15,11.15,0,0,1-4.66-3.51,9.66,9.66,0,0,0-4.33-2.83,9.11,9.11,0,0,0-4.72-.15,41.32,41.32,0,0,0-4.77,2c-4,1.51-7.9.08-10.75-2.88-2.36-2.44-4.68-4.75-7.88-6.06a10.46,10.46,0,0,0-8.35-.12c-3.06,1.39-5.15,4.17-8,5.85-3.41,2-7.48,1.51-11.23,2.11s-6.65,3.77-9.95,5.59a7,7,0,0,1-3.59,1.12c-.74,0-1.46-.22-2.19-.31a3,3,0,0,0-3,.83C125.58,258.16,125.62,259.13,125.94,259.13Z" style="fill:#ebebeb"></path><path d="M349.78,263.25c5,0,88.27.54,93.51.38.37,0,.57-.57.2-.75-3.3-1.64-7.05-1.31-10.48-2.47a11.18,11.18,0,0,1-4.65-3.51,9.69,9.69,0,0,0-4.34-2.83,9.11,9.11,0,0,0-4.72-.15,41.32,41.32,0,0,0-4.77,2c-4,1.51-7.89.08-10.75-2.88-2.36-2.44-4.68-4.75-7.88-6.06a10.5,10.5,0,0,0-8.35-.12c-3.05,1.39-5.15,4.17-8,5.85-3.4,2-7.47,1.51-11.23,2.11s-6.65,3.77-9.94,5.59a7,7,0,0,1-3.6,1.12c-.73,0-1.46-.22-2.19-.31a3,3,0,0,0-3,.84C349.41,262.27,349.45,263.25,349.78,263.25Z" style="fill:#ebebeb"></path><path d="M49.61,367.48s60.72-42.4,106.07-42.4c54.46,0,119.77,22.69,139.84,27.93,52.72,13.74,154.87,14.47,154.87,14.47Z" style="fill:#ebebeb"></path><path d="M450.39,367.48S408.87,346.8,362,346.8c-32.73,0-79.72,4.28-124,11.3-16.85,2.68-104.57,9.38-104.57,9.38Z" style="fill:#dbdbdb"></path></g><g id="freepik--Water--inject-9"><path d="M453,367.56c-130.06.61-276,.62-406,0,130.06-.62,276-.61,406,0Z" style="fill:#263238"></path><path d="M437,400.9c-62.41.65-132.44.66-194.86,0,62.42-.65,132.45-.65,194.86,0Z" style="fill:#263238"></path><path d="M376.2,424.23c-80.85.61-171.55.61-252.4,0,80.85-.62,171.55-.62,252.4,0Z" style="fill:#263238"></path><path d="M176.05,450c-41.47.67-87.57.65-129.06,0,41.5-.64,87.58-.66,129.06,0Z" style="fill:#263238"></path><path d="M210.32,467c-27.7.66-58.34.66-86,0,27.71-.66,58.35-.66,86.05,0Z" style="fill:#263238"></path><path d="M348.89,450c-27.7.66-58.35.66-86.05,0,27.71-.65,58.35-.65,86.05,0Z" style="fill:#263238"></path><path d="M453,435.49c-36,.66-76.11.65-112.18,0,36.07-.65,76.13-.67,112.18,0Z" style="fill:#263238"></path><path d="M188.32,385.16c-27.7.66-58.34.66-86,0,27.71-.66,58.35-.66,86.05,0Z" style="fill:#263238"></path><path d="M401.73,374.9c-27.69.65-58.34.65-86,0,27.7-.66,58.34-.66,86,0Z" style="fill:#263238"></path></g><g id="freepik--Lines--inject-9"><path d="M264.83,114.53a.56.56,0,0,1-.56-.56V100.13a.57.57,0,0,1,.56-.57.58.58,0,0,1,.57.57V114A.57.57,0,0,1,264.83,114.53Z" style="fill:#F448FF"></path><path d="M264.83,49a.56.56,0,0,1-.56-.56V40.82a.56.56,0,0,1,.56-.56.57.57,0,0,1,.57.56v7.64A.57.57,0,0,1,264.83,49Z" style="fill:#F448FF"></path><path d="M264.83,93.92a.56.56,0,0,1-.56-.56V56.07a.56.56,0,0,1,.56-.56.57.57,0,0,1,.57.56V93.36A.57.57,0,0,1,264.83,93.92Z" style="fill:#F448FF"></path><path d="M255,115.84a.58.58,0,0,1-.55-.42l-3.58-13.37a.57.57,0,0,1,.4-.69.55.55,0,0,1,.69.39l3.58,13.38a.57.57,0,0,1-.4.69Z" style="fill:#F448FF"></path><path d="M238,52.56a.56.56,0,0,1-.54-.42l-2-7.38a.56.56,0,1,1,1.09-.29l2,7.38a.55.55,0,0,1-.39.69Z" style="fill:#F448FF"></path><path d="M249.62,95.92a.54.54,0,0,1-.54-.42l-9.65-36a.56.56,0,0,1,.39-.69.58.58,0,0,1,.7.4l9.64,36a.55.55,0,0,1-.39.69A.39.39,0,0,1,249.62,95.92Z" style="fill:#F448FF"></path><path d="M245.75,119.65a.58.58,0,0,1-.49-.28l-6.92-12a.57.57,0,0,1,.21-.77.56.56,0,0,1,.77.2l6.92,12a.57.57,0,0,1-.49.85Z" style="fill:#F448FF"></path><path d="M213,62.91a.55.55,0,0,1-.49-.28L208.69,56a.56.56,0,0,1,.21-.77.57.57,0,0,1,.77.2l3.81,6.62a.56.56,0,0,1-.2.77A.58.58,0,0,1,213,62.91Z" style="fill:#F448FF"></path><path d="M235.44,101.79a.58.58,0,0,1-.49-.28L216.31,69.23a.57.57,0,0,1,.21-.77.56.56,0,0,1,.77.2L235.93,101a.56.56,0,0,1-.21.77A.53.53,0,0,1,235.44,101.79Z" style="fill:#F448FF"></path><path d="M237.85,125.71a.55.55,0,0,1-.4-.16l-9.79-9.79a.57.57,0,0,1,.8-.8l9.78,9.79a.55.55,0,0,1,0,.8A.54.54,0,0,1,237.85,125.71Z" style="fill:#F448FF"></path><path d="M191.52,79.39a.58.58,0,0,1-.4-.17l-5.39-5.4a.56.56,0,0,1,.79-.79l5.4,5.4a.57.57,0,0,1-.4,1Z" style="fill:#F448FF"></path><path d="M223.27,111.14a.56.56,0,0,1-.4-.17L196.51,84.61a.57.57,0,0,1,.8-.8l26.36,26.36a.57.57,0,0,1,0,.8A.58.58,0,0,1,223.27,111.14Z" style="fill:#F448FF"></path><path d="M231.78,133.62a.6.6,0,0,1-.28-.08l-12-6.92a.56.56,0,1,1,.56-1l12,6.93a.56.56,0,0,1-.28,1.05Z" style="fill:#F448FF"></path><path d="M175.05,100.86a.59.59,0,0,1-.29-.07L168.15,97a.56.56,0,0,1-.2-.77.57.57,0,0,1,.77-.21l6.61,3.82a.56.56,0,0,1,.2.77A.55.55,0,0,1,175.05,100.86Z" style="fill:#F448FF"></path><path d="M213.93,123.31a.46.46,0,0,1-.28-.08l-32.29-18.64a.57.57,0,0,1-.21-.77.56.56,0,0,1,.77-.2l32.29,18.64a.57.57,0,0,1,.21.77A.58.58,0,0,1,213.93,123.31Z" style="fill:#F448FF"></path><path d="M228,142.82a.39.39,0,0,1-.15,0l-13.37-3.58a.56.56,0,0,1,.29-1.09l13.37,3.58a.56.56,0,0,1,.4.69A.54.54,0,0,1,228,142.82Z" style="fill:#F448FF"></path><path d="M164.69,125.87l-.15,0-7.37-2a.56.56,0,0,1,.29-1.09l7.37,2a.56.56,0,0,1-.14,1.11Z" style="fill:#F448FF"></path><path d="M208.06,137.49l-.15,0-36-9.65a.56.56,0,1,1,.29-1.09l36,9.65a.57.57,0,0,1,.4.69A.57.57,0,0,1,208.06,137.49Z" style="fill:#F448FF"></path><path d="M226.67,152.7H212.83a.56.56,0,0,1-.57-.56.57.57,0,0,1,.57-.57h13.84a.57.57,0,0,1,.56.57A.56.56,0,0,1,226.67,152.7Z" style="fill:#F448FF"></path><path d="M161.16,152.7h-7.64a.56.56,0,0,1-.56-.56.57.57,0,0,1,.56-.57h7.64a.57.57,0,0,1,.56.57A.56.56,0,0,1,161.16,152.7Z" style="fill:#F448FF"></path><path d="M206.05,152.7H168.77a.56.56,0,0,1-.56-.56.57.57,0,0,1,.56-.57h37.28a.58.58,0,0,1,.57.57A.57.57,0,0,1,206.05,152.7Z" style="fill:#F448FF"></path><path d="M214.6,166.16a.58.58,0,0,1-.55-.42.57.57,0,0,1,.4-.69l13.37-3.58a.57.57,0,0,1,.69.4.56.56,0,0,1-.4.69l-13.37,3.58Z" style="fill:#F448FF"></path><path d="M157.31,181.51a.56.56,0,0,1-.14-1.11l7.37-2a.55.55,0,0,1,.69.39.56.56,0,0,1-.4.69l-7.37,2Z" style="fill:#F448FF"></path><path d="M172,177.56a.56.56,0,0,1-.54-.41.58.58,0,0,1,.4-.7l36-9.64a.55.55,0,0,1,.69.39.57.57,0,0,1-.4.69l-36,9.65A.39.39,0,0,1,172,177.56Z" style="fill:#F448FF"></path><path d="M219.79,178.7a.58.58,0,0,1-.49-.28.57.57,0,0,1,.21-.77l12-6.92a.56.56,0,0,1,.56,1l-12,6.92A.53.53,0,0,1,219.79,178.7Z" style="fill:#F448FF"></path><path d="M168.43,208.36a.54.54,0,0,1-.48-.29.56.56,0,0,1,.2-.77l6.61-3.81a.56.56,0,0,1,.57,1l-6.61,3.82A.6.6,0,0,1,168.43,208.36Z" style="fill:#F448FF"></path><path d="M181.64,200.73a.58.58,0,0,1-.49-.28.57.57,0,0,1,.21-.77L213.65,181a.56.56,0,1,1,.56,1l-32.29,18.65A.55.55,0,0,1,181.64,200.73Z" style="fill:#F448FF"></path><path d="M228.06,189.48a.56.56,0,0,1-.4-.17.57.57,0,0,1,0-.8l9.79-9.79a.56.56,0,0,1,.79.8l-9.78,9.79A.58.58,0,0,1,228.06,189.48Z" style="fill:#F448FF"></path><path d="M186.12,231.41a.57.57,0,0,1-.39-1l5.39-5.4a.57.57,0,0,1,.8.8l-5.4,5.39A.56.56,0,0,1,186.12,231.41Z" style="fill:#F448FF"></path><path d="M196.91,220.63a.56.56,0,0,1-.4-.17.57.57,0,0,1,0-.8l26.36-26.36a.57.57,0,0,1,.8.8l-26.36,26.36A.58.58,0,0,1,196.91,220.63Z" style="fill:#F448FF"></path><path d="M238.83,197.74a.48.48,0,0,1-.28-.08.56.56,0,0,1-.21-.76l6.92-12a.56.56,0,0,1,.77-.21.57.57,0,0,1,.21.77l-6.92,12A.58.58,0,0,1,238.83,197.74Z" style="fill:#F448FF"></path><path d="M209.18,249.1a.46.46,0,0,1-.28-.08.56.56,0,0,1-.21-.77l3.82-6.61a.56.56,0,0,1,1,.57l-3.81,6.61A.58.58,0,0,1,209.18,249.1Z" style="fill:#F448FF"></path><path d="M216.8,235.89a.58.58,0,0,1-.28-.07.57.57,0,0,1-.21-.77L235,202.76a.57.57,0,0,1,.77-.21.56.56,0,0,1,.21.77l-18.64,32.29A.55.55,0,0,1,216.8,235.89Z" style="fill:#F448FF"></path><path d="M251.37,202.94l-.14,0a.57.57,0,0,1-.4-.69l3.58-13.37a.56.56,0,0,1,.69-.4.57.57,0,0,1,.4.69l-3.58,13.37A.58.58,0,0,1,251.37,202.94Z" style="fill:#F448FF"></path><path d="M236,260.22l-.14,0a.57.57,0,0,1-.4-.69l2-7.37a.55.55,0,0,1,.69-.4.55.55,0,0,1,.39.69l-2,7.37A.58.58,0,0,1,236,260.22Z" style="fill:#F448FF"></path><path d="M240,245.49l-.15,0a.56.56,0,0,1-.39-.69l9.65-36a.56.56,0,0,1,.69-.4.55.55,0,0,1,.39.69l-9.64,36A.58.58,0,0,1,240,245.49Z" style="fill:#F448FF"></path><path d="M264.83,204.71a.56.56,0,0,1-.56-.57V190.3a.56.56,0,0,1,.56-.56.57.57,0,0,1,.57.56v13.84A.57.57,0,0,1,264.83,204.71Z" style="fill:#F448FF"></path><path d="M264.83,264a.56.56,0,0,1-.56-.56v-7.64a.56.56,0,0,1,.56-.56.57.57,0,0,1,.57.56v7.64A.57.57,0,0,1,264.83,264Z" style="fill:#F448FF"></path><path d="M264.83,248.76a.56.56,0,0,1-.56-.56V210.92a.57.57,0,0,1,.56-.57.58.58,0,0,1,.57.57V248.2A.57.57,0,0,1,264.83,248.76Z" style="fill:#F448FF"></path><path d="M278.29,202.94a.57.57,0,0,1-.54-.42l-3.58-13.37a.56.56,0,1,1,1.09-.29l3.58,13.37a.57.57,0,0,1-.4.69Z" style="fill:#F448FF"></path><path d="M293.64,260.22a.56.56,0,0,1-.54-.42l-2-7.37a.57.57,0,0,1,.4-.69.55.55,0,0,1,.69.4l2,7.37a.57.57,0,0,1-.4.69Z" style="fill:#F448FF"></path><path d="M289.7,245.49a.58.58,0,0,1-.55-.42l-9.65-36a.56.56,0,1,1,1.09-.29l9.65,36a.57.57,0,0,1-.4.69Z" style="fill:#F448FF"></path><path d="M290.84,197.74a.55.55,0,0,1-.49-.28l-6.92-12a.56.56,0,1,1,1-.56l6.93,12a.56.56,0,0,1-.21.76A.5.5,0,0,1,290.84,197.74Z" style="fill:#F448FF"></path><path d="M320.49,249.1a.58.58,0,0,1-.49-.28l-3.82-6.61a.57.57,0,0,1,.21-.77.56.56,0,0,1,.77.2l3.82,6.61a.57.57,0,0,1-.21.77A.48.48,0,0,1,320.49,249.1Z" style="fill:#F448FF"></path><path d="M312.87,235.89a.55.55,0,0,1-.49-.28l-18.64-32.29a.56.56,0,0,1,.2-.77.57.57,0,0,1,.77.21l18.64,32.29a.56.56,0,0,1-.2.77A.58.58,0,0,1,312.87,235.89Z" style="fill:#F448FF"></path><path d="M301.61,189.48a.56.56,0,0,1-.4-.17l-9.79-9.79a.57.57,0,0,1,.8-.8l9.79,9.79a.57.57,0,0,1,0,.8A.58.58,0,0,1,301.61,189.48Z" style="fill:#F448FF"></path><path d="M343.54,231.41a.56.56,0,0,1-.39-.17l-5.4-5.39a.57.57,0,0,1,0-.8.56.56,0,0,1,.79,0l5.4,5.4a.57.57,0,0,1-.4,1Z" style="fill:#F448FF"></path><path d="M332.76,220.63a.58.58,0,0,1-.4-.17L306,194.1a.57.57,0,1,1,.8-.8l26.36,26.36a.57.57,0,0,1,0,.8A.58.58,0,0,1,332.76,220.63Z" style="fill:#F448FF"></path><path d="M309.87,178.7a.58.58,0,0,1-.28-.07l-12-6.92a.57.57,0,0,1,.57-1l12,6.92a.56.56,0,0,1-.29,1Z" style="fill:#F448FF"></path><path d="M361.23,208.36a.6.6,0,0,1-.28-.08l-6.61-3.82a.57.57,0,0,1-.21-.77.56.56,0,0,1,.77-.2l6.62,3.81a.56.56,0,0,1,.2.77A.54.54,0,0,1,361.23,208.36Z" style="fill:#F448FF"></path><path d="M348,200.73a.59.59,0,0,1-.29-.07L315.46,182a.56.56,0,1,1,.56-1l32.29,18.64a.56.56,0,0,1,.2.77A.55.55,0,0,1,348,200.73Z" style="fill:#F448FF"></path><path d="M315.07,166.16l-.15,0-13.37-3.58a.56.56,0,0,1,.29-1.09l13.38,3.58a.57.57,0,0,1-.15,1.11Z" style="fill:#F448FF"></path><path d="M372.35,181.51l-.14,0-7.38-2a.57.57,0,0,1-.4-.69.56.56,0,0,1,.69-.39l7.38,2a.57.57,0,0,1,.4.69A.58.58,0,0,1,372.35,181.51Z" style="fill:#F448FF"></path><path d="M357.62,177.56a.36.36,0,0,1-.14,0l-36-9.65a.57.57,0,0,1-.4-.69.56.56,0,0,1,.69-.39l36,9.64a.58.58,0,0,1,.4.7A.57.57,0,0,1,357.62,177.56Z" style="fill:#F448FF"></path><path d="M316.84,152.7H303a.56.56,0,0,1-.56-.56.57.57,0,0,1,.56-.57h13.84a.58.58,0,0,1,.57.57A.57.57,0,0,1,316.84,152.7Z" style="fill:#F448FF"></path><path d="M376.15,152.7h-7.64a.56.56,0,0,1-.56-.56.57.57,0,0,1,.56-.57h7.64a.57.57,0,0,1,.56.57A.56.56,0,0,1,376.15,152.7Z" style="fill:#F448FF"></path><path d="M360.9,152.7H323.61a.56.56,0,0,1-.56-.56.57.57,0,0,1,.56-.57H360.9a.57.57,0,0,1,.56.57A.56.56,0,0,1,360.9,152.7Z" style="fill:#F448FF"></path><path d="M301.7,142.82a.56.56,0,0,1-.15-1.11l13.37-3.58a.57.57,0,0,1,.69.4.56.56,0,0,1-.39.69l-13.38,3.58A.32.32,0,0,1,301.7,142.82Z" style="fill:#F448FF"></path><path d="M365,125.87a.58.58,0,0,1-.55-.42.57.57,0,0,1,.4-.69l7.38-2a.56.56,0,0,1,.29,1.09l-7.38,2Z" style="fill:#F448FF"></path><path d="M321.61,137.49a.56.56,0,0,1-.54-.42.57.57,0,0,1,.4-.69l36-9.65a.56.56,0,1,1,.29,1.09l-36,9.65Z" style="fill:#F448FF"></path><path d="M297.89,133.62a.56.56,0,0,1-.29-1.05l12-6.93a.57.57,0,0,1,.77.21.56.56,0,0,1-.2.77l-12,6.92A.6.6,0,0,1,297.89,133.62Z" style="fill:#F448FF"></path><path d="M354.62,100.86a.58.58,0,0,1-.49-.28.57.57,0,0,1,.21-.77L361,96a.57.57,0,0,1,.77.21.56.56,0,0,1-.2.77l-6.62,3.82A.55.55,0,0,1,354.62,100.86Z" style="fill:#F448FF"></path><path d="M315.74,123.31a.58.58,0,0,1-.49-.28.57.57,0,0,1,.21-.77l32.28-18.64a.56.56,0,0,1,.57,1L316,123.23A.48.48,0,0,1,315.74,123.31Z" style="fill:#F448FF"></path><path d="M291.82,125.71a.56.56,0,0,1-.4-1l9.79-9.79a.57.57,0,1,1,.8.8l-9.79,9.79A.57.57,0,0,1,291.82,125.71Z" style="fill:#F448FF"></path><path d="M338.14,79.39a.57.57,0,0,1-.39-1l5.4-5.4a.56.56,0,0,1,.79.79l-5.4,5.4A.56.56,0,0,1,338.14,79.39Z" style="fill:#F448FF"></path><path d="M306.4,111.14a.56.56,0,0,1-.4-.17.57.57,0,0,1,0-.8l26.36-26.36a.57.57,0,0,1,.8.8L306.8,111A.58.58,0,0,1,306.4,111.14Z" style="fill:#F448FF"></path><path d="M283.92,119.65a.6.6,0,0,1-.29-.08.56.56,0,0,1-.2-.77l6.92-12a.56.56,0,0,1,.77-.2.57.57,0,0,1,.21.77l-6.93,12A.55.55,0,0,1,283.92,119.65Z" style="fill:#F448FF"></path><path d="M316.67,62.91a.58.58,0,0,1-.28-.07.57.57,0,0,1-.21-.77L320,55.45a.56.56,0,0,1,.77-.2A.57.57,0,0,1,321,56l-3.82,6.61A.55.55,0,0,1,316.67,62.91Z" style="fill:#F448FF"></path><path d="M294.22,101.79a.58.58,0,0,1-.28-.07.56.56,0,0,1-.2-.77l18.64-32.29a.56.56,0,0,1,1,.57l-18.64,32.28A.55.55,0,0,1,294.22,101.79Z" style="fill:#F448FF"></path><path d="M274.71,115.84l-.14,0a.56.56,0,0,1-.4-.69l3.58-13.38a.55.55,0,0,1,.69-.39.57.57,0,0,1,.4.69l-3.58,13.37A.58.58,0,0,1,274.71,115.84Z" style="fill:#F448FF"></path><path d="M291.67,52.56l-.15,0a.57.57,0,0,1-.4-.69l2-7.38a.56.56,0,0,1,1.09.29l-2,7.38A.56.56,0,0,1,291.67,52.56Z" style="fill:#F448FF"></path><path d="M280.05,95.92a.39.39,0,0,1-.15,0,.57.57,0,0,1-.4-.69l9.65-36a.56.56,0,1,1,1.09.29l-9.65,36A.55.55,0,0,1,280.05,95.92Z" style="fill:#F448FF"></path><g style="opacity:0.6000000000000001"><path d="M264.83,114.53a.56.56,0,0,1-.56-.56V100.13a.57.57,0,0,1,.56-.57.58.58,0,0,1,.57.57V114A.57.57,0,0,1,264.83,114.53Z" style="fill:#fff"></path><path d="M264.83,49a.56.56,0,0,1-.56-.56V40.82a.56.56,0,0,1,.56-.56.57.57,0,0,1,.57.56v7.64A.57.57,0,0,1,264.83,49Z" style="fill:#fff"></path><path d="M264.83,93.92a.56.56,0,0,1-.56-.56V56.07a.56.56,0,0,1,.56-.56.57.57,0,0,1,.57.56V93.36A.57.57,0,0,1,264.83,93.92Z" style="fill:#fff"></path><path d="M255,115.84a.58.58,0,0,1-.55-.42l-3.58-13.37a.57.57,0,0,1,.4-.69.55.55,0,0,1,.69.39l3.58,13.38a.57.57,0,0,1-.4.69Z" style="fill:#fff"></path><path d="M238,52.56a.56.56,0,0,1-.54-.42l-2-7.38a.56.56,0,1,1,1.09-.29l2,7.38a.55.55,0,0,1-.39.69Z" style="fill:#fff"></path><path d="M249.62,95.92a.54.54,0,0,1-.54-.42l-9.65-36a.56.56,0,0,1,.39-.69.58.58,0,0,1,.7.4l9.64,36a.55.55,0,0,1-.39.69A.39.39,0,0,1,249.62,95.92Z" style="fill:#fff"></path><path d="M245.75,119.65a.58.58,0,0,1-.49-.28l-6.92-12a.57.57,0,0,1,.21-.77.56.56,0,0,1,.77.2l6.92,12a.57.57,0,0,1-.49.85Z" style="fill:#fff"></path><path d="M213,62.91a.55.55,0,0,1-.49-.28L208.69,56a.56.56,0,0,1,.21-.77.57.57,0,0,1,.77.2l3.81,6.62a.56.56,0,0,1-.2.77A.58.58,0,0,1,213,62.91Z" style="fill:#fff"></path><path d="M235.44,101.79a.58.58,0,0,1-.49-.28L216.31,69.23a.57.57,0,0,1,.21-.77.56.56,0,0,1,.77.2L235.93,101a.56.56,0,0,1-.21.77A.53.53,0,0,1,235.44,101.79Z" style="fill:#fff"></path><path d="M237.85,125.71a.55.55,0,0,1-.4-.16l-9.79-9.79a.57.57,0,0,1,.8-.8l9.78,9.79a.55.55,0,0,1,0,.8A.54.54,0,0,1,237.85,125.71Z" style="fill:#fff"></path><path d="M191.52,79.39a.58.58,0,0,1-.4-.17l-5.39-5.4a.56.56,0,0,1,.79-.79l5.4,5.4a.57.57,0,0,1-.4,1Z" style="fill:#fff"></path><path d="M223.27,111.14a.56.56,0,0,1-.4-.17L196.51,84.61a.57.57,0,0,1,.8-.8l26.36,26.36a.57.57,0,0,1,0,.8A.58.58,0,0,1,223.27,111.14Z" style="fill:#fff"></path><path d="M231.78,133.62a.6.6,0,0,1-.28-.08l-12-6.92a.56.56,0,1,1,.56-1l12,6.93a.56.56,0,0,1-.28,1.05Z" style="fill:#fff"></path><path d="M175.05,100.86a.59.59,0,0,1-.29-.07L168.15,97a.56.56,0,0,1-.2-.77.57.57,0,0,1,.77-.21l6.61,3.82a.56.56,0,0,1,.2.77A.55.55,0,0,1,175.05,100.86Z" style="fill:#fff"></path><path d="M213.93,123.31a.46.46,0,0,1-.28-.08l-32.29-18.64a.57.57,0,0,1-.21-.77.56.56,0,0,1,.77-.2l32.29,18.64a.57.57,0,0,1,.21.77A.58.58,0,0,1,213.93,123.31Z" style="fill:#fff"></path><path d="M228,142.82a.39.39,0,0,1-.15,0l-13.37-3.58a.56.56,0,0,1,.29-1.09l13.37,3.58a.56.56,0,0,1,.4.69A.54.54,0,0,1,228,142.82Z" style="fill:#fff"></path><path d="M164.69,125.87l-.15,0-7.37-2a.56.56,0,0,1,.29-1.09l7.37,2a.56.56,0,0,1-.14,1.11Z" style="fill:#fff"></path><path d="M208.06,137.49l-.15,0-36-9.65a.56.56,0,1,1,.29-1.09l36,9.65a.57.57,0,0,1,.4.69A.57.57,0,0,1,208.06,137.49Z" style="fill:#fff"></path><path d="M226.67,152.7H212.83a.56.56,0,0,1-.57-.56.57.57,0,0,1,.57-.57h13.84a.57.57,0,0,1,.56.57A.56.56,0,0,1,226.67,152.7Z" style="fill:#fff"></path><path d="M161.16,152.7h-7.64a.56.56,0,0,1-.56-.56.57.57,0,0,1,.56-.57h7.64a.57.57,0,0,1,.56.57A.56.56,0,0,1,161.16,152.7Z" style="fill:#fff"></path><path d="M206.05,152.7H168.77a.56.56,0,0,1-.56-.56.57.57,0,0,1,.56-.57h37.28a.58.58,0,0,1,.57.57A.57.57,0,0,1,206.05,152.7Z" style="fill:#fff"></path><path d="M214.6,166.16a.58.58,0,0,1-.55-.42.57.57,0,0,1,.4-.69l13.37-3.58a.57.57,0,0,1,.69.4.56.56,0,0,1-.4.69l-13.37,3.58Z" style="fill:#fff"></path><path d="M157.31,181.51a.56.56,0,0,1-.14-1.11l7.37-2a.55.55,0,0,1,.69.39.56.56,0,0,1-.4.69l-7.37,2Z" style="fill:#fff"></path><path d="M172,177.56a.56.56,0,0,1-.54-.41.58.58,0,0,1,.4-.7l36-9.64a.55.55,0,0,1,.69.39.57.57,0,0,1-.4.69l-36,9.65A.39.39,0,0,1,172,177.56Z" style="fill:#fff"></path><path d="M219.79,178.7a.58.58,0,0,1-.49-.28.57.57,0,0,1,.21-.77l12-6.92a.56.56,0,0,1,.56,1l-12,6.92A.53.53,0,0,1,219.79,178.7Z" style="fill:#fff"></path><path d="M168.43,208.36a.54.54,0,0,1-.48-.29.56.56,0,0,1,.2-.77l6.61-3.81a.56.56,0,0,1,.57,1l-6.61,3.82A.6.6,0,0,1,168.43,208.36Z" style="fill:#fff"></path><path d="M181.64,200.73a.58.58,0,0,1-.49-.28.57.57,0,0,1,.21-.77L213.65,181a.56.56,0,1,1,.56,1l-32.29,18.65A.55.55,0,0,1,181.64,200.73Z" style="fill:#fff"></path><path d="M228.06,189.48a.56.56,0,0,1-.4-.17.57.57,0,0,1,0-.8l9.79-9.79a.56.56,0,0,1,.79.8l-9.78,9.79A.58.58,0,0,1,228.06,189.48Z" style="fill:#fff"></path><path d="M186.12,231.41a.57.57,0,0,1-.39-1l5.39-5.4a.57.57,0,0,1,.8.8l-5.4,5.39A.56.56,0,0,1,186.12,231.41Z" style="fill:#fff"></path><path d="M196.91,220.63a.56.56,0,0,1-.4-.17.57.57,0,0,1,0-.8l26.36-26.36a.57.57,0,0,1,.8.8l-26.36,26.36A.58.58,0,0,1,196.91,220.63Z" style="fill:#fff"></path><path d="M238.83,197.74a.48.48,0,0,1-.28-.08.56.56,0,0,1-.21-.76l6.92-12a.56.56,0,0,1,.77-.21.57.57,0,0,1,.21.77l-6.92,12A.58.58,0,0,1,238.83,197.74Z" style="fill:#fff"></path><path d="M209.18,249.1a.46.46,0,0,1-.28-.08.56.56,0,0,1-.21-.77l3.82-6.61a.56.56,0,0,1,1,.57l-3.81,6.61A.58.58,0,0,1,209.18,249.1Z" style="fill:#fff"></path><path d="M216.8,235.89a.58.58,0,0,1-.28-.07.57.57,0,0,1-.21-.77L235,202.76a.57.57,0,0,1,.77-.21.56.56,0,0,1,.21.77l-18.64,32.29A.55.55,0,0,1,216.8,235.89Z" style="fill:#fff"></path><path d="M251.37,202.94l-.14,0a.57.57,0,0,1-.4-.69l3.58-13.37a.56.56,0,0,1,.69-.4.57.57,0,0,1,.4.69l-3.58,13.37A.58.58,0,0,1,251.37,202.94Z" style="fill:#fff"></path><path d="M236,260.22l-.14,0a.57.57,0,0,1-.4-.69l2-7.37a.55.55,0,0,1,.69-.4.55.55,0,0,1,.39.69l-2,7.37A.58.58,0,0,1,236,260.22Z" style="fill:#fff"></path><path d="M240,245.49l-.15,0a.56.56,0,0,1-.39-.69l9.65-36a.56.56,0,0,1,.69-.4.55.55,0,0,1,.39.69l-9.64,36A.58.58,0,0,1,240,245.49Z" style="fill:#fff"></path><path d="M264.83,204.71a.56.56,0,0,1-.56-.57V190.3a.56.56,0,0,1,.56-.56.57.57,0,0,1,.57.56v13.84A.57.57,0,0,1,264.83,204.71Z" style="fill:#fff"></path><path d="M264.83,264a.56.56,0,0,1-.56-.56v-7.64a.56.56,0,0,1,.56-.56.57.57,0,0,1,.57.56v7.64A.57.57,0,0,1,264.83,264Z" style="fill:#fff"></path><path d="M264.83,248.76a.56.56,0,0,1-.56-.56V210.92a.57.57,0,0,1,.56-.57.58.58,0,0,1,.57.57V248.2A.57.57,0,0,1,264.83,248.76Z" style="fill:#fff"></path><path d="M278.29,202.94a.57.57,0,0,1-.54-.42l-3.58-13.37a.56.56,0,1,1,1.09-.29l3.58,13.37a.57.57,0,0,1-.4.69Z" style="fill:#fff"></path><path d="M293.64,260.22a.56.56,0,0,1-.54-.42l-2-7.37a.57.57,0,0,1,.4-.69.55.55,0,0,1,.69.4l2,7.37a.57.57,0,0,1-.4.69Z" style="fill:#fff"></path><path d="M289.7,245.49a.58.58,0,0,1-.55-.42l-9.65-36a.56.56,0,1,1,1.09-.29l9.65,36a.57.57,0,0,1-.4.69Z" style="fill:#fff"></path><path d="M290.84,197.74a.55.55,0,0,1-.49-.28l-6.92-12a.56.56,0,1,1,1-.56l6.93,12a.56.56,0,0,1-.21.76A.5.5,0,0,1,290.84,197.74Z" style="fill:#fff"></path><path d="M320.49,249.1a.58.58,0,0,1-.49-.28l-3.82-6.61a.57.57,0,0,1,.21-.77.56.56,0,0,1,.77.2l3.82,6.61a.57.57,0,0,1-.21.77A.48.48,0,0,1,320.49,249.1Z" style="fill:#fff"></path><path d="M312.87,235.89a.55.55,0,0,1-.49-.28l-18.64-32.29a.56.56,0,0,1,.2-.77.57.57,0,0,1,.77.21l18.64,32.29a.56.56,0,0,1-.2.77A.58.58,0,0,1,312.87,235.89Z" style="fill:#fff"></path><path d="M301.61,189.48a.56.56,0,0,1-.4-.17l-9.79-9.79a.57.57,0,0,1,.8-.8l9.79,9.79a.57.57,0,0,1,0,.8A.58.58,0,0,1,301.61,189.48Z" style="fill:#fff"></path><path d="M343.54,231.41a.56.56,0,0,1-.39-.17l-5.4-5.39a.57.57,0,0,1,0-.8.56.56,0,0,1,.79,0l5.4,5.4a.57.57,0,0,1-.4,1Z" style="fill:#fff"></path><path d="M332.76,220.63a.58.58,0,0,1-.4-.17L306,194.1a.57.57,0,1,1,.8-.8l26.36,26.36a.57.57,0,0,1,0,.8A.58.58,0,0,1,332.76,220.63Z" style="fill:#fff"></path><path d="M309.87,178.7a.58.58,0,0,1-.28-.07l-12-6.92a.57.57,0,0,1,.57-1l12,6.92a.56.56,0,0,1-.29,1Z" style="fill:#fff"></path><path d="M361.23,208.36a.6.6,0,0,1-.28-.08l-6.61-3.82a.57.57,0,0,1-.21-.77.56.56,0,0,1,.77-.2l6.62,3.81a.56.56,0,0,1,.2.77A.54.54,0,0,1,361.23,208.36Z" style="fill:#fff"></path><path d="M348,200.73a.59.59,0,0,1-.29-.07L315.46,182a.56.56,0,1,1,.56-1l32.29,18.64a.56.56,0,0,1,.2.77A.55.55,0,0,1,348,200.73Z" style="fill:#fff"></path><path d="M315.07,166.16l-.15,0-13.37-3.58a.56.56,0,0,1,.29-1.09l13.38,3.58a.57.57,0,0,1-.15,1.11Z" style="fill:#fff"></path><path d="M372.35,181.51l-.14,0-7.38-2a.57.57,0,0,1-.4-.69.56.56,0,0,1,.69-.39l7.38,2a.57.57,0,0,1,.4.69A.58.58,0,0,1,372.35,181.51Z" style="fill:#fff"></path><path d="M357.62,177.56a.36.36,0,0,1-.14,0l-36-9.65a.57.57,0,0,1-.4-.69.56.56,0,0,1,.69-.39l36,9.64a.58.58,0,0,1,.4.7A.57.57,0,0,1,357.62,177.56Z" style="fill:#fff"></path><path d="M316.84,152.7H303a.56.56,0,0,1-.56-.56.57.57,0,0,1,.56-.57h13.84a.58.58,0,0,1,.57.57A.57.57,0,0,1,316.84,152.7Z" style="fill:#fff"></path><path d="M376.15,152.7h-7.64a.56.56,0,0,1-.56-.56.57.57,0,0,1,.56-.57h7.64a.57.57,0,0,1,.56.57A.56.56,0,0,1,376.15,152.7Z" style="fill:#fff"></path><path d="M360.9,152.7H323.61a.56.56,0,0,1-.56-.56.57.57,0,0,1,.56-.57H360.9a.57.57,0,0,1,.56.57A.56.56,0,0,1,360.9,152.7Z" style="fill:#fff"></path><path d="M301.7,142.82a.56.56,0,0,1-.15-1.11l13.37-3.58a.57.57,0,0,1,.69.4.56.56,0,0,1-.39.69l-13.38,3.58A.32.32,0,0,1,301.7,142.82Z" style="fill:#fff"></path><path d="M365,125.87a.58.58,0,0,1-.55-.42.57.57,0,0,1,.4-.69l7.38-2a.56.56,0,0,1,.29,1.09l-7.38,2Z" style="fill:#fff"></path><path d="M321.61,137.49a.56.56,0,0,1-.54-.42.57.57,0,0,1,.4-.69l36-9.65a.56.56,0,1,1,.29,1.09l-36,9.65Z" style="fill:#fff"></path><path d="M297.89,133.62a.56.56,0,0,1-.29-1.05l12-6.93a.57.57,0,0,1,.77.21.56.56,0,0,1-.2.77l-12,6.92A.6.6,0,0,1,297.89,133.62Z" style="fill:#fff"></path><path d="M354.62,100.86a.58.58,0,0,1-.49-.28.57.57,0,0,1,.21-.77L361,96a.57.57,0,0,1,.77.21.56.56,0,0,1-.2.77l-6.62,3.82A.55.55,0,0,1,354.62,100.86Z" style="fill:#fff"></path><path d="M315.74,123.31a.58.58,0,0,1-.49-.28.57.57,0,0,1,.21-.77l32.28-18.64a.56.56,0,0,1,.57,1L316,123.23A.48.48,0,0,1,315.74,123.31Z" style="fill:#fff"></path><path d="M291.82,125.71a.56.56,0,0,1-.4-1l9.79-9.79a.57.57,0,1,1,.8.8l-9.79,9.79A.57.57,0,0,1,291.82,125.71Z" style="fill:#fff"></path><path d="M338.14,79.39a.57.57,0,0,1-.39-1l5.4-5.4a.56.56,0,0,1,.79.79l-5.4,5.4A.56.56,0,0,1,338.14,79.39Z" style="fill:#fff"></path><path d="M306.4,111.14a.56.56,0,0,1-.4-.17.57.57,0,0,1,0-.8l26.36-26.36a.57.57,0,0,1,.8.8L306.8,111A.58.58,0,0,1,306.4,111.14Z" style="fill:#fff"></path><path d="M283.92,119.65a.6.6,0,0,1-.29-.08.56.56,0,0,1-.2-.77l6.92-12a.56.56,0,0,1,.77-.2.57.57,0,0,1,.21.77l-6.93,12A.55.55,0,0,1,283.92,119.65Z" style="fill:#fff"></path><path d="M316.67,62.91a.58.58,0,0,1-.28-.07.57.57,0,0,1-.21-.77L320,55.45a.56.56,0,0,1,.77-.2A.57.57,0,0,1,321,56l-3.82,6.61A.55.55,0,0,1,316.67,62.91Z" style="fill:#fff"></path><path d="M294.22,101.79a.58.58,0,0,1-.28-.07.56.56,0,0,1-.2-.77l18.64-32.29a.56.56,0,0,1,1,.57l-18.64,32.28A.55.55,0,0,1,294.22,101.79Z" style="fill:#fff"></path><path d="M274.71,115.84l-.14,0a.56.56,0,0,1-.4-.69l3.58-13.38a.55.55,0,0,1,.69-.39.57.57,0,0,1,.4.69l-3.58,13.37A.58.58,0,0,1,274.71,115.84Z" style="fill:#fff"></path><path d="M291.67,52.56l-.15,0a.57.57,0,0,1-.4-.69l2-7.38a.56.56,0,0,1,1.09.29l-2,7.38A.56.56,0,0,1,291.67,52.56Z" style="fill:#fff"></path><path d="M280.05,95.92a.39.39,0,0,1-.15,0,.57.57,0,0,1-.4-.69l9.65-36a.56.56,0,1,1,1.09.29l-9.65,36A.55.55,0,0,1,280.05,95.92Z" style="fill:#fff"></path></g></g><g id="freepik--Light--inject-9"><polygon points="97.74 111.36 139.16 367.48 100.01 367.48 91.38 115.28 97.74 111.36" style="fill:#F448FF"></polygon><polygon points="272.61 367.48 151.47 367.48 98.46 110.92 105.49 106.66 272.61 367.48" style="fill:#F448FF"></polygon><polygon points="352.51 367.48 304.29 367.48 106.21 106.21 112.42 102.29 352.51 367.48" style="fill:#F448FF"></polygon><polygon points="382.94 367.48 113.09 101.88 116.85 99.56 416.58 367.48 382.94 367.48" style="fill:#F448FF"></polygon><polygon points="90.71 115.81 92.07 367.56 83.42 367.56 89.91 116.51 90.71 115.81" style="fill:#F448FF"></polygon><g style="opacity:0.8"><polygon points="97.74 111.36 139.16 367.48 100.01 367.48 91.38 115.28 97.74 111.36" style="fill:#fff"></polygon><polygon points="272.61 367.48 151.47 367.48 98.46 110.92 105.49 106.66 272.61 367.48" style="fill:#fff"></polygon><polygon points="352.51 367.48 304.29 367.48 106.21 106.21 112.42 102.29 352.51 367.48" style="fill:#fff"></polygon><polygon points="382.94 367.48 113.09 101.88 116.85 99.56 416.58 367.48 382.94 367.48" style="fill:#fff"></polygon><polygon points="90.71 115.81 92.07 367.56 83.42 367.56 89.91 116.51 90.71 115.81" style="fill:#fff"></polygon></g><circle cx="98.46" cy="95.92" r="24.05" style="fill:#F448FF"></circle><circle cx="98.46" cy="95.92" r="24.05" style="fill:#fff;opacity:0.8"></circle><circle cx="98.46" cy="95.92" r="17.88" style="fill:#fff;opacity:0.8"></circle><circle cx="98.46" cy="95.92" r="12.68" style="fill:#fff;opacity:0.8"></circle></g><g id="freepik--Character--inject-9"><path d="M266,102.07c3.59-.11,18.58-4.33,31,7.93,11.75,11.61,21.53,51.06,25,59.44S337,177.3,341.34,187c3.71,8.33-2.12,12.54-1.75,19,.29,5,6.46,11.66,3.11,19.71-3,7.32-10.49,7.06-14.52,9.85S323,248.9,315.4,252.91s-16-2.2-20.23-1.47-7.26,14.69-21.43,15.77-20.1-10.1-26.25-11.51-20,4.93-27.77-1.22-10.45-15.61-14-18.68S196,234.29,191,226.68s1.78-14.05,1.72-21.34c0-5.08-5.18-8.93-3.29-17,2.59-11.1,15.69-10.91,18.84-22.38,2.47-9,4.53-46.74,25.13-59.24C247.64,98.08,266,102.07,266,102.07Z" style="fill:#263238"></path><path d="M321.18,167.41c1,1.83,2.82,3,4.48,4.09l5.19,3.21c3.42,2.09,6.89,4.26,9.41,7.22a12.2,12.2,0,0,1,3,10.4,18.53,18.53,0,0,1-2.15,5.32,22.2,22.2,0,0,0-2.6,5.86c-.42,2.53.72,4.72,1.62,6.49s2,3.56,2.82,5.35c1.72,3.51,2.63,7.4,1.39,11a8.33,8.33,0,0,1-3.23,4.38,15.25,15.25,0,0,1-5.39,2.1c-1.94.45-3.95.71-6,1.06s-4.15.78-5.61,2.26c1.62-1.27,3.72-1.43,5.69-1.65s4.05-.26,6.09-.56a16.3,16.3,0,0,0,6-2,9.9,9.9,0,0,0,4.11-5c1.75-4.13.57-8.82-1.16-12.5-.86-1.9-1.87-3.69-2.75-5.46s-1.63-3.53-1.32-5.08c.69-3.39,3.84-6.82,4.54-11.19a13.63,13.63,0,0,0-3.79-12c-2.95-3.09-6.61-5.1-10.18-7L326,171C324.24,170,322.36,169.08,321.18,167.41Z" style="fill:#263238"></path><path d="M216.32,130.55c-2.84,6.75-4.11,14-6.08,20.93-1,3.47-1.85,7-3.08,10.33A23.23,23.23,0,0,1,205,166.5a3.23,3.23,0,0,1-.7.92,3.93,3.93,0,0,1-.86.79c-.69.52-1.43,1-2.18,1.47a104.78,104.78,0,0,0-9.11,6.15c-2.89,2.32-5.57,5.37-6.62,9.15a11.58,11.58,0,0,0-.22,5.79,15.1,15.1,0,0,0,2.49,5.07c2.18,2.92,4.27,5.87,5,9.5-.14-3.7-2.17-7.05-4-10.11a14,14,0,0,1-2-4.77,9.86,9.86,0,0,1,.49-5,18.05,18.05,0,0,1,6.22-8c2.78-2.17,5.93-3.88,9.06-5.85.77-.51,1.54-1,2.29-1.62a7.92,7.92,0,0,0,2.05-2.3,25.43,25.43,0,0,0,2.32-5.2A87.09,87.09,0,0,0,212,151.89l2.09-10.7A93.57,93.57,0,0,1,216.32,130.55Z" style="fill:#263238"></path><path d="M201.91,233.91c1.86,1.81,2.49,4.46,3.46,6.83s1.88,4.86,3,7.27a37.5,37.5,0,0,0,3.87,7,17.1,17.1,0,0,0,6.14,5.53c5.39,2.35,11.13,1.05,16-.67,2.48-.87,4.88-1.88,7.31-2.69a16.18,16.18,0,0,1,7.53-1.17c-2.51-.87-5.28-.44-7.84.08s-5,1.43-7.53,2.08c-4.87,1.32-10.16,2.25-14.48.28a15.4,15.4,0,0,1-5.37-4.74,47,47,0,0,1-4-6.45c-1.24-2.26-2.35-4.6-3.51-6.93-.61-1.16-1.23-2.32-1.91-3.45A7.48,7.48,0,0,0,201.91,233.91Z" style="fill:#263238"></path><path d="M306.77,239.17c45.84,44.13,88.6,97.67,81.6,129.36-5.3,24-62.94-27.52-64.83-30.77-2.8-4.79-21.15-37.58-42.21-80.37C261.06,216.21,281.31,214.66,306.77,239.17Z" style="fill:#F448FF"></path><g style="opacity:0.6000000000000001"><path d="M306.77,239.17c45.84,44.13,88.6,97.67,81.6,129.36-5.3,24-62.94-27.52-64.83-30.77-2.8-4.79-21.15-37.58-42.21-80.37C261.06,216.21,281.31,214.66,306.77,239.17Z" style="fill:#fff"></path></g><path d="M385,373.81c-13.66,8.21-59.74-33.15-61.44-36.05-2.79-4.79-21.15-37.58-42.2-80.37-9.62-19.54-10.12-30.16-5.26-33.3Z" style="fill:#F448FF;opacity:0.4"></path><path d="M222.9,239.17c-45.85,44.13-88.6,97.67-81.61,129.36,5.31,24,62.94-27.52,64.84-30.77,2.8-4.79,21.15-37.58,42.21-80.37C268.61,216.21,248.36,214.66,222.9,239.17Z" style="fill:#F448FF"></path><g style="opacity:0.6000000000000001"><path d="M222.9,239.17c-45.85,44.13-88.6,97.67-81.61,129.36,5.31,24,62.94-27.52,64.84-30.77,2.8-4.79,21.15-37.58,42.21-80.37C268.61,216.21,248.36,214.66,222.9,239.17Z" style="fill:#fff"></path></g><path d="M144.69,373.81c13.66,8.21,59.74-33.15,61.44-36.05,2.79-4.79,21.15-37.58,42.2-80.37,9.62-19.54,10.12-30.16,5.26-33.3Z" style="fill:#F448FF;opacity:0.4"></path><path d="M174.36,424l170.16-.16c2.26-1.67-28.48-151.79-55-193.24-5-7.76-30.59-19.13-44.43-.46C198.85,292.48,172.25,421.29,174.36,424Z" style="fill:#F448FF"></path><g style="opacity:0.6000000000000001"><path d="M174.36,424l170.16-.16c2.26-1.67-28.48-151.79-55-193.24-5-7.76-30.59-19.13-44.43-.46C198.85,292.48,172.25,421.29,174.36,424Z" style="fill:#fff"></path></g><path d="M252.22,223.75c.64,2.58,13.23,19.2,25,18.47,3.85-.24,3.46-21.3,3.46-21.3l.33-1.57,4.56-21.86-29.57-18.18S252,222.66,252.22,223.75Z" style="fill:#f7a9a0"></path><path d="M285.62,197.5l-4.57,21.85-.32,1.57s.07,3.82-.15,8.21c-16.15-2.16-23.71-14.16-27-22.47,1.1-12.52,2.51-27.34,2.51-27.34Z" style="fill:#263238"></path><path d="M322.43,153.16c12.52,49.89-15.95,63-26.71,65.71-9.77,2.44-43.35,9.5-61-38.83s1.64-69.92,23.69-76.68S309.92,103.27,322.43,153.16Z" style="fill:#f7a9a0"></path><path d="M314.47,153.41a35.08,35.08,0,0,1-3.55-.11c-1.36-.06-2.45,0-3.6-.81a1.84,1.84,0,0,1-.39-2.2c.89-1.49,2.58-1.83,4.22-1.83a6.72,6.72,0,0,1,4.53,1.59A2,2,0,0,1,314.47,153.41Z" style="fill:#263238"></path><path d="M280.36,161.16a34.79,34.79,0,0,0,3.29-1.33c1.26-.53,2.32-.81,3.1-2a1.83,1.83,0,0,0-.39-2.2c-1.35-1.09-3.05-.83-4.59-.26a6.71,6.71,0,0,0-3.71,3A2,2,0,0,0,280.36,161.16Z" style="fill:#263238"></path><path d="M293,197c.93.72,1.89,1.74,3.17,1.7a9.11,9.11,0,0,0,3.64-1.3.12.12,0,0,1,.17.16,4.74,4.74,0,0,1-4.2,2.4c-1.61-.1-2.54-1.37-3.09-2.76C292.63,197,292.89,196.84,293,197Z" style="fill:#263238"></path><path d="M305.29,182s1.6,5,2,7.46c0,.23-.54.44-1.35.63,0,0-.06,0-.1,0a11.7,11.7,0,0,1-12-2.37c-.21-.21.06-.51.3-.4,3.62,1.8,7.26,1.79,11.08,1.2.06-.71-3-8.62-2.66-8.62,1.67,0,4.64.21,5.74.29-1-3.29-4.19-12.5-5.94-18.5-.11-.37.45-.6.61-.27a167,167,0,0,1,8.18,20.41C311.39,182.37,306.33,182.22,305.29,182Z" style="fill:#263238"></path><path d="M283.18,169.86a8.83,8.83,0,0,0,.37,1.84,4.67,4.67,0,0,1-.54,1.38,2.58,2.58,0,0,1-2.34,1.44c-2-.1-3-2.13-3.28-4.16,0-.15.07-.25.16-.16.9,1,1.94,2,3.11,1.77,1-.21,1.67-1.37,2.44-2.07,0,0,0,0,.06,0Z" style="fill:#263238"></path><path d="M290.75,173.59a5.2,5.2,0,0,1-.67,2.63,3.68,3.68,0,0,1-2.43,1.65,3.33,3.33,0,0,1-2.84-.89,5.86,5.86,0,0,1-1.4-2.28,10.78,10.78,0,0,1-.39-1.56,7.15,7.15,0,0,1,.15-3.32,10.81,10.81,0,0,0,.54,2.36,13.94,13.94,0,0,0,.85,2c.69,1.32,1.72,2.35,2.83,2.08s1.88-1.29,2.09-2.78a23.19,23.19,0,0,0,.09-4.66A10.54,10.54,0,0,1,290.75,173.59Z" style="fill:#263238"></path><path d="M315.31,163.49a9.19,9.19,0,0,1,.23,1.87,5.1,5.1,0,0,0,.95,1.14,2.59,2.59,0,0,0,2.67.63c1.9-.74,2.19-3,1.79-5,0-.15-.13-.21-.19-.1-.54,1.25-1.2,2.54-2.39,2.66-1,.12-2-.77-3-1.19,0,0,0,0-.06,0Z" style="fill:#263238"></path><path d="M309.31,169.43a5.12,5.12,0,0,0,1.46,2.28,3.65,3.65,0,0,0,2.83.8,3.31,3.31,0,0,0,2.42-1.74,6,6,0,0,0,.61-2.61,12.18,12.18,0,0,0-.13-1.6,7.2,7.2,0,0,0-1.19-3.1,10.94,10.94,0,0,1,.23,2.41,14.15,14.15,0,0,1-.17,2.18c-.24,1.47-.89,2.76-2,2.86s-2.2-.63-2.87-2a23.91,23.91,0,0,1-1.56-4.39A10.57,10.57,0,0,0,309.31,169.43Z" style="fill:#263238"></path><path d="M238.5,187c9.94.16,10-22.57,10-22.57s42.46-4.46,42.25-38.86c0,0,6.17,11.47,29.12,18.86,0,0-4.07-38-36-42.17,0,0-36.94-10-54.35,21.38S231.83,186.86,238.5,187Z" style="fill:#263238"></path><path d="M291.3,121.6a37.23,37.23,0,0,1-1.64,15.65,38.91,38.91,0,0,1-7.72,13.93,33,33,0,0,1-2.79,2.88l-1.44,1.4c-.51.43-1,.83-1.58,1.23-1.08.78-2.13,1.62-3.23,2.36s-2.31,1.32-3.48,1.95c-.59.31-1.16.65-1.75.93l-1.84.75-3.67,1.47c-2.53.75-5.09,1.36-7.63,1.93,2.39-1.09,4.85-1.92,7.2-3l3.45-1.75,1.72-.86c.55-.33,1.07-.71,1.61-1.05,1.07-.71,2.14-1.41,3.22-2.08s2-1.6,3-2.39l1.48-1.2,1.34-1.35a32.39,32.39,0,0,0,2.61-2.76,44.42,44.42,0,0,0,7.8-13,51.16,51.16,0,0,0,3.36-15Z" style="fill:#263238"></path><path d="M243.66,181.88s-13.63-14.07-20.19-9,5.47,26.75,14.42,28.54A8.71,8.71,0,0,0,248.66,195Z" style="fill:#f7a9a0"></path><path d="M227.07,179c-.13,0-.13.2,0,.23,6.3,1.45,10.3,6.44,13.4,11.78-2.11-1.91-4.7-2.72-7.3-.16-.14.14.05.36.21.29,2.34-.91,4.16-.77,6.11.91a25.92,25.92,0,0,1,3.54,4.26c.36.48,1.27.05,1-.53l-.07-.13C242.87,188.12,235.3,178.5,227.07,179Z" style="fill:#263238"></path><path d="M144.55,373.47c8.31,5.31,36.74,20.08,89.29-9.72,8-4.53-12.31-68.11-17.78-64.94-10.68,6.21-36,16.12-39.08,17.88C151.06,331.52,135,367.36,144.55,373.47Z" style="fill:#f7a9a0"></path><path d="M259,345.84c-4.84,10.25-29.88,20.52-29.88,20.52l-20.9-63.46s9.42-4.38,16.73-16.38c1.57-2.6,4.14-6.31,7.88-20.32,4.25-15.9,10.73-32,12.41-33.09,3.22-2.05,8.12,2,7.79,13.4s-4.81,33.45-4.73,34.85a8.67,8.67,0,0,0,.35,1.35v0c.34.51,14.9,7.54,16.18,14.74S267.11,335.24,259,345.84Z" style="fill:#f7a9a0"></path><path d="M239.3,301.62s-5.13-27.25-2.75-32.51,11.79-39,15-41.13,8.13,2,7.8,13.42-4.82,33.44-4.74,34.84,8.43,24.35,8.57,26.69S239.3,301.62,239.3,301.62Z" style="fill:#f7a9a0"></path><path d="M234.24,286.68c.11-3,.35-6.06.57-9.1.13-1.51.29-3,.47-4.53.09-.76.18-1.52.31-2.28,0-.38.13-.77.2-1.15s.23-.83.34-1.16c1.84-5.75,3.73-11.54,5.63-17.29s3.85-11.48,6-17.22a19.07,19.07,0,0,1,2.2-4.13,8.54,8.54,0,0,1,1.65-1.75,3.9,3.9,0,0,1,2.32-.93,3.16,3.16,0,0,1,2.27,1,7.27,7.27,0,0,1,1.32,2,16.7,16.7,0,0,1,1.27,4.39,20.08,20.08,0,0,0-1.65-4.19,6.55,6.55,0,0,0-1.35-1.71,2.46,2.46,0,0,0-1.83-.67c-1.3.12-2.38,1.29-3.16,2.47a18.12,18.12,0,0,0-1.87,4c-1.81,5.75-3.69,11.55-5.6,17.3s-3.86,11.5-6,17.2a22.42,22.42,0,0,0-1,4.31c-.26,1.49-.47,3-.7,4.49Z" style="fill:#263238"></path><path d="M244.33,305.34s-5.5-29.89-3.12-35.15,11.79-39,15-41.12,8.13,2,7.8,13.41-4.82,33.44-4.74,34.85,5.84,24.39,6,26.73S244.33,305.34,244.33,305.34Z" style="fill:#f7a9a0"></path><path d="M237.59,291.27c.3-3.71.75-7.41,1.19-11.11.26-1.85.53-3.69.84-5.54.15-.92.32-1.84.52-2.77a20.27,20.27,0,0,1,.78-2.75q3.53-10.58,7.16-21.14l3.71-10.54,1-2.62a23.76,23.76,0,0,1,1.1-2.66,11.34,11.34,0,0,1,1.64-2.46,5.09,5.09,0,0,1,2.66-1.69,3,3,0,0,1,1.71.19,3.8,3.8,0,0,1,1.31,1,8.73,8.73,0,0,1,1.5,2.55,25.56,25.56,0,0,1,1.38,5.51,32.28,32.28,0,0,1-.35,11.18,34.68,34.68,0,0,0-.41-11,25.55,25.55,0,0,0-1.55-5.24,7.49,7.49,0,0,0-1.38-2.19,2,2,0,0,0-2-.72,3.81,3.81,0,0,0-1.9,1.37,10.86,10.86,0,0,0-1.39,2.21c-.74,1.57-1.26,3.42-1.89,5.16l-3.62,10.55c-2.44,7-4.88,14.07-7.47,21.06a19.94,19.94,0,0,0-.85,2.58c-.23.89-.43,1.79-.63,2.7-.38,1.81-.72,3.64-1.06,5.47Z" style="fill:#263238"></path><path d="M243.36,305.3s1.3-27.07,3.51-32S254.07,245,257,243s7.56,1.89,7.25,12.48-.7,23.16-.63,24.47,1.44,21.91,1.57,24.09S243.36,305.3,243.36,305.3Z" style="fill:#f7a9a0"></path><path d="M241.48,298c.53-4.76,1.14-9.52,1.73-14.28.29-2.38.61-4.75.94-7.13l.26-1.78a15.28,15.28,0,0,1,.38-1.81c.31-1.17.66-2.32,1-3.47,1.46-4.58,3-9.13,4.74-13.61.85-2.25,1.73-4.49,2.66-6.71.46-1.11.94-2.22,1.45-3.32a22.19,22.19,0,0,1,1.77-3.3,3,3,0,0,1,1.95-1.27,3.08,3.08,0,0,1,2.22.64,8.88,8.88,0,0,1,2.48,3,15.5,15.5,0,0,1,1.87,7.26c0,4.83-.11,9.61-.21,14.4s-.23,9.65-.41,14.34c0,2.37.13,4.78.22,7.17s.12,4.8.1,7.2c-.71-4.76-1.26-9.5-1.68-14.32l.28-14.41c.06-4.79.14-9.6.1-14.36a14.38,14.38,0,0,0-1.65-6.54,7.53,7.53,0,0,0-2-2.52,1.31,1.31,0,0,0-2.09.29,21.47,21.47,0,0,0-1.63,3c-.51,1.07-1,2.16-1.46,3.26-.94,2.19-1.83,4.41-2.7,6.64-1.71,4.46-3.45,8.92-5,13.45-.39,1.13-.76,2.26-1.09,3.4a29,29,0,0,0-.71,3.46l-1.18,7.09Z" style="fill:#263238"></path><path d="M144,373.68c2.78,3.46,21,16.65,71.51,16.47L200.72,303.8c-11.23,5.15-27,13.42-29.9,15.46C146.37,336.4,136.86,364.85,144,373.68Z" style="fill:#F448FF"></path><path d="M144,373.68c2.78,3.46,21,16.65,71.51,16.47L200.72,303.8c-11.23,5.15-27,13.42-29.9,15.46C146.37,336.4,136.86,364.85,144,373.68Z" style="fill:#fff;opacity:0.6000000000000001"></path><path d="M200.72,303.8c-10.92,5.73-22.27,11-32.29,18.22A102.74,102.74,0,0,0,150,342.52a82.67,82.67,0,0,0-4.88,7.91c4.4-11.77,12.42-22,22.13-29.95,10.27-7.19,21.9-12,33.47-16.68Z" style="fill:#263238"></path><path d="M212.73,374c1.52,5.62,2.71,11.31,3.83,17l-1,0c-11.87.35-24,0-35.45-3.4,11.76,1.3,23.59,1.52,35.41,1.65l-.85,1c-.78-5.42-1.49-10.86-1.9-16.33Z" style="fill:#263238"></path><path d="M188.14,342.67c1.39,8.31,2.72,16.63,4.45,24.91,1,4.7,1.94,9.41,3,14.11,0,.18.36.16.34,0-1.05-8.37-2.12-16.76-3.58-25.11s-2.83-16.62-4.4-24.92q-1.33-7.06-3.13-14.07c0-.1-.19-.09-.18,0C185.35,326,186.73,334.31,188.14,342.67Z" style="fill:#263238"></path><path d="M385.26,373.71c-8.33,5.28-36.82,19.93-89.25-10.09-8-4.56,12.59-68.05,18.05-64.86,10.66,6.26,35.94,16.27,39,18C378.93,331.74,394.85,367.65,385.26,373.71Z" style="fill:#f7a9a0"></path><path d="M271,345.62c4.79,10.26,29.79,20.64,29.79,20.64l21.17-63.38s-9.41-4.41-16.67-16.45c-1.57-2.6-4.11-6.32-7.8-20.35-4.18-15.91-10.6-32.07-12.27-33.14-3.22-2.06-8.13,2-7.85,13.38s4.68,33.46,4.59,34.86a8.67,8.67,0,0,1-.35,1.35h0c-.34.52-14.92,7.49-16.24,14.68S262.86,335,271,345.62Z" style="fill:#f7a9a0"></path><path d="M290.81,301.47S296,274.25,293.69,269s-11.63-39.06-14.8-41.19-8.14,2-7.85,13.38,4.68,33.46,4.59,34.87-8.53,24.31-8.67,26.65S290.81,301.47,290.81,301.47Z" style="fill:#f7a9a0"></path><path d="M295.93,286.56c-.1-3-.32-6.07-.53-9.1-.13-1.51-.28-3-.45-4.54-.09-.76-.18-1.52-.3-2.28,0-.38-.13-.77-.2-1.15a11.67,11.67,0,0,0-.34-1.16c-1.82-5.76-3.68-11.55-5.56-17.31s-3.8-11.5-5.89-17.25a19.3,19.3,0,0,0-2.18-4.14,8.8,8.8,0,0,0-1.64-1.76,4,4,0,0,0-2.32-.93,3.12,3.12,0,0,0-2.27,1,6.89,6.89,0,0,0-1.33,1.95,17.13,17.13,0,0,0-1.29,4.39,20.13,20.13,0,0,1,1.67-4.19,6.7,6.7,0,0,1,1.36-1.7,2.49,2.49,0,0,1,1.83-.66c1.3.12,2.37,1.3,3.15,2.48a18.63,18.63,0,0,1,1.86,4c1.78,5.75,3.63,11.57,5.52,17.32S290.83,263,293,268.75a22.24,22.24,0,0,1,1,4.31c.25,1.49.45,3,.67,4.49Z" style="fill:#263238"></path><path d="M285.76,305.18S291.38,275.31,289,270,277.39,231,274.22,228.86s-8.13,2-7.85,13.38,4.68,33.46,4.6,34.86-6,24.37-6.09,26.71S285.76,305.18,285.76,305.18Z" style="fill:#f7a9a0"></path><path d="M292.56,291.13c-.28-3.71-.72-7.41-1.15-11.11-.25-1.85-.51-3.7-.81-5.54-.15-.93-.32-1.85-.51-2.77a20.39,20.39,0,0,0-.77-2.76q-3.48-10.59-7.07-21.17l-3.67-10.55-.95-2.63a21.92,21.92,0,0,0-1.09-2.66,11.61,11.61,0,0,0-1.63-2.47,5,5,0,0,0-2.65-1.7,2.94,2.94,0,0,0-1.71.18,3.81,3.81,0,0,0-1.31,1,8.39,8.39,0,0,0-1.51,2.56,24.9,24.9,0,0,0-1.41,5.49,32.59,32.59,0,0,0,.3,11.19,34.67,34.67,0,0,1,.46-11.05,26.24,26.24,0,0,1,1.57-5.24,7.62,7.62,0,0,1,1.4-2.18,2,2,0,0,1,2-.71,4,4,0,0,1,1.89,1.37,10.73,10.73,0,0,1,1.38,2.22c.74,1.58,1.25,3.43,1.87,5.17l3.57,10.57c2.42,7,4.82,14.08,7.39,21.08A18.16,18.16,0,0,1,289,272c.22.89.42,1.79.61,2.7.38,1.81.71,3.64,1,5.47Z" style="fill:#263238"></path><path d="M286.73,305.13s-1.19-27.07-3.37-32-7.09-28.37-10-30.36-7.57,1.87-7.31,12.46.61,23.16.53,24.47-1.53,21.9-1.66,24.08S286.73,305.13,286.73,305.13Z" style="fill:#f7a9a0"></path><path d="M288.64,297.82c-.51-4.77-1.1-9.52-1.67-14.29-.28-2.38-.59-4.75-.91-7.13l-.26-1.79a13.68,13.68,0,0,0-.37-1.8c-.3-1.18-.65-2.33-1-3.48-1.44-4.59-3-9.14-4.68-13.63-.85-2.25-1.72-4.49-2.64-6.72-.46-1.11-.93-2.22-1.43-3.32a21.71,21.71,0,0,0-1.76-3.31,3,3,0,0,0-1.94-1.28,3.1,3.1,0,0,0-2.23.63,8.9,8.9,0,0,0-2.49,3,15.49,15.49,0,0,0-1.9,7.25c0,4.83.07,9.61.15,14.41s.19,9.64.35,14.33c0,2.37-.15,4.78-.25,7.17s-.14,4.8-.13,7.2c.73-4.75,1.3-9.5,1.74-14.31L267,266.36c0-4.79-.1-9.6,0-14.36a14.3,14.3,0,0,1,1.67-6.53,7.48,7.48,0,0,1,2-2.52,1.3,1.3,0,0,1,2.08.3,21.06,21.06,0,0,1,1.63,3c.5,1.07,1,2.16,1.44,3.26.93,2.2,1.81,4.42,2.67,6.65,1.7,4.47,3.42,8.94,4.94,13.47.38,1.13.75,2.27,1.08,3.41a29,29,0,0,1,.69,3.46l1.15,7.1Z" style="fill:#263238"></path><path d="M385.82,373.93c-2.79,3.44-21.08,16.56-71.57,16.18l15.12-86.3c11.22,5.2,26.95,13.54,29.84,15.58C383.59,336.64,393,365.13,385.82,373.93Z" style="fill:#F448FF"></path><path d="M385.82,373.93c-2.79,3.44-21.08,16.56-71.57,16.18l15.12-86.3c11.22,5.2,26.95,13.54,29.84,15.58C383.59,336.64,393,365.13,385.82,373.93Z" style="fill:#fff;opacity:0.6000000000000001"></path><path d="M329.37,303.81c11.55,4.69,23.17,9.59,33.41,16.83,9.68,8,17.65,18.25,22,30a81.86,81.86,0,0,0-4.84-7.93,103,103,0,0,0-18.34-20.58c-10-7.26-21.32-12.57-32.23-18.35Z" style="fill:#263238"></path><path d="M317.08,373.93c-.43,5.48-1.16,10.91-2,16.33l-.84-1c11.82-.08,23.65-.25,35.41-1.51-11.46,3.34-23.59,3.67-35.46,3.26l-1-.05c1.13-5.7,2.35-11.38,3.89-17Z" style="fill:#263238"></path><path d="M341.8,342.74c-1.43,8.3-2.79,16.61-4.55,24.89-1,4.7-2,9.4-3,14.09,0,.18-.37.16-.34,0,1.08-8.37,2.19-16.76,3.68-25.1s2.9-16.61,4.5-24.9c.91-4.71,2-9.39,3.19-14.07,0-.09.19-.08.18,0C344.65,326,343.24,334.38,341.8,342.74Z" style="fill:#263238"></path></g><g id="freepik--Sparkles--inject-9"><polygon points="370.65 228.79 375.6 227.88 376.71 222.65 377.82 227.88 382.77 228.79 377.84 230 376.71 234.94 375.58 230 370.65 228.79" style="fill:#F448FF"></polygon><polygon points="115.18 340.27 120.14 339.35 121.25 334.13 122.35 339.35 127.31 340.27 122.37 341.48 121.25 346.41 120.12 341.48 115.18 340.27" style="fill:#F448FF"></polygon><polygon points="238.73 121.9 243.69 120.98 244.79 115.76 245.9 120.98 250.86 121.9 245.92 123.11 244.79 128.04 243.67 123.11 238.73 121.9" style="fill:#F448FF"></polygon><polygon points="62.28 255.97 67.24 255.05 68.35 249.83 69.46 255.05 74.41 255.97 69.48 257.18 68.35 262.11 67.22 257.18 62.28 255.97" style="fill:#F448FF"></polygon><polygon points="89.61 165.89 94.57 164.97 95.68 159.75 96.79 164.97 101.74 165.89 96.81 167.1 95.68 172.03 94.55 167.1 89.61 165.89" style="fill:#F448FF"></polygon><polygon points="148.9 158.06 151.67 157.54 152.29 154.62 152.91 157.54 155.68 158.06 152.92 158.73 152.29 161.49 151.66 158.73 148.9 158.06" style="fill:#F448FF"></polygon><polygon points="198.52 193.14 201.29 192.62 201.91 189.7 202.53 192.62 205.3 193.14 202.54 193.81 201.91 196.57 201.28 193.81 198.52 193.14" style="fill:#F448FF"></polygon><polygon points="122.82 221.12 125.59 220.61 126.21 217.69 126.83 220.61 129.6 221.12 126.84 221.8 126.21 224.56 125.58 221.8 122.82 221.12" style="fill:#F448FF"></polygon><polygon points="146.91 197.47 149.68 196.96 150.3 194.04 150.92 196.96 153.69 197.48 150.93 198.15 150.3 200.91 149.67 198.15 146.91 197.47" style="fill:#F448FF"></polygon><polygon points="310.09 239.13 312.86 238.62 313.48 235.69 314.1 238.62 316.87 239.13 314.11 239.8 313.48 242.56 312.85 239.8 310.09 239.13" style="fill:#F448FF"></polygon><polygon points="186.8 255.25 189.57 254.74 190.19 251.82 190.81 254.74 193.58 255.25 190.82 255.93 190.19 258.68 189.56 255.93 186.8 255.25" style="fill:#F448FF"></polygon><polygon points="325.63 210.78 328.39 210.27 329.01 207.35 329.63 210.27 332.4 210.78 329.64 211.46 329.01 214.21 328.38 211.46 325.63 210.78" style="fill:#F448FF"></polygon><polygon points="152.29 269.62 155.06 269.11 155.68 266.19 156.3 269.11 159.07 269.62 156.31 270.29 155.68 273.05 155.05 270.29 152.29 269.62" style="fill:#F448FF"></polygon><polygon points="109.56 281.04 112.33 280.52 112.94 277.6 113.56 280.52 116.33 281.04 113.58 281.71 112.94 284.47 112.31 281.71 109.56 281.04" style="fill:#F448FF"></polygon><polygon points="344.48 248.88 347.25 248.37 347.87 245.45 348.49 248.37 351.25 248.88 348.5 249.56 347.87 252.31 347.24 249.56 344.48 248.88" style="fill:#F448FF"></polygon><path d="M172.6,154.23a.8.8,0,0,0,0-1.6A.8.8,0,0,0,172.6,154.23Z" style="fill:#F448FF"></path><path d="M182.84,248.65a.81.81,0,0,0,0-1.61A.81.81,0,0,0,182.84,248.65Z" style="fill:#F448FF"></path><path d="M107.34,148.58a.81.81,0,0,0,0-1.61A.81.81,0,0,0,107.34,148.58Z" style="fill:#F448FF"></path><path d="M310.09,220a.8.8,0,0,0,0-1.6A.8.8,0,0,0,310.09,220Z" style="fill:#F448FF"></path><path d="M293.55,312.72a.81.81,0,0,0,0-1.61A.81.81,0,0,0,293.55,312.72Z" style="fill:#F448FF"></path><path d="M241.66,143.43a.57.57,0,0,0,0-1.14A.57.57,0,0,0,241.66,143.43Z" style="fill:#F448FF"></path><path d="M109.56,134.19a.57.57,0,0,0,0-1.14A.57.57,0,0,0,109.56,134.19Z" style="fill:#F448FF"></path><path d="M137.45,194a.57.57,0,0,0,0-1.13A.57.57,0,0,0,137.45,194Z" style="fill:#F448FF"></path><path d="M104.19,178.81a1.54,1.54,0,0,0,0-3.08A1.54,1.54,0,0,0,104.19,178.81Z" style="fill:#F448FF"></path><path d="M225.45,228.79a1.54,1.54,0,0,0,0-3.08A1.54,1.54,0,0,0,225.45,228.79Z" style="fill:#F448FF"></path><path d="M331.89,278.11a1.54,1.54,0,0,0,0-3.08A1.54,1.54,0,0,0,331.89,278.11Z" style="fill:#F448FF"></path></g><g id="freepik--Dove--inject-9"><path d="M120.68,87.32l-10.92,12s-24.61-1.91-26.91-4.26a9.71,9.71,0,0,1-1.22-1.78c7.11-.34,16.9-3,17.24-3a58.43,58.43,0,0,1-18.49.54,49,49,0,0,1-2.47-7,43.12,43.12,0,0,0,23.19-1.58c-11.73,1.49-20-1.06-24.22-2.93a55.31,55.31,0,0,1-1-10.1c7.3,5.1,16.46,6.23,16.46,6.23-7.67-2.87-13.1-8.37-16.13-12.15a50.18,50.18,0,0,1,2.61-11.42,52.58,52.58,0,0,1,2.54-6C85.65,56,91.24,59.2,91.44,59.3c-4.71-5.67-6.7-13.31-7.51-17.95A61.27,61.27,0,0,1,92,31c0,16,7.18,29.6,7.18,29.6a72,72,0,0,1-3.34-33.24c5.61-4.87,10.16-7,10-6.18C100.82,46.51,116.38,82.3,120.68,87.32Z" style="fill:#ebebeb"></path><path d="M125.19,95.93l-.09.29c-.08.26-.15.5-.21.73s-.08.28-.12.42,0,0,0,.06h0c-1.49,5.52-4,17.69-15.57,21.48-1.07.35-2.21.67-3.4,1h0l-.49.11h0c-7.88,1.83-17.61,2.34-23.28,2.47h-.73c-2.46,0-4,0-4,0s-3.67,4.78-7.1,8.77h0c-.35.27-.29.31-.26.35-.44.51-.88,1-1.31,1.48h0a2.09,2.09,0,0,0-.2.22c-.22.24-.44.47-.64.7h0l-.14.15c-1.41,1.49-2.54,2.48-3,2.4s-1.92-.39-4-.87l.54-.71.16-.21h0l.56-.73.37-.49.9-1.18,0,0,1.9-2.5h0l.11-.14.22-.29.44-.58.25-.33-1,.95-1.2,1.18-.14.14-1.86,1.81-.13.14-.78.75-.45.45h0l-1.42,1.39,0,0h0l-.28-.07h0l-3.18-.75h0l-.33-.07h0l-.12,0h0l-.57-.14-.18,0h0l-1.24-.31.81-.77.07-.06h0l.06,0,.11-.12.29-.27h0l.09-.08.82-.79L57,130.21h0l.12-.11.42-.4,1.05-1,0,0h0l.64-.6.07-.07,1.08-1h0l.12-.12.13-.12.18-.18h0l.67-.64,0,0,4.62-4.4-1.37,1h0l-.32.23-4.39,3.15-.07,0-4.14,3-.31.23-.27.19-1.25.89-.12.09-.42.3-.3.22-.53.37-1,.72-.06,0h0L50,133.11l0,0-.09,0h0c-.91-.24-1.79-.47-2.62-.71h0l-.23-.07h0c-1-.27-1.86-.54-2.64-.79h0c-2-.65-3.27-1.19-3.19-1.52,0-.17.17-.66.37-1.37l.06-.19c.19-.69.44-1.57.73-2.57l.29-.1.08,0,1-.36,0,0,.27-.1.06,0,.59-.23h0l.13-.05.08,0,.11,0,.52-.19.43-.17h0l.52-.19.43-.17h0l.78-.29.06,0,.08,0,0,0,.18-.07.64-.23,0,0,.43-.16h0l0,0h0l.05,0h0l13.26-5L47.86,122l-.12,0-.35.09-.13,0-.16,0H47l-.34.08h0l-.93.24-.68.17h0l-.16,0-.46.12h0l-.09,0h0l-.06,0-.86.22-.4.09q.09-.28.18-.6c.11-.38.22-.78.34-1.18,0,0,0,0,0,0h0a.13.13,0,0,1,0-.08h0l.27-.94h0c0-.11.07-.23.1-.33l.15-.51h0l.06-.2h0l.09-.29a.64.64,0,0,1,0-.07h0c.08-.29.17-.57.25-.85,0-.09,0-.18.08-.26s0,0,0-.07a.61.61,0,0,0,0-.11,0,0,0,0,0,0,0l.08-.26v0H45l13.77-1.72-13.31-.43c.25-.81.49-1.57.71-2.27l7.37.46-7-1.56a18.37,18.37,0,0,1,1-2.67c.67-.84,20.7.42,20.7.42s16.28-16,36.51-27.16c2.77-1.53,5.79-11,10.62-15.74S132,65,131.94,70.86C131.84,76.41,127,90,125.19,95.93Z" style="fill:#fff"></path><path d="M125.19,95.93c-2.2,8.69-5,18.07-13.81,22.15-5.65,2.36-11.61,3.11-17.78,3.77a152.67,152.67,0,0,1-16.27.71l-7.1,8.78-.16,0c0,.07.08.06.09.06h0l0,0a1.7,1.7,0,0,0-.24.22c0,.05,0,0,0,0l0,.09,0,0-1.32,1.49h0c.07-.06-.85.91-.83.9l-.08,0s.1,0,.1-.07l0,.05a21.36,21.36,0,0,1-2.23,2.13,1.66,1.66,0,0,1-1,.45l-4-.86-.16,0c1.25-1.63,3.27-4.3,4.55-6l1-1.34.18.16-7,6.85,0,0H59l-.28-.07-1.6-.37c-1.09-.26-1.71-.4-2.65-.64l-1.4-.34-.25-.06.19-.18,5.54-5.29,7.57-7.23.21.25-1.38,1,.07-.11c0,.07-.14.18-.19.15.57-.25-13.18,9.46-13,9.42L50,133.28l-.07.06-.18-.06h0c-1.48-.38-4-1.11-5.51-1.56A10.29,10.29,0,0,1,41,130.27c-.15-.18,0-.44,0-.63l1.07-3.81,0-.1.1,0,20.19-7.59.14.44-15.38,3.92h-.06l-.12,0s0,0,.11,0a.25.25,0,0,0,.18-.19l-.28.2s.1,0,.1,0l-.34.09h-.1c.45-.07-1.6.41-1.51.41H45c.37,0-.52.14-.51.15h0l-.08,0h0l-1.32.33-.41.1c.13-.39.6-2,.7-2.35l0,.07h0v0c.4-1.35.74-2.47,1.09-3.65v0l.08-.25v0l0-.17.15,0,14-1.72,0,.43-13.31-.45h-.25l.07-.24.71-2.28,0-.14h.15l7.37.47-.05.36-7-1.57-.19,0,.06-.18c.16-.45.56-1.68.73-2.1.12-.23.14-.56.42-.72,2.94-.55,5.94-.13,8.92-.13,3.75.19,8.36.31,11.68.65a190.18,190.18,0,0,1,33.11-25.16c1.94-1.22,4.3-2,5.4-4.12,2.79-4.37,4.7-9.37,8.32-13.18s10.34-3.28,14.52-.5c3.56,2.29,2.51,6,1.75,9.48-1.58,6.76-3.94,13.31-6,19.93Zm0,0c2-6.63,4.38-13.18,5.94-19.94,1.37-5.63,1.37-8.76-4.85-10.91-8.86-2.51-12.3,2-16.15,9.16-1.13,2-2.15,4.1-3.4,6.05a6.62,6.62,0,0,1-2.44,2.46,191,191,0,0,0-36.12,27q-5.9-.36-11.78-.58c-2.88,0-5.91-.35-8.74.1,0,0-.09.12-.14.22l-.13.33c-.16.42-.57,1.64-.72,2.08l-.12-.22,7,1.55-.05.36-7.37-.45.19-.13-.7,2.27-.18-.25,13.31.41,0,.42-13.9,1.75h-.06l.2-.19c-.11.32-.36,1.22-.48,1.62-.18.56-.59,2-.74,2.5l-.52,1.78L43,123l1.32-.33h0s0,0,0,0l.15,0h-.05l.62-.15a.14.14,0,0,1,.11,0H45l1.61-.42a.17.17,0,0,1,.1,0h-.1L47,122a.09.09,0,0,1,.1,0l-.28.2A.26.26,0,0,1,47,122h0a.17.17,0,0,1,.1,0H47l15.4-3.89.14.45-20.22,7.54.13-.14-1.08,3.8-.08.3a11.45,11.45,0,0,0,3.06,1.3l2.64.8.21.06h0l2.59.71h0l.09,0-.16,0,1.75-1.24,0,0s0,0,0,0l13.19-9.42.12,0c-.06,0-.2.07-.19.13l.07-.11,1.38-1,.21.26L61,126.65h0l-.42.4-7.35,7-.06-.24,2,.49,3.66.87.27.07-.11,0c.81-.81,5.82-5.68,7-6.83l.18.15-1,1.34c-.85,1.11-2.95,3.9-3.74,4.88v.05l-.7.92-.07-.18,4,.88c1.22-.35,2.12-1.66,3-2.52-.06.12,0-.06.09,0l-.09,0,.85-.92,1.31-1.49v.13a.14.14,0,0,1-.06-.11c0-.14.26-.36.38-.4h0a.09.09,0,0,1,.1.07l-.16,0,7.11-8.76,0,0h0l4.53,0c9.94-.39,20.31-.75,29.55-4.39,8.81-4,11.62-13.42,13.84-22.08Z" style="fill:#263238"></path><path d="M123.31,76.14c-2.1-.54-2.9,3.23-1,3.73S125.07,76.59,123.31,76.14Z" style="fill:#263238"></path><path d="M127.16,78.34s1.92-1.36,3.6-.67,1.41,3.41,1.41,3.41a16.12,16.12,0,0,0-4.16-.7C126.33,80.43,127.16,78.34,127.16,78.34Z" style="fill:#dbdbdb"></path><path d="M127.16,81.89a4.75,4.75,0,0,0,2.35,1.68,8.67,8.67,0,0,0,3.22-.16Z" style="fill:#F448FF"></path><path d="M128,80.21a14.84,14.84,0,0,1,3.37.57,5.8,5.8,0,0,1,3.47,3.4c-.15.13-7.72-2-7.72-2Z" style="fill:#F448FF"></path><path d="M126.26,78.47a2.23,2.23,0,1,1-1.36,2.42A2.26,2.26,0,0,1,126.26,78.47Z" style="fill:#dbdbdb"></path><path d="M124.19,96.92c-.54.63-1.16,2.71-2.3,1.48a6.18,6.18,0,0,1-1-2.26l0-.08v0a.08.08,0,0,0-.12-.05.14.14,0,0,0-.11.06c-.78.94-1.84,3.11-3.34,2.39-1.32-.63-1.18-2.92-1.16-4.22l0,0c.09-.12,0-.33-.19-.26a8.66,8.66,0,0,1-2.69,1.24c-2.27.3-1.33-1.89-1-3.07,0-.17-.15-.27-.24-.12-.63,1.07-1.62,2.89,0,3.65,1.08.51,2.76-.19,3.69-1-.35,1.54-.31,4.06,1.31,4.63s3-1.23,3.63-2.57c.1,1,.46,2.32,1.47,2.6,1.23.33,2.07-1.24,2.22-2.22A.13.13,0,0,0,124.19,96.92Z" style="fill:#dbdbdb"></path><path d="M121.35,106c-.46.66-.84,2-1.79,2s-1.19-1.19-1.43-2c0-.06,0-.12,0-.18,0-.21-.27-.38-.41-.18-.65,1-1.44,3.08-3,2.73s-1.12-3.3-1-4.37a.2.2,0,0,0-.06-.15.24.24,0,0,0-.33-.14c-1.09.59-4.66,3.29-5.2.72-.3-1.45,1.2-3.13,1.78-4.37h0c.13-.11.06-.36-.12-.33-1.09.18-2.18.69-3.31.46-2.13-.44-.54-2.76.18-3.72a.12.12,0,0,0-.18-.16c-.93.94-2.55,2.7-1.24,4,.83.83,2.44.76,3.65.3-1.06,1.41-2.07,3.69-.94,5,1.31,1.47,3.93,0,5.25-1.19-.39,1.49-.41,4,1.13,4.55s2.92-.89,3.52-2.27c.19.91.68,1.86,1.6,1.9,1.08,0,2-1.45,2.15-2.38C121.69,106,121.46,105.85,121.35,106Z" style="fill:#dbdbdb"></path><path d="M95.09,99.68s-24.53,5.61-27.48,4a15.22,15.22,0,0,1-3.15-2.81c6.11-2.26,11.77-5,11.77-5a46.11,46.11,0,0,1-14.36,1.85,54.75,54.75,0,0,1-4.29-6.57c7.23.31,15-.24,15-.24a45.35,45.35,0,0,1-17.71-5.32,54.8,54.8,0,0,1-3.38-11.13A67.4,67.4,0,0,0,68,81.46,42.18,42.18,0,0,1,50.78,69.28h0a50.2,50.2,0,0,1-.15-6.41,54.18,54.18,0,0,1,.94-8.12C59.22,67,73.08,73.48,73.08,73.48A77.58,77.58,0,0,1,52.71,49.9a62.69,62.69,0,0,1,4.37-11.2,45.08,45.08,0,0,0,14.1,19.47c-7.61-12.82-10.48-20.82-11-25,3.81-6,7.32-9.16,7.41-8.33C70.39,51,96.37,81.12,102.08,84.71" style="fill:#fff"></path><path d="M95.09,99.68c-7.84,1.72-15.71,3.51-23.71,4.29-1.32,0-2.76.31-4-.32a18.35,18.35,0,0,1-3-2.71l-.09-.09.12,0c4-1.5,7.9-3.18,11.74-5l.09.22A46.51,46.51,0,0,1,61.8,97.91a56.42,56.42,0,0,1-4.47-6.86h.26a149.51,149.51,0,0,0,15-.25v.31a45.9,45.9,0,0,1-17.83-5.36,55.42,55.42,0,0,1-3.42-11.21l-.07-.41.35.22a65.7,65.7,0,0,0,16.48,6.9l-.12.38A42.53,42.53,0,0,1,50.56,69.36a54,54,0,0,1,.78-14.66l.11-.56.31.48C57,62.68,64.71,68.91,73.18,73.26l-.25.41A78.86,78.86,0,0,1,52.52,50a55.69,55.69,0,0,1,4.59-11.8l.16.43a44.68,44.68,0,0,0,9.56,15.31A37.93,37.93,0,0,0,71.28,58l-.26.25c-2.32-3.94-4.54-7.95-6.5-12.09s-3.91-8.48-4.44-13.06c.63-1.17,6.94-10,7.69-8.23.23,1.44.54,3.6.8,5,.19.72.74,2.94.93,3.71a91.83,91.83,0,0,0,7.83,18.81A136.5,136.5,0,0,0,98.25,81.33a29.23,29.23,0,0,0,3.83,3.38,27.93,27.93,0,0,1-3.84-3.36,136,136,0,0,1-21.1-28.81,90,90,0,0,1-7.9-18.84c-.19-.68-.76-3-.95-3.73-.26-1.44-.58-3.61-.81-5.06,0-.08,0,0,0,0a2.7,2.7,0,0,0-.75.47,38.29,38.29,0,0,0-6.35,7.92c1.6,8.46,6.54,17.09,11,24.79l.46.8-.72-.55A45,45,0,0,1,56.89,38.77l.37,0a77,77,0,0,0-4.36,11,70.35,70.35,0,0,0,9,12.75A90.37,90.37,0,0,0,75,74.7,60,60,0,0,1,55.74,60.64a44.62,44.62,0,0,1-4.37-5.77l.42-.08A52.64,52.64,0,0,0,51,69.29C55.14,74,61.57,79,68.09,81.27l-.12.38a65.86,65.86,0,0,1-16.57-7l.27-.19a62.22,62.22,0,0,0,3.28,11,45.53,45.53,0,0,0,17.64,5.32v.31c-5,.3-10,.42-15,.23l.13-.22c1.13,2.19,3.06,4.81,4.17,6.51a46.53,46.53,0,0,0,14.32-1.83l.09.22c-3.87,1.8-7.79,3.45-11.79,4.93l0-.13a18.23,18.23,0,0,0,2.94,2.69c1.17.61,2.63.35,3.91.32,8-.74,15.87-2.49,23.72-4.16Z" style="fill:#263238"></path><path d="M104.52,90.9C97.75,87.85,78.88,70.41,72.88,60a.22.22,0,0,0-.39.22c9.85,17.54,28.21,30.07,31.78,31.26C104.61,91.6,104.85,91.05,104.52,90.9Z" style="fill:#dbdbdb"></path><path d="M104.92,84.7a3.76,3.76,0,0,0-2.32.11l0,0a12.15,12.15,0,0,1-1.72-1.25c-.09-.07-.21,0-.13.12a9.56,9.56,0,0,0,3.66,2.57.19.19,0,0,0,.15-.35L103,85.1a11.83,11.83,0,0,1,1.89-.06C105.07,85.05,105.11,84.76,104.92,84.7Z" style="fill:#dbdbdb"></path><path d="M95.23,101c-.46-.1-.94-.18-1.43-.24.42-.13.84-.27,1.25-.43A.17.17,0,0,0,95,100c-2.31.45-4.58,1.1-6.9,1.53s-4.67.56-7,1c-.14,0-.1.24,0,.24a30.54,30.54,0,0,0,6.73-.71,49,49,0,0,0,4.89-1,7.64,7.64,0,0,0,2.4.33C95.39,101.38,95.46,101,95.23,101Z" style="fill:#dbdbdb"></path><path d="M100.36,116.43a3.1,3.1,0,0,0-1.9-1.94,4.21,4.21,0,0,0-2.92.28.34.34,0,0,0-.22.36.23.23,0,0,0,.17.31,1.55,1.55,0,0,1,1.24,2c-.21.82-1,1.24-1.48,1.84a.23.23,0,0,0,.2.38c1.25-.11,2.86-1.52,2.77-2.85,0,0,0-.08,0-.12a2.08,2.08,0,0,1,.24.34c.63,1.19-.35,2.44-1,3.34-.12.16,0,.46.23.42C99.27,120.49,100.86,118,100.36,116.43Z" style="fill:#F448FF"></path><path d="M107.84,119.13a3.12,3.12,0,0,0-1.91-1.94,4.21,4.21,0,0,0-2.92.28.34.34,0,0,0-.22.36.23.23,0,0,0,.17.3,1.55,1.55,0,0,1,1.24,2c-.21.83-1,1.25-1.48,1.85a.23.23,0,0,0,.2.38c1.26-.11,2.86-1.52,2.77-2.86a.36.36,0,0,0,0-.11,1.55,1.55,0,0,1,.24.33c.63,1.19-.34,2.45-1,3.34-.13.17,0,.47.22.43C106.74,123.18,108.34,120.72,107.84,119.13Z" style="fill:#F448FF"></path></g></svg>
