<svg xmlns="http://www.w3.org/2000/svg" viewBox="0 0 500 500"><g id="freepik--background-complete--inject-10"><path d="M203.36,383.35c-29.52-3.17-58.18-16.49-79.31-37.82a124.79,124.79,0,0,1-25.16-37,148.41,148.41,0,0,1-7.61-21.14,163.24,163.24,0,0,1-4.54-22,146.65,146.65,0,0,1-1.19-22.46A138.68,138.68,0,0,1,88,220.55a134.76,134.76,0,0,1,15.71-41.92,160,160,0,0,1,27.63-35.12,166.17,166.17,0,0,1,17.15-14.32,100.17,100.17,0,0,1,19.19-11.32,78.12,78.12,0,0,0-9.66,5.51c-3.1,2-6.12,4.18-9,6.45a164.55,164.55,0,0,0-16.59,14.73,158.72,158.72,0,0,0-26.65,35.2,148.71,148.71,0,0,0-9.18,20.06,132.88,132.88,0,0,0-5.86,21.24A136.57,136.57,0,0,0,88.42,243a145.85,145.85,0,0,0,1.3,22,155,155,0,0,0,11.66,42.42A129.67,129.67,0,0,0,112,326.71c2,3.08,4.23,6,6.51,8.9s4.69,5.66,7.24,8.31a127.55,127.55,0,0,0,35.5,26,141,141,0,0,0,20.52,8.42c3.52,1.13,7.09,2.13,10.7,3A98.87,98.87,0,0,0,203.36,383.35Z" style="fill:#ebebeb"></path><path d="M195,381.91l0-.08c-.37-1.45-.75-2.91-1.1-4.37l-2.14-8.76L189.53,360l-1.14-4.36c-.41-1.45-.78-2.91-1.21-4.36.43,3,1,5.95,1.59,8.9s1.27,5.89,2,8.82,1.49,5.83,2.38,8.72c.45,1.48.91,2.95,1.42,4.42a.25.25,0,0,1-.12,0c-1.11-.66-16.62-15.91-8.53-37.52.35-.94,10.34,10.19,12.19,20.31C199.71,373.68,196.56,380.7,195,381.91Z" style="fill:#ebebeb"></path><path d="M195.16,382.79l-.07,0c-1.45.42-2.89.83-4.33,1.28l-8.62,2.62-8.66,2.56-4.33,1.24c-1.46.39-2.9.81-4.37,1.18,2.79-1.15,5.63-2.17,8.47-3.16s5.71-1.92,8.59-2.8,5.78-1.69,8.72-2.4c1.5-.36,3-.72,4.52-1a.24.24,0,0,0-.09-.08c-1.13-.62-22.15-6.19-36.63,11.78-.63.79,14,3.71,23.69.14C190.48,391,194.91,384.75,195.16,382.79Z" style="fill:#ebebeb"></path><path d="M167.78,373.44l0-.07c-.38-1.46-.75-2.91-1.1-4.37l-2.14-8.76-2.21-8.75-1.14-4.37c-.41-1.45-.78-2.9-1.21-4.35.43,3,1,6,1.59,8.9s1.27,5.89,2,8.81,1.49,5.84,2.37,8.72c.46,1.48.92,3,1.42,4.42a.2.2,0,0,1-.11,0c-1.11-.66-16.62-15.91-8.53-37.52.35-.95,10.34,10.18,12.19,20.31C172.49,365.22,169.34,372.23,167.78,373.44Z" style="fill:#ebebeb"></path><path d="M167.94,374.32l-.08,0c-1.44.42-2.88.84-4.32,1.29l-8.63,2.61-8.65,2.57-4.34,1.24c-1.45.39-2.9.81-4.36,1.18,2.79-1.15,5.63-2.18,8.47-3.17s5.71-1.91,8.59-2.79,5.78-1.69,8.71-2.4c1.51-.36,3-.72,4.53-1a.18.18,0,0,0-.09-.08c-1.13-.62-22.16-6.19-36.63,11.78-.63.78,14,3.71,23.69.14C163.26,382.57,167.69,376.29,167.94,374.32Z" style="fill:#ebebeb"></path><path d="M141.24,358.69v-.08c0-1.5,0-3,.11-4.51l.27-9,.21-9,.06-4.51c0-1.51,0-3,0-4.52-.38,3-.63,6-.84,9s-.35,6-.45,9-.12,6,0,9c0,1.55.09,3.1.19,4.64a.2.2,0,0,1-.11-.06c-.89-.94-11.77-19.77,1.79-38.44.59-.82,7.25,12.57,6.33,22.83C148,352,143.07,357.94,141.24,358.69Z" style="fill:#ebebeb"></path><path d="M141.16,359.58h-.07c-1.51,0-3,0-4.51.08l-9,.22-9,.17-4.51,0c-1.51,0-3,0-4.52,0,3-.37,6-.6,9-.79s6-.32,9-.4,6-.09,9,0c1.54.05,3.09.11,4.64.21a.36.36,0,0,0-.07-.1c-.93-.9-19.7-11.88-38.45,1.58-.81.59,12.54,7.32,22.8,6.45C134.45,366.27,140.4,361.4,141.16,359.58Z" style="fill:#ebebeb"></path><path d="M120.65,339.72l0-.07c.38-1.46.75-2.91,1.15-4.36l2.37-8.7,2.3-8.72,1.12-4.38c.34-1.46.72-2.92,1-4.39-1.07,2.82-2,5.68-2.92,8.55s-1.74,5.77-2.54,8.67-1.52,5.83-2.14,8.78c-.31,1.52-.63,3-.89,4.56a.2.2,0,0,1-.09-.09c-.65-1.11-6.84-22,10.7-37,.76-.66,4.12,13.92.83,23.68C128.75,334.8,122.61,339.42,120.65,339.72Z" style="fill:#ebebeb"></path><path d="M120.36,340.57l-.07,0c-1.47-.33-2.93-.67-4.4-1l-8.82-1.89-8.81-1.94-4.4-1c-1.46-.37-2.93-.7-4.39-1.09,3,.35,6,.82,8.94,1.33s5.93,1.1,8.88,1.72,5.87,1.32,8.78,2.12c1.49.41,3,.82,4.46,1.29a.17.17,0,0,0,0-.12c-.69-1.09-16.39-16.14-37.75-7.42-.94.38,10.48,10,20.66,11.59C112.28,345.51,119.2,342.17,120.36,340.57Z" style="fill:#ebebeb"></path><path d="M105.09,319l0-.06c.44-1.32.88-2.64,1.34-4l2.73-7.88,2.68-7.9,1.31-4c.41-1.33.85-2.65,1.24-4-1.16,2.54-2.21,5.12-3.23,7.71s-2,5.21-2.89,7.84-1.77,5.28-2.53,8c-.39,1.38-.77,2.75-1.11,4.15a.32.32,0,0,1-.08-.09c-.53-1.07-4.92-20.7,12.21-33.43.75-.55,2.92,13.1-.73,21.9C112.88,315,106.91,318.88,105.09,319Z" style="fill:#ebebeb"></path><path d="M104.77,319.79l-.07,0c-1.33-.39-2.66-.8-4-1.17l-8-2.29-8-2.36-4-1.21c-1.33-.43-2.66-.82-4-1.27,2.74.5,5.46,1.13,8.16,1.79s5.4,1.38,8.08,2.14,5.34,1.59,8,2.51c1.35.47,2.7.95,4,1.47a.45.45,0,0,0,0-.11c-.57-1-14.11-15.93-34.37-9.23-.89.29,9,9.92,18.33,12C97,323.85,103.6,321.2,104.77,319.79Z" style="fill:#ebebeb"></path><path d="M93.28,287.6l0-.05c.79-1.14,1.59-2.28,2.4-3.41l4.86-6.78,4.81-6.81,2.38-3.43c.77-1.16,1.57-2.3,2.33-3.48-1.84,2.1-3.58,4.28-5.29,6.48s-3.37,4.44-5,6.7-3.2,4.56-4.69,6.92c-.76,1.21-1.52,2.42-2.24,3.66a.27.27,0,0,1,0-.11c-.2-1.17,1.16-21.24,21.2-28.58.87-.32-.92,13.39-6.92,20.79C101.89,286,95.07,288,93.28,287.6Z" style="fill:#ebebeb"></path><path d="M92.76,288.25l-.06,0c-1.17-.77-2.33-1.53-3.51-2.26l-7-4.48-7-4.53-3.48-2.3c-1.15-.79-2.32-1.54-3.46-2.35,2.49,1.26,4.92,2.64,7.32,4s4.78,2.87,7.14,4.35,4.67,3,6.93,4.68c1.16.83,2.32,1.67,3.45,2.55a.21.21,0,0,0,0-.11c-.25-1.17-9-19.28-30.33-18.62-.93,0,5.85,12.09,14.17,16.72C84.15,289.93,91.23,289.26,92.76,288.25Z" style="fill:#ebebeb"></path><path d="M87.19,257.4l0,0c1-.93,2.06-1.87,3.11-2.78l6.26-5.51,6.22-5.56,3.09-2.8c1-1,2-1.89,3-2.86-2.26,1.63-4.45,3.36-6.61,5.12s-4.28,3.56-6.38,5.4-4.14,3.72-6.12,5.68c-1,1-2,2-3,3.06a.2.2,0,0,1,0-.11c.07-1.19,5.91-20.44,27.09-23.08.93-.11-3.91,12.84-11.42,18.7C96,257.73,88.85,258.16,87.19,257.4Z" style="fill:#ebebeb"></path><path d="M86.53,257.9l0,0c-1-1-1.93-2-2.91-3l-5.84-6-5.81-6-2.88-3c-.94-1-1.91-2-2.84-3.07,2.14,1.79,4.2,3.68,6.23,5.58s4,3.86,6,5.84,3.86,4,5.7,6.12c.94,1.07,1.88,2.15,2.79,3.26a.38.38,0,0,0,0-.1c0-1.2-4.43-20.82-25.37-25-.91-.18,3,13.09,10,19.47C77.77,257.6,84.82,258.54,86.53,257.9Z" style="fill:#ebebeb"></path><path d="M87.9,227.91l.06,0c1.2-.71,2.39-1.43,3.6-2.12l7.21-4.19,7.18-4.24,3.58-2.15c1.18-.74,2.37-1.45,3.54-2.21-2.53,1.16-5,2.43-7.47,3.73s-4.9,2.67-7.31,4.06-4.79,2.85-7.12,4.39c-1.19.79-2.38,1.58-3.55,2.41a.41.41,0,0,1,0-.11c.3-1.16,9.78-18.9,31.06-17.37.93.06-6.33,11.83-14.83,16.12C96.43,229.93,89.39,229,87.9,227.91Z" style="fill:#ebebeb"></path><path d="M87.17,228.28l0-.06c-.75-1.18-1.5-2.35-2.27-3.5l-4.58-7-4.53-7-2.24-3.52c-.72-1.19-1.47-2.36-2.18-3.57,1.75,2.18,3.4,4.43,5,6.69s3.19,4.57,4.72,6.89,3,4.69,4.41,7.11c.71,1.24,1.42,2.48,2.09,3.74a.14.14,0,0,0,.05-.1c.25-1.16-.29-21.27-20-29.42-.86-.35.38,13.42,6.07,21.06C78.63,226.28,85.36,228.57,87.17,228.28Z" style="fill:#ebebeb"></path><path d="M95,201.16l.06,0c1.32-.26,2.62-.53,3.94-.76l7.89-1.48,7.89-1.54,3.93-.8c1.31-.3,2.63-.56,3.94-.87-2.68.24-5.34.6-8,1s-5.3.84-7.94,1.33-5.26,1-7.87,1.68c-1.33.34-2.67.67-4,1.05a.17.17,0,0,1,0-.1c.64-.95,15-14,33.78-5.76.82.36-9.56,8.7-18.65,9.85C102.11,205.74,96,202.61,95,201.16Z" style="fill:#ebebeb"></path><path d="M94.24,201.25l0-.06c-.3-1.31-.6-2.61-.93-3.91l-1.91-7.79-1.86-7.82-.89-3.92c-.28-1.31-.58-2.62-.84-3.94.89,2.54,1.66,5.11,2.41,7.68s1.42,5.18,2.06,7.78,1.23,5.22,1.71,7.87c.25,1.35.5,2.71.7,4.07a.27.27,0,0,0,.08-.07c.6-1,6.58-19.4-8.7-33.15-.67-.6-4,12.3-1.27,21.06C87.13,196.69,92.5,200.94,94.24,201.25Z" style="fill:#ebebeb"></path><path d="M105.57,179.33h.07c1.33-.11,2.66-.22,4-.3l8-.56,8-.62,4-.34c1.34-.15,2.67-.25,4-.41-2.69-.07-5.37,0-8,.06s-5.36.22-8,.4-5.34.43-8,.77c-1.36.18-2.73.36-4.09.58a.41.41,0,0,1,0-.09c.75-.88,16.46-12.19,34.21-1.84.78.45-10.49,7.54-19.66,7.64C112.08,184.7,106.4,180.89,105.57,179.33Z" style="fill:#ebebeb"></path><path d="M104.78,179.34v-.07c-.15-1.33-.3-2.66-.48-4l-1-8-1-8-.44-4c-.12-1.34-.27-2.67-.37-4,.59,2.62,1.06,5.26,1.5,7.9s.81,5.31,1.16,8,.61,5.33.79,8c.09,1.37.18,2.74.22,4.12a.18.18,0,0,0,.09-.06c.71-.9,8.77-18.51-4.83-33.92-.59-.68-5.36,11.75-3.68,20.77C98.25,174,103.09,178.83,104.78,179.34Z" style="fill:#ebebeb"></path><path d="M136.56,140.3h.05c1.1.14,2.18.28,3.27.45l6.54.93,6.54.9,3.28.42c1.1.11,2.19.26,3.29.36-2.15-.52-4.31-1-6.48-1.35s-4.35-.75-6.53-1.06-4.37-.59-6.57-.77c-1.13-.1-2.26-.19-3.39-.25a.18.18,0,0,1,.05-.07c.76-.57,15.35-6.94,27.82,4.46.55.5-9.74,4.24-17.13,2.73C140.86,145.75,137,141.7,136.56,140.3Z" style="fill:#ebebeb"></path><path d="M135.92,140.17v-.06c.11-1.09.23-2.18.31-3.28l.58-6.58.63-6.57.34-3.29c.13-1.1.24-2.19.39-3.29,0,2.21-.06,4.42-.16,6.62s-.27,4.4-.46,6.6-.43,4.39-.75,6.57c-.16,1.12-.33,2.24-.53,3.36l.08,0c.73-.6,10.26-13.36,2-28.1-.36-.64-6.35,8.52-6.56,16C131.6,134.74,134.65,139.47,135.92,140.17Z" style="fill:#ebebeb"></path><path d="M154.11,126.75h0c1.09.14,2.18.28,3.27.45l6.54.94,6.54.89,3.28.42c1.1.12,2.19.26,3.29.36-2.15-.52-4.31-.94-6.48-1.35s-4.35-.74-6.53-1.06-4.37-.59-6.57-.77c-1.13-.1-2.26-.19-3.39-.25l0-.07c.75-.57,15.35-6.94,27.82,4.46.54.5-9.74,4.24-17.13,2.73C158.41,132.2,154.5,128.15,154.11,126.75Z" style="fill:#ebebeb"></path><path d="M153.47,126.62v-.05c.11-1.1.22-2.19.31-3.29l.58-6.58.62-6.57.34-3.29c.14-1.1.25-2.19.4-3.29,0,2.21-.06,4.42-.17,6.62s-.26,4.4-.45,6.6-.43,4.39-.75,6.57c-.16,1.12-.33,2.24-.54,3.36a.15.15,0,0,0,.08,0c.73-.6,10.26-13.36,2-28.1-.36-.64-6.35,8.52-6.57,16C149.14,121.19,152.2,125.92,153.47,126.62Z" style="fill:#ebebeb"></path><path d="M119.75,158.34h0c1.1-.12,2.19-.24,3.29-.34l6.56-.66,6.57-.69,3.29-.38c1.09-.15,2.18-.26,3.28-.43-2.21,0-4.42.11-6.62.24s-4.4.31-6.59.52-4.39.48-6.57.83c-1.12.17-2.23.35-3.35.57a.2.2,0,0,1,0-.08c.59-.74,13.25-10.41,28.08-2.32.65.36-8.45,6.45-16,6.75C125.23,162.6,120.46,159.6,119.75,158.34Z" style="fill:#ebebeb"></path><path d="M119.09,158.36v-.05c-.16-1.09-.31-2.18-.49-3.27l-1-6.52-1-6.54-.46-3.27c-.13-1.1-.28-2.19-.4-3.29.55,2.14,1,4.31,1.42,6.47s.8,4.34,1.14,6.52.63,4.36.84,6.56c.11,1.13.21,2.25.28,3.39l.07-.06c.56-.76,6.77-15.42-4.76-27.77-.51-.54-4.14,9.79-2.55,17.16C113.6,154.12,117.7,158,119.09,158.36Z" style="fill:#ebebeb"></path><path d="M296.64,383.35c29.52-3.17,58.18-16.49,79.31-37.82a124.79,124.79,0,0,0,25.16-37,148.41,148.41,0,0,0,7.61-21.14,163.24,163.24,0,0,0,4.54-22,146.65,146.65,0,0,0,1.19-22.46A138.68,138.68,0,0,0,412,220.55a134.76,134.76,0,0,0-15.71-41.92,160,160,0,0,0-27.63-35.12,166.17,166.17,0,0,0-17.15-14.32,100.17,100.17,0,0,0-19.19-11.32,78.12,78.12,0,0,1,9.66,5.51c3.1,2,6.12,4.18,9.05,6.45a164.55,164.55,0,0,1,16.59,14.73,158.72,158.72,0,0,1,26.65,35.2,148.71,148.71,0,0,1,9.18,20.06,132.88,132.88,0,0,1,5.86,21.24A136.57,136.57,0,0,1,411.58,243a145.85,145.85,0,0,1-1.3,22,155,155,0,0,1-11.66,42.42,129.67,129.67,0,0,1-10.57,19.32c-2,3.08-4.23,6-6.51,8.9s-4.69,5.66-7.24,8.31a127.55,127.55,0,0,1-35.5,26,141,141,0,0,1-20.52,8.42c-3.52,1.13-7.09,2.13-10.7,3A98.87,98.87,0,0,1,296.64,383.35Z" style="fill:#ebebeb"></path><path d="M305,381.91l0-.08c.37-1.45.75-2.91,1.1-4.37l2.14-8.76,2.21-8.75,1.14-4.36c.41-1.45.78-2.91,1.21-4.36-.43,3-1,5.95-1.59,8.9s-1.27,5.89-2,8.82-1.49,5.83-2.38,8.72c-.45,1.48-.91,2.95-1.42,4.42a.25.25,0,0,0,.12,0c1.11-.66,16.62-15.91,8.53-37.52-.35-.94-10.34,10.19-12.19,20.31C300.29,373.68,303.44,380.7,305,381.91Z" style="fill:#ebebeb"></path><path d="M304.84,382.79l.07,0c1.45.42,2.89.83,4.33,1.28l8.62,2.62,8.65,2.56,4.34,1.24c1.46.39,2.9.81,4.37,1.18-2.79-1.15-5.63-2.17-8.47-3.16s-5.71-1.92-8.59-2.8-5.78-1.69-8.72-2.4c-1.5-.36-3-.72-4.52-1a.24.24,0,0,1,.09-.08c1.13-.62,22.15-6.19,36.63,11.78.63.79-14,3.71-23.69.14C309.52,391,305.09,384.75,304.84,382.79Z" style="fill:#ebebeb"></path><path d="M332.22,373.44l0-.07c.38-1.46.75-2.91,1.1-4.37l2.14-8.76,2.21-8.75,1.14-4.37c.41-1.45.78-2.9,1.21-4.35-.43,3-1,6-1.59,8.9s-1.27,5.89-2,8.81-1.49,5.84-2.37,8.72c-.46,1.48-.92,3-1.42,4.42a.2.2,0,0,0,.11,0c1.11-.66,16.62-15.91,8.53-37.52-.35-.95-10.34,10.18-12.19,20.31C327.51,365.22,330.66,372.23,332.22,373.44Z" style="fill:#ebebeb"></path><path d="M332.06,374.32l.08,0c1.44.42,2.88.84,4.32,1.29l8.63,2.61,8.65,2.57,4.34,1.24c1.45.39,2.9.81,4.36,1.18-2.79-1.15-5.62-2.18-8.47-3.17s-5.71-1.91-8.59-2.79-5.78-1.69-8.71-2.4c-1.51-.36-3-.72-4.53-1a.18.18,0,0,1,.09-.08c1.13-.62,22.16-6.19,36.63,11.78.63.78-14,3.71-23.69.14C336.74,382.57,332.31,376.29,332.06,374.32Z" style="fill:#ebebeb"></path><path d="M358.76,358.69v-.08c0-1.5-.05-3-.11-4.51l-.27-9-.21-9-.06-4.51c0-1.51,0-3,0-4.52.38,3,.63,6,.84,9s.35,6,.45,9,.12,6,0,9c0,1.55-.09,3.1-.19,4.64a.2.2,0,0,0,.11-.06c.89-.94,11.77-19.77-1.79-38.44-.59-.82-7.25,12.57-6.33,22.83C352,352,356.93,357.94,358.76,358.69Z" style="fill:#ebebeb"></path><path d="M358.84,359.58h.07c1.51,0,3,0,4.51.08l9,.22,9,.17,4.51,0c1.51,0,3,0,4.52,0-3-.37-6-.6-9-.79s-6-.32-9-.4-6-.09-9,0c-1.54.05-3.09.11-4.64.21a.36.36,0,0,1,.07-.1c.93-.9,19.7-11.88,38.45,1.58.81.59-12.54,7.32-22.8,6.45C365.55,366.27,359.6,361.4,358.84,359.58Z" style="fill:#ebebeb"></path><path d="M379.35,339.72l0-.07c-.38-1.46-.75-2.91-1.15-4.36l-2.37-8.7-2.3-8.72-1.12-4.38c-.34-1.46-.72-2.92-1.05-4.39,1.07,2.82,2,5.68,2.92,8.55s1.74,5.77,2.54,8.67,1.52,5.83,2.14,8.78c.31,1.52.63,3,.89,4.56a.2.2,0,0,0,.09-.09c.65-1.11,6.84-22-10.7-37-.76-.66-4.12,13.92-.83,23.68C371.25,334.8,377.39,339.42,379.35,339.72Z" style="fill:#ebebeb"></path><path d="M379.64,340.57l.07,0c1.47-.33,2.93-.67,4.4-1l8.82-1.89,8.81-1.94,4.4-1c1.46-.37,2.93-.7,4.39-1.09-3,.35-6,.82-8.94,1.33s-5.93,1.1-8.88,1.72-5.87,1.32-8.78,2.12c-1.49.41-3,.82-4.46,1.29a.17.17,0,0,1,0-.12c.69-1.09,16.39-16.14,37.75-7.42.94.38-10.48,10-20.66,11.59C387.72,345.51,380.8,342.17,379.64,340.57Z" style="fill:#ebebeb"></path><path d="M394.91,319l0-.06c-.44-1.32-.88-2.64-1.34-4l-2.73-7.88-2.68-7.9-1.31-4c-.41-1.33-.85-2.65-1.24-4,1.16,2.54,2.21,5.12,3.23,7.71s2,5.21,2.89,7.84,1.77,5.28,2.53,8c.39,1.38.77,2.75,1.11,4.15a.32.32,0,0,0,.08-.09c.53-1.07,4.92-20.7-12.21-33.43-.75-.55-2.92,13.1.73,21.9C387.12,315,393.09,318.88,394.91,319Z" style="fill:#ebebeb"></path><path d="M395.23,319.79l.07,0c1.33-.39,2.66-.8,4-1.17l8-2.29,8-2.36,4-1.21c1.33-.43,2.66-.82,4-1.27-2.74.5-5.46,1.13-8.16,1.79s-5.4,1.38-8.08,2.14-5.34,1.59-8,2.51c-1.35.47-2.7.95-4,1.47a.45.45,0,0,1,0-.11c.57-1,14.11-15.93,34.37-9.23.89.29-9,9.92-18.33,12C403,323.85,396.4,321.2,395.23,319.79Z" style="fill:#ebebeb"></path><path d="M406.72,287.6l0-.05c-.79-1.14-1.59-2.28-2.4-3.41l-4.86-6.78-4.81-6.81-2.38-3.43c-.77-1.16-1.57-2.3-2.33-3.48,1.84,2.1,3.58,4.28,5.29,6.48s3.37,4.44,5,6.7,3.2,4.56,4.69,6.92c.76,1.21,1.52,2.42,2.24,3.66a.27.27,0,0,0,.05-.11c.2-1.17-1.16-21.24-21.2-28.58-.87-.32.92,13.39,6.92,20.79C398.11,286,404.93,288,406.72,287.6Z" style="fill:#ebebeb"></path><path d="M407.24,288.25l.06,0c1.17-.77,2.33-1.53,3.51-2.26l7-4.48,7-4.53,3.48-2.3c1.15-.79,2.32-1.54,3.46-2.35-2.49,1.26-4.92,2.64-7.32,4s-4.78,2.87-7.14,4.35-4.67,3-6.93,4.68c-1.16.83-2.32,1.67-3.45,2.55a.21.21,0,0,1,0-.11c.25-1.17,9-19.28,30.33-18.62.93,0-5.85,12.09-14.17,16.72C415.85,289.93,408.77,289.26,407.24,288.25Z" style="fill:#ebebeb"></path><path d="M412.81,257.4l-.05,0c-1-.93-2.06-1.87-3.11-2.78l-6.26-5.51-6.22-5.56-3.09-2.8c-1-1-2.05-1.89-3.05-2.86,2.26,1.63,4.45,3.36,6.61,5.12s4.28,3.56,6.38,5.4,4.14,3.72,6.12,5.68c1,1,2,2,3,3.06a.2.2,0,0,0,0-.11c-.07-1.19-5.91-20.44-27.09-23.08-.93-.11,3.91,12.84,11.42,18.7C404.05,257.73,411.15,258.16,412.81,257.4Z" style="fill:#ebebeb"></path><path d="M413.47,257.9l0,0c1-1,1.93-2,2.91-3l5.84-6,5.81-6,2.88-3c.94-1,1.91-2,2.84-3.07-2.14,1.79-4.2,3.68-6.23,5.58s-4,3.86-6,5.84-3.86,4-5.7,6.12c-.94,1.07-1.88,2.15-2.79,3.26a.38.38,0,0,1,0-.1c0-1.2,4.43-20.82,25.37-25,.91-.18-3,13.09-10.05,19.47C422.23,257.6,415.18,258.54,413.47,257.9Z" style="fill:#ebebeb"></path><path d="M412.1,227.91l-.06,0c-1.2-.71-2.39-1.43-3.6-2.12l-7.2-4.19-7.19-4.24-3.58-2.15c-1.18-.74-2.37-1.45-3.54-2.21,2.53,1.16,5,2.43,7.47,3.73s4.9,2.67,7.31,4.06,4.79,2.85,7.12,4.39c1.19.79,2.38,1.58,3.55,2.41a.41.41,0,0,0,0-.11c-.3-1.16-9.78-18.9-31.06-17.37-.93.06,6.33,11.83,14.83,16.12C403.57,229.93,410.61,229,412.1,227.91Z" style="fill:#ebebeb"></path><path d="M412.83,228.28l0-.06c.75-1.18,1.5-2.35,2.27-3.5l4.58-7,4.53-7,2.24-3.52c.72-1.19,1.47-2.36,2.18-3.57-1.75,2.18-3.4,4.43-5,6.69s-3.19,4.57-4.72,6.89-3,4.69-4.41,7.11c-.71,1.24-1.42,2.48-2.09,3.74a.14.14,0,0,1-.05-.1c-.25-1.16.29-21.27,20-29.42.86-.35-.38,13.42-6.07,21.06C421.37,226.28,414.64,228.57,412.83,228.28Z" style="fill:#ebebeb"></path><path d="M405,201.16l-.06,0c-1.32-.26-2.62-.53-3.94-.76l-7.89-1.48-7.89-1.54-3.94-.8c-1.3-.3-2.62-.56-3.93-.87,2.68.24,5.34.6,8,1s5.3.84,7.94,1.33,5.26,1,7.87,1.68c1.33.34,2.67.67,4,1.05a.17.17,0,0,0,0-.1c-.64-.95-14.95-14-33.78-5.76-.82.36,9.56,8.7,18.65,9.85C397.89,205.74,404,202.61,405,201.16Z" style="fill:#ebebeb"></path><path d="M405.76,201.25l0-.06c.3-1.31.6-2.61.93-3.91l1.91-7.79,1.86-7.82.89-3.92c.28-1.31.58-2.62.84-3.94-.89,2.54-1.66,5.11-2.41,7.68s-1.42,5.18-2.06,7.78-1.23,5.22-1.71,7.87c-.25,1.35-.5,2.71-.7,4.07a.27.27,0,0,1-.08-.07c-.6-1-6.58-19.4,8.7-33.15.67-.6,4,12.3,1.27,21.06C412.87,196.69,407.5,200.94,405.76,201.25Z" style="fill:#ebebeb"></path><path d="M394.43,179.33h-.07c-1.33-.11-2.66-.22-4-.3l-8-.56-8-.62-4-.34c-1.34-.15-2.67-.25-4-.41,2.69-.07,5.37,0,8.05.06s5.36.22,8,.4,5.34.43,8,.77c1.36.18,2.73.36,4.09.58a.41.41,0,0,0,0-.09c-.75-.88-16.46-12.19-34.21-1.84-.78.45,10.49,7.54,19.66,7.64C387.92,184.7,393.6,180.89,394.43,179.33Z" style="fill:#ebebeb"></path><path d="M395.22,179.34v-.07c.15-1.33.3-2.66.48-4l1-8,.95-8,.44-4c.12-1.34.27-2.67.37-4-.59,2.62-1.06,5.26-1.5,7.9s-.81,5.31-1.16,8-.61,5.33-.79,8c-.09,1.37-.18,2.74-.22,4.12a.18.18,0,0,1-.09-.06c-.71-.9-8.77-18.51,4.83-33.92.59-.68,5.36,11.75,3.68,20.77C401.75,174,396.91,178.83,395.22,179.34Z" style="fill:#ebebeb"></path><path d="M363.44,140.3h-.05c-1.1.14-2.18.28-3.27.45l-6.54.93-6.54.9-3.28.42c-1.1.11-2.19.26-3.29.36,2.15-.52,4.31-1,6.48-1.35s4.35-.75,6.53-1.06,4.37-.59,6.57-.77c1.13-.1,2.26-.19,3.39-.25a.18.18,0,0,0-.05-.07c-.76-.57-15.35-6.94-27.82,4.46-.55.5,9.74,4.24,17.13,2.73C359.14,145.75,363.05,141.7,363.44,140.3Z" style="fill:#ebebeb"></path><path d="M364.08,140.17v-.06c-.11-1.09-.23-2.18-.31-3.28l-.58-6.58-.63-6.57-.34-3.29c-.13-1.1-.24-2.19-.39-3.29,0,2.21.06,4.42.16,6.62s.27,4.4.46,6.6.43,4.39.75,6.57c.16,1.12.33,2.24.53,3.36l-.08,0c-.73-.6-10.26-13.36-2-28.1.36-.64,6.35,8.52,6.56,16C368.4,134.74,365.35,139.47,364.08,140.17Z" style="fill:#ebebeb"></path><path d="M345.89,126.75h-.05c-1.09.14-2.18.28-3.27.45l-6.54.94-6.54.89-3.28.42c-1.1.12-2.19.26-3.29.36,2.15-.52,4.32-.94,6.48-1.35s4.35-.74,6.53-1.06,4.37-.59,6.57-.77c1.13-.1,2.26-.19,3.39-.25l-.05-.07c-.75-.57-15.35-6.94-27.82,4.46-.54.5,9.74,4.24,17.13,2.73C341.59,132.2,345.5,128.15,345.89,126.75Z" style="fill:#ebebeb"></path><path d="M346.53,126.62v-.05c-.11-1.1-.22-2.19-.31-3.29l-.58-6.58-.62-6.57-.34-3.29c-.14-1.1-.25-2.19-.4-3.29,0,2.21.06,4.42.17,6.62s.26,4.4.45,6.6.43,4.39.75,6.57c.16,1.12.33,2.24.54,3.36a.15.15,0,0,1-.08,0c-.73-.6-10.26-13.36-2-28.1.36-.64,6.35,8.52,6.57,16C350.86,121.19,347.8,125.92,346.53,126.62Z" style="fill:#ebebeb"></path><path d="M380.25,158.34h-.05c-1.1-.12-2.19-.24-3.28-.34l-6.57-.66-6.57-.69-3.29-.38c-1.09-.15-2.18-.26-3.28-.43,2.21,0,4.42.11,6.62.24s4.4.31,6.59.52,4.39.48,6.57.83c1.12.17,2.23.35,3.35.57a.2.2,0,0,0,0-.08c-.59-.74-13.25-10.41-28.08-2.32-.65.36,8.45,6.45,16,6.75C374.77,162.6,379.54,159.6,380.25,158.34Z" style="fill:#ebebeb"></path><path d="M380.91,158.36v-.05c.16-1.09.31-2.18.49-3.27l1-6.52,1-6.54.46-3.27c.13-1.1.28-2.19.4-3.29-.55,2.14-1,4.31-1.42,6.47s-.8,4.34-1.14,6.52-.63,4.36-.84,6.56c-.11,1.13-.21,2.25-.28,3.39l-.07-.06c-.56-.76-6.77-15.42,4.76-27.77.51-.54,4.14,9.79,2.55,17.16C386.4,154.12,382.3,158,380.91,158.36Z" style="fill:#ebebeb"></path></g><g id="freepik--Shadows--inject-10"><ellipse cx="145.65" cy="449.6" rx="106.31" ry="18.85" style="fill:#ebebeb"></ellipse><ellipse cx="354.35" cy="449.6" rx="106.31" ry="18.85" style="fill:#ebebeb"></ellipse></g><g id="freepik--Lines--inject-10"><path d="M250,127.64a.79.79,0,0,1-.8-.79V107.3a.8.8,0,0,1,1.6,0v19.55A.79.79,0,0,1,250,127.64Z" style="fill:#F448FF"></path><path d="M250,35.12a.8.8,0,0,1-.8-.8V23.54a.8.8,0,1,1,1.6,0V34.32A.8.8,0,0,1,250,35.12Z" style="fill:#F448FF"></path><path d="M250,98.53a.8.8,0,0,1-.8-.8V45.08a.8.8,0,0,1,1.6,0V97.73A.8.8,0,0,1,250,98.53Z" style="fill:#F448FF"></path><path d="M236.05,129.48a.8.8,0,0,1-.77-.59L230.22,110a.8.8,0,1,1,1.54-.42l5.06,18.89a.79.79,0,0,1-.57,1A.64.64,0,0,1,236.05,129.48Z" style="fill:#F448FF"></path><path d="M212.1,40.11a.81.81,0,0,1-.77-.59L208.54,29.1a.8.8,0,0,1,1.54-.41l2.79,10.42a.8.8,0,0,1-.56,1A.76.76,0,0,1,212.1,40.11Z" style="fill:#F448FF"></path><path d="M228.51,101.36a.81.81,0,0,1-.77-.59L214.12,49.91a.79.79,0,1,1,1.53-.42l13.63,50.86a.79.79,0,0,1-.56,1A.76.76,0,0,1,228.51,101.36Z" style="fill:#F448FF"></path><path d="M223.05,134.87a.81.81,0,0,1-.69-.4l-9.78-16.93a.8.8,0,0,1,1.38-.8l9.78,16.93a.8.8,0,0,1-.29,1.09A.86.86,0,0,1,223.05,134.87Z" style="fill:#F448FF"></path><path d="M176.79,54.74a.79.79,0,0,1-.69-.4L170.7,45a.81.81,0,0,1,.3-1.09.79.79,0,0,1,1.08.29l5.4,9.34a.8.8,0,0,1-.3,1.09A.79.79,0,0,1,176.79,54.74Z" style="fill:#F448FF"></path><path d="M208.49,109.65a.8.8,0,0,1-.69-.4l-26.33-45.6a.79.79,0,0,1,.3-1.09.78.78,0,0,1,1.08.3l26.33,45.6a.79.79,0,0,1-.29,1.08A.73.73,0,0,1,208.49,109.65Z" style="fill:#F448FF"></path><path d="M211.88,143.43a.82.82,0,0,1-.56-.23L197.5,129.37a.79.79,0,0,1,1.12-1.12l13.83,13.82a.8.8,0,0,1,0,1.13A.83.83,0,0,1,211.88,143.43Z" style="fill:#F448FF"></path><path d="M146.46,78a.77.77,0,0,1-.56-.24l-7.63-7.62A.8.8,0,0,1,139.4,69L147,76.65a.79.79,0,0,1,0,1.12A.77.77,0,0,1,146.46,78Z" style="fill:#F448FF"></path><path d="M191.3,122.84a.78.78,0,0,1-.57-.23L153.5,85.38a.8.8,0,0,1,1.13-1.13l37.23,37.23a.8.8,0,0,1,0,1.13A.78.78,0,0,1,191.3,122.84Z" style="fill:#F448FF"></path><path d="M203.32,154.59a.82.82,0,0,1-.4-.1L186,144.71a.8.8,0,0,1,.8-1.38l16.93,9.78a.8.8,0,0,1,.29,1.09A.81.81,0,0,1,203.32,154.59Z" style="fill:#F448FF"></path><path d="M123.19,108.33a.82.82,0,0,1-.4-.1l-9.34-5.4a.79.79,0,0,1-.29-1.08.8.8,0,0,1,1.09-.3l9.34,5.4a.79.79,0,0,1,.29,1.08A.8.8,0,0,1,123.19,108.33Z" style="fill:#F448FF"></path><path d="M178.1,140a.79.79,0,0,1-.39-.11l-45.6-26.33a.78.78,0,0,1-.3-1.08.79.79,0,0,1,1.09-.3l45.6,26.33a.8.8,0,0,1-.4,1.49Z" style="fill:#F448FF"></path><path d="M197.93,167.6l-.2,0-18.89-5.06a.81.81,0,0,1-.56-1,.79.79,0,0,1,1-.56L198.14,166a.8.8,0,0,1-.21,1.57Z" style="fill:#F448FF"></path><path d="M108.56,143.65a.64.64,0,0,1-.2,0l-10.42-2.79a.8.8,0,0,1,.41-1.54l10.42,2.79a.8.8,0,0,1-.21,1.57Z" style="fill:#F448FF"></path><path d="M169.81,160.06a.76.76,0,0,1-.21,0L118.74,146.4a.79.79,0,1,1,.42-1.53L170,158.49a.8.8,0,0,1-.21,1.57Z" style="fill:#F448FF"></path><path d="M196.1,181.55H176.55a.8.8,0,0,1,0-1.6H196.1a.8.8,0,0,1,0,1.6Z" style="fill:#F448FF"></path><path d="M103.57,181.55H92.79a.8.8,0,0,1,0-1.6h10.78a.8.8,0,0,1,0,1.6Z" style="fill:#F448FF"></path><path d="M167,181.55H114.33a.8.8,0,1,1,0-1.6H167a.8.8,0,1,1,0,1.6Z" style="fill:#F448FF"></path><path d="M179.05,200.56a.8.8,0,0,1-.21-1.57l18.89-5.06a.8.8,0,0,1,.41,1.54l-18.88,5.06A.76.76,0,0,1,179.05,200.56Z" style="fill:#F448FF"></path><path d="M98.14,222.24a.8.8,0,0,1-.2-1.57l10.42-2.79a.79.79,0,0,1,1,.56.81.81,0,0,1-.56,1l-10.42,2.79Z" style="fill:#F448FF"></path><path d="M119,216.66a.79.79,0,0,1-.21-1.56l50.86-13.63a.79.79,0,0,1,1,.56.81.81,0,0,1-.56,1l-50.86,13.62A.76.76,0,0,1,119,216.66Z" style="fill:#F448FF"></path><path d="M186.39,218.27a.79.79,0,0,1-.4-1.48L202.92,207a.8.8,0,1,1,.8,1.38l-16.93,9.78A.85.85,0,0,1,186.39,218.27Z" style="fill:#F448FF"></path><path d="M113.85,260.15a.8.8,0,0,1-.69-.4.79.79,0,0,1,.29-1.08l9.34-5.4a.8.8,0,0,1,1.09.3.79.79,0,0,1-.29,1.08l-9.34,5.4A.82.82,0,0,1,113.85,260.15Z" style="fill:#F448FF"></path><path d="M132.5,249.38a.8.8,0,0,1-.69-.4.78.78,0,0,1,.3-1.08l45.6-26.33a.79.79,0,0,1,1.08.29.8.8,0,0,1-.29,1.09l-45.6,26.33A.79.79,0,0,1,132.5,249.38Z" style="fill:#F448FF"></path><path d="M198.06,233.49a.77.77,0,0,1-.56-.24.79.79,0,0,1,0-1.12l13.82-13.83a.8.8,0,0,1,1.13,1.13l-13.83,13.82A.77.77,0,0,1,198.06,233.49Z" style="fill:#F448FF"></path><path d="M138.83,292.71a.82.82,0,0,1-.56-.23.8.8,0,0,1,0-1.13l7.63-7.62a.79.79,0,0,1,1.12,1.12l-7.62,7.63A.83.83,0,0,1,138.83,292.71Z" style="fill:#F448FF"></path><path d="M154.06,277.48a.82.82,0,0,1-.56-.23.8.8,0,0,1,0-1.13l37.23-37.23a.8.8,0,1,1,1.13,1.13l-37.23,37.23A.83.83,0,0,1,154.06,277.48Z" style="fill:#F448FF"></path><path d="M213.27,245.16a.81.81,0,0,1-.69-1.2L222.36,227a.8.8,0,0,1,1.38.8L214,244.76A.79.79,0,0,1,213.27,245.16Z" style="fill:#F448FF"></path><path d="M171.39,317.7a.79.79,0,0,1-.39-.11.81.81,0,0,1-.3-1.09l5.4-9.34a.79.79,0,0,1,1.08-.29.8.8,0,0,1,.3,1.09l-5.4,9.34A.79.79,0,0,1,171.39,317.7Z" style="fill:#F448FF"></path><path d="M182.16,299a.78.78,0,0,1-.39-.1.79.79,0,0,1-.3-1.09l26.33-45.6a.8.8,0,0,1,1.09-.29.79.79,0,0,1,.29,1.08l-26.33,45.6A.77.77,0,0,1,182.16,299Z" style="fill:#F448FF"></path><path d="M231,252.5a.76.76,0,0,1-.21,0,.8.8,0,0,1-.56-1l5.06-18.88a.8.8,0,0,1,1.54.41l-5.06,18.89A.81.81,0,0,1,231,252.5Z" style="fill:#F448FF"></path><path d="M209.31,333.4l-.21,0a.8.8,0,0,1-.56-1L211.33,322a.8.8,0,0,1,1.54.41l-2.79,10.42A.8.8,0,0,1,209.31,333.4Z" style="fill:#F448FF"></path><path d="M214.89,312.6l-.21,0a.79.79,0,0,1-.56-1l13.62-50.86a.8.8,0,1,1,1.54.42L215.65,312A.79.79,0,0,1,214.89,312.6Z" style="fill:#F448FF"></path><path d="M250,255a.8.8,0,0,1-.8-.8V234.65a.8.8,0,0,1,1.6,0V254.2A.8.8,0,0,1,250,255Z" style="fill:#F448FF"></path><path d="M250,338.76a.8.8,0,0,1-.8-.8V327.18a.8.8,0,1,1,1.6,0V338A.8.8,0,0,1,250,338.76Z" style="fill:#F448FF"></path><path d="M250,317.22a.8.8,0,0,1-.8-.8V263.77a.8.8,0,1,1,1.6,0v52.65A.8.8,0,0,1,250,317.22Z" style="fill:#F448FF"></path><path d="M269,252.5a.81.81,0,0,1-.77-.59L263.18,233a.8.8,0,0,1,1.54-.41l5.06,18.88a.8.8,0,0,1-.56,1Z" style="fill:#F448FF"></path><path d="M290.69,333.4a.8.8,0,0,1-.77-.59l-2.79-10.42a.8.8,0,0,1,1.54-.41l2.79,10.42a.8.8,0,0,1-.56,1Z" style="fill:#F448FF"></path><path d="M285.11,312.6a.79.79,0,0,1-.76-.59l-13.63-50.86a.8.8,0,0,1,1.54-.42l13.62,50.86a.79.79,0,0,1-.56,1Z" style="fill:#F448FF"></path><path d="M286.73,245.16a.77.77,0,0,1-.69-.4l-9.78-16.93a.8.8,0,0,1,1.38-.8L287.42,244a.81.81,0,0,1-.69,1.2Z" style="fill:#F448FF"></path><path d="M328.61,317.7a.79.79,0,0,1-.69-.4l-5.4-9.34a.8.8,0,0,1,1.38-.8l5.39,9.34a.8.8,0,0,1-.68,1.2Z" style="fill:#F448FF"></path><path d="M317.84,299a.77.77,0,0,1-.69-.4L290.82,253a.79.79,0,0,1,.29-1.08.8.8,0,0,1,1.09.29l26.33,45.6a.79.79,0,0,1-.3,1.09A.78.78,0,0,1,317.84,299Z" style="fill:#F448FF"></path><path d="M301.94,233.49a.77.77,0,0,1-.56-.24l-13.83-13.82a.8.8,0,0,1,1.13-1.13l13.82,13.83a.79.79,0,0,1,0,1.12A.77.77,0,0,1,301.94,233.49Z" style="fill:#F448FF"></path><path d="M361.17,292.71a.83.83,0,0,1-.57-.23L353,284.85a.79.79,0,0,1,1.12-1.12l7.63,7.62a.8.8,0,0,1,0,1.13A.82.82,0,0,1,361.17,292.71Z" style="fill:#F448FF"></path><path d="M345.94,277.48a.83.83,0,0,1-.57-.23L308.14,240a.8.8,0,1,1,1.13-1.13l37.23,37.23a.8.8,0,0,1,0,1.13A.82.82,0,0,1,345.94,277.48Z" style="fill:#F448FF"></path><path d="M313.61,218.27a.85.85,0,0,1-.4-.1l-16.93-9.78a.8.8,0,1,1,.8-1.38L314,216.79a.79.79,0,0,1-.4,1.48Z" style="fill:#F448FF"></path><path d="M386.15,260.15a.82.82,0,0,1-.4-.1l-9.34-5.4a.79.79,0,0,1-.29-1.08.8.8,0,0,1,1.09-.3l9.34,5.4a.79.79,0,0,1,.29,1.08A.8.8,0,0,1,386.15,260.15Z" style="fill:#F448FF"></path><path d="M367.5,249.38a.79.79,0,0,1-.4-.1L321.5,223a.8.8,0,0,1-.29-1.09.79.79,0,0,1,1.08-.29l45.6,26.33a.79.79,0,0,1-.39,1.48Z" style="fill:#F448FF"></path><path d="M321,200.56a.76.76,0,0,1-.21,0l-18.88-5.06a.8.8,0,0,1,.41-1.54L321.16,199a.8.8,0,0,1-.21,1.57Z" style="fill:#F448FF"></path><path d="M401.85,222.24l-.2,0-10.42-2.79a.81.81,0,0,1-.56-1,.8.8,0,0,1,1-.56l10.42,2.79a.8.8,0,0,1-.21,1.57Z" style="fill:#F448FF"></path><path d="M381.05,216.66l-.21,0L330,203a.81.81,0,0,1-.56-1,.79.79,0,0,1,1-.56l50.86,13.63a.79.79,0,0,1-.21,1.56Z" style="fill:#F448FF"></path><path d="M323.45,181.55H303.9a.8.8,0,0,1,0-1.6h19.55a.8.8,0,1,1,0,1.6Z" style="fill:#F448FF"></path><path d="M407.21,181.55H396.43a.8.8,0,1,1,0-1.6h10.78a.8.8,0,1,1,0,1.6Z" style="fill:#F448FF"></path><path d="M385.67,181.55H333a.8.8,0,0,1,0-1.6h52.65a.8.8,0,1,1,0,1.6Z" style="fill:#F448FF"></path><path d="M302.07,167.6a.8.8,0,0,1-.21-1.57L320.74,161a.8.8,0,1,1,.42,1.54l-18.89,5.06Z" style="fill:#F448FF"></path><path d="M391.44,143.65a.8.8,0,0,1-.21-1.57l10.42-2.79a.8.8,0,0,1,.41,1.54l-10.42,2.79A.64.64,0,0,1,391.44,143.65Z" style="fill:#F448FF"></path><path d="M330.19,160.06a.8.8,0,0,1-.21-1.57l50.86-13.62a.79.79,0,0,1,1,.56.8.8,0,0,1-.56,1L330.4,160A.76.76,0,0,1,330.19,160.06Z" style="fill:#F448FF"></path><path d="M296.68,154.59a.81.81,0,0,1-.69-.39.8.8,0,0,1,.29-1.09l16.93-9.78a.8.8,0,0,1,.8,1.38l-16.93,9.78A.82.82,0,0,1,296.68,154.59Z" style="fill:#F448FF"></path><path d="M376.81,108.33a.8.8,0,0,1-.69-.4.79.79,0,0,1,.29-1.08l9.34-5.4a.8.8,0,0,1,1.09.3.79.79,0,0,1-.29,1.08l-9.34,5.4A.82.82,0,0,1,376.81,108.33Z" style="fill:#F448FF"></path><path d="M321.9,140a.8.8,0,0,1-.4-1.49l45.6-26.33a.8.8,0,1,1,.79,1.38l-45.6,26.33A.79.79,0,0,1,321.9,140Z" style="fill:#F448FF"></path><path d="M288.11,143.43a.82.82,0,0,1-.56-.23.8.8,0,0,1,0-1.13l13.83-13.82a.79.79,0,0,1,1.12,1.12L288.68,143.2A.83.83,0,0,1,288.11,143.43Z" style="fill:#F448FF"></path><path d="M353.54,78a.77.77,0,0,1-.56-.24.79.79,0,0,1,0-1.12L360.6,69a.8.8,0,0,1,1.13,1.13l-7.63,7.62A.77.77,0,0,1,353.54,78Z" style="fill:#F448FF"></path><path d="M308.7,122.84a.78.78,0,0,1-.56-.23.8.8,0,0,1,0-1.13l37.23-37.23a.8.8,0,0,1,1.13,1.13l-37.23,37.23A.78.78,0,0,1,308.7,122.84Z" style="fill:#F448FF"></path><path d="M277,134.87a.86.86,0,0,1-.4-.11.8.8,0,0,1-.29-1.09L286,116.74a.8.8,0,0,1,1.38.8l-9.78,16.93A.81.81,0,0,1,277,134.87Z" style="fill:#F448FF"></path><path d="M323.21,54.74a.81.81,0,0,1-.69-1.2l5.4-9.34a.79.79,0,0,1,1.08-.29.8.8,0,0,1,.29,1.09l-5.39,9.34A.79.79,0,0,1,323.21,54.74Z" style="fill:#F448FF"></path><path d="M291.51,109.65a.73.73,0,0,1-.4-.11.79.79,0,0,1-.29-1.08l26.33-45.6a.78.78,0,0,1,1.08-.3.79.79,0,0,1,.3,1.09l-26.33,45.6A.8.8,0,0,1,291.51,109.65Z" style="fill:#F448FF"></path><path d="M264,129.48a.64.64,0,0,1-.2,0,.79.79,0,0,1-.57-1l5.06-18.89a.8.8,0,0,1,1.54.42l-5.06,18.88A.8.8,0,0,1,264,129.48Z" style="fill:#F448FF"></path><path d="M287.9,40.11a.76.76,0,0,1-.21,0,.8.8,0,0,1-.56-1l2.79-10.42a.8.8,0,0,1,1.54.41l-2.79,10.42A.81.81,0,0,1,287.9,40.11Z" style="fill:#F448FF"></path><path d="M271.49,101.36l-.21,0a.79.79,0,0,1-.56-1l13.63-50.86a.79.79,0,1,1,1.53.42l-13.62,50.86A.81.81,0,0,1,271.49,101.36Z" style="fill:#F448FF"></path><g style="opacity:0.5"><path d="M250,127.64a.79.79,0,0,1-.8-.79V107.3a.8.8,0,0,1,1.6,0v19.55A.79.79,0,0,1,250,127.64Z" style="fill:#fff"></path><path d="M250,35.12a.8.8,0,0,1-.8-.8V23.54a.8.8,0,1,1,1.6,0V34.32A.8.8,0,0,1,250,35.12Z" style="fill:#fff"></path><path d="M250,98.53a.8.8,0,0,1-.8-.8V45.08a.8.8,0,0,1,1.6,0V97.73A.8.8,0,0,1,250,98.53Z" style="fill:#fff"></path><path d="M236.05,129.48a.8.8,0,0,1-.77-.59L230.22,110a.8.8,0,1,1,1.54-.42l5.06,18.89a.79.79,0,0,1-.57,1A.64.64,0,0,1,236.05,129.48Z" style="fill:#fff"></path><path d="M212.1,40.11a.81.81,0,0,1-.77-.59L208.54,29.1a.8.8,0,0,1,1.54-.41l2.79,10.42a.8.8,0,0,1-.56,1A.76.76,0,0,1,212.1,40.11Z" style="fill:#fff"></path><path d="M228.51,101.36a.81.81,0,0,1-.77-.59L214.12,49.91a.79.79,0,1,1,1.53-.42l13.63,50.86a.79.79,0,0,1-.56,1A.76.76,0,0,1,228.51,101.36Z" style="fill:#fff"></path><path d="M223.05,134.87a.81.81,0,0,1-.69-.4l-9.78-16.93a.8.8,0,0,1,1.38-.8l9.78,16.93a.8.8,0,0,1-.29,1.09A.86.86,0,0,1,223.05,134.87Z" style="fill:#fff"></path><path d="M176.79,54.74a.79.79,0,0,1-.69-.4L170.7,45a.81.81,0,0,1,.3-1.09.79.79,0,0,1,1.08.29l5.4,9.34a.8.8,0,0,1-.3,1.09A.79.79,0,0,1,176.79,54.74Z" style="fill:#fff"></path><path d="M208.49,109.65a.8.8,0,0,1-.69-.4l-26.33-45.6a.79.79,0,0,1,.3-1.09.78.78,0,0,1,1.08.3l26.33,45.6a.79.79,0,0,1-.29,1.08A.73.73,0,0,1,208.49,109.65Z" style="fill:#fff"></path><path d="M211.88,143.43a.82.82,0,0,1-.56-.23L197.5,129.37a.79.79,0,0,1,1.12-1.12l13.83,13.82a.8.8,0,0,1,0,1.13A.83.83,0,0,1,211.88,143.43Z" style="fill:#fff"></path><path d="M146.46,78a.77.77,0,0,1-.56-.24l-7.63-7.62A.8.8,0,0,1,139.4,69L147,76.65a.79.79,0,0,1,0,1.12A.77.77,0,0,1,146.46,78Z" style="fill:#fff"></path><path d="M191.3,122.84a.78.78,0,0,1-.57-.23L153.5,85.38a.8.8,0,0,1,1.13-1.13l37.23,37.23a.8.8,0,0,1,0,1.13A.78.78,0,0,1,191.3,122.84Z" style="fill:#fff"></path><path d="M203.32,154.59a.82.82,0,0,1-.4-.1L186,144.71a.8.8,0,0,1,.8-1.38l16.93,9.78a.8.8,0,0,1,.29,1.09A.81.81,0,0,1,203.32,154.59Z" style="fill:#fff"></path><path d="M123.19,108.33a.82.82,0,0,1-.4-.1l-9.34-5.4a.79.79,0,0,1-.29-1.08.8.8,0,0,1,1.09-.3l9.34,5.4a.79.79,0,0,1,.29,1.08A.8.8,0,0,1,123.19,108.33Z" style="fill:#fff"></path><path d="M178.1,140a.79.79,0,0,1-.39-.11l-45.6-26.33a.78.78,0,0,1-.3-1.08.79.79,0,0,1,1.09-.3l45.6,26.33a.8.8,0,0,1-.4,1.49Z" style="fill:#fff"></path><path d="M197.93,167.6l-.2,0-18.89-5.06a.81.81,0,0,1-.56-1,.79.79,0,0,1,1-.56L198.14,166a.8.8,0,0,1-.21,1.57Z" style="fill:#fff"></path><path d="M108.56,143.65a.64.64,0,0,1-.2,0l-10.42-2.79a.8.8,0,0,1,.41-1.54l10.42,2.79a.8.8,0,0,1-.21,1.57Z" style="fill:#fff"></path><path d="M169.81,160.06a.76.76,0,0,1-.21,0L118.74,146.4a.79.79,0,1,1,.42-1.53L170,158.49a.8.8,0,0,1-.21,1.57Z" style="fill:#fff"></path><path d="M196.1,181.55H176.55a.8.8,0,0,1,0-1.6H196.1a.8.8,0,0,1,0,1.6Z" style="fill:#fff"></path><path d="M103.57,181.55H92.79a.8.8,0,0,1,0-1.6h10.78a.8.8,0,0,1,0,1.6Z" style="fill:#fff"></path><path d="M167,181.55H114.33a.8.8,0,1,1,0-1.6H167a.8.8,0,1,1,0,1.6Z" style="fill:#fff"></path><path d="M179.05,200.56a.8.8,0,0,1-.21-1.57l18.89-5.06a.8.8,0,0,1,.41,1.54l-18.88,5.06A.76.76,0,0,1,179.05,200.56Z" style="fill:#fff"></path><path d="M98.14,222.24a.8.8,0,0,1-.2-1.57l10.42-2.79a.79.79,0,0,1,1,.56.81.81,0,0,1-.56,1l-10.42,2.79Z" style="fill:#fff"></path><path d="M119,216.66a.79.79,0,0,1-.21-1.56l50.86-13.63a.79.79,0,0,1,1,.56.81.81,0,0,1-.56,1l-50.86,13.62A.76.76,0,0,1,119,216.66Z" style="fill:#fff"></path><path d="M186.39,218.27a.79.79,0,0,1-.4-1.48L202.92,207a.8.8,0,1,1,.8,1.38l-16.93,9.78A.85.85,0,0,1,186.39,218.27Z" style="fill:#fff"></path><path d="M113.85,260.15a.8.8,0,0,1-.69-.4.79.79,0,0,1,.29-1.08l9.34-5.4a.8.8,0,0,1,1.09.3.79.79,0,0,1-.29,1.08l-9.34,5.4A.82.82,0,0,1,113.85,260.15Z" style="fill:#fff"></path><path d="M132.5,249.38a.8.8,0,0,1-.69-.4.78.78,0,0,1,.3-1.08l45.6-26.33a.79.79,0,0,1,1.08.29.8.8,0,0,1-.29,1.09l-45.6,26.33A.79.79,0,0,1,132.5,249.38Z" style="fill:#fff"></path><path d="M198.06,233.49a.77.77,0,0,1-.56-.24.79.79,0,0,1,0-1.12l13.82-13.83a.8.8,0,0,1,1.13,1.13l-13.83,13.82A.77.77,0,0,1,198.06,233.49Z" style="fill:#fff"></path><path d="M138.83,292.71a.82.82,0,0,1-.56-.23.8.8,0,0,1,0-1.13l7.63-7.62a.79.79,0,0,1,1.12,1.12l-7.62,7.63A.83.83,0,0,1,138.83,292.71Z" style="fill:#fff"></path><path d="M154.06,277.48a.82.82,0,0,1-.56-.23.8.8,0,0,1,0-1.13l37.23-37.23a.8.8,0,1,1,1.13,1.13l-37.23,37.23A.83.83,0,0,1,154.06,277.48Z" style="fill:#fff"></path><path d="M213.27,245.16a.81.81,0,0,1-.69-1.2L222.36,227a.8.8,0,0,1,1.38.8L214,244.76A.79.79,0,0,1,213.27,245.16Z" style="fill:#fff"></path><path d="M171.39,317.7a.79.79,0,0,1-.39-.11.81.81,0,0,1-.3-1.09l5.4-9.34a.79.79,0,0,1,1.08-.29.8.8,0,0,1,.3,1.09l-5.4,9.34A.79.79,0,0,1,171.39,317.7Z" style="fill:#fff"></path><path d="M182.16,299a.78.78,0,0,1-.39-.1.79.79,0,0,1-.3-1.09l26.33-45.6a.8.8,0,0,1,1.09-.29.79.79,0,0,1,.29,1.08l-26.33,45.6A.77.77,0,0,1,182.16,299Z" style="fill:#fff"></path><path d="M231,252.5a.76.76,0,0,1-.21,0,.8.8,0,0,1-.56-1l5.06-18.88a.8.8,0,0,1,1.54.41l-5.06,18.89A.81.81,0,0,1,231,252.5Z" style="fill:#fff"></path><path d="M209.31,333.4l-.21,0a.8.8,0,0,1-.56-1L211.33,322a.8.8,0,0,1,1.54.41l-2.79,10.42A.8.8,0,0,1,209.31,333.4Z" style="fill:#fff"></path><path d="M214.89,312.6l-.21,0a.79.79,0,0,1-.56-1l13.62-50.86a.8.8,0,1,1,1.54.42L215.65,312A.79.79,0,0,1,214.89,312.6Z" style="fill:#fff"></path><path d="M250,255a.8.8,0,0,1-.8-.8V234.65a.8.8,0,0,1,1.6,0V254.2A.8.8,0,0,1,250,255Z" style="fill:#fff"></path><path d="M250,338.76a.8.8,0,0,1-.8-.8V327.18a.8.8,0,1,1,1.6,0V338A.8.8,0,0,1,250,338.76Z" style="fill:#fff"></path><path d="M250,317.22a.8.8,0,0,1-.8-.8V263.77a.8.8,0,1,1,1.6,0v52.65A.8.8,0,0,1,250,317.22Z" style="fill:#fff"></path><path d="M269,252.5a.81.81,0,0,1-.77-.59L263.18,233a.8.8,0,0,1,1.54-.41l5.06,18.88a.8.8,0,0,1-.56,1Z" style="fill:#fff"></path><path d="M290.69,333.4a.8.8,0,0,1-.77-.59l-2.79-10.42a.8.8,0,0,1,1.54-.41l2.79,10.42a.8.8,0,0,1-.56,1Z" style="fill:#fff"></path><path d="M285.11,312.6a.79.79,0,0,1-.76-.59l-13.63-50.86a.8.8,0,0,1,1.54-.42l13.62,50.86a.79.79,0,0,1-.56,1Z" style="fill:#fff"></path><path d="M286.73,245.16a.77.77,0,0,1-.69-.4l-9.78-16.93a.8.8,0,0,1,1.38-.8L287.42,244a.81.81,0,0,1-.69,1.2Z" style="fill:#fff"></path><path d="M328.61,317.7a.79.79,0,0,1-.69-.4l-5.4-9.34a.8.8,0,0,1,1.38-.8l5.39,9.34a.8.8,0,0,1-.68,1.2Z" style="fill:#fff"></path><path d="M317.84,299a.77.77,0,0,1-.69-.4L290.82,253a.79.79,0,0,1,.29-1.08.8.8,0,0,1,1.09.29l26.33,45.6a.79.79,0,0,1-.3,1.09A.78.78,0,0,1,317.84,299Z" style="fill:#fff"></path><path d="M301.94,233.49a.77.77,0,0,1-.56-.24l-13.83-13.82a.8.8,0,0,1,1.13-1.13l13.82,13.83a.79.79,0,0,1,0,1.12A.77.77,0,0,1,301.94,233.49Z" style="fill:#fff"></path><path d="M361.17,292.71a.83.83,0,0,1-.57-.23L353,284.85a.79.79,0,0,1,1.12-1.12l7.63,7.62a.8.8,0,0,1,0,1.13A.82.82,0,0,1,361.17,292.71Z" style="fill:#fff"></path><path d="M345.94,277.48a.83.83,0,0,1-.57-.23L308.14,240a.8.8,0,1,1,1.13-1.13l37.23,37.23a.8.8,0,0,1,0,1.13A.82.82,0,0,1,345.94,277.48Z" style="fill:#fff"></path><path d="M313.61,218.27a.85.85,0,0,1-.4-.1l-16.93-9.78a.8.8,0,1,1,.8-1.38L314,216.79a.79.79,0,0,1-.4,1.48Z" style="fill:#fff"></path><path d="M386.15,260.15a.82.82,0,0,1-.4-.1l-9.34-5.4a.79.79,0,0,1-.29-1.08.8.8,0,0,1,1.09-.3l9.34,5.4a.79.79,0,0,1,.29,1.08A.8.8,0,0,1,386.15,260.15Z" style="fill:#fff"></path><path d="M367.5,249.38a.79.79,0,0,1-.4-.1L321.5,223a.8.8,0,0,1-.29-1.09.79.79,0,0,1,1.08-.29l45.6,26.33a.79.79,0,0,1-.39,1.48Z" style="fill:#fff"></path><path d="M321,200.56a.76.76,0,0,1-.21,0l-18.88-5.06a.8.8,0,0,1,.41-1.54L321.16,199a.8.8,0,0,1-.21,1.57Z" style="fill:#fff"></path><path d="M401.85,222.24l-.2,0-10.42-2.79a.81.81,0,0,1-.56-1,.8.8,0,0,1,1-.56l10.42,2.79a.8.8,0,0,1-.21,1.57Z" style="fill:#fff"></path><path d="M381.05,216.66l-.21,0L330,203a.81.81,0,0,1-.56-1,.79.79,0,0,1,1-.56l50.86,13.63a.79.79,0,0,1-.21,1.56Z" style="fill:#fff"></path><path d="M323.45,181.55H303.9a.8.8,0,0,1,0-1.6h19.55a.8.8,0,1,1,0,1.6Z" style="fill:#fff"></path><path d="M407.21,181.55H396.43a.8.8,0,1,1,0-1.6h10.78a.8.8,0,1,1,0,1.6Z" style="fill:#fff"></path><path d="M385.67,181.55H333a.8.8,0,0,1,0-1.6h52.65a.8.8,0,1,1,0,1.6Z" style="fill:#fff"></path><path d="M302.07,167.6a.8.8,0,0,1-.21-1.57L320.74,161a.8.8,0,1,1,.42,1.54l-18.89,5.06Z" style="fill:#fff"></path><path d="M391.44,143.65a.8.8,0,0,1-.21-1.57l10.42-2.79a.8.8,0,0,1,.41,1.54l-10.42,2.79A.64.64,0,0,1,391.44,143.65Z" style="fill:#fff"></path><path d="M330.19,160.06a.8.8,0,0,1-.21-1.57l50.86-13.62a.79.79,0,0,1,1,.56.8.8,0,0,1-.56,1L330.4,160A.76.76,0,0,1,330.19,160.06Z" style="fill:#fff"></path><path d="M296.68,154.59a.81.81,0,0,1-.69-.39.8.8,0,0,1,.29-1.09l16.93-9.78a.8.8,0,0,1,.8,1.38l-16.93,9.78A.82.82,0,0,1,296.68,154.59Z" style="fill:#fff"></path><path d="M376.81,108.33a.8.8,0,0,1-.69-.4.79.79,0,0,1,.29-1.08l9.34-5.4a.8.8,0,0,1,1.09.3.79.79,0,0,1-.29,1.08l-9.34,5.4A.82.82,0,0,1,376.81,108.33Z" style="fill:#fff"></path><path d="M321.9,140a.8.8,0,0,1-.4-1.49l45.6-26.33a.8.8,0,1,1,.79,1.38l-45.6,26.33A.79.79,0,0,1,321.9,140Z" style="fill:#fff"></path><path d="M288.11,143.43a.82.82,0,0,1-.56-.23.8.8,0,0,1,0-1.13l13.83-13.82a.79.79,0,0,1,1.12,1.12L288.68,143.2A.83.83,0,0,1,288.11,143.43Z" style="fill:#fff"></path><path d="M353.54,78a.77.77,0,0,1-.56-.24.79.79,0,0,1,0-1.12L360.6,69a.8.8,0,0,1,1.13,1.13l-7.63,7.62A.77.77,0,0,1,353.54,78Z" style="fill:#fff"></path><path d="M308.7,122.84a.78.78,0,0,1-.56-.23.8.8,0,0,1,0-1.13l37.23-37.23a.8.8,0,0,1,1.13,1.13l-37.23,37.23A.78.78,0,0,1,308.7,122.84Z" style="fill:#fff"></path><path d="M277,134.87a.86.86,0,0,1-.4-.11.8.8,0,0,1-.29-1.09L286,116.74a.8.8,0,0,1,1.38.8l-9.78,16.93A.81.81,0,0,1,277,134.87Z" style="fill:#fff"></path><path d="M323.21,54.74a.81.81,0,0,1-.69-1.2l5.4-9.34a.79.79,0,0,1,1.08-.29.8.8,0,0,1,.29,1.09l-5.39,9.34A.79.79,0,0,1,323.21,54.74Z" style="fill:#fff"></path><path d="M291.51,109.65a.73.73,0,0,1-.4-.11.79.79,0,0,1-.29-1.08l26.33-45.6a.78.78,0,0,1,1.08-.3.79.79,0,0,1,.3,1.09l-26.33,45.6A.8.8,0,0,1,291.51,109.65Z" style="fill:#fff"></path><path d="M264,129.48a.64.64,0,0,1-.2,0,.79.79,0,0,1-.57-1l5.06-18.89a.8.8,0,0,1,1.54.42l-5.06,18.88A.8.8,0,0,1,264,129.48Z" style="fill:#fff"></path><path d="M287.9,40.11a.76.76,0,0,1-.21,0,.8.8,0,0,1-.56-1l2.79-10.42a.8.8,0,0,1,1.54.41l-2.79,10.42A.81.81,0,0,1,287.9,40.11Z" style="fill:#fff"></path><path d="M271.49,101.36l-.21,0a.79.79,0,0,1-.56-1l13.63-50.86a.79.79,0,1,1,1.53.42l-13.62,50.86A.81.81,0,0,1,271.49,101.36Z" style="fill:#fff"></path></g></g><g id="freepik--Floor--inject-10"><path d="M41.37,395.87c133.66-.61,283.6-.61,417.26,0-133.66.62-283.6.62-417.26,0Z" style="fill:#263238"></path></g><g id="freepik--communion-wafer--inject-10"><circle cx="250" cy="115.53" r="61.57" transform="translate(-8.47 210.61) rotate(-45)" style="fill:#F448FF"></circle><circle cx="250" cy="115.53" r="61.57" transform="translate(-8.47 210.61) rotate(-45)" style="fill:#fff;opacity:0.7000000000000001"></circle><circle cx="250" cy="113.28" r="59.32" style="fill:#fff;opacity:0.7000000000000001"></circle><rect x="244.11" y="76.29" width="11.99" height="78.47" style="fill:#F448FF"></rect><rect x="244.11" y="76.29" width="11.99" height="78.47" style="opacity:0.4"></rect><rect x="222.99" y="95.81" width="54.01" height="11.99" style="fill:#F448FF"></rect><rect x="222.99" y="95.81" width="54.01" height="11.99" style="opacity:0.4"></rect></g><g id="freepik--Chalice--inject-10"><rect x="169.14" y="184.91" width="161.72" height="10.83" style="fill:#F448FF"></rect><rect x="238.31" y="287.66" width="23.37" height="7.82" style="fill:#F448FF"></rect><path d="M323.88,195.75v13.63a62.78,62.78,0,0,1-48.38,61.13l-25.49,6-25.51-6a63.06,63.06,0,0,1-13-4.64,63.81,63.81,0,0,1-11.7-7.38,62.82,62.82,0,0,1-23.64-49.11V195.75Z" style="fill:#F448FF"></path><polygon points="176.12 195.75 323.88 195.75 323.88 201.13 176.12 204.59 176.12 195.75" style="opacity:0.1"></polygon><path d="M283.65,268c-1.62.68-19.2,8.31-27.12,19.67H243.47c-7.92-11.36-25.5-19-27.12-19.67A128.29,128.29,0,0,0,250,272.91,128.24,128.24,0,0,0,283.65,268Z" style="fill:#F448FF"></path><path d="M283.65,268c-1.62.68-19.2,8.31-27.12,19.67H243.47c-7.92-11.36-25.5-19-27.12-19.67A128.29,128.29,0,0,0,250,272.91,128.24,128.24,0,0,0,283.65,268Z" style="opacity:0.1"></path><rect x="244.22" y="295.43" width="11.56" height="81.61" style="fill:#F448FF"></rect><rect x="244.22" y="295.43" width="11.56" height="81.61" style="opacity:0.1"></rect><rect x="238.31" y="359.4" width="23.37" height="7.82" style="fill:#F448FF"></rect><path d="M307.18,395.87H192.82s8.94-7.8,13.68-8.61l20.94-3.56a18.62,18.62,0,0,0,4.19-1.23l12.59-5.42h11.55l12.6,5.42a18.38,18.38,0,0,0,4.18,1.23l20.94,3.56C298.23,388.07,307.18,395.87,307.18,395.87Z" style="fill:#F448FF"></path><g style="opacity:0.30000000000000004"><path d="M185.52,195.75v9.1a63.52,63.52,0,0,0,7.77,30.44h0a63.48,63.48,0,0,0,25.64,25.51l3.78,2-4.33-3.72A63.53,63.53,0,0,1,202,237.27l-2.13-4.67a63.55,63.55,0,0,1-5.72-26.36V195.75Z" style="fill:#fff"></path><path d="M219,249.91a63.54,63.54,0,0,1-18.73-45.06v-9.1h3.11v9.1C203.41,233.86,219,249.91,219,249.91Z" style="fill:#fff"></path></g></g><g id="freepik--character-2--inject-10"><path d="M392.72,425.08s-57.88,22.78-103.27,13.75c-21.85-4.34-28.34-29.72-22.65-38.47,5.83-8.94,26.72-20.74,37.95-28.28,3.53-2.36,5.09-7,5.09-7H351s9,10.2,4.43,18.15c-.07.13-7.07,4.83-7.18,5l24.55-9.61Z" style="fill:#ad6359"></path><path d="M455.22,441.71c.17,2.94-8.27,3.63-11.74,1.66a77.63,77.63,0,0,1-8-6.8c-8.3-7.62-19.76-18.75-19.76-18.75L365,434.07l-17.45-45.65s20.59-8.26,40.15-15.64c3-1.14,6-2.23,8.86-3.29l.54-.2c13.12-4.78,24-8.37,25.09-7.57C425.17,363.85,455.05,438.74,455.22,441.71Z" style="fill:#ad6359"></path><path d="M382.29,374.84l19.28,47.5,14.17-4.52s4.08,4,9.14,8.78l.29.27c3.34,3.18,7.08,6.71,10.33,9.7a80.22,80.22,0,0,0,8,6.8c3.48,2,11.91,1.29,11.74-1.66s-30-77.86-33-80c-.85-.63-7.72,1.45-17,4.67-2.55.88-5.28,1.87-8.12,2.89l-.54.21c-2.89,1.05-5.85,2.15-8.85,3.29S385.22,373.71,382.29,374.84Z" style="fill:#F448FF"></path><g style="opacity:0.8"><path d="M382.29,374.84l19.28,47.5,14.17-4.52s4.08,4,9.14,8.78l.29.27c3.34,3.18,7.08,6.71,10.33,9.7a80.22,80.22,0,0,0,8,6.8c3.48,2,11.91,1.29,11.74-1.66s-30-77.86-33-80c-.85-.63-7.72,1.45-17,4.67-2.55.88-5.28,1.87-8.12,2.89l-.54.21c-2.89,1.05-5.85,2.15-8.85,3.29S385.22,373.71,382.29,374.84Z" style="fill:#fff"></path></g><path d="M437.15,434.37c-5.17-1.53-10.68-6.33-12-7.5,3.34,3.18,7.08,6.71,10.33,9.7a80.22,80.22,0,0,0,8,6.8c3.48,2,11.91,1.29,11.74-1.66s-30-77.86-33-80c-.85-.63-7.72,1.45-17,4.67C407.47,368,443.06,436.11,437.15,434.37Z" style="fill:#263238"></path><path d="M423.88,425.83s-2.69-7.75,5-14.6" style="fill:#263238"></path><path d="M347.59,388.42l17.46,45.64,50.69-16.24h0l0,0c.21.19,1.06,1,2.36,2.26.46.46,1,1,1.57,1.52l4.08,3.92s0,0,0,0l.09.25,0-.14,1,.91.29.27,1.18,1.13c.3.27.59.56.89.85l.83.78c2.5,2.37,5.1,4.8,7.43,6.93a78,78,0,0,0,8,6.81c3.48,2,11.91,1.29,11.74-1.66-.09-1.56-8.32-22.82-16.56-43-.26-.6-.5-1.2-.74-1.8-.11-.3-.25-.61-.37-.91-.25-.6-.49-1.2-.74-1.79-.35-.89-.73-1.78-1.09-2.67L434.27,388c-.23-.58-.46-1.15-.71-1.72s-.48-1.11-.7-1.66c-.11-.28-.22-.56-.35-.84-1.15-2.73-2.25-5.33-3.29-7.72l-.05-.11-17,2.31-27,3.68-32.56,4.44Z" style="opacity:0.1"></path><path d="M351,365.11s13.75,15.38,1.56,21.09a58.16,58.16,0,0,1-7.86,3l13-4.44s6.82,5,7.5,8.6-1.66,8-1.25,9.55,7.63,4.72,8,7.68-2.13,4.31-2.08,6.44,7.24,11.31,7.72,14.58a4.83,4.83,0,0,1-4.31,5.77c-2.53.15-16-.65-20.12-.94s-41.69,10.55-69.82,1c-11.45-3.89-21.11-20.55-18.92-32.55,2.63-14.43,25.07-20.94,40.17-33.67a66,66,0,0,0,5.27-6.12Z" style="fill:#F448FF"></path><path d="M351,365.11s13.75,15.38,1.56,21.09a58.16,58.16,0,0,1-7.86,3l13-4.44s6.82,5,7.5,8.6-1.66,8-1.25,9.55,7.63,4.72,8,7.68-2.13,4.31-2.08,6.44,7.24,11.31,7.72,14.58a4.83,4.83,0,0,1-4.31,5.77c-2.53.15-16-.65-20.12-.94s-41.69,10.55-69.82,1c-11.45-3.89-21.11-20.55-18.92-32.55,2.63-14.43,25.07-20.94,40.17-33.67a66,66,0,0,0,5.27-6.12Z" style="fill:#fff;opacity:0.7000000000000001"></path><path d="M357.44,384.69c-3.77,2-8.52,2.65-12.69,3.32a117,117,0,0,0-13,2.85c-2.81.86-5.73,1.67-8.15,3.4,5.27-2.59,11.24-3.31,16.93-4.6s11.9-1.65,16.87-5Z" style="fill:#263238"></path><path d="M475.35,453.29c.17,2.95-8.26,3.64-11.74,1.67a80.86,80.86,0,0,1-8-6.81c-8.3-7.61-19.76-18.75-19.76-18.75l-50.69,16.25L367.72,400s20.59-8.27,40.16-15.65c3-1.13,6-2.23,8.86-3.29l.53-.2c13.13-4.77,24-8.37,25.09-7.57C445.3,375.44,475.18,450.32,475.35,453.29Z" style="fill:#ad6359"></path><path d="M402.42,386.43l19.28,47.5,14.17-4.52s4.09,4,9.14,8.78l.29.26c3.34,3.18,7.09,6.72,10.33,9.7a78.78,78.78,0,0,0,8,6.8c3.48,2,11.91,1.29,11.74-1.66s-30-77.86-33-80c-.86-.64-7.73,1.45-17,4.66-2.55.89-5.28,1.87-8.12,2.9l-.54.2c-2.88,1.06-5.85,2.16-8.85,3.29S405.35,385.3,402.42,386.43Z" style="fill:#F448FF"></path><g style="opacity:0.8"><path d="M402.42,386.43l19.28,47.5,14.17-4.52s4.09,4,9.14,8.78l.29.26c3.34,3.18,7.09,6.72,10.33,9.7a78.78,78.78,0,0,0,8,6.8c3.48,2,11.91,1.29,11.74-1.66s-30-77.86-33-80c-.86-.64-7.73,1.45-17,4.66-2.55.89-5.28,1.87-8.12,2.9l-.54.2c-2.88,1.06-5.85,2.16-8.85,3.29S405.35,385.3,402.42,386.43Z" style="fill:#fff"></path></g><path d="M457.28,446c-5.17-1.52-10.68-6.33-12-7.5,3.34,3.18,7.09,6.72,10.33,9.7a78.78,78.78,0,0,0,8,6.8c3.48,2,11.91,1.29,11.74-1.66s-30-77.86-33-80c-.86-.64-7.73,1.45-17,4.66C427.6,379.58,463.2,447.7,457.28,446Z" style="fill:#263238"></path><path d="M444,437.42s-2.68-7.75,5-14.61" style="fill:#263238"></path><path d="M317.23,365.14h66.84s6.89,20.72,2.35,28.68-50.86,18.58-50.86,18.58L398.42,388,418,435.12c-68.22,20.95-95.77,18.31-110.47,13.64-12.57-4-24.11-27.57-18.22-36.19,8.14-11.93,35.87-31.82,35.87-31.82Z" style="fill:#ad6359"></path><path d="M384.07,365.14s11.37,27.77-1.44,31.94l-14.26,4.64,12.9-5.2s6.23,4.1,6.91,7.74-1.66,8-1.25,9.55,7.63,4.72,8,7.68-2.13,4.31-2.08,6.44,7.24,11.32,7.72,14.59a4.82,4.82,0,0,1-4.31,5.76c-2.53.15-16-.65-20.12-.94s-42.94,10-71.57,2c-7.86-2.18-19.57-24.42-17.17-33.6,2.9-11.11,37.81-35,37.81-35l-8-15.61Z" style="fill:#F448FF"></path><path d="M384.07,365.14s11.37,27.77-1.44,31.94l-14.26,4.64,12.9-5.2s6.23,4.1,6.91,7.74-1.66,8-1.25,9.55,7.63,4.72,8,7.68-2.13,4.31-2.08,6.44,7.24,11.32,7.72,14.59a4.82,4.82,0,0,1-4.31,5.76c-2.53.15-16-.65-20.12-.94s-42.94,10-71.57,2c-7.86-2.18-19.57-24.42-17.17-33.6,2.9-11.11,37.81-35,37.81-35l-8-15.61Z" style="fill:#fff;opacity:0.7000000000000001"></path><path d="M382.63,397.08c-3.77,2-8.52,2.64-12.69,3.31a119.29,119.29,0,0,0-13,2.85c-2.81.86-5.73,1.67-8.15,3.4,5.27-2.59,11.24-3.31,16.93-4.59s11.9-1.66,16.87-5Z" style="fill:#F448FF"></path><path d="M308.66,375.78c4.15,4,8.93,7.38,12.23,12.15l1.73,2.32c.6.76,1.18,1.53,1.81,2.27-.46-.85-1-1.67-1.46-2.51l-1.53-2.46c-3-5-8-8.52-12.78-11.77Z" style="fill:#F448FF"></path><path d="M318.51,389.48c-4.16-3.2-9.11-6.16-14.48-6.38,5.12,1.43,9.67,4.2,14.48,6.38Z" style="fill:#F448FF"></path><path d="M300.77,399.69c-4.89,3.85-9.62,8.08-12.8,13.53-3,5.74-.3,12.73,2.33,18.09-.56-1.45-1.08-2.9-1.5-4.39-1.17-4.24-2.29-9.28-.05-13.28,3.05-5.31,7.66-9.68,12-13.95Z" style="fill:#F448FF"></path><path d="M370.65,242.47s7.7-5.5,13.07-1.79,3.95,9.77,7.08,12.28,11,5.7,12.77,11.07-3.28,11.31-2.73,14.26,5.93,6.44,4.41,12.16c-1.77,6.64-7.47,7.94-9,11-2.51,5.15-1.17,11.25-7.29,15.42-6.59,4.5-12.22,1.09-17.09,1-4.67-.1-9.13,6.09-17.42,1.9s-7.65-10.27-11.37-14.73-12.2-5.34-15.39-11.5,1-9.94,1-13.21-4-5.69-3.14-10.94,7.07-6.84,8.34-8.36c2.18-2.6,1-5.38,4.05-9.11s9.95-3.59,11.7-4.26c4.21-1.6,5.31-9.38,10.91-9.83A10.5,10.5,0,0,1,370.65,242.47Z" style="fill:#263238"></path><path d="M403.7,268.77c-.95,2.74-2.65,5.66-1.73,8.63.47,1.74,1.76,3.15,2.62,4.67,2.54,3.89,3.27,9,.18,12.76a20.66,20.66,0,0,1-5.34,4.38c-1.49,1-3.08,2.37-3.26,4.32-.83,5.06-2.19,10.86-7.18,13.37,5.24-2.14,6.91-8.16,7.9-13.22.21-1.77,1.51-2.87,3-3.81a21.3,21.3,0,0,0,5.6-4.51c3.23-4,2.53-9.67-.3-13.65-1.25-1.95-3-3.7-3.05-6.13-.09-2,1-4.84,1.58-6.81Z" style="fill:#263238"></path><path d="M331.16,297.48c-7-5.81-6.91-8-3.84-16.13a4.06,4.06,0,0,0-.42-2.88c-1.11-2.43-2.5-4.77-2.24-7.47a9.19,9.19,0,0,1,3.89-6.53c1.45-1.05,3.06-1.88,4.62-2.79a44.05,44.05,0,0,0-4.86,2.43,9.55,9.55,0,0,0-4.4,6.81c-.35,2.81,1.11,5.49,2.19,7.9,1,1.6.16,3.24-.42,4.86-2.75,6.61,0,10.15,5.48,13.8Z" style="fill:#263238"></path><path d="M340.2,302.92c-7.86,21.13-39.57,59.16-49.38,60.33-2.64.31-12.13-.93-16.07-4.14-8-6.52-15.37-32.16-18.65-54.24-1.06-7.16,28.54-8,35-3.9,2.49,1.6,3.7,20,4.93,19.47,6.29-2.62,29.36-22.53,33.13-25.41C340.32,286.51,343.15,295,340.2,302.92Z" style="fill:#ad6359"></path><path d="M258.05,313.7c-3.71-7.61-4.4-25.24-3.6-36.29.42-5.86,3.85-21.89,7.08-22.06,3-.14,3.49,4.87,3.49,4.87s2.73-7.6,5.53-7.44c4.11.22,3,7.44,3,7.44s1.86-7.17,6-7,2.92,8,2.92,8,1.42-6.64,4.75-4.92c4,2.08.14,14,.71,20.48.13,1.47-.48,28.46-.48,28.46Z" style="fill:#ad6359"></path><path d="M264.9,260.25a69.18,69.18,0,0,0-.89,19.91c.16,1.89.43,3.77.62,5.66,0,.07.13.05.12,0a92.84,92.84,0,0,1-.15-10c0-3.29.23-6.58.33-9.87.06-1.87.18-3.73.26-5.6C265.19,260.15,264.94,260.09,264.9,260.25Z" style="fill:#263238"></path><path d="M273.5,260c-.33,1.52-.6,3-.78,4.57s-.29,3.22-.34,4.83a80.21,80.21,0,0,0,.26,9.43c.15,1.81.45,3.59.7,5.38,0,.13.2.08.19,0-.25-3.13-.27-6.3-.28-9.44s.12-6.23.26-9.34c.09-1.78.15-3.56.23-5.34C273.75,259.9,273.53,259.85,273.5,260Z" style="fill:#263238"></path><path d="M282.52,260.89a68.22,68.22,0,0,0-1.5,10.86,94.08,94.08,0,0,0-.07,11.14.06.06,0,0,0,.12,0c.3-3.67.53-7.34.85-11s.56-7.32.72-11C282.64,260.84,282.53,260.82,282.52,260.89Z" style="fill:#263238"></path><path d="M293.2,308.37s5.74-9.2,6.33-14.17-3.49-23.09-7.39-21.61c-5,1.91-4.71,13.27-3.87,18.68,0,0-11.65,4.41-13.08,13S293.2,308.37,293.2,308.37Z" style="fill:#ad6359"></path><path d="M290.83,273.58c-4,5.15-2.47,12.08-2,17.47a.61.61,0,0,1-.58.67c-4.82,2.18-11.3,6.69-13.22,12.25-.05.17-.26.14-.23,0,1.35-6.12,7.47-11.06,12.84-13.11-.54-5.49-1.8-12.58,3.18-17.29C290.82,273.52,290.86,273.55,290.83,273.58Z" style="fill:#263238"></path><path d="M295.47,320.33a70.84,70.84,0,0,1,1.91,19,30.34,30.34,0,0,0-1.91-19Z" style="fill:#263238"></path><path d="M328.52,292.81c19.31-9.29,21.63-2.79,13.76,14.68-4.38,9.72-9.66,21.5-14.17,28.14-3.4,5-7.09,5.56-7.09,5.56l-24.23-24.82a18.83,18.83,0,0,1,6.24-7.16C310.08,304.3,321.07,296.4,328.52,292.81Z" style="fill:#F448FF"></path><path d="M321,341.19l-24.23-24.82s-3.65,1.45-2.19,2.9a8.35,8.35,0,0,0,3.09,1.94s-1.39,3.87.76,5.4,5.73.63,5.73.63-.68,5,1.51,6.35,5.46.88,5.46.88-1.42,4.12.36,5.19,4.85.44,4.85.44-.05,4.16,2.62,5C320.37,345.59,321,341.19,321,341.19Z" style="fill:#F448FF"></path><g style="opacity:0.7000000000000001"><path d="M328.52,292.81c19.31-9.29,21.63-2.79,13.76,14.68-4.38,9.72-9.66,21.5-14.17,28.14-3.4,5-7.09,5.56-7.09,5.56l-24.23-24.82a18.83,18.83,0,0,1,6.24-7.16C310.08,304.3,321.07,296.4,328.52,292.81Z" style="fill:#fff"></path><path d="M321,341.19l-24.23-24.82s-3.65,1.45-2.19,2.9a8.35,8.35,0,0,0,3.09,1.94s-1.39,3.87.76,5.4,5.73.63,5.73.63-.68,5,1.51,6.35,5.46.88,5.46.88-1.42,4.12.36,5.19,4.85.44,4.85.44-.05,4.16,2.62,5C320.37,345.59,321,341.19,321,341.19Z" style="fill:#fff"></path></g><path d="M319.75,339c-3.32-3.66-17.43-18.13-20.69-21.06-.22-.2-.4-.11-.2.13,9.67,11.19,17.3,17.63,20.74,21.05C319.68,339.21,319.83,339.09,319.75,339Z" style="fill:#F448FF"></path><path d="M303.7,327.35l.48-.11s-.68,5,1.51,6.35,5.47.88,5.47.88-1.43,4.12.34,5.19,4.86.44,4.86.44-.05,4.16,2.62,5c1.39.46,2-3.93,2-3.93s3.69-.55,7.09-5.57c4.51-6.64,9.79-18.43,14.17-28.14s5.63-16.16,2.41-18.2l-39,36.19Z" style="fill:#F448FF;opacity:0.30000000000000004"></path><path d="M384.07,365.14l-74.23,0c-.17-.31,19-53.3,25.19-70.35,4.72-13,17-11.89,24.41-2.38C378.07,316.18,384.07,365.14,384.07,365.14Z" style="fill:#F448FF"></path><g style="opacity:0.7000000000000001"><path d="M384.07,365.14l-74.23,0c-.17-.31,19-53.3,25.19-70.35,4.72-13,17-11.89,24.41-2.38C378.07,316.18,384.07,365.14,384.07,365.14Z" style="fill:#fff"></path></g><path d="M352.71,288.73c-.43,1.73-8.86,12.86-16.78,12.37-2.58-.16-2.32-14.27-2.32-14.27l-.22-1.05-3.05-14.64L350.14,259S352.88,288,352.71,288.73Z" style="fill:#ad6359"></path><path d="M330.34,271.15l3.06,14.63.22,1.05s-.05,2.56.09,5.5c10.82-1.45,15.88-9.48,18.12-15.05-.74-8.38-1.69-18.31-1.69-18.31Z" style="fill:#263238"></path><path d="M301.82,244.59c-7.3,33.67,12,41.84,19.31,43.4,6.59,1.42,29.21,5.42,39.95-27.31s-2.62-46.77-17.52-50.82S309.11,210.92,301.82,244.59Z" style="fill:#ad6359"></path><path d="M307.15,244.58a23.76,23.76,0,0,0,2.38-.15,3.84,3.84,0,0,0,2.39-.62,1.22,1.22,0,0,0,.21-1.48,3,3,0,0,0-2.86-1.13,4.45,4.45,0,0,0-3,1.16A1.31,1.31,0,0,0,307.15,244.58Z" style="fill:#263238"></path><path d="M330.15,249a23,23,0,0,1-2.23-.82,3.81,3.81,0,0,1-2.12-1.27,1.23,1.23,0,0,1,.22-1.48,3,3,0,0,1,3.06-.28,4.45,4.45,0,0,1,2.55,2A1.31,1.31,0,0,1,330.15,249Z" style="fill:#263238"></path><path d="M322.45,273.26c-.6.5-1.22,1.21-2.08,1.21a6,6,0,0,1-2.46-.8.09.09,0,0,0-.11.12,3.16,3.16,0,0,0,2.86,1.51,2.51,2.51,0,0,0,2-1.91C322.72,273.25,322.54,273.19,322.45,273.26Z" style="fill:#263238"></path><path d="M313.92,263.5s-1,3.4-1.2,5c0,.15.37.28.92.39,0,0,0,0,.06,0a7.86,7.86,0,0,0,8-1.84.17.17,0,0,0-.22-.26,11.79,11.79,0,0,1-7.38,1c-.06-.46,1.85-5.83,1.59-5.82-1.12,0-3.1.24-3.84.32.58-2.23,2.53-8.46,3.58-12.51.06-.26-.32-.39-.41-.17a111,111,0,0,0-5,13.84C309.84,263.9,313.23,263.69,313.92,263.5Z" style="fill:#263238"></path><path d="M328.46,254.91a6.44,6.44,0,0,1-.22,1.24,3.64,3.64,0,0,0,.39.92,1.76,1.76,0,0,0,1.6.91c1.36-.11,2-1.49,2.11-2.86,0-.1,0-.16-.11-.1-.58.7-1.26,1.4-2,1.25s-1.15-.88-1.68-1.33c0,0,0,0,0,0Z" style="fill:#263238"></path><path d="M323.47,257.57a3.43,3.43,0,0,0,.5,1.75,2.48,2.48,0,0,0,1.67,1.05,2.18,2.18,0,0,0,1.88-.66,3.94,3.94,0,0,0,.89-1.55,7.67,7.67,0,0,0,.22-1.06,4.71,4.71,0,0,0-.17-2.21,7,7,0,0,1-.31,1.59,10.23,10.23,0,0,1-.53,1.37c-.43.89-1.1,1.6-1.84,1.45s-1.29-.83-1.47-1.82a15.77,15.77,0,0,1-.16-3.11A6.93,6.93,0,0,0,323.47,257.57Z" style="fill:#263238"></path><path d="M306.81,251.35a5.91,5.91,0,0,0-.11,1.26,3.7,3.7,0,0,1-.61.78,1.75,1.75,0,0,1-1.78.48c-1.29-.46-1.53-2-1.31-3.3,0-.1.09-.15.13-.08.39.83.86,1.68,1.66,1.74s1.33-.56,2-.86c0,0,0,0,0,0Z" style="fill:#263238"></path><path d="M311,255.19a3.37,3.37,0,0,1-.92,1.56,2.46,2.46,0,0,1-1.88.6,2.22,2.22,0,0,1-1.66-1.12,3.92,3.92,0,0,1-.46-1.73,6.34,6.34,0,0,1,.05-1.07,4.67,4.67,0,0,1,.73-2.1,6.74,6.74,0,0,0-.1,1.61,8.59,8.59,0,0,0,.16,1.46c.19,1,.65,1.83,1.41,1.87s1.46-.46,1.88-1.38a16.39,16.39,0,0,0,.95-3A7,7,0,0,1,311,255.19Z" style="fill:#263238"></path><path d="M359.53,265c-7.19-4.21-6.8-12.33-6.8-12.33a36.34,36.34,0,0,1-13.79-13.47c.17.74,1.35,6.07,2,8.77-21.17-5.76-26.33-23.25-26.33-23.25-7.63,6.66-9.43,11.16-10.65,13.38,0,0,1.05-13.64,8.66-22.26,9.31-10.55,20.47-7.58,20.47-7.58A29.61,29.61,0,0,1,362,219.87C374.62,236.63,359.53,265,359.53,265Z" style="fill:#263238"></path><path d="M324.92,243a38.45,38.45,0,0,0,10.68,5s0,0,0,0a33,33,0,0,1-14.94-11,32.46,32.46,0,0,1-4.06-7,22.88,22.88,0,0,1-2.11-8.68.17.17,0,0,0-.34,0,27.35,27.35,0,0,0,.94,8.88,23.93,23.93,0,0,0,4.13,7.71,26.76,26.76,0,0,0,5.68,5.21Z" style="fill:#263238"></path><path d="M352.2,249.27s-8.65-5.18-7.79-1.86a6.77,6.77,0,0,0,3,4.42s.37,4,1.78,4.12,4.31-3.92,4-4.8A10.81,10.81,0,0,0,352.2,249.27Z" style="fill:#F448FF"></path><path d="M352.2,249.27a11,11,0,0,1,1,1.87c.15.43-.43,1.6-1.26,2.68a14.72,14.72,0,0,1-1.83-2c-.63-.92-.31-2.87-.12-3.74C351.25,248.7,352.2,249.27,352.2,249.27Z" style="fill:#050400;opacity:0.1"></path><path d="M353.68,248.53s2.27-11.73,5-9.17a5.66,5.66,0,0,1,1.95,5.41s3.86,2.37,2.76,3.93-8,2.62-8.65,1.83A8.22,8.22,0,0,1,353.68,248.53Z" style="fill:#F448FF"></path><path d="M356.71,248.5a4.91,4.91,0,0,1,.56,2.23c-1.27.13-2.29.09-2.52-.2a8.22,8.22,0,0,1-1.07-2s.15-.77.42-1.87A5.4,5.4,0,0,1,356.71,248.5Z" style="fill:#050400;opacity:0.1"></path><path d="M355.71,248.87a2.71,2.71,0,1,1-3.67-1.1A2.71,2.71,0,0,1,355.71,248.87Z" style="fill:#F448FF"></path><path d="M355.17,262.1s8.81-9.71,13.32-6.43-3.08,18-9,19.41a5.82,5.82,0,0,1-7.35-4.09Z" style="fill:#ad6359"></path><path d="M366.21,259.84c.09,0,.09.13,0,.15-4.19,1.11-6.76,4.54-8.72,8.18,1.38-1.32,3.09-1.92,4.89-.26.09.08,0,.23-.14.2a3.58,3.58,0,0,0-4.07.74,16.93,16.93,0,0,0-2.27,2.92c-.24.34-.85.06-.67-.33l.05-.09C355.83,266.26,360.69,259.65,366.21,259.84Z" style="fill:#263238"></path><path d="M353.5,314.17c-12.55,30.31-31.82,61.23-41.07,64.69-6.5,2.43-23.29-1.38-27.28-4.53-12-9.43-17.69-29-21.66-49.2-1.4-7.1,31.11-13.52,34.19-6.51,1.85,4.19,5.61,20.23,6.77,19.67,4.63-2.24,36.35-36,40.35-38.55C356.67,292.2,358.67,301.69,353.5,314.17Z" style="fill:#ad6359"></path><path d="M297.47,321.91s2.25-13.19,3.32-21.88c.59-4.85.87-13.25-.33-17-1.78-5.63-12.84-28-18.33-25.46-5,2.32,7,20.35,7,20.35s-10.44-19.26-15.91-15.36S283.94,285,283.94,285s-11.18-19.55-16.18-14.64c-3.78,3.71,9.95,21.36,9.95,21.36S268,275,263.93,278.65c-4.47,4,7.18,21.12,7.18,21.12-8.74,11-8.55,19.46-7.56,25.7C263.79,327,297.47,321.91,297.47,321.91Z" style="fill:#ad6359"></path><path d="M293.15,284.34c-1.15-2.3-2.29-4.65-3.64-6.84s-2.77-4.35-4.31-6.41a44.52,44.52,0,0,0-6.77-7.46c4.21,4.27,9.15,12.06,10.49,14.26s2.8,4.32,4.15,6.51C293.1,284.45,293.17,284.4,293.15,284.34Z" style="fill:#263238"></path><path d="M285.3,289.35c-1.59-2.88-3.06-5.8-4.78-8.62s-3.57-5.3-5.47-8c-.14-.2-.21-.06-.07.16,1.79,2.74,3.23,5.42,5,8.19s3.62,5.47,5.27,8.29C285.26,289.44,285.33,289.39,285.3,289.35Z" style="fill:#263238"></path><path d="M279.34,294.85A74.07,74.07,0,0,0,271,282.24c-.16-.2-.22,0-.07.21,2.84,4.14,5.1,7.37,8.22,12.48C279.23,295,279.39,295,279.34,294.85Z" style="fill:#263238"></path><path d="M274.34,359c-.84-2.2-1.81-4.36-2.66-6.56s-1.7-4.39-2.5-6.61A124.41,124.41,0,0,1,264.51,327a38.37,38.37,0,0,1,.35-14.05,31.52,31.52,0,0,1,2.58-7.05,73.19,73.19,0,0,1,3.9-6.48c.21-.32-1.43-2.29-1.72-2.74-.57-.89-1.15-1.77-1.69-2.68a51.65,51.65,0,0,1-2.87-5.65,19.81,19.81,0,0,1-1.79-6.19c-.12-1.56.45-3.89,2.51-3.44a7.72,7.72,0,0,1,2.94,1.82,29.52,29.52,0,0,1,2.89,2.59s0,0,0,0l0,0c.05.07.17,0,.13-.08-.94-1.7-1.8-3.46-2.6-5.22-.41-.89-.79-1.78-1.15-2.69a7.28,7.28,0,0,1-.65-2.86,2.78,2.78,0,0,1,.93-2.06,2.73,2.73,0,0,1,2.53-.24,9.7,9.7,0,0,1,4.33,3.11,0,0,0,0,0,.07,0l-.25-.36a.08.08,0,0,0,0-.07,19.81,19.81,0,0,1-2-4.13c-.52-1.4-1.15-3.12-.53-4.58a2.7,2.7,0,0,1,3.5-1.46,8.29,8.29,0,0,1,2.05,1.15,22,22,0,0,1,2,1.69,0,0,0,1,0,0,0c-.63-.75-1.32-1.45-2-2.15a6.06,6.06,0,0,0-2.11-1.46,3.09,3.09,0,0,0-4,1.31,5.68,5.68,0,0,0,.09,4.72,20.8,20.8,0,0,0,2.09,4,8.29,8.29,0,0,0-3.28-2.35,3,3,0,0,0-4.09,1.82c-.66,2,.46,4.22,1.28,6A32.94,32.94,0,0,0,270.8,282a13.61,13.61,0,0,0-4.18-3.76,2.81,2.81,0,0,0-4.14,1.85c-.62,2-.05,4.35.61,6.29a42.37,42.37,0,0,0,3,6.65c.66,1.19,1.38,2.34,2.13,3.47.37.54,1.93,2.63,2.21,2.86-3.15,3.13-4.95,7.25-6.23,11.46a35.62,35.62,0,0,0-1.35,13.85,110.82,110.82,0,0,0,4.48,19.69,81.12,81.12,0,0,0,3,7.56,72,72,0,0,0,3.77,7.24A.1.1,0,0,0,274.34,359Z" style="fill:#263238"></path><path d="M285.07,270.9a19.52,19.52,0,0,1-2-4,32.65,32.65,0,0,1-1.42-4.18c-.3-1.2-.8-2.72-.25-3.91.88-2,3.21-1.09,4.4,0,0,0,0,0,0,0a3.61,3.61,0,0,0-3.75-1.2c-1.49.54-1.66,2.21-1.48,3.58a21.38,21.38,0,0,0,1.46,5.06,17.36,17.36,0,0,0,1.22,2.44c.49.81,1.13,1.53,1.64,2.34A.08.08,0,1,0,285.07,270.9Z" style="fill:#263238"></path><path d="M304.91,340c-.57-2.19-1.2-4.37-1.83-6.55s-3.83-11.6-5.13-14.24c0-.09-.17-.06-.15,0,.66,2.25,3.75,12.33,4.41,14.54s1.32,4.43,2,6.63,1.34,4.36,2.16,6.49c0,.09.16,0,.15-.06C306.11,344.53,305.49,342.25,304.91,340Z" style="fill:#263238"></path><path d="M297.65,320.53a1.52,1.52,0,0,0,.52,0,1.5,1.5,0,0,0,.45-.24,1.34,1.34,0,0,0,.49-.87,2.44,2.44,0,0,0,0-.27,1.84,1.84,0,0,0-.05-.25,1.22,1.22,0,0,0-.1-.24,1.27,1.27,0,0,0-.13-.22c-.06-.06-.12-.13-.18-.18a1,1,0,0,0-.22-.14,1,1,0,0,0-.23-.11,1.49,1.49,0,0,0-.52-.06,1.11,1.11,0,0,0-.25.05,1.22,1.22,0,0,0-.24.1.92.92,0,0,0-.21.13,1.62,1.62,0,0,0-.19.18,1.28,1.28,0,0,0-.14.21,1,1,0,0,0-.11.24,1.1,1.1,0,0,0-.06.26,1.29,1.29,0,0,0,.05.51,1.1,1.1,0,0,0,.24.45A1.24,1.24,0,0,0,297.65,320.53Z" style="fill:#263238"></path><path d="M267.74,368.45h0a1.16,1.16,0,0,1-.51-.18h0a1.3,1.3,0,0,1-.65-1.3h0a1.37,1.37,0,0,1,.17-.49h0a1.31,1.31,0,0,1,1.79-.48h0a1.31,1.31,0,0,1,.64,1.3h0a1.15,1.15,0,0,1-.17.5A1.32,1.32,0,0,1,267.74,368.45Zm4.12-.18h0a1.32,1.32,0,0,1-1.06-.8h0a1.4,1.4,0,0,1-.1-.66h0a1.31,1.31,0,0,1,.8-1.06h0a1.29,1.29,0,0,1,1.71.7h0a1.18,1.18,0,0,1,.1.66h0a1.3,1.3,0,0,1-.79,1.06h0A1.39,1.39,0,0,1,271.86,368.27Zm-6.18-3.45h0a1.32,1.32,0,0,1-1.13-1h0a1.43,1.43,0,0,1,0-.46h0a1.33,1.33,0,0,1,1-1.12h0a1.3,1.3,0,0,1,1.57,1h0a1,1,0,0,1,0,.46h0a1.31,1.31,0,0,1-1,1.12A1.39,1.39,0,0,1,265.68,364.82Zm9.72,1.09h0a1.4,1.4,0,0,1-.83-.43h0a1.32,1.32,0,0,1-.32-1h0a1.27,1.27,0,0,1,.44-.84h0a1.3,1.3,0,0,1,1.85.12h0a1.28,1.28,0,0,1,.32,1h0a1.27,1.27,0,0,1-.43.84A1.33,1.33,0,0,1,275.4,365.91Zm3-3.08h0a1.37,1.37,0,0,1-.7-.3h0a1.3,1.3,0,0,1-.45-1.15h0a1.37,1.37,0,0,1,.3-.7h0a1.31,1.31,0,0,1,1.85-.16h0a1.32,1.32,0,0,1,.46,1.16h0a1.33,1.33,0,0,1-.3.69h0A1.32,1.32,0,0,1,278.38,362.83Zm-13.23-2.26h0a1.3,1.3,0,0,1-1.16-1.24h0a1.34,1.34,0,0,1,0-.2h0a1.31,1.31,0,0,1,1.24-1.17h0a1.3,1.3,0,0,1,1.37,1.25h0a.67.67,0,0,1,0,.2h0a1.3,1.3,0,0,1-1.25,1.17A.74.74,0,0,1,265.15,360.57ZM281,359.44h0a1.38,1.38,0,0,1-.61-.23h0a1.34,1.34,0,0,1-.55-1.24h0a1.29,1.29,0,0,1,.24-.6h0a1.31,1.31,0,0,1,1.82-.31h0a1.34,1.34,0,0,1,.55,1.24h0a1.19,1.19,0,0,1-.24.6h0A1.28,1.28,0,0,1,281,359.44Zm-15.86-3.15h0a1.33,1.33,0,0,1-1.17-1.35h0l0-.11h0a1.31,1.31,0,0,1,1.35-1.16h0a1.33,1.33,0,0,1,1.27,1.37h0v.09h0a1.32,1.32,0,0,1-1.35,1.17Zm18.23-.41h0a1.42,1.42,0,0,1-.54-.2h0a1.32,1.32,0,0,1-.61-1.26h0a1.39,1.39,0,0,1,.19-.55h0a1.32,1.32,0,0,1,1.82-.41h0a1.32,1.32,0,0,1,.61,1.26h0a1.27,1.27,0,0,1-.2.55h0A1.32,1.32,0,0,1,283.38,355.88ZM265.43,352h0a1.33,1.33,0,0,1-1.16-1.43h0v0h0a1.31,1.31,0,0,1,1.42-1.15h0a1.31,1.31,0,0,1,1.19,1.43h0v0h0a1.31,1.31,0,0,1-1.42,1.16Zm20.16.18h0a1.24,1.24,0,0,1-.5-.17h0a1.34,1.34,0,0,1-.66-1.3h0a1.37,1.37,0,0,1,.17-.49h0a1.31,1.31,0,0,1,1.79-.49h0a1.32,1.32,0,0,1,.65,1.3h0a1.23,1.23,0,0,1-.16.49h0A1.34,1.34,0,0,1,285.59,352.2Zm-19.69-4.45h0a1.32,1.32,0,0,1-1.14-1.47h0a1.33,1.33,0,0,1,1.48-1.14h0a1.32,1.32,0,0,1,1.14,1.44h0v0A1.32,1.32,0,0,1,265.9,347.75Zm21.75.68h0a1.23,1.23,0,0,1-.46-.14h0a1.32,1.32,0,0,1-.7-1.31h0a1.4,1.4,0,0,1,.14-.47h0a1.32,1.32,0,0,1,1.78-.55h0a1.32,1.32,0,0,1,.69,1.31h0a1.23,1.23,0,0,1-.14.46h0A1.31,1.31,0,0,1,287.65,348.43Zm1.93-3.82h0a2,2,0,0,1-.42-.12h0a1.32,1.32,0,0,1-.73-1.32h0a1.21,1.21,0,0,1,.12-.45h0a1.31,1.31,0,0,1,1.75-.6h0a1.32,1.32,0,0,1,.74,1.35h0a1.62,1.62,0,0,1-.13.41A1.32,1.32,0,0,1,289.58,344.61Zm1.83-3.89h0a1.38,1.38,0,0,1-.4-.1h0a1.33,1.33,0,0,1-.76-1.36h0a1.43,1.43,0,0,1,.11-.39h0a1.3,1.3,0,0,1,1.73-.65h0a1.32,1.32,0,0,1,.77,1.36h0a1.27,1.27,0,0,1-.11.38h0A1.3,1.3,0,0,1,291.41,340.72Zm1.71-3.93h0a1.19,1.19,0,0,1-.36-.09h0a1.33,1.33,0,0,1-.8-1.37h0a1.5,1.5,0,0,1,.09-.35h0a1.31,1.31,0,0,1,1.72-.71h0a1.33,1.33,0,0,1,.81,1.37h0a2,2,0,0,1-.1.35h0A1.31,1.31,0,0,1,293.12,336.79Zm1.6-4h0a2,2,0,0,1-.33-.08h0a1.34,1.34,0,0,1-.83-1.37h0a2,2,0,0,1,.08-.33h0a1.31,1.31,0,0,1,1.7-.75h0a1.3,1.3,0,0,1,.83,1.37h0a1.32,1.32,0,0,1-.08.33h0A1.32,1.32,0,0,1,294.72,332.81Zm1.45-4h0a.84.84,0,0,1-.26-.07h0a1.31,1.31,0,0,1-.89-1.4h0a2.38,2.38,0,0,1,.05-.26h0a1.33,1.33,0,0,1,1.68-.83h0a1.33,1.33,0,0,1,.88,1.41h0a1.22,1.22,0,0,1-.06.26A1.33,1.33,0,0,1,296.17,328.78Zm1.24-4.11h0l-.17,0h0a1.32,1.32,0,0,1-.95-1.6h0a1.31,1.31,0,0,1,1.6-.94h0a1.31,1.31,0,0,1,.95,1.6A1.32,1.32,0,0,1,297.41,324.67Z" style="fill:#263238"></path><path d="M266.51,343.54a1.49,1.49,0,0,0,.52,0,2,2,0,0,0,.45-.24,1.32,1.32,0,0,0,.34-.4,1.34,1.34,0,0,0,.15-.48,1.31,1.31,0,0,0-.28-1,1.35,1.35,0,0,0-1.84-.21,1.33,1.33,0,0,0-.49.88,1.11,1.11,0,0,0,.05.51,1.07,1.07,0,0,0,.23.45A1.29,1.29,0,0,0,266.51,343.54Z" style="fill:#263238"></path><rect x="264.48" y="365.93" width="1.64" height="15.22" transform="translate(340.82 825.44) rotate(-154.11)" style="fill:#263238"></rect><rect x="265.87" y="366.03" width="1.64" height="9.27" transform="translate(-183.24 448.68) rotate(-64.1)" style="fill:#263238"></rect><path d="M313.24,330.78c-1.06.67-8.84,7.18-9.15,7.73,0,.05,0,.15.07.12,3.12-1.43,8.32-6.73,9.18-7.68C313.41,330.87,313.34,330.72,313.24,330.78Z" style="fill:#263238"></path><path d="M340,301.5c18-11.57,21.13-5.4,15.44,12.89-3.17,10.18-7,22.51-10.65,29.66-2.77,5.39-6.36,6.38-6.36,6.38l-27.07-21.7a18.83,18.83,0,0,1,5.33-7.87C323.12,315.13,333.06,306,340,301.5Z" style="fill:#F448FF"></path><path d="M338.46,350.43l-27.07-21.7s-5.1,2.46-3.47,3.72,4.95,1,4.95,1-.91,4,1.41,5.28,5.76-.08,5.76-.08-.06,5,2.28,6.12,5.52.21,5.52.21-.91,4.26,1,5.11,4.87-.15,4.87-.15.46,4.13,3.21,4.67C338.34,354.87,338.46,350.43,338.46,350.43Z" style="fill:#F448FF"></path><g style="opacity:0.7000000000000001"><path d="M340,301.5c18-11.57,21.13-5.4,15.44,12.89-3.17,10.18-7,22.51-10.65,29.66-2.77,5.39-6.36,6.38-6.36,6.38l-27.07-21.7a18.83,18.83,0,0,1,5.33-7.87C323.12,315.13,333.06,306,340,301.5Z" style="fill:#fff"></path><path d="M338.46,350.43l-27.07-21.7s-5.1,2.46-3.47,3.72,4.95,1,4.95,1-.91,4,1.41,5.28,5.76-.08,5.76-.08-.06,5,2.28,6.12,5.52.21,5.52.21-.91,4.26,1,5.11,4.87-.15,4.87-.15.46,4.13,3.21,4.67C338.34,354.87,338.46,350.43,338.46,350.43Z" style="fill:#fff"></path></g><path d="M336.92,348.4c-3.73-3.22-19.49-15.88-23.08-18.38-.25-.18-.42-.06-.19.15,11,9.93,19.32,15.39,23.14,18.37C336.89,348.62,337,348.49,336.92,348.4Z" style="fill:#F448FF"></path><path d="M334.38,352.28c2.54,4.5,4.21,2.1,4.34-1.84l-.16.23a14.19,14.19,0,0,0,6.92-6.79c4-8.85,6.67-18.16,9.35-27.45-3.43,9-6.27,18.26-10.07,27.1a14.41,14.41,0,0,1-6.41,6.66l-.15.07v.16c-.05,3.72-1,5.87-3.81,1.86Z" style="fill:#F448FF"></path><path d="M355.18,319.69a16.14,16.14,0,0,0-3,5.06,7.1,7.1,0,0,0,3-5.06Z" style="fill:#F448FF"></path><path d="M335.7,304.56a135.34,135.34,0,0,0-13.51,10.85c-2.18,1.9-4.27,3.88-6.37,5.87a13.65,13.65,0,0,0-2.82,3.38,22.77,22.77,0,0,0-1.82,4l.12-.13a12.94,12.94,0,0,0-3.2,2.28,1.58,1.58,0,0,0-.49,1.18c.05-.89,1-1.39,1.61-1.86a17.39,17.39,0,0,1,2.34-1.23,17.25,17.25,0,0,1,4.79-7c6-5.39,13.23-12.14,19.35-17.29Z" style="fill:#F448FF"></path><path d="M329.57,309.13a16,16,0,0,0,4-4.27,7.1,7.1,0,0,0-4,4.27Z" style="fill:#F448FF"></path></g><g id="freepik--character-1--inject-10"><path d="M46.35,443.16c-.17,2.87,8,3.54,11.4,1.62a77.37,77.37,0,0,0,7.76-6.61c8.06-7.4,19.2-18.23,19.2-18.23L134,435.74l17-44.36s-20-8-39-15.21c-2.93-1.1-5.81-2.16-8.61-3.19l-.52-.2c-12.76-4.64-23.32-8.13-24.39-7.35C75.54,367.5,46.51,440.28,46.35,443.16Z" style="fill:#f7a9a0"></path><path d="M112.29,376.32,93.82,422.86l-9.11-2.92s-11.14,10.83-19.2,18.23a78.57,78.57,0,0,1-7.76,6.61c-3.38,1.91-11.57,1.25-11.41-1.62s29.2-75.66,32.07-77.74c1.06-.77,11.62,2.72,24.37,7.37l.53.18c2.8,1,5.68,2.11,8.6,3.21Z" style="fill:#ebebeb"></path><path d="M45.91,443.68c.17-2.92,29.8-76.79,32.71-78.89,1.1-.8,12.11,2.88,25.29,7.72l-19,47.68s-24,23.2-27.43,25.17S45.74,446.61,45.91,443.68Z" style="fill:#F448FF"></path><path d="M45.91,443.68c.17-2.92,29.8-76.79,32.71-78.89,1.1-.8,12.11,2.88,25.29,7.72l-19,47.68s-24,23.2-27.43,25.17S45.74,446.61,45.91,443.68Z" style="opacity:0.5"></path><path d="M49.29,443.81c5.27-12.26,25.37-62.21,29.65-74.73,0-.1,0-.13-.07,0-5.49,12-25.19,62.15-29.78,74.68C49,444,49.18,444.07,49.29,443.81Z" style="fill:#263238"></path><path d="M62.07,441.67a10.69,10.69,0,0,0,0-8.62,10.38,10.38,0,0,0-5.5-5.42c-.08,0-.13.11-.06.15a12.4,12.4,0,0,1,5.46,13.83A.08.08,0,0,0,62.07,441.67Z" style="fill:#263238"></path><path d="M81.78,424.5c2.06-4.93,2.62-11.38-.2-16.09-.11-.18-.37,0-.35.16a74.24,74.24,0,0,1-.09,15.77A.33.33,0,0,0,81.78,424.5Z" style="fill:#263238"></path><path d="M78.76,427.72c2-4.93,2.61-11.37-.21-16.08-.11-.18-.36,0-.35.15a72.93,72.93,0,0,1-.09,15.77A.34.34,0,0,0,78.76,427.72Z" style="fill:#263238"></path><path d="M75.73,431c2.06-4.93,2.61-11.38-.2-16.08-.11-.18-.37,0-.35.15a74.23,74.23,0,0,1-.09,15.77A.33.33,0,0,0,75.73,431Z" style="fill:#263238"></path><path d="M72.7,434.18c2.06-4.93,2.62-11.38-.2-16.08-.11-.19-.37,0-.35.15A74.23,74.23,0,0,1,72.06,434,.33.33,0,0,0,72.7,434.18Z" style="fill:#263238"></path><path d="M92.86,435.16c3.09-1.68,2.32-5.65.78-8.07a28,28,0,0,0-10.86-9.58.14.14,0,0,0-.21.09c-.4,0-.86.27-.76.73,1,4.51,1.57,9.46,3.94,13.52C87.14,434.22,89.94,436.74,92.86,435.16Zm-8.09-10.31c-.56-2.2-1-4.42-1.65-6.61A84.52,84.52,0,0,1,89.35,424,31.37,31.37,0,0,1,92,427.13c1.21,1.74,3.4,8.26-2.19,6.59C86.69,432.8,85.43,427.48,84.77,424.85Z" style="fill:#263238"></path><path d="M85.88,404.46c-2.4,4-2.95,9-4,13.49-.1.47.36.77.76.74a.13.13,0,0,0,.2.09,28,28,0,0,0,10.91-9.54c1.55-2.41,2.33-6.38-.75-8.07C90.08,399.58,87.28,402.09,85.88,404.46Zm4-1.86c5.6-1.65,3.38,4.86,2.17,6.59a30.36,30.36,0,0,1-2.63,3.14c-1.94,2.08-4.13,3.85-6.25,5.72.65-2.18,1.1-4.4,1.67-6.6C85.54,408.82,86.81,403.5,89.9,402.6Z" style="fill:#263238"></path><path d="M99.72,383.05,84.94,420.19s-24,23.21-27.43,25.16-11.78,1.26-11.6-1.66C46,441.53,62,401.21,71.68,379.05Z" style="opacity:0.1"></path><path d="M91,424.7s80,26.51,115.79,19.27c21.83-4.42,34-32.14,28.29-40.89-5.83-8.93-26.73-20.74-38-28.27-3.54-2.36-5.09-7-5.09-7H150.92s-7.94,13-3.39,20.93c.06.13,6,2,6.14,2.18l-43.82-16.12Z" style="fill:#263238"></path><path d="M103.59,424.76c2.28-7.15,12.66-36.13,15.32-42.24.19-.43.5-.42.36,0-6.31,21.61-12.81,35.37-15.4,42.28C103.81,425,103.53,425,103.59,424.76Z" style="fill:#37474f"></path><path d="M25.08,457.11c-.16,2.87,8,3.54,11.41,1.62a78.57,78.57,0,0,0,7.76-6.61c8.06-7.4,19.2-18.22,19.2-18.22l49.27,15.79,17-44.36s-20-8-39-15.21c-2.92-1.1-5.8-2.16-8.61-3.19l-.52-.2c-12.75-4.64-23.32-8.13-24.38-7.35C54.28,381.45,25.25,454.23,25.08,457.11Z" style="fill:#f7a9a0"></path><path d="M91,390.27,72.56,436.81l-9.11-2.92S52.3,444.72,44.24,452.12a78.91,78.91,0,0,1-7.75,6.61c-3.38,1.91-11.57,1.25-11.41-1.62s29.2-75.66,32.07-77.73c1.06-.78,11.61,2.71,24.37,7.36l.53.18c2.8,1,5.68,2.11,8.6,3.21Z" style="fill:#ebebeb"></path><path d="M24.65,457.63c.17-2.92,29.8-76.79,32.71-78.89,1.1-.8,12.11,2.89,25.29,7.72l-19,47.68s-24,23.2-27.43,25.17S24.48,460.56,24.65,457.63Z" style="fill:#F448FF"></path><path d="M24.65,457.63c.17-2.92,29.8-76.79,32.71-78.89,1.1-.8,12.11,2.89,25.29,7.72l-19,47.68s-24,23.2-27.43,25.17S24.48,460.56,24.65,457.63Z" style="opacity:0.5"></path><path d="M28,457.76C33.3,445.5,53.4,395.55,57.68,383c0-.1,0-.12-.08,0-5.49,12-25.18,62.15-29.78,74.68C27.73,457.94,27.92,458,28,457.76Z" style="fill:#263238"></path><path d="M40.81,455.62a10.73,10.73,0,0,0-.05-8.62,10.45,10.45,0,0,0-5.5-5.42c-.08,0-.13.11-.06.15a12.38,12.38,0,0,1,5.45,13.83A.09.09,0,0,0,40.81,455.62Z" style="fill:#263238"></path><path d="M60.52,438.45c2.06-4.93,2.62-11.38-.2-16.09-.11-.18-.37,0-.35.16a74.24,74.24,0,0,1-.09,15.77A.33.33,0,0,0,60.52,438.45Z" style="fill:#263238"></path><path d="M57.5,441.67c2-4.93,2.61-11.37-.21-16.08-.11-.18-.37,0-.35.16a73.49,73.49,0,0,1-.09,15.76A.34.34,0,0,0,57.5,441.67Z" style="fill:#263238"></path><path d="M54.47,444.9c2.06-4.93,2.61-11.38-.2-16.08-.11-.18-.37,0-.36.15a73.58,73.58,0,0,1-.08,15.77A.33.33,0,0,0,54.47,444.9Z" style="fill:#263238"></path><path d="M51.44,448.13c2.06-4.93,2.62-11.38-.2-16.08-.11-.19-.37,0-.35.15A74.23,74.23,0,0,1,50.8,448,.33.33,0,0,0,51.44,448.13Z" style="fill:#263238"></path><path d="M71.6,449.11c3.08-1.68,2.32-5.65.78-8.07a28.06,28.06,0,0,0-10.87-9.58.14.14,0,0,0-.2.09c-.4,0-.86.27-.76.73,1,4.51,1.56,9.46,3.94,13.52C65.88,448.17,68.68,450.69,71.6,449.11ZM63.5,438.8c-.55-2.2-1-4.42-1.64-6.61a84.38,84.38,0,0,1,6.22,5.74,30.17,30.17,0,0,1,2.62,3.15c1.21,1.74,3.4,8.26-2.19,6.59C65.42,446.75,64.17,441.43,63.5,438.8Z" style="fill:#263238"></path><path d="M64.62,418.41c-2.4,4-3,9-4,13.49-.11.47.36.77.76.74a.14.14,0,0,0,.2.1,28,28,0,0,0,10.9-9.55c1.55-2.41,2.33-6.38-.75-8.06C68.82,413.53,66,416,64.62,418.41Zm4-1.86c5.59-1.65,3.38,4.87,2.16,6.59a28.13,28.13,0,0,1-2.62,3.14A84.36,84.36,0,0,1,61.93,432c.65-2.18,1.1-4.4,1.67-6.6C64.28,422.77,65.55,417.45,68.64,416.55Z" style="fill:#263238"></path><path d="M184.68,367.87H119.19s-8.25,20.72-3.7,28.67,50.86,18.59,50.86,18.59L87.22,387.91l-19.14,50c66.77,24.11,111.57,18.23,126.27,13.55,12.56-4,24.11-27.56,18.22-36.19-8.15-11.93-35.87-31.81-35.87-31.81Z" style="fill:#263238"></path><path d="M144.58,372.11c0-.18-.3-.3-.39-.09-.34.86-.47,1.8-.75,2.69s-.55,1.92-.88,2.87a11.21,11.21,0,0,1-3.1,4.81,12.17,12.17,0,0,1-5.22,2.46,33.15,33.15,0,0,1-6.11.92.1.1,0,0,0,0,.2,14.68,14.68,0,0,0,3.18.25,19.2,19.2,0,0,0,3.39-.15,11.62,11.62,0,0,0,5.76-2.28,10.56,10.56,0,0,0,3.31-5.16,15.48,15.48,0,0,0,.68-3.16A15.14,15.14,0,0,0,144.58,372.11Z" style="fill:#37474f"></path><path d="M184.54,369.92c-.6.93-1.26,1.84-1.9,2.75s-1.23,1.95-1.82,2.93c-1,1.73-2,3.57-3.13,5.23a4.92,4.92,0,0,1-1.81,1.7c-.69.33-1.81.42-2.19-.42a3.3,3.3,0,0,1,.31-2.32c.4-1,.83-2,1.24-3,1-2.31,1.83-4.64,2.68-7,0-.12-.13-.17-.19-.08a60.72,60.72,0,0,0-3.8,6.95c-.78,1.67-2.27,4-1.52,6s3.29,1.75,4.71.66c1.66-1.26,2.6-3.35,3.55-5.15.69-1.33,1.41-2.66,2.09-4s1.22-2.76,1.87-4.12C184.66,369.91,184.58,369.87,184.54,369.92Z" style="fill:#37474f"></path><path d="M174.86,418.9c-2.75-1.23-5.59-2.25-8.39-3.34-1-.4-2-.77-3.06-1.15,1.71.4,3.42.89,5.16,1.14a.14.14,0,0,0,.06-.27,32.66,32.66,0,0,0-5.17-1.32c-.8-.16-1.6-.29-2.4-.42l-3-1.09c-5.68-2.06-11.38-4.06-17.08-6.09q-17.13-6.11-34.32-12l-9.6-3.28c-3.24-1.1-6.52-2.05-9.75-3.16-.1,0-.13.12,0,.15,2.88,1.07,5.71,2.28,8.59,3.34l8.41,3.11c5.67,2.1,11.36,4.14,17,6.2q17.06,6.15,34.17,12.17,4.72,1.68,9.47,3.28c3.24,1.07,6.48,2.19,9.77,3.07C174.92,419.28,175.05,419,174.86,418.9Z" style="fill:#37474f"></path><path d="M80.41,437.71c2.28-7.16,12.66-36.13,15.33-42.25.18-.42.49-.42.36.05-6.32,21.6-12.81,35.36-15.4,42.27C80.63,438,80.36,437.89,80.41,437.71Z" style="fill:#37474f"></path><path d="M176.72,383.5a285.28,285.28,0,0,1,25.45,20c3.53,3.09,7.24,6.17,9.9,10.08a16.6,16.6,0,0,1,2.6,5.84,15.82,15.82,0,0,1-.35,7.3c-1.44,5.5-6.65,13.06-10,17.65-.09.12-.29,0-.2-.12,2.89-4,7.41-10.92,8.79-15.71a18.88,18.88,0,0,0,.9-8,15,15,0,0,0-2.41-5.92c-2.51-3.82-6.14-6.87-9.52-9.89-3.85-3.44-7.76-6.81-11.79-10-4.52-3.61-9.1-7.18-13.75-10.63C176.05,383.8,176.37,383.26,176.72,383.5Z" style="fill:#37474f"></path><path d="M116,377.89c-1.09,5.77-4,16,1,20.43-6.08-3.8-3.3-15-1-20.43Z" style="fill:#37474f"></path><path d="M159.43,298.63c6.09,21.71,34.55,62.22,44.23,64.19,2.61.53,12.17.08,16.36-2.8,8.5-5.84,18-30.78,23.06-52.51,1.65-7.05-27.78-10.36-34.54-6.77-2.61,1.38-5.34,19.6-6.52,19-6-3.12-27.39-24.87-30.91-28.05C160.67,282.26,157.15,290.47,159.43,298.63Z" style="fill:#f7a9a0"></path><path d="M239.58,320.62c4.6-7.1,7.45-24.5,8-35.58.3-5.86-1.14-22.19-4.34-22.75-2.91-.51-4.05,4.4-4.05,4.4s-1.78-7.87-4.58-8.06c-4.11-.28-3.93,7-3.93,7s-1-7.34-5.06-7.67-3.86,7.54-3.86,7.54-.6-6.77-4.12-5.46c-4.23,1.57-1.85,13.88-3.21,20.23-.31,1.44-3,28.31-3,28.31Z" style="fill:#f7a9a0"></path><path d="M239.31,266.74a69.13,69.13,0,0,1-1.55,19.86c-.39,1.86-.89,3.69-1.31,5.54a.06.06,0,1,1-.11,0,94.62,94.62,0,0,0,1.37-9.92c.35-3.27.58-6.56.88-9.84.17-1.86.28-3.73.43-5.59C239,266.6,239.3,266.57,239.31,266.74Z" style="fill:#263238"></path><path d="M230.81,265.43c.14,1.55.23,3.07.22,4.63s-.11,3.23-.25,4.84a83.51,83.51,0,0,1-1.42,9.32c-.37,1.78-.88,3.51-1.36,5.25,0,.13-.2.06-.18-.06.64-3.07,1-6.22,1.44-9.34s.64-6.19.88-9.29c.13-1.78.29-3.56.43-5.34C230.58,265.31,230.8,265.28,230.81,265.43Z" style="fill:#263238"></path><path d="M221.75,265.21a68.09,68.09,0,0,1,.16,11,93.66,93.66,0,0,1-1.29,11.06c0,.08-.13.07-.12,0,.15-3.68.36-7.35.5-11s.33-7.32.63-11C221.64,265.16,221.75,265.14,221.75,265.21Z" style="fill:#263238"></path><path d="M206.81,309.7s-4.57-9.83-4.54-14.83,6.29-22.5,10-20.55c4.76,2.51,3.05,13.75,1.54,19,0,0,11,5.8,11.41,14.45S206.81,309.7,206.81,309.7Z" style="fill:#f7a9a0"></path><path d="M213.42,275.46c3.37,5.61,1,12.29-.12,17.58a.61.61,0,0,0,.49.74c4.52,2.76,10.4,8,11.62,13.78,0,.17.25.18.23,0-.59-6.24-6.06-11.88-11.13-14.57,1.2-5.39,3.32-12.27-1-17.56A0,0,0,1,0,213.42,275.46Z" style="fill:#263238"></path><path d="M157.68,298.2c9.53,29,36.3,62.65,46,64.62,2.61.53,12.17.08,16.36-2.8,8.5-5.84,15.82-17.1,20.91-38.84l-36.27-13.34-2.82,10.81c-7.92-6.79-27.21-23.79-30.73-27C160.67,282.26,155,290.15,157.68,298.2Z" style="fill:#F448FF"></path><path d="M157.68,298.2c9.53,29,36.3,62.65,46,64.62,2.61.53,12.17.08,16.36-2.8,8.5-5.84,15.82-17.1,20.91-38.84l-36.27-13.34-2.82,10.81c-7.92-6.79-27.21-23.79-30.73-27C160.67,282.26,155,290.15,157.68,298.2Z" style="fill:#fff;opacity:0.5"></path><path d="M201.84,318.65a59.15,59.15,0,0,0-2.74,19.82,29.47,29.47,0,0,1,2.74-19.82Z" style="fill:#263238"></path><path d="M218.18,361a33.23,33.23,0,0,1-14.51,1.82c-9.69-2-36.46-35.61-46-64.64-1.62-4.93-.12-9.8,3.68-10.67Z" style="fill:#F448FF;opacity:0.30000000000000004"></path><path d="M113.55,374.65c0-.09,80.71.74,80.71.74.16-.31-12.72-52.76-22.23-77.45-5.89-15.31-18.32-17.22-27.09-7.14C125.09,313.61,113.61,374.73,113.55,374.65Z" style="fill:#F448FF"></path><g style="opacity:0.5"><path d="M113.55,374.65c0-.09,80.71.74,80.71.74.16-.31-12.72-52.76-22.23-77.45-5.89-15.31-18.32-17.22-27.09-7.14C125.09,313.61,113.61,374.73,113.55,374.65Z" style="fill:#fff"></path></g><path d="M152.65,285.27c.07,1.74,5.92,14.11,13.61,15.24,2.5.36,5.09-13.23,5.09-13.23l.42-1,5.88-13.43L161.1,257.23S152.63,284.53,152.65,285.27Z" style="fill:#f7a9a0"></path><path d="M177.64,272.9l-5.87,13.42-.42,1s-.47,2.46-1.2,5.25c-10.08-3.56-13.33-12.29-14.35-18.08,2.4-7.89,5.3-17.23,5.3-17.23Z" style="fill:#263238"></path><path d="M208.27,249.65c2.48,33.68-17.41,39-24.67,39.49-6.6.47-29.1,1.26-35-32s8.93-45,23.95-46.92S205.8,216,208.27,249.65Z" style="fill:#f7a9a0"></path><path d="M203.1,248.92a22.73,22.73,0,0,1-2.29-.48,3.75,3.75,0,0,1-2.23-.92,1.2,1.2,0,0,1,0-1.47,3,3,0,0,1,2.93-.71,4.42,4.42,0,0,1,2.75,1.54A1.29,1.29,0,0,1,203.1,248.92Z" style="fill:#263238"></path><path d="M180.16,250.08a21.44,21.44,0,0,0,2.28-.48,3.76,3.76,0,0,0,2.23-.95,1.19,1.19,0,0,0,0-1.46,3,3,0,0,0-2.94-.69,4.37,4.37,0,0,0-2.74,1.56A1.27,1.27,0,0,0,180.16,250.08Z" style="fill:#263238"></path><path d="M184,274.8c.52.57,1,1.34,1.86,1.46a6,6,0,0,0,2.5-.44.08.08,0,0,1,.09.13,3.12,3.12,0,0,1-3,1.08,2.45,2.45,0,0,1-1.69-2.14C183.74,274.76,183.92,274.72,184,274.8Z" style="fill:#263238"></path><path d="M193.94,266.35s.47,3.44.47,5.06c0,.15-.39.22-.94.25,0,0,0,0-.06,0a7.69,7.69,0,0,1-7.48-2.88c-.11-.16.09-.32.24-.22a11.66,11.66,0,0,0,7,2c.12-.45-1-5.92-.75-5.88,1.08.19,3,.67,3.68.84-.26-2.24-1.3-8.56-1.76-12.63,0-.26.36-.34.42-.11a108.44,108.44,0,0,1,3,14.12C197.84,267.3,194.59,266.63,193.94,266.35Z" style="fill:#263238"></path><path d="M185.68,259.26a3.33,3.33,0,0,1-.73,1.66,2.46,2.46,0,0,1-1.8.81,2.21,2.21,0,0,1-1.77-.91,3.94,3.94,0,0,1-.67-1.66,7.83,7.83,0,0,1-.07-1.08,4.74,4.74,0,0,1,.47-2.17,7.25,7.25,0,0,0,.09,1.62,10.65,10.65,0,0,0,.33,1.43c.31,1,.87,1.74,1.63,1.69s1.39-.64,1.7-1.6a16.11,16.11,0,0,0,.59-3.06A6.93,6.93,0,0,1,185.68,259.26Z" style="fill:#263238"></path><path d="M198.41,258.46a3.37,3.37,0,0,0,.66,1.69,2.48,2.48,0,0,0,1.76.89,2.24,2.24,0,0,0,1.81-.84,3.79,3.79,0,0,0,.74-1.64,7.62,7.62,0,0,0,.12-1.07,4.93,4.93,0,0,0-.39-2.19,7.18,7.18,0,0,1-.15,1.62,10.43,10.43,0,0,1-.39,1.41c-.35.94-.94,1.7-1.7,1.62s-1.36-.69-1.64-1.66a16.53,16.53,0,0,1-.46-3.09A7,7,0,0,0,198.41,258.46Z" style="fill:#263238"></path><g style="opacity:0.2"><path d="M170.27,262.47a.54.54,0,1,1-.38-.67A.54.54,0,0,1,170.27,262.47Z"></path><path d="M181.39,265a.54.54,0,0,1-.66.38.54.54,0,0,1-.38-.67.54.54,0,0,1,.66-.38A.54.54,0,0,1,181.39,265Z"></path><path d="M176.46,267.77a.54.54,0,1,1-1-.29.53.53,0,0,1,.66-.38A.54.54,0,0,1,176.46,267.77Z"></path><path d="M171.76,258.21a.54.54,0,1,1-.38-.67A.54.54,0,0,1,171.76,258.21Z"></path><path d="M176.13,262.6a.55.55,0,0,1-.67.37.53.53,0,0,1-.38-.66.54.54,0,0,1,1,.29Z"></path><path d="M205.24,262.44a.54.54,0,1,1-.38-.67A.54.54,0,0,1,205.24,262.44Z"></path><path d="M200.32,264.29a.54.54,0,0,1-.67.38.54.54,0,0,1-.38-.66.54.54,0,0,1,.67-.38A.54.54,0,0,1,200.32,264.29Z"></path><path d="M200.41,268a.54.54,0,0,1-.66.38.54.54,0,0,1-.38-.67.54.54,0,0,1,.66-.38A.54.54,0,0,1,200.41,268Z"></path><path d="M204.65,266.62a.54.54,0,1,1-.38-.67A.54.54,0,0,1,204.65,266.62Z"></path></g><path d="M148.73,225.09s-8.45,8.07-8.54,13.35,7.43,26.1,11.89,26.05,5.45-16.27,5.45-16.27,9.56-3.71,16.94-5.83a33.26,33.26,0,0,0,1.27-11.81,24.37,24.37,0,0,1,2.7,10.78,41.81,41.81,0,0,1,8.3-1.23c1.19,0,2.42,0,3.65,0a68.71,68.71,0,0,0,.34-9,35.48,35.48,0,0,1,1.64,9.14c.75.06,1.5.11,2.22.19a100.64,100.64,0,0,0-.93-15,30,30,0,0,1,7.52,15.78c4.35.67,7.46,1.39,7.46,1.39C209,227,201,211.83,185.2,208.2c-17.74-4.06-34.14,13.15-34.14,13.15s-.75-4.72-2.31-4.33.11,5.6.11,5.6-4.46.32-4.79,1.67C144,226.11,148.73,225.09,148.73,225.09Z" style="fill:#263238"></path><path d="M156.19,258s-7.23-10.64-12.05-8.07.52,17.91,6.11,20.07a5.71,5.71,0,0,0,7.69-3Z" style="fill:#f7a9a0"></path><path d="M145.78,254.26a.08.08,0,0,0,0,.15c3.91,1.65,5.94,5.32,7.34,9.13-1.15-1.48-2.74-2.3-4.71-.93-.1.07,0,.24.11.21a3.54,3.54,0,0,1,3.85,1.28,17.27,17.27,0,0,1,1.81,3.15c.17.36.81.18.68-.23l0-.09C155,261.91,151.16,254.84,145.78,254.26Z" style="fill:#263238"></path><polygon points="170.84 289.69 166.74 298.59 153.78 281.2 149.22 287.28 162.26 308.12 167.01 299.77 172.39 305.88 173.54 293.04 170.84 289.69" style="fill:#ebebeb"></polygon><path d="M149.22,287.28c3.9,5.92,9.39,14.62,13.22,20.72h-.36l4.76-8.33.13-.24.18.21,5.35,6.13-.25.08c.4-4.27.85-8.54,1.29-12.82-.33,4.4-.66,8.79-1,13.18l-.23-.25-5.42-6.07.31,0-4.72,8.35-.18.31-.19-.3c-3.82-6.15-9.24-14.8-12.86-21Z" style="fill:#263238"></path><path d="M143.76,307.18c8,31.82,22.5,65.23,31.15,70,6.07,3.35,23.24,2,27.65-.48,13.22-7.58,21.75-26.11,28.64-45.5,2.42-6.82-28.8-17.93-32.88-11.46-2.45,3.89-8.51,19.2-9.58,18.47-4.24-2.88-30.68-40.93-34.27-44C143.84,285,140.47,294.09,143.76,307.18Z" style="fill:#f7a9a0"></path><path d="M198.05,323s-.3-13.37-.08-22.12c.13-4.89,1.08-13.24,2.81-16.79,2.59-5.3,16.81-25.83,21.87-22.49,4.57,3-9.89,19.11-9.89,19.11s13.15-17.53,18-12.87-13.91,20.66-13.91,20.66,13.92-17.71,18.15-12.12c3.19,4.22-13,19.68-13,19.68s12.06-15.13,15.54-10.93c3.84,4.64-10.19,19.84-10.19,19.84,7,12.16,5.61,20.5,3.71,26.53C230.63,333,198.05,323,198.05,323Z" style="fill:#f7a9a0"></path><path d="M207.83,286.52c1.47-2.12,2.94-4.27,4.59-6.24s3.38-3.9,5.21-5.71a44.07,44.07,0,0,1,7.79-6.38c-4.79,3.6-10.82,10.58-12.47,12.56s-3.4,3.86-5,5.83A0,0,0,1,1,207.83,286.52Z" style="fill:#263238"></path><path d="M214.85,292.62c2-2.62,3.88-5.29,6-7.83s4.32-4.72,6.58-7.09c.18-.18.22,0,.05.16-2.17,2.46-4,4.9-6.13,7.38s-4.38,4.88-6.43,7.43C214.88,292.71,214.82,292.66,214.85,292.62Z" style="fill:#263238"></path><path d="M220,298.94A72.72,72.72,0,0,1,230,287.68c.18-.18.21,0,0,.22-3.41,3.68-6.12,6.54-10,11.14C220,299.11,219.89,299,220,298.94Z" style="fill:#263238"></path><path d="M231.61,319a31.71,31.71,0,0,0-1.52-7.35,73.29,73.29,0,0,0-2.9-7c-.16-.35,1.74-2.06,2.1-2.47.69-.8,1.39-1.58,2.06-2.4a50.25,50.25,0,0,0,3.67-5.16,20,20,0,0,0,2.68-5.87c.35-1.52.12-3.91-2-3.77a7.71,7.71,0,0,0-3.18,1.37,33,33,0,0,0-3.24,2.14h0l0,0c-.06.06-.17,0-.12-.1,1.18-1.54,2.28-3.15,3.34-4.78q.79-1.23,1.53-2.49a7.2,7.2,0,0,0,1.06-2.73,2.79,2.79,0,0,0-.61-2.18,2.72,2.72,0,0,0-2.47-.61,9.74,9.74,0,0,0-4.74,2.45s-.09,0-.06-.06.2-.21.3-.32a0,0,0,0,1,0-.06,19.88,19.88,0,0,0,2.55-3.8c.72-1.31,1.59-2.92,1.19-4.45a2.69,2.69,0,0,0-3.25-2,8.31,8.31,0,0,0-2.19.83,22.89,22.89,0,0,0-2.27,1.38s0,0,0,0c.73-.66,1.52-1.25,2.3-1.84a6.26,6.26,0,0,1,2.3-1.13,3.1,3.1,0,0,1,3.78,1.88,5.72,5.72,0,0,1-.78,4.66,20.5,20.5,0,0,1-2.65,3.6A8.36,8.36,0,0,1,232,275a3,3,0,0,1,3.78,2.39c.36,2.09-1.07,4.11-2.15,5.76a33.81,33.81,0,0,1-3.37,4.32,13.16,13.16,0,0,1,4.68-3.1,2.81,2.81,0,0,1,3.82,2.43c.32,2.1-.58,4.32-1.53,6.14a40.84,40.84,0,0,1-4,6.13c-.82,1.08-1.7,2.11-2.61,3.12a32.48,32.48,0,0,1-2.61,2.5c2.67,3.56,3.84,7.91,4.49,12.25a35.77,35.77,0,0,1-.69,13.9,16.23,16.23,0,0,1-2.07,4.86c-.36.48-.33.49-.37,0A40,40,0,0,0,231.61,319Z" style="fill:#263238"></path><path d="M217.78,274.4a19.22,19.22,0,0,0,2.53-3.7,30.35,30.35,0,0,0,2-3.93c.47-1.14,1.19-2.57.83-3.83-.59-2.06-3-1.55-4.36-.64,0,0,0,0,0,0a3.63,3.63,0,0,1,3.88-.63c1.4.75,1.33,2.43.94,3.76a21.33,21.33,0,0,1-2.18,4.79,18.18,18.18,0,0,1-1.56,2.23c-.61.74-1.34,1.36-2,2.08A.08.08,0,1,1,217.78,274.4Z" style="fill:#263238"></path><path d="M143.76,307.18c8,31.82,22.5,65.23,31.15,70,6.07,3.35,25.2,2.95,29.61.43,13.23-7.58,21.45-21,28.33-40.36l-36.09-14.59c-2.44,3.88-6.95,16.28-8,15.55-4.24-2.88-30.68-40.93-34.27-44C143.84,285,140.47,294.09,143.76,307.18Z" style="fill:#F448FF"></path><path d="M143.76,307.18c8,31.82,22.5,65.23,31.15,70,6.07,3.35,25.2,2.95,29.61.43,13.23-7.58,21.45-21,28.33-40.36l-36.09-14.59c-2.44,3.88-6.95,16.28-8,15.55-4.24-2.88-30.68-40.93-34.27-44C143.84,285,140.47,294.09,143.76,307.18Z" style="fill:#fff;opacity:0.5"></path><path d="M187.77,340.45c.78-1.89,1.62-3.76,2.46-5.63s4.91-9.92,6.4-12.12c0-.07.16,0,.12.05-.87,1.93-4.92,10.58-5.79,12.47s-1.75,3.8-2.65,5.69-1.76,3.74-2.76,5.54c0,.08-.15,0-.12-.07C186.11,344.37,187,342.41,187.77,340.45Z" style="fill:#263238"></path><path d="M196.11,332.86c4.88,1.77,24.6,9.73,28.75,11.73.29.14.27.36,0,.25-14.75-4.95-24.07-9.81-28.77-11.79C195.93,333,196,332.81,196.11,332.86Z" style="fill:#263238"></path><path d="M229.46,335.88l3.41,1.34h0a99.57,99.57,0,0,1-7.27,17.28c-5.21,9.49-12,18.95-21.94,23.93-4.44,1.69-9.24,2.05-13.95,2.15s-9.59-.31-13.91-2.37c-4.11-2.29-6.45-7.11-8.89-10.94a218.68,218.68,0,0,1-15.41-34.11c-2.1-5.88-4-11.83-5.6-17.85,1.75,6,3.77,11.89,6,17.71a236.17,236.17,0,0,0,15.7,33.85,59.47,59.47,0,0,0,5.2,7.68,10.25,10.25,0,0,0,3.4,2.9c4.17,2,8.95,2.23,13.52,2.29s9.33-.41,13.65-2c9.73-4.92,16.55-14.12,21.83-23.44a111.19,111.19,0,0,0,7.62-17l-3.38-1.41Z" style="fill:#263238"></path><path d="M146,319.73c.82,1.5,2,3.52,2.81,5a9.59,9.59,0,0,1-2.81-5Z" style="fill:#263238"></path><path d="M166.13,309.21c7.78,9.22,15,19.67,22.61,29-4.48-4.21-8.12-9.21-11.91-14s-7.32-9.85-10.7-15Z" style="fill:#263238"></path><path d="M168.81,310.6a13.35,13.35,0,0,1,2.24,5.55,13.54,13.54,0,0,1-2.24-5.55Z" style="fill:#263238"></path><path d="M198.18,321.66a1.33,1.33,0,0,1-1-.33,1.31,1.31,0,0,1-.43-.91,1.33,1.33,0,0,1,.33-.95,1.54,1.54,0,0,1,.19-.17,1.64,1.64,0,0,1,.22-.14l.24-.08a1.3,1.3,0,0,1,1.2.29,1.32,1.32,0,0,1,.44.9,1.28,1.28,0,0,1-.33,1,1.24,1.24,0,0,1-.41.31A1.37,1.37,0,0,1,198.18,321.66Z" style="fill:#263238"></path><path d="M219.46,372.6a1.17,1.17,0,0,1-.1-.41h0a1.35,1.35,0,0,1,.83-1.3h0a1.32,1.32,0,0,1,1.71.74h0a1.6,1.6,0,0,1,.1.42h0a1.32,1.32,0,0,1-.84,1.29h0a1.16,1.16,0,0,1-.41.09h0A1.3,1.3,0,0,1,219.46,372.6Zm-3.5-.14h0a1.32,1.32,0,0,1-.64-1.06h0a1.4,1.4,0,0,1,.2-.74h0a1.33,1.33,0,0,1,1.81-.45h0a1.3,1.3,0,0,1,.62,1.07h0a1.2,1.2,0,0,1-.19.73h0a1.28,1.28,0,0,1-1,.63h0A1.28,1.28,0,0,1,216,372.46Zm6.79-2.39a1.34,1.34,0,0,1-.82-1.17h0a1.31,1.31,0,0,1,.09-.54h0a1.32,1.32,0,0,1,1.71-.74h0a1.35,1.35,0,0,1,.83,1.17h0a1.49,1.49,0,0,1-.09.54h0a1.35,1.35,0,0,1-1.15.83h0A1.42,1.42,0,0,1,222.75,370.07Zm-10.28-.73a1.33,1.33,0,0,1-.31-.77h0a1.32,1.32,0,0,1,.47-1.08h0a1.31,1.31,0,0,1,1.85.16h0a1.33,1.33,0,0,1,.31.77h0a1.31,1.31,0,0,1-.47,1.09h0a1.24,1.24,0,0,1-.77.3h0A1.3,1.3,0,0,1,212.47,369.34ZM224.14,366a1.29,1.29,0,0,1-1.06-1.21h0a1.25,1.25,0,0,1,0-.33h0a1.31,1.31,0,0,1,1.54-1h0a1.32,1.32,0,0,1,1.06,1.21h0a1.22,1.22,0,0,1,0,.33h0a1.32,1.32,0,0,1-1.22,1.06h0Zm-14.27-.3a1.16,1.16,0,0,1-.2-.61h0a1.32,1.32,0,0,1,.61-1.2h0a1.33,1.33,0,0,1,1.82.43h0a1.25,1.25,0,0,1,.19.62h0a1.31,1.31,0,0,1-.61,1.19h0a1.32,1.32,0,0,1-.63.19h0A1.28,1.28,0,0,1,209.87,365.7Zm15-3.92a1.32,1.32,0,0,1-1.17-1.22h0a1.93,1.93,0,0,1,0-.24h0a1.3,1.3,0,0,1,1.44-1.16h0a1.32,1.32,0,0,1,1.18,1.22h0a1.62,1.62,0,0,1,0,.22h0a1.31,1.31,0,0,1-1.23,1.17h0A.81.81,0,0,1,224.88,361.78Zm-17.17.09a1.27,1.27,0,0,1-.14-.54h0a1.32,1.32,0,0,1,.72-1.23h0a1.33,1.33,0,0,1,1.77.57h0a1.52,1.52,0,0,1,.13.54h0a1.32,1.32,0,0,1-.71,1.24h0a1.37,1.37,0,0,1-.52.13h0A1.32,1.32,0,0,1,207.71,361.87Zm-1.86-3.95a1.14,1.14,0,0,1-.11-.44h0a1.33,1.33,0,0,1,.78-1.29h0a1.33,1.33,0,0,1,1.74.67h0a1.53,1.53,0,0,1,.1.45h0a1.3,1.3,0,0,1-.78,1.28h0a1.21,1.21,0,0,1-.46.12h0A1.31,1.31,0,0,1,205.85,357.92Zm19.45-.41a1.35,1.35,0,0,1-1.24-1.22h0v-.17h0a1.33,1.33,0,0,1,1.4-1.24h0a1.31,1.31,0,0,1,1.23,1.22h0a1,1,0,0,1,0,.17h0a1.28,1.28,0,0,1-1.23,1.23h-.15Zm-21.12-3.6a1.56,1.56,0,0,1-.08-.42h0a1.31,1.31,0,0,1,.84-1.28h0a1.31,1.31,0,0,1,1.7.74h0a1.25,1.25,0,0,1,.08.42h0a1.29,1.29,0,0,1-.83,1.28h0a1.18,1.18,0,0,1-.4.1h0A1.34,1.34,0,0,1,204.18,353.91Zm21.34-.69a1.32,1.32,0,0,1-1.29-1.24h0v-.1h0a1.33,1.33,0,0,1,1.34-1.3h0a1.33,1.33,0,0,1,1.29,1.25h0a.14.14,0,0,1,0,.09h0a1.3,1.3,0,0,1-1.23,1.29h-.1Zm-22.83-3.38a1.15,1.15,0,0,1-.07-.35h0a1.3,1.3,0,0,1,.87-1.32h0a1.31,1.31,0,0,1,1.68.8h0a1.63,1.63,0,0,1,.07.36h0a1.31,1.31,0,0,1-.88,1.32h0a1.45,1.45,0,0,1-.36.08h0A1.31,1.31,0,0,1,202.69,349.84Zm-1.37-4.1a1.36,1.36,0,0,1-.06-.33h0a1.31,1.31,0,0,1,.92-1.32h0a1.31,1.31,0,0,1,1.65.85h0a2.1,2.1,0,0,1,.06.33h0a1.31,1.31,0,0,1-.92,1.32h0a1,1,0,0,1-.32.06h0A1.32,1.32,0,0,1,201.32,345.74Zm-1.25-4.15a1.55,1.55,0,0,1,0-.29h0A1.31,1.31,0,0,1,201,340h0a1.3,1.3,0,0,1,1.62.9h0a1.59,1.59,0,0,1,.06.3h0a1.32,1.32,0,0,1-1,1.32h0a.69.69,0,0,1-.28.05h0A1.32,1.32,0,0,1,200.07,341.59ZM199,337.42h0a1.26,1.26,0,0,1,0-.27h0a1.3,1.3,0,0,1,1-1.33h0a1.3,1.3,0,0,1,1.59.95h0a.75.75,0,0,1,0,.26h0a1.3,1.3,0,0,1-1,1.33h0a1.19,1.19,0,0,1-.26.05h0A1.32,1.32,0,0,1,199,337.42Zm-1-4.22,0-.2h0a1.31,1.31,0,0,1,1-1.36h0a1.31,1.31,0,0,1,1.57,1h0a1.23,1.23,0,0,1,0,.19h0a1.3,1.3,0,0,1-1,1.37h0a.76.76,0,0,1-.21,0h0A1.31,1.31,0,0,1,197.94,333.2Zm-.86-4.26h0a.5.5,0,0,1,0-.17h0a1.31,1.31,0,0,1,1.08-1.36h0a1.31,1.31,0,0,1,1.52,1.06h0a.5.5,0,0,1,0,.17h0A1.32,1.32,0,0,1,198.6,330h-.16A1.3,1.3,0,0,1,197.08,328.94Zm-.64-4.34h0a1.3,1.3,0,0,1,1.17-1.44h0a1.31,1.31,0,0,1,1.44,1.17h0a1.31,1.31,0,0,1-1.17,1.44h-.06A1.31,1.31,0,0,1,196.44,324.6Z" style="fill:#263238"></path><path d="M225.62,349a1.32,1.32,0,0,1-1-.34,1.28,1.28,0,0,1-.42-.9,1.13,1.13,0,0,1,0-.26,1,1,0,0,1,.06-.25,1,1,0,0,1,.11-.23,1.59,1.59,0,0,1,.15-.21,1.62,1.62,0,0,1,.19-.18.94.94,0,0,1,.22-.12,1.22,1.22,0,0,1,.24-.1,1.32,1.32,0,0,1,1.21.29,1.63,1.63,0,0,1,.17.2.83.83,0,0,1,.14.22.85.85,0,0,1,.09.24,1.87,1.87,0,0,1,0,.25,1.32,1.32,0,0,1-.33,1A1.3,1.3,0,0,1,225.62,349Z" style="fill:#263238"></path><rect x="221.5" y="371.22" width="1.64" height="15.22" transform="translate(-103.49 84.23) rotate(-17.47)" style="fill:#263238"></rect><rect x="220.54" y="371.15" width="1.64" height="9.27" transform="translate(-70.62 699.77) rotate(-107.47)" style="fill:#263238"></rect></g></svg>
