<svg xmlns="http://www.w3.org/2000/svg" viewBox="0 0 500 500"><g id="freepik--background-complete--inject-15"><g style="opacity:0.4"><path d="M270.23,461.56c3.53-1.57,7-3.27,10.6-5,7.09-3.4,14.31-6.79,21.84-9.7A177,177,0,0,1,326,439.51c2-.48,4-.9,6.08-1.32s4.22-.75,5.91-1.1c3.61-.73,7.13-1.62,10.55-2.64a98.93,98.93,0,0,0,9.9-3.54,79.75,79.75,0,0,0,9.1-4.41,76.88,76.88,0,0,0,15.52-11.34c9.19-8.56,15.7-19.81,19.81-32.3,1-3.11,1.89-6.3,2.6-9.5.35-1.61.66-3.21.93-4.79l.46-2.86c.18-1.07.32-2.13.55-3.2a137.13,137.13,0,0,1,7.25-25.27,175.7,175.7,0,0,1,11.41-22.76c4-7,7.82-13.21,10.82-19.48,1.52-3.13,2.84-6.29,4-9.51q.88-2.4,1.66-4.88l.74-2.48c.21-.69.41-1.39.58-2.08a34.09,34.09,0,0,0,1-8.21,24.81,24.81,0,0,0-1.21-7.62,18.34,18.34,0,0,0-9.62-11.1,21.93,21.93,0,0,0-8.21-2.08,32.69,32.69,0,0,0-9.45.93c-6.48,1.56-12.91,5-18.67,9.45A65.45,65.45,0,0,0,383,273.51a100.34,100.34,0,0,0-10,20.18c-2.67,7.15-4.77,14.6-6.94,22.23s-4.44,15.52-8.5,23.44a50,50,0,0,1-7.9,11.5c-.83.89-1.7,1.75-2.62,2.59s-1.91,1.62-2.86,2.34c-1.9,1.44-3.8,2.68-5.69,3.84a163.29,163.29,0,0,1-22.44,11.06c-3.72,1.54-7.42,3-11.12,4.39s-7.37,2.75-11,4c-14.65,5.17-29.13,9.77-42.71,15a145.7,145.7,0,0,0-19.08,8.72,51.87,51.87,0,0,0-7.87,5.34,28.7,28.7,0,0,0-3.18,3c-.49.52-.91,1.06-1.36,1.6l-.62.83c-.21.3-.45.7-.67,1.05-3.58,5.75-6.06,12.08-6.42,18.65a26.54,26.54,0,0,0,3.37,14.44,30.17,30.17,0,0,0,3,4.27c4.54,5.46,11.27,9.3,18.5,11.37A58.69,58.69,0,0,0,259.53,465,42,42,0,0,0,270.23,461.56ZM236,467.2a50.66,50.66,0,0,1-22.49-10.12,38.63,38.63,0,0,1-4.66-4.57,36.37,36.37,0,0,1-3.91-5.39,39.3,39.3,0,0,1-4.82-12.7,47.8,47.8,0,0,1-.61-13.66,62.41,62.41,0,0,1,2.78-13.22c.18-.54.33-1,.54-1.62l.7-1.78a33.61,33.61,0,0,1,1.64-3.42,46.53,46.53,0,0,1,4-6.22,52.89,52.89,0,0,1,4.64-5.39c1.63-1.69,3.31-3.23,5-4.72a110.34,110.34,0,0,1,21.78-14c15-7.46,30.33-12.32,45.45-16.5,3.78-1.05,7.56-2,11.31-3l11.16-2.82c3.69-1,7.34-1.86,10.88-2.88s7-2,10.22-3.24c1.6-.6,3.12-1.23,4.5-1.9.69-.34,1.32-.67,1.94-1s1.26-.75,1.87-1.16a33.42,33.42,0,0,0,6.93-6.55c4.25-5.33,7.69-12.12,10.73-19.17,6.15-14.15,11-29.57,19.52-43.64a106.82,106.82,0,0,1,7-10.21,93.18,93.18,0,0,1,8.39-9.3,74.59,74.59,0,0,1,21.14-14.72A48.05,48.05,0,0,1,425,230.5a39.88,39.88,0,0,1,14.89.8,37.07,37.07,0,0,1,14.13,6.92,39.74,39.74,0,0,1,10.31,12.19,45.32,45.32,0,0,1,5,14.85,53.27,53.27,0,0,1,.16,15.12c-.15,1.23-.35,2.45-.57,3.66l-.65,3.21c-.48,2.13-1,4.25-1.57,6.37A123.93,123.93,0,0,1,462.55,306c-3.15,8.09-6.95,15.51-10.25,22.34a157,157,0,0,0-8.26,19.7A122.71,122.71,0,0,0,439.29,368l-.81,5.51c-.33,2.28-.73,4.51-1.22,6.73a109.21,109.21,0,0,1-3.66,13,102.07,102.07,0,0,1-12.32,24.45A89.87,89.87,0,0,1,402.16,438a81,81,0,0,1-24.44,12.76,92.87,92.87,0,0,1-26.08,4.32,117.2,117.2,0,0,1-12.75-.38c-2.21-.17-3.89-.37-5.79-.55s-3.72-.28-5.59-.35A114.77,114.77,0,0,0,304.89,455c-3.76.62-7.53,1.36-11.26,2.33s-7.42,2.11-11.1,3.38-7.31,2.66-11,4c-1.85.67-3.71,1.36-5.64,1.94a31.4,31.4,0,0,1-6,1.34A81.6,81.6,0,0,1,236,467.2Z" style="fill:#ebebeb"></path><path d="M69.52,139.56l1-6.79c.34-2.26.66-4.54,1-6.8s.76-4.53,1.13-6.8.8-4.54,1.2-6.82a224.45,224.45,0,0,1,6.63-27.27,127.28,127.28,0,0,1,5.14-13.52,88.55,88.55,0,0,1,7.31-13.11c1.37-2.16,3.09-4.16,4.7-6.23.87-1,1.81-2,2.73-2.94.47-.48.92-1,1.4-1.45l1.53-1.36a55.42,55.42,0,0,1,14-9.36c1.32-.6,2.65-1.19,4-1.75s2.77-.9,4.17-1.34c.7-.21,1.4-.45,2.11-.63l2.14-.46c1.43-.28,2.88-.62,4.32-.84l4.34-.43c.73-.06,1.46-.16,2.18-.18l2.16,0,4.33,0c1.41.09,2.82.23,4.23.36a72.78,72.78,0,0,1,8.32,1.23l2.06.39,2,.51,4,1c1.35.33,2.59.75,3.84,1.15s2.5.78,3.76,1.23c2.54.93,5.06,1.81,7.61,3A81.82,81.82,0,0,1,198,48.72,71.11,71.11,0,0,1,211.45,61a91.12,91.12,0,0,1,9.65,14c2.61,4.67,4.83,9.19,6.8,13.59,4,8.82,7.5,17.16,11.17,25.42a439.22,439.22,0,0,0,24.72,47.85l1.73,2.91,1.79,2.89c1.21,1.92,2.38,3.86,3.61,5.77l7.61,11.75c1.33,2,2.57,4.15,3.85,6.22s2.44,4.23,3.66,6.34,2.34,4.29,3.49,6.45,2.19,4.37,3.25,6.58q3.15,6.63,5.83,13.49l1.3,3.43,1.21,3.48c.83,2.3,1.51,4.67,2.25,7,1.37,4.72,2.63,9.47,3.53,14.31A125.82,125.82,0,0,1,309,267.06a99.19,99.19,0,0,1-1.63,29.33c-.49,2.41-1.16,4.77-1.83,7.12L304.31,307c-.38,1.16-.91,2.27-1.35,3.41a75.23,75.23,0,0,1-6.9,12.85,78.78,78.78,0,0,1-9.29,11.13c-.88.83-1.71,1.68-2.63,2.5l-2.91,2.39a40.18,40.18,0,0,1-6.52,4.08A35.27,35.27,0,0,1,259.33,347,49.19,49.19,0,0,1,244,344.36a96.35,96.35,0,0,1-13.85-5.8c-2.22-1.1-4.37-2.24-6.52-3.4l-6.32-3.58c-8.34-4.82-16.42-9.77-24.51-14.13-4-2.17-8.07-4.19-12.06-5.95a71.64,71.64,0,0,0-11.75-4.14,68.87,68.87,0,0,0-11.73-1.71,123.37,123.37,0,0,0-12.51-.19l-3.22.13-3.26.19c-2.19.15-4.39.27-6.62.45l-13.66,1.11a203.82,203.82,0,0,1-29.44.54,98.18,98.18,0,0,1-15.9-2.38,69.76,69.76,0,0,1-16-5.94,60.21,60.21,0,0,1-14.11-10.2c-1.06-1.1-2.11-2.22-3.14-3.34s-1.92-2.46-2.83-3.71-1.65-2.69-2.41-4.06-1.35-2.85-1.87-4.31a38.72,38.72,0,0,1-2-17.28,61.91,61.91,0,0,1,3.65-14.87,123.29,123.29,0,0,1,5.79-13c2.07-4.17,4.28-8.19,6.41-12.22,4.32-8,8.57-16,12.09-24.22a101.46,101.46,0,0,0,7.6-25.67ZM62,193.81c-2.85,8.68-6.06,17.22-8.86,25.82-1.44,4.28-2.73,8.6-3.9,12.89a115.67,115.67,0,0,0-2.59,12.8,47.48,47.48,0,0,0-.26,12,22.61,22.61,0,0,0,3.27,9.57,22.85,22.85,0,0,0,6.75,6.63,43.65,43.65,0,0,0,9.69,4.89c6.8,2.42,14.48,3.33,22.8,3.51,16.68.37,35.29-2.21,55.51-.89,10.14.73,20.67,2.43,31.09,6.82a92.73,92.73,0,0,1,13.93,7.58c4.28,2.76,8.28,5.69,12.15,8.66,7.68,5.95,14.89,12,22.28,17.59,3.69,2.79,7.44,5.42,11.26,7.8a76.55,76.55,0,0,0,11.79,6A35.3,35.3,0,0,0,259,338.09a23.74,23.74,0,0,0,11.35-2.65,31.11,31.11,0,0,0,5-3.22l2.29-2c.75-.71,1.47-1.52,2.21-2.27a57.63,57.63,0,0,0,7.57-10.08,56.85,56.85,0,0,0,7.39-23.75,66.52,66.52,0,0,0,0-12.62,90.51,90.51,0,0,0-2.05-12.61,133.9,133.9,0,0,0-8.6-24.48c-.95-2-1.82-4-2.86-5.92l-1.49-2.93-1.58-2.9c-2.06-3.89-4.36-7.68-6.63-11.47-1.17-1.89-2.37-3.75-3.56-5.62L264.35,210c-2.53-3.67-5.09-7.32-7.73-10.93l-8.35-11.31c-1.43-1.94-2.79-3.92-4.19-5.88l-2.08-3-2-3A409.24,409.24,0,0,1,210.7,126c-2.1-4.29-4.21-8.58-6.15-12.82s-3.88-8.45-5.79-12.46C195,92.64,191.23,85.46,187,80.24a42.14,42.14,0,0,0-7.12-6.94,54.58,54.58,0,0,0-9.31-5.63c-1.69-.89-3.59-1.65-5.42-2.47-.94-.4-1.93-.76-2.89-1.14s-1.95-.77-2.87-1a78,78,0,0,0-11.1-3.08l-2.73-.54-2.67-.29L141.53,59c-.45-.06-.87,0-1.31-.05l-2.63-.09c-.87,0-1.71.09-2.57.11l-1.3.06c-.43,0-.84.12-1.26.18l-2.54.38c-.81.23-1.64.42-2.48.61a38.5,38.5,0,0,0-9.76,4.1l-1.21.68c-.39.25-.77.53-1.15.79L113,67.33c-1.47,1.24-3.07,2.36-4.48,3.78a75.94,75.94,0,0,0-8.29,9A108.41,108.41,0,0,0,93,90.78a146.65,146.65,0,0,0-11.39,23.9c-1.56,4.19-3,8.43-4.3,12.75-.65,2.15-1.31,4.31-1.87,6.49l-.87,3.27-.79,3.29c-2.1,8.79-3.73,17.71-5,26.68A160.69,160.69,0,0,1,62,193.81Z" style="fill:#ebebeb"></path><path d="M406,208.2a64,64,0,0,0,1.6-8.81c.19-1.42.29-2.79.41-4.18s.16-2.74.18-4.08c.11-2.7,0-5.32-.05-7.94-.41-10.41-2-20.36-3.52-30.17l-.53-3.48-.22-1.54-.12-1.57c-.11-1.06-.07-2.16-.1-3.24s.09-2.21.18-3.34.2-2.25.38-3.4.35-2.28.58-3.44c.46-2.29,1-4.63,1.61-6.94,2.46-9.34,6.11-18.57,8.47-28.87a52.69,52.69,0,0,0,1.26-16.63,38.62,38.62,0,0,0-1.94-8.82,40,40,0,0,0-1.75-4.23c-.34-.69-.67-1.4-1-2.06l-1.15-2a52.13,52.13,0,0,0-5.37-7.21c-1-1.15-2.19-2.23-3.31-3.34s-2.41-2-3.65-3-2.54-1.73-3.86-2.58c-.65-.43-1.32-.77-2-1.12l-2-1.07-1-.52-1-.43-2.07-.86a38.74,38.74,0,0,0-4.18-1.51,68.26,68.26,0,0,0-16.93-3,82.76,82.76,0,0,0-16.62.91A81.33,81.33,0,0,0,332.36,44c-1.26.5-2.52,1-3.77,1.55s-2.46,1.17-3.68,1.76-2.42,1.22-3.59,1.9-2.36,1.31-3.51,2.06a103.5,103.5,0,0,0-24.07,21A82.86,82.86,0,0,0,284.87,85a52.47,52.47,0,0,0-5.47,14.24,34.19,34.19,0,0,0,.36,15.48,58.23,58.23,0,0,0,6.16,14.5,154,154,0,0,0,18.86,25.22c3.49,3.87,7.12,7.5,10.84,11a8.78,8.78,0,0,1,1,1.08l.78.9c.47.7,1,1.23,1.45,2l.7,1c.22.36.42.73.66,1.07.47.66.85,1.5,1.3,2.2a92.5,92.5,0,0,1,5,10.65l2.51,6.37,1.33,3.41,1.48,3.56c1,2.41,2.19,4.95,3.46,7.53a74.57,74.57,0,0,0,4.77,8,50.15,50.15,0,0,0,6.82,8,42.21,42.21,0,0,0,9.25,6.66l1.28.69,1.31.59c.88.38,1.76.78,2.66,1.12a43.38,43.38,0,0,0,5.36,1.57l2.67.56,2.6.34a47.21,47.21,0,0,0,5.09.33c.45,0,.79,0,1.3,0,.69,0,1.36,0,2-.08a24.38,24.38,0,0,0,4.18-.61l1-.25,1.07-.34c.7-.23,1.39-.49,2.09-.75a29.72,29.72,0,0,0,3.87-2.06c.59-.4,1.16-.81,1.72-1.23.29-.21.58-.43.83-.64l.74-.67c.48-.44,1-.9,1.42-1.36s.81-.91,1.21-1.38.77-.94,1.12-1.41l.94-1.36c.29-.46.62-.94.87-1.38l.73-1.33A45.08,45.08,0,0,0,406,208.2Z" style="fill:#ebebeb"></path><path d="M149.26,350.05a48.65,48.65,0,0,0-9.77-.69c-6.26.09-12,1.5-17.57,3.05a112.12,112.12,0,0,0-16.27,5.85,72.08,72.08,0,0,0-14.82,9.06,68,68,0,0,0-12.56,13A42.69,42.69,0,0,0,71,398.64a41.37,41.37,0,0,0-.22,10.55A33.83,33.83,0,0,0,73.41,419a34.31,34.31,0,0,0,4.78,7.71,68.44,68.44,0,0,0,5.6,6,22.92,22.92,0,0,0,3.43,2.6,26.19,26.19,0,0,0,3.94,1.84,43.62,43.62,0,0,0,8.68,2,74.22,74.22,0,0,0,18.49.21A41.86,41.86,0,0,0,135,433.69a42.29,42.29,0,0,0,12.31-11.48c3.34-4.58,5.73-10,7.91-15.23s4.12-10.52,6.44-15.44,4.9-9.67,6.77-15.66a27.74,27.74,0,0,0,1.06-4.91,19.86,19.86,0,0,0-.09-5.84,15.29,15.29,0,0,0-3.42-7c-.44-.48-.92-1-1.39-1.42s-1-.83-1.47-1.23a24.44,24.44,0,0,0-2.95-1.86,30,30,0,0,0-2.91-1.35c-.9-.34-1.89-.72-2.76-1l-1.37-.39-1.32-.33C151,350.35,150.13,350.21,149.26,350.05Z" style="fill:#ebebeb"></path></g><path d="M118.11,99.57c15.73-4.51,37,9.81,41,21.06a44.08,44.08,0,0,1-1.2,33.38c-3.71,8.39-17.17,18.61-28.74,19s-18.39-3.72-25.8-8-14.57-17.15-14.51-24.86,1.41-13.93,3.8-19S106,103,118.11,99.57Z" style="fill:#ebebeb"></path><path d="M123.91,101.69c11.91-3.41,28,7.42,31,15.94a33.41,33.41,0,0,1-.91,25.26c-2.8,6.34-13,14.07-21.75,14.33s-13.91-2.81-19.52-6.08-11-13-11-18.81A33.72,33.72,0,0,1,104.63,118C106.43,114.19,114.78,104.31,123.91,101.69Z" style="fill:#fff;opacity:0.30000000000000004"></path><path d="M104.69,149.44a10,10,0,0,0,2.63,5.64,11.92,11.92,0,0,0,5.46,3.37,8.79,8.79,0,0,0,6.49-.56,9.06,9.06,0,0,0,4.23-4.59,13.15,13.15,0,0,1-4.83,3.21A7.7,7.7,0,0,1,116,157a8.48,8.48,0,0,1-2.68-.38c-.44-.13-.9-.28-1.33-.44s-.87-.37-1.27-.6a13,13,0,0,1-2.36-1.55A15.18,15.18,0,0,1,104.69,149.44Z" style="fill:#dbdbdb"></path><path d="M120.79,149.25a6.32,6.32,0,0,0-1.63-4,7.93,7.93,0,0,0-3.79-2.42,6,6,0,0,0-4.61.46,5.87,5.87,0,0,0-2.78,3.34,9.91,9.91,0,0,1,3.39-2,6.08,6.08,0,0,1,3.46,0A10.48,10.48,0,0,1,120.79,149.25Z" style="fill:#dbdbdb"></path><path d="M122.9,135.66a5.33,5.33,0,0,0,.53,3.65,6.46,6.46,0,0,0,2.73,2.7,5.09,5.09,0,0,0,3.93.36,5.18,5.18,0,0,0,2.89-2.3,9.49,9.49,0,0,1-3.18,1,4.9,4.9,0,0,1-2.85-.58,7.88,7.88,0,0,1-2.42-1.92A9.85,9.85,0,0,1,122.9,135.66Z" style="fill:#dbdbdb"></path><path d="M131.53,138.62a3.33,3.33,0,0,0-.18-2.6,4.31,4.31,0,0,0-1.91-2,3.55,3.55,0,0,0-2.85-.22,3.34,3.34,0,0,0-1.92,1.78,7.42,7.42,0,0,1,2.21-.48,3.57,3.57,0,0,1,1.78.42A6.51,6.51,0,0,1,131.53,138.62Z" style="fill:#dbdbdb"></path><path d="M146.36,147.06a5.24,5.24,0,0,0,2.16,3,6.46,6.46,0,0,0,3.68,1.12,5.09,5.09,0,0,0,3.64-1.5,5.2,5.2,0,0,0,1.49-3.39,9.31,9.31,0,0,1-2.34,2.38,5,5,0,0,1-2.8.82,7.78,7.78,0,0,1-3-.58A9.41,9.41,0,0,1,146.36,147.06Z" style="fill:#dbdbdb"></path><path d="M155.38,145.67a3.43,3.43,0,0,0-1.37-2.21,4.36,4.36,0,0,0-2.61-.85,3.54,3.54,0,0,0-2.62,1.13,3.32,3.32,0,0,0-.87,2.47,7.42,7.42,0,0,1,1.73-1.46,3.5,3.5,0,0,1,1.76-.45A6.61,6.61,0,0,1,155.38,145.67Z" style="fill:#dbdbdb"></path><path d="M134.43,108.83a3.48,3.48,0,0,0-.66,2.63,3.78,3.78,0,0,0,1.54,2.51,3.41,3.41,0,0,0,3,.47,4,4,0,0,0,2.19-1.56,12.62,12.62,0,0,1-2.39.25,3,3,0,0,1-1.78-.54A3.92,3.92,0,0,1,135,111.1,7.36,7.36,0,0,1,134.43,108.83Z" style="fill:#dbdbdb"></path><path d="M139.79,111.71a2.2,2.2,0,0,0,.66-1.85,2.61,2.61,0,0,0-1.1-1.86,2.42,2.42,0,0,0-2.2-.32,2.52,2.52,0,0,0-1.46,1.27,12,12,0,0,1,1.66,0,2.08,2.08,0,0,1,1,.37,3.12,3.12,0,0,1,.8.85A5.71,5.71,0,0,1,139.79,111.71Z" style="fill:#dbdbdb"></path><path d="M97.46,129.89a3.46,3.46,0,0,0,1.26,2.41,3.8,3.8,0,0,0,2.81.85,3.41,3.41,0,0,0,2.53-1.61,4.07,4.07,0,0,0,.6-2.63,13.09,13.09,0,0,1-1.62,1.78,3.06,3.06,0,0,1-1.69.78,4.06,4.06,0,0,1-1.92-.28A7.43,7.43,0,0,1,97.46,129.89Z" style="fill:#dbdbdb"></path><path d="M103.38,128.49a2.21,2.21,0,0,0-.74-1.82,2.65,2.65,0,0,0-2.06-.67,2.39,2.39,0,0,0-1.85,1.23,2.55,2.55,0,0,0-.25,1.92,11.29,11.29,0,0,1,1.27-1.07,2.11,2.11,0,0,1,1-.4,3,3,0,0,1,1.17.1A5.78,5.78,0,0,1,103.38,128.49Z" style="fill:#dbdbdb"></path><path d="M141.19,158.61a3.45,3.45,0,0,0,1.25,2.41,3.78,3.78,0,0,0,2.82.85,3.37,3.37,0,0,0,2.52-1.61,4,4,0,0,0,.61-2.62,13,13,0,0,1-1.63,1.77,2.94,2.94,0,0,1-1.68.78,3.92,3.92,0,0,1-1.92-.28A6.91,6.91,0,0,1,141.19,158.61Z" style="fill:#dbdbdb"></path><path d="M147.11,157.21a2.22,2.22,0,0,0-.74-1.82,2.62,2.62,0,0,0-2.06-.66,2.4,2.4,0,0,0-1.85,1.22,2.53,2.53,0,0,0-.25,1.93,12.72,12.72,0,0,1,1.27-1.08,2.07,2.07,0,0,1,1-.4,3.22,3.22,0,0,1,1.17.11A5.71,5.71,0,0,1,147.11,157.21Z" style="fill:#dbdbdb"></path></g><g id="freepik--Spaceship--inject-15"><path d="M289.05,93.09a3.76,3.76,0,0,1,3.87,2,4.16,4.16,0,0,1-.08,3.14,3.58,3.58,0,0,1-2.69,1.81,4.1,4.1,0,0,1-2.43-.74,3.33,3.33,0,0,1-1.39-2.32,4.2,4.2,0,0,1,.34-1.79A4.79,4.79,0,0,1,289.05,93.09Z" style="fill:#c7c7c7"></path><path d="M289.85,93.79s2.8-5.88,3.48-6.85,7.41-6.81,7.41-6.81l9.09,3.9s-11.92,4.46-13.27,5.73-4.74,4.88-4.74,4.88Z" style="fill:#c7c7c7"></path><path d="M423.14,127.73a3.76,3.76,0,0,0-4.33-.1,4.14,4.14,0,0,0-1.41,2.81,3.56,3.56,0,0,0,1.52,2.86,4,4,0,0,0,2.49.49,3.3,3.3,0,0,0,2.32-1.39,4.27,4.27,0,0,0,.54-1.74A4.73,4.73,0,0,0,423.14,127.73Z" style="fill:#c7c7c7"></path><path d="M422.1,128s.31-6.5.16-7.67-3.33-9.51-3.33-9.51l-9.85-.84s8.41,9.55,9,11.31,1.89,6.53,1.89,6.53Z" style="fill:#c7c7c7"></path><path d="M356.55,123.19a3.76,3.76,0,0,0-4.25-.84,4.14,4.14,0,0,0-1.86,2.53,3.57,3.57,0,0,0,1,3.08,4.11,4.11,0,0,0,2.38.91,3.33,3.33,0,0,0,2.52-1,4.17,4.17,0,0,0,.82-1.61A4.71,4.71,0,0,0,356.55,123.19Z" style="fill:#c7c7c7"></path><path d="M355.49,123.25s2.23-5.32,2.67-6.42c.6-1.53,4.95-9.21,4.95-9.21l-9.57-2.49s.29,9.32.26,11.18c0,2.08-.38,6.4-.38,6.4Z" style="fill:#c7c7c7"></path><path d="M271.76,72.24A3.84,3.84,0,0,1,273,70.32l.61-.48,8.26-6.47,161.77,42.57,4.05,9.78.26.62h0a4,4,0,0,1,.15,2.3c-2.42,9.19-43.86,6.24-92.56-6.57S269.34,81.44,271.76,72.24Z" style="fill:#c7c7c7"></path><path d="M280.71,65.17c2.24-8.49,40.56-5.77,85.6,6.08s79.74,28.35,77.51,36.84-40.56,5.77-85.6-6.08S278.48,73.67,280.71,65.17Z" style="fill:#dbdbdb"></path><path d="M359.21,100a2.78,2.78,0,1,1,1.54-1.82A2.86,2.86,0,0,1,359.21,100Z" style="fill:#c7c7c7"></path><path d="M397.35,108.11c-2.51-1.23-4.48-2.37-6.33-3.5a33.28,33.28,0,0,1-4.56-3.22c2.51,1.23,4.48,2.37,6.32,3.5A34.08,34.08,0,0,1,397.35,108.11Z" style="fill:#c7c7c7"></path><path d="M426.08,110.45c-3.75-1.23-7.17-2.47-10.51-3.72s-6.55-2.5-9.45-3.76c3.75,1.23,7.17,2.47,10.52,3.72S423.18,109.19,426.08,110.45Z" style="fill:#c7c7c7"></path><path d="M437.72,106.4c-4-.9-7.94-1.91-11.89-2.94S418,101.35,414,100.17c4,.9,7.93,1.91,11.88,2.94S433.81,105.23,437.72,106.4Z" style="fill:#c7c7c7"></path><path d="M429.14,97.06c-3.15-.33-6.58-.83-10.08-1.38s-7.11-1.16-11-1.93c3.15.33,6.58.83,10.07,1.37S425.27,96.29,429.14,97.06Z" style="fill:#c7c7c7"></path><path d="M402.64,84.92a34.44,34.44,0,0,1-5.57.56c-2.15.08-4.43.1-7.22-.06a34.19,34.19,0,0,1,5.56-.56C397.57,84.79,399.85,84.76,402.64,84.92Z" style="fill:#c7c7c7"></path><path d="M365.32,73.24a2.82,2.82,0,0,1,.44,2.35,2.78,2.78,0,0,1-1.54,1.82,2.8,2.8,0,0,1-.44-2.34A2.85,2.85,0,0,1,365.32,73.24Z" style="fill:#c7c7c7"></path><path d="M327.18,65.15c2.51,1.23,4.48,2.38,6.33,3.5a35,35,0,0,1,4.57,3.23c-2.52-1.23-4.49-2.38-6.33-3.5A35,35,0,0,1,327.18,65.15Z" style="fill:#c7c7c7"></path><path d="M298.45,62.82c3.75,1.23,7.17,2.47,10.51,3.72s6.55,2.49,9.45,3.76c-3.75-1.23-7.17-2.48-10.52-3.72S301.35,64.08,298.45,62.82Z" style="fill:#c7c7c7"></path><path d="M286.81,66.86c4,.9,7.94,1.91,11.89,2.94s7.88,2.12,11.79,3.29c-4-.9-7.93-1.91-11.88-2.94S290.72,68,286.81,66.86Z" style="fill:#c7c7c7"></path><path d="M295.39,76.2c3.15.34,6.58.84,10.08,1.38s7.11,1.16,11,1.94c-3.15-.33-6.58-.83-10.07-1.38S299.26,77,295.39,76.2Z" style="fill:#c7c7c7"></path><path d="M321.89,88.34a35.61,35.61,0,0,1,5.57-.56c2.15-.07,4.43-.1,7.22.07a34.19,34.19,0,0,1-5.56.56C327,88.48,324.68,88.51,321.89,88.34Z" style="fill:#c7c7c7"></path><path d="M293,62.93c1.46-1,4.18-.35,5,.66a4.82,4.82,0,0,1,1.11,3.5,4.15,4.15,0,0,1-2.27,3,4.75,4.75,0,0,1-3,.12,3.84,3.84,0,0,1-2.42-2,4.89,4.89,0,0,1-.31-2.1A5.5,5.5,0,0,1,293,62.93Z" style="fill:#F448FF"></path><path d="M321.76,59.81c1.41-1,4-.34,4.84.64a4.71,4.71,0,0,1,1.07,3.38,4,4,0,0,1-2.19,2.92,4.61,4.61,0,0,1-2.87.12,3.76,3.76,0,0,1-2.33-2,4.74,4.74,0,0,1-.3-2A5.32,5.32,0,0,1,321.76,59.81Z" style="fill:#F448FF"></path><path d="M404.45,81.61c1.41-1,4.05-.34,4.85.64a4.71,4.71,0,0,1,1.07,3.38,4,4,0,0,1-2.19,2.92,4.61,4.61,0,0,1-2.87.12,3.78,3.78,0,0,1-2.34-2,4.87,4.87,0,0,1-.29-2A5.35,5.35,0,0,1,404.45,81.61Z" style="fill:#F448FF"></path><path d="M428,99.27c1.46-1,4.19-.35,5,.66a4.93,4.93,0,0,1,1.11,3.5,4.14,4.14,0,0,1-2.28,3,4.67,4.67,0,0,1-3,.12,3.86,3.86,0,0,1-2.42-2,4.89,4.89,0,0,1-.31-2.1A5.53,5.53,0,0,1,428,99.27Z" style="fill:#F448FF"></path><path d="M322.93,81.25c1.46-1,4.18-.36,5,.66a4.82,4.82,0,0,1,1.11,3.5,4.16,4.16,0,0,1-2.27,3,4.82,4.82,0,0,1-3,.12,3.86,3.86,0,0,1-2.42-2,4.91,4.91,0,0,1-.31-2.1A5.5,5.5,0,0,1,322.93,81.25Z" style="fill:#F448FF"></path><path d="M392,99.77c1.46-1,4.18-.36,5,.66a4.82,4.82,0,0,1,1.11,3.5,4.14,4.14,0,0,1-2.27,3,4.82,4.82,0,0,1-3,.12,3.86,3.86,0,0,1-2.42-2,4.91,4.91,0,0,1-.31-2.1A5.5,5.5,0,0,1,392,99.77Z" style="fill:#F448FF"></path><path d="M357.73,92.77c1.46-1,4.18-.35,5,.67a4.8,4.8,0,0,1,1.11,3.49,4.1,4.1,0,0,1-2.27,3,4.75,4.75,0,0,1-3,.13,3.91,3.91,0,0,1-2.42-2,4.89,4.89,0,0,1-.31-2.1A5.53,5.53,0,0,1,357.73,92.77Z" style="fill:#F448FF"></path><path d="M405.35,89.2c-.06.19-.14.39-.21.59C403,93,384.23,91.06,362.2,85.26S323.11,72,322.6,68.13c.07-.3.14-.59.22-.88,3-11.94,10.42-23,17.81-26.92a52.93,52.93,0,0,1,39-4.36c10.45,2.76,24.93,16.24,27.58,29.26C409.19,75.1,407.72,82.32,405.35,89.2Z" style="fill:#37474f"></path><g style="opacity:0.2"><path d="M385.51,55.35c-3.06,6.6,4.9,19.71,10.93,17.13,4.92-2.12,6-8.76,5.34-12.71s-3.7-8.64-7.9-9C390.33,50.55,386.64,52.92,385.51,55.35Z" style="fill:#fff"></path><path d="M379.1,46.38c-.13,2.28,3.88,4,5.93,2.79s1.49-4.74-.1-5.57S379.21,44.33,379.1,46.38Z" style="fill:#fff"></path></g><path d="M404.28,66.27a.78.78,0,0,1,0,1.55A.78.78,0,0,1,404.28,66.27Z" style="fill:#455a64"></path><path d="M341.16,63.18a.78.78,0,0,1,0,1.55A.78.78,0,0,1,341.16,63.18Z" style="fill:#455a64"></path><path d="M334.68,50.79a1.49,1.49,0,0,1,0,3A1.49,1.49,0,0,1,334.68,50.79Z" style="fill:#455a64"></path><polygon points="380.59 81.79 385.38 82.67 386.45 87.73 387.53 82.67 392.32 81.79 387.55 80.62 386.45 75.85 385.36 80.62 380.59 81.79" style="fill:#455a64"></polygon><polygon points="341.16 57.66 343.84 58.15 344.44 60.98 345.04 58.15 347.71 57.66 345.05 57.01 344.44 54.34 343.83 57.01 341.16 57.66" style="fill:#455a64"></polygon></g><g id="freepik--Stars--inject-15"><polygon points="226.11 435.22 231.74 436.26 232.99 442.2 234.25 436.26 239.88 435.22 234.28 433.85 232.99 428.25 231.71 433.85 226.11 435.22" style="fill:#F448FF"></polygon><polygon points="132.7 344.37 138.33 345.41 139.59 351.34 140.84 345.41 146.47 344.36 140.87 343 139.59 337.39 138.3 343 132.7 344.37" style="fill:#F448FF"></polygon><polygon points="445.48 168.39 451.11 169.43 452.37 175.36 453.62 169.43 459.25 168.38 453.65 167.01 452.37 161.41 451.08 167.01 445.48 168.39" style="fill:#F448FF"></polygon><polygon points="44.78 179.63 47.93 180.22 48.63 183.53 49.34 180.22 52.48 179.63 49.35 178.87 48.63 175.73 47.92 178.87 44.78 179.63" style="fill:#F448FF"></polygon><polygon points="168.24 49.96 171.39 50.54 172.09 53.86 172.79 50.54 175.94 49.96 172.81 49.19 172.09 46.06 171.37 49.19 168.24 49.96" style="fill:#F448FF"></polygon><polygon points="354.53 142.95 357.68 143.53 358.38 146.85 359.08 143.53 362.23 142.95 359.1 142.19 358.38 139.05 357.67 142.19 354.53 142.95" style="fill:#F448FF"></polygon><polygon points="104.5 320.88 107.65 321.46 108.35 324.78 109.06 321.46 112.2 320.88 109.07 320.12 108.35 316.98 107.64 320.12 104.5 320.88" style="fill:#F448FF"></polygon><path d="M423.7,404.79a.91.91,0,0,1,0,1.82A.91.91,0,0,1,423.7,404.79Z" style="fill:#F448FF"></path><path d="M111.59,356.11a.91.91,0,0,1,0,1.82A.91.91,0,0,1,111.59,356.11Z" style="fill:#F448FF"></path><path d="M367.64,186.29a.92.92,0,0,1,0,1.83A.92.92,0,0,1,367.64,186.29Z" style="fill:#F448FF"></path><path d="M175.94,114.47a.92.92,0,0,1,0,1.83A.92.92,0,0,1,175.94,114.47Z" style="fill:#F448FF"></path><path d="M466.22,395.91a.91.91,0,0,1,0,1.82A.91.91,0,0,1,466.22,395.91Z" style="fill:#F448FF"></path><path d="M428.05,295a.91.91,0,0,1,0,1.82A.91.91,0,0,1,428.05,295Z" style="fill:#F448FF"></path><path d="M273.14,452.65a.65.65,0,0,1,0,1.29A.65.65,0,0,1,273.14,452.65Z" style="fill:#F448FF"></path><path d="M324.19,377.34a.65.65,0,0,1,0,1.29A.65.65,0,0,1,324.19,377.34Z" style="fill:#F448FF"></path><path d="M193.45,412.63a.65.65,0,0,1,0,1.29A.65.65,0,0,1,193.45,412.63Z" style="fill:#F448FF"></path><path d="M303.46,121.42a1.75,1.75,0,0,1,0,3.5A1.75,1.75,0,0,1,303.46,121.42Z" style="fill:#F448FF"></path><polygon points="134.88 71.17 140.5 72.21 141.76 78.15 143.02 72.21 148.65 71.17 143.05 69.8 141.76 64.19 140.48 69.8 134.88 71.17" style="fill:#F448FF"></polygon><polygon points="371.57 234.5 377.2 235.54 378.45 241.47 379.71 235.54 385.34 234.49 379.74 233.12 378.45 227.52 377.17 233.12 371.57 234.5" style="fill:#F448FF"></polygon><path d="M114.42,303.67a.65.65,0,0,1,0,1.3A.65.65,0,0,1,114.42,303.67Z" style="fill:#F448FF"></path><path d="M267.73,106.58a.65.65,0,0,1,0,1.29A.65.65,0,0,1,267.73,106.58Z" style="fill:#F448FF"></path><path d="M73.27,337.58a1.75,1.75,0,0,1,0,3.5A1.75,1.75,0,0,1,73.27,337.58Z" style="fill:#F448FF"></path><path d="M434.57,181.71a1.75,1.75,0,0,1,0,3.5A1.75,1.75,0,0,1,434.57,181.71Z" style="fill:#F448FF"></path><path d="M34.59,193a1.75,1.75,0,0,1,0,3.5A1.75,1.75,0,0,1,34.59,193Z" style="fill:#F448FF"></path><polygon points="276.37 124.15 279.52 124.73 280.22 128.05 280.92 124.73 284.07 124.15 280.94 123.38 280.22 120.25 279.5 123.38 276.37 124.15" style="fill:#F448FF"></polygon><polygon points="390.1 373.66 393.25 374.24 393.95 377.56 394.66 374.24 397.8 373.66 394.67 372.89 393.95 369.76 393.24 372.89 390.1 373.66" style="fill:#F448FF"></polygon><polygon points="432.41 412.63 435.55 413.22 436.25 416.53 436.96 413.22 440.11 412.63 436.97 411.87 436.25 408.73 435.54 411.87 432.41 412.63" style="fill:#F448FF"></polygon><path d="M66.14,186.29a.92.92,0,0,1,0,1.83A.92.92,0,0,1,66.14,186.29Z" style="fill:#F448FF"></path><path d="M129.35,66.1a.65.65,0,0,1,0,1.29A.65.65,0,0,1,129.35,66.1Z" style="fill:#F448FF"></path></g><g id="freepik--Planet--inject-15"><path d="M84.65,396.27c5-15.07,28-24.29,39.2-21.36A42.74,42.74,0,0,1,150,394.05c4.7,7.54,5.56,23.9-.47,33.37s-13,12.71-20.5,16.29-21.69,2.34-27.83-1.9S90.75,433.09,88,428.44,80.85,407.83,84.65,396.27Z" style="fill:#455a64"></path><path d="M93.23,392.29c3.81-11.6,21.54-18.69,30.15-16.44a32.92,32.92,0,0,1,20.08,14.73c3.62,5.8,4.28,18.38-.36,25.66s-10,9.78-15.77,12.54-16.68,1.8-21.4-1.47A33,33,0,0,1,95.83,417C93.74,413.45,90.31,401.18,93.23,392.29Z" style="fill:#fff;opacity:0.1"></path><path d="M112.87,440.94c2.87,2.06,9.86-.56,9.16-3.67-.56-2.54-3.63-3.67-5.58-3.7s-4.46,1-5,3A4.45,4.45,0,0,0,112.87,440.94Z" style="fill:#37474f"></path><path d="M105.66,437.07c1,1,3.38-.16,3.65-1.58s-1.56-2.58-2.58-2.19S104.77,436.2,105.66,437.07Z" style="fill:#37474f"></path><path d="M124.37,381.46c-.22,1.87,3,3.49,4.75,2.6s1-3.1-.23-3.87S124.56,379.77,124.37,381.46Z" style="fill:#37474f"></path><path d="M84.25,416.89c-5,4.6-15.67,17.17-13.68,21.25s30.33-5,51.58-17.71,45.2-40,43.65-43.07-25.23,5.94-25.23,5.94l-2-1.51s29.93-13.66,34-7-27.22,38.07-46,49.77c-22.9,14.31-55.52,26.62-62,18C61,437.74,76.05,421,83.77,414.14Z" style="fill:#37474f"></path></g><g id="freepik--Alien--inject-15"><path d="M322.58,359.62c1.42-9.18,18.32-33.29,34.13-36.82s46.78,2.12,46.78,2.12,4.91-12.53,9.48-10.21c2.79,1.42,4.37,43.83,2,45.55s-34.1,7.78-34.1,7.78-14.47,17.51-31.32,19.14S320.38,373.82,322.58,359.62Z" style="fill:#F448FF"></path><g style="opacity:0.1"><path d="M322.58,359.62c1.42-9.18,18.32-33.29,34.13-36.82s46.78,2.12,46.78,2.12,4.91-12.53,9.48-10.21c2.79,1.42,4.37,43.83,2,45.55s-34.1,7.78-34.1,7.78-14.47,17.51-31.32,19.14S320.38,373.82,322.58,359.62Z"></path></g><path d="M240.43,355.55s10.46,54.74,18.61,67.91,34.45,23.78,60.29,21.64,60.15-53.8,52.07-78c-6.44-19.27-54.13-54.86-54.13-54.86Z" style="fill:#F448FF"></path><path d="M347.41,428c-8.94,9.59-19,16.4-28.08,17.15-25.84,2.13-52.15-8.48-60.29-21.65s-18.61-67.9-18.61-67.9l6.13-3.47c3.6,8.79,17.83,49.69,26.22,60.89,6.38,8.52,32.37,25.49,50.9,25.37C329.51,438.3,341.26,432,347.41,428Z" style="opacity:0.1"></path><g style="opacity:0.1"><path d="M266.66,425.32c5.15,4.32,18.76.37,17.91-5.62-.71-4.9-6.36-7.48-10.06-7.82s-8.59,1.22-9.88,4.89C263.54,419.87,264.77,423.74,266.66,425.32Z"></path><path d="M290.4,427.65c2,2.28,7.37.21,8.19-2.82s-2.95-5.87-5.23-5.19S288.62,425.6,290.4,427.65Z"></path><path d="M274.85,430.79c-1,1.8,1.55,4.8,3.7,4.64s3.11-3.24,2.15-4.56S275.77,429.17,274.85,430.79Z"></path></g><path d="M220.82,59.64s-16,23.93-12.82,43.88a312.71,312.71,0,0,0,7.21,32s-2.56,4.68-6.44,6.93-12.42.9-12.42.9-6.87-21.76-5.07-41.88c1.89-21.09,25.07-45.76,25.07-45.76s-.09-7.9,5.78-11c5.47-2.92,11,.9,8.38,7.44A11.54,11.54,0,0,1,220.82,59.64Z" style="fill:#F448FF"></path><path d="M220.82,59.64s-16,23.93-12.82,43.88a312.71,312.71,0,0,0,7.21,32s-2.56,4.68-6.44,6.93-12.42.9-12.42.9-6.87-21.76-5.07-41.88c1.89-21.09,25.07-45.76,25.07-45.76s-.09-7.9,5.78-11c5.47-2.92,11,.9,8.38,7.44A11.54,11.54,0,0,1,220.82,59.64Z" style="opacity:0.1"></path><path d="M356.18,222.84c.29,5.5-3.36,11.57-3.36,11.57,5.05,30.54-5.39,67-33,93s-84.05,41.9-112.49,37.38S129.62,325,115.12,272.88c-17.26-62.09,19-114.76,49.87-133.48s84.57-25.34,115.09-7.47c7.56,4.42,13.58,9.1,21.36,17.06a21.94,21.94,0,0,1,7.75,0c7.25,2,28,22.76,36.54,40.39S356,219,356.18,222.84Z" style="fill:#F448FF"></path><path d="M356.19,222.84c.28,5.49-3.37,11.57-3.37,11.57,5.05,30.54-5.39,67-33,93-2.11,2-4.39,3.92-6.8,5.78h0C283.7,355.8,233.58,369,207.32,364.8c-28.44-4.51-77.7-39.79-92.19-91.92a118.84,118.84,0,0,1-3.84-44.48c4.39-41.85,30.55-75,53.69-89,30.88-18.73,84.58-25.34,115.1-7.48,7.56,4.42,13.58,9.1,21.37,17.06a21.65,21.65,0,0,1,7.74,0c7.25,2,28,22.78,36.54,40.41S356,219,356.19,222.84Z" style="fill:#F448FF"></path><g style="opacity:0.1"><path d="M143,279.12c2.44-9.27-10.93-24.45-18.15-19.7-5.9,3.89-5.79,12.76-4,17.73s6.79,10.36,12.32,9.79C137.89,286.47,142.13,282.53,143,279.12Z"></path><path d="M145,253c1.73-3.94-4.22-9.65-8.63-8.87s-5.79,7.38-3.52,9.92S143.4,256.53,145,253Z"></path><path d="M122.31,242.23c-1.89-2.25-7.19-.32-8,2.62s2.79,5.78,5,5.16S124,244.26,122.31,242.23Z"></path></g><g style="opacity:0.2"><path d="M224.27,134.59c-5,12.06,13.42,29,26.74,26.3s17.06-22.75,10-30.29S228.77,123.72,224.27,134.59Z" style="fill:#fff"></path></g><path d="M313,333.22C283.7,355.8,233.58,369,207.32,364.8c-28.44-4.51-77.7-39.79-92.19-91.92a118.84,118.84,0,0,1-3.84-44.48l.41-1.51s.51,39.64,16.6,62.85c16.19,23.37,46,50.34,63.49,56.54S256.19,360.29,313,333.22Z" style="opacity:0.1"></path><g style="opacity:0.1"><path d="M155.45,286.15a19.11,19.11,0,0,0-.12,5.34,39.3,39.3,0,0,0,.88,5.28A68.53,68.53,0,0,0,159.47,307a77.91,77.91,0,0,0,10.42,18.55c4.34,5.58,9.54,10.61,16,13.48a53.21,53.21,0,0,0,10,3.39,62.59,62.59,0,0,0,10.48,1.42,82.63,82.63,0,0,0,21.15-1.6,91.14,91.14,0,0,0,10.3-2.69,46.88,46.88,0,0,0,9.51-4.55,54.47,54.47,0,0,0,15.58-14.29,44.78,44.78,0,0,0,5.24-9.27A46.36,46.36,0,0,0,271,301.08a43.3,43.3,0,0,1-7.3,20.14,55.21,55.21,0,0,1-15.56,15,43.6,43.6,0,0,1-9.77,4.9A93.23,93.23,0,0,1,227.84,344a84.85,84.85,0,0,1-21.63,1.82,64.62,64.62,0,0,1-10.81-1.57,54,54,0,0,1-10.32-3.6,37.59,37.59,0,0,1-9.14-6.07,51.88,51.88,0,0,1-7.27-8.13,78.53,78.53,0,0,1-10.1-19.12,68.85,68.85,0,0,1-2.87-10.43A26.53,26.53,0,0,1,155.45,286.15Z"></path><path d="M301.44,149a53.24,53.24,0,0,0-6.18,1.73,34.34,34.34,0,0,0-5.78,2.54,18.2,18.2,0,0,0-4.8,3.79,33.08,33.08,0,0,0-3.65,5.06,65.48,65.48,0,0,0-5.35,11.47A72.91,72.91,0,0,0,272.44,186a43.19,43.19,0,0,1,1.76-12.85,49.34,49.34,0,0,1,5.11-12,33.36,33.36,0,0,1,4-5.31,18.19,18.19,0,0,1,5.47-3.88,28.67,28.67,0,0,1,6.22-2.1A32.78,32.78,0,0,1,301.44,149Z"></path><path d="M352.82,234.41a21.16,21.16,0,0,1-4.92,6.83,20.13,20.13,0,0,1-7.33,4.45,37.92,37.92,0,0,1-4.12,1.09c-1.39.24-2.77.48-4.17.59a41.08,41.08,0,0,1-8.37,0c2.74-.52,5.46-1,8.14-1.53a62.41,62.41,0,0,0,7.86-2,20.24,20.24,0,0,0,3.63-1.58,24.63,24.63,0,0,0,3.36-2.17A38.83,38.83,0,0,0,352.82,234.41Z"></path></g><path d="M68.65,273s1.85-31.41,19.78-40.72S128.56,226,128.56,226a33.63,33.63,0,0,0,2.84-10.29c.48-4.49-6.51-12-6.51-12s-34.34,4.73-49,18.64-13.24,50.47-13.24,50.47-5.48,5.68-3.37,12c2,5.88,8.62,6.92,11.2.36A11.57,11.57,0,0,0,68.65,273Z" style="fill:#F448FF"></path><g style="opacity:0.1"><path d="M111.59,226a7.49,7.49,0,0,1,2.42-1.3,10.74,10.74,0,0,1,2.63-.51,9.81,9.81,0,0,1,2.7.19,6.43,6.43,0,0,1,2.53,1.14,25.26,25.26,0,0,1-2.61.43c-.84.11-1.66.18-2.49.24s-1.66.08-2.52.06A14.73,14.73,0,0,1,111.59,226Z"></path><path d="M116.09,205.32a7.73,7.73,0,0,1,2.18-1.14,11.35,11.35,0,0,1,2.29-.53,11.51,11.51,0,0,1,2.35-.06,7.52,7.52,0,0,1,2.39.58,8.68,8.68,0,0,1-2.23,1,13.94,13.94,0,0,1-4.57.58A8.83,8.83,0,0,1,116.09,205.32Z"></path><path d="M115.83,225.26a17.5,17.5,0,0,1,1.39,2.77c.38.93.7,1.86,1,2.72a4.6,4.6,0,0,0,.55,1.06,11,11,0,0,0,.86,1c.63.7,1.36,1.39,2.07,2.2a7.06,7.06,0,0,1-3-1,6,6,0,0,1-1.33-1.05,4.7,4.7,0,0,1-1-1.55,11.7,11.7,0,0,1-.69-3.08A10.41,10.41,0,0,1,115.83,225.26Z"></path><path d="M120.25,204.35a5.5,5.5,0,0,1,.8-2.5,6.59,6.59,0,0,1,4.17-3.11,3.85,3.85,0,0,1,2.67.18,16.85,16.85,0,0,0-2,1.27c-.63.42-1.27.86-1.83,1.28C122.84,202.33,121.74,203.36,120.25,204.35Z"></path></g><path d="M197,236.89c20.24-8.62,47.55,1,58.8,19.4,8.38,13.69,9.45,29.33,5.39,44.58-3.16,11.91-18.85,28.56-34.2,31.18-29.13,5-50-2-60.41-35.25C162.81,284.9,157.61,253.66,197,236.89Z" style="fill:#263238"></path><path d="M284.82,174.58c4.85-15.9,23-23.18,38.34-16.59,11.44,4.91,20.48,14.78,26.89,27,5,9.52,5.85,28,.88,37.9-8.45,16.89-28.43,20.79-47.75,6.85C294.87,223.71,275.4,205.47,284.82,174.58Z" style="fill:#263238"></path><path d="M221.75,240c11.83-1.32,28,17.84,20.9,25.83-5.84,6.55-16.71,4.81-22.48,1.69s-11.48-10.22-9.79-16.89C211.81,245,217.42,240.46,221.75,240Z" style="fill:#37474f"></path><path d="M196.81,246.35c3.6-1,7.73,4.83,6.51,8.51s-7.06,4-8.95,1.77S193.57,247.24,196.81,246.35Z" style="fill:#37474f"></path><path d="M287.41,188.66c-3.87,11.25,11.29,31.24,20.65,26,7.66-4.27,8.33-15.25,6.54-21.57s-7.46-13.43-14.35-13.23C294.43,180,288.83,184.53,287.41,188.66Z" style="fill:#37474f"></path><path d="M299.06,165.71c-1.74,3.29,3,8.59,6.89,8.2s5.47-6,3.68-8.34S300.64,162.74,299.06,165.71Z" style="fill:#37474f"></path><path d="M270.47,248.39c2.82-2.43,9.22-3.62,12.36-5.89,3.35-2.42,3.17-6.26,7.14-8.87,3.1-2,9.58-.43,11.89,5s1.31,15-8,21.92-17.8,5.56-22,2.87C268.09,261,265.51,252.67,270.47,248.39Z" style="fill:#263238"></path><path d="M301.87,250.12a22.34,22.34,0,0,1-8,10.43c-7.71,5.75-14.7,5.82-19.31,4.18a27.14,27.14,0,0,1,7.3-13.18C288.55,244.92,295.7,246.21,301.87,250.12Z" style="fill:#ff99ba"></path><path d="M242.23,363.14c3-.74,6-1.49,9-2.28s5.91-1.58,8.83-2.48,5.85-1.78,8.76-2.74,5.8-2,8.78-2.93a55.33,55.33,0,0,1-8.22,4.38c-1.41.66-2.87,1.18-4.32,1.75s-2.94,1-4.43,1.46a76.07,76.07,0,0,1-9.08,2.09A49.74,49.74,0,0,1,242.23,363.14Z" style="fill:#263238"></path><path d="M262.58,358.65c1.9-.33,3.75-.53,5.61-.76l2.79-.32c.93-.09,1.86-.21,2.83-.25a16.57,16.57,0,0,1-5.51,1.56,19.56,19.56,0,0,1-2.86.13A13.18,13.18,0,0,1,262.58,358.65Z" style="fill:#263238"></path><polygon points="325.38 177.86 332.92 179.25 334.6 187.2 336.29 179.25 343.82 177.86 336.32 176.02 334.6 168.52 332.88 176.02 325.38 177.86" style="fill:#37474f"></polygon><path d="M326.5,182.67a.78.78,0,0,1,0,1.55A.78.78,0,0,1,326.5,182.67Z" style="fill:#37474f"></path><path d="M339.55,202.94a.78.78,0,0,1,0,1.55A.78.78,0,0,1,339.55,202.94Z" style="fill:#37474f"></path><path d="M184.33,278.53a1.49,1.49,0,0,1,0,3A1.49,1.49,0,0,1,184.33,278.53Z" style="fill:#37474f"></path><polygon points="233.43 314.43 238.22 315.31 239.29 320.36 240.36 315.31 245.16 314.42 240.38 313.26 239.29 308.49 238.2 313.26 233.43 314.43" style="fill:#37474f"></polygon><polygon points="329.6 221.82 332.27 222.32 332.87 225.14 333.47 222.32 336.15 221.82 333.48 221.17 332.87 218.5 332.26 221.17 329.6 221.82" style="fill:#37474f"></polygon><path d="M202.87,269.72a1.49,1.49,0,0,1,0,3A1.49,1.49,0,0,1,202.87,269.72Z" style="fill:#37474f"></path><polygon points="196.32 284.84 199 285.33 199.6 288.15 200.2 285.33 202.88 284.83 200.21 284.18 199.6 281.52 198.99 284.18 196.32 284.84" style="fill:#37474f"></polygon><path d="M287,297.41c-7.56,17.72,1.54,48.33,9.85,58.84,9.75,12.33,29.78,23.21,47.16,23a63.24,63.24,0,0,0,44.4-19.67c10.36-11.2,16.85-31,16.78-40.53s-6.77-29.87-13.4-38.49c-7.37-9.56-24-19.93-39.93-22.52-12.91-2.1-37.76,7.79-45,14.1C300.74,277.46,291.13,287.81,287,297.41Z" style="fill:#c6f0c5"></path><path d="M331.42,373.25a3.93,3.93,0,0,0-1.79-1.45,2.67,2.67,0,0,0-2.17-.2,1.34,1.34,0,0,0-.56,1.9,3.28,3.28,0,0,0,1.83,1.33,1.32,1.32,0,0,0,.3.09,2.78,2.78,0,0,0,1.77.13A1.24,1.24,0,0,0,331.42,373.25Z" style="fill:#dbf7da"></path><path d="M332.68,370a2.21,2.21,0,0,0-1-.57.91.91,0,0,0-1.06.69,1.06,1.06,0,0,0,.39,1,1.83,1.83,0,0,0,.6.28h0a1.73,1.73,0,0,0,.34.14.89.89,0,0,0,1.15-.36C333.36,370.77,333,370.34,332.68,370Z" style="fill:#dbf7da"></path><path d="M336.86,374a2.21,2.21,0,0,0-2.24-1.1,1,1,0,0,0-.94,1.11,1.2,1.2,0,0,0,.76.95,2.24,2.24,0,0,0,.4.22,2.09,2.09,0,0,0,1.85-.17A.75.75,0,0,0,336.86,374Z" style="fill:#dbf7da"></path><path d="M291.89,338.84a1.27,1.27,0,0,0-.29.52,3.15,3.15,0,0,0-.07,2.51,12,12,0,0,0,2.11,4.79,1.44,1.44,0,0,0,2.19.17c.87-.93.2-2.4-.14-3.39S293.75,336.82,291.89,338.84Z" style="fill:#dbf7da"></path><path d="M300.08,342.8a1.41,1.41,0,0,0-1.83-.22c-.6.5-.36,1.3-.13,1.93a4.49,4.49,0,0,0,.23.51l.08.17c.3.6.78,1.4,1.56,1.21C301.47,346,300.85,343.54,300.08,342.8Z" style="fill:#dbf7da"></path><path d="M299.7,349.3a2,2,0,0,0-.67-.85.93.93,0,0,0-1.4.3,1.77,1.77,0,0,0,.53,1.85,1.06,1.06,0,0,0,.67.54.89.89,0,0,0,1-.73A1.92,1.92,0,0,0,299.7,349.3Z" style="fill:#dbf7da"></path><path d="M296,340.88a1.38,1.38,0,0,0,.41.63.65.65,0,0,0,1-.12,1.23,1.23,0,0,0-.24-1.32.78.78,0,0,0-.44-.42.62.62,0,0,0-.76.44A1.42,1.42,0,0,0,296,340.88Z" style="fill:#dbf7da"></path><path d="M397.76,338a1,1,0,0,0-.68.45,7.2,7.2,0,0,0-1.24,1.88,6.11,6.11,0,0,0-1.11,2.63.92.92,0,0,0,1.11,1c.88-.14,1.44-1.22,1.87-1.87a5.54,5.54,0,0,0,1-2.65C398.73,338.82,398.59,337.86,397.76,338Z" style="fill:#dbf7da"></path><path d="M394.18,345.42a1.18,1.18,0,0,0-.87.71c-.1.2-.22.42-.31.65a1,1,0,0,0-.09,1.16c.31.44.85.31,1.25.09a2.08,2.08,0,0,0,.73-.77,1.75,1.75,0,0,0,.24-1A.89.89,0,0,0,394.18,345.42Z" style="fill:#dbf7da"></path><path d="M393.06,341.86c-.69-.33-1.24.48-1.55,1.34-.16.44-.76,1.17-.55,1.62a1,1,0,0,0,1.13.52,2,2,0,0,0,1.11-1C393.62,343.68,394,342.32,393.06,341.86Z" style="fill:#dbf7da"></path><path d="M394.18,338a1.53,1.53,0,0,0-.27.64.14.14,0,0,0,0,.06.6.6,0,0,0,.29.73,1,1,0,0,0,.86-.06,1.38,1.38,0,0,0,.51-1.42C395.3,337.31,394.49,337.58,394.18,338Z" style="fill:#dbf7da"></path><path d="M392.18,349.32a.87.87,0,0,0-.7.58.72.72,0,0,0-.05.71c.3.55,1.05.3,1.33-.11A.72.72,0,0,0,392.18,349.32Z" style="fill:#dbf7da"></path><path d="M396.93,332.32a.84.84,0,0,0-.42.34c-.37.34-.39,1.25-.45,1.66a1.22,1.22,0,0,0,.27,1.16.91.91,0,0,0,1.23-.06,2.72,2.72,0,0,0,.47-2.48A.9.9,0,0,0,396.93,332.32Z" style="fill:#dbf7da"></path><path d="M323.51,369.93a2.65,2.65,0,0,0-1.17-.38.83.83,0,0,0-.8.74.72.72,0,0,0-.07.33,1.31,1.31,0,0,0,.72.95c.66.42,1.92.42,2-.6A1.12,1.12,0,0,0,323.51,369.93Z" style="fill:#dbf7da"></path><path d="M352.93,261.8c-.71,0-1.81.68-1.25,1.51a1.06,1.06,0,0,0,.94.41l.65,0c.73.17,1.64.2,1.79-.62C355.25,262.12,353.64,261.77,352.93,261.8Z" style="fill:#dbf7da"></path><path d="M355.49,260.48a.75.75,0,0,0-.18,1.34,2.63,2.63,0,0,0,.67.22,4.34,4.34,0,0,0,.62.16.59.59,0,0,0,.72-.66C357.52,260.68,356.15,260.24,355.49,260.48Z" style="fill:#dbf7da"></path><path d="M357.67,262.8s0,0-.06,0a.34.34,0,0,0-.25.52s0,0,0,.06a.47.47,0,1,0,.28-.6Z" style="fill:#dbf7da"></path><path d="M284.72,326.54c.44,1.08,1.6,1.15,2.19,1.82s2,4.37,4.25,5,6.18-.13,6.84-.31,1.78-1.11,2.84-1.12,1.63,2.07,2.75,2.2.64-1.4,1.36-1.43,2.9,1.75,3.82,1.88,2-.18,2.71.16,1.75,1.65,3.69,1.75,4.92-2.36,6-2.37a12.46,12.46,0,0,0,2.69.11c1-.19,3.68-2.06,4.26-2.29s1.21.26,2.19-.22,2.18-1.91,3.05-1.47.48,1.74.05,2.64-.23,2-.88,2.65-2.26,2.61-2.38,3.43.75,2.54.54,3.68.49,4.57-.54,6.12,2,4.63,3.2,4.81,4.67-1.67,6.41-1.62,3.1,2.06,5.17,2.31a69.86,69.86,0,0,1,10.14,3.07c1.29.56,5.52,2.25,5.86,3.18s-.11,3.73.78,4.53,6.56,2.92,7.7,3.53,6.19.92,7.09.89a2,2,0,0,0,1.36-.76c0-.14-2.66-.88-3.23-1.17s-1.26-1.33-1.49-1.51a12.79,12.79,0,0,1-2.23-.94,13.88,13.88,0,0,1-2.27-3.52c-.21-.74.83-5.55,1-6.39s-1.27-3.15-1.25-3.93,1.1-2.61,1.08-3.5-1.55-2.18-1.72-2.61a63,63,0,0,1-.08-7.92c.16-.63,1-1.84.91-2.49s-1.24-1.57-1.48-1.78,0-1.83-.33-2.18a22.92,22.92,0,0,0-2.88-1.63c-.64-.37-1.3-1-1.76-1s-2.83,1-3.22,1.05a25.61,25.61,0,0,0-2.81.27c-.43.14-1.3.82-1.64.83s-3.65-.59-4.44-.65-1.73.28-2,.15-3.05-2.67-3.65-2.87a20.71,20.71,0,0,0-4.61-.57c-1.07.09-7.43.91-8,.81a32,32,0,0,1-4.37-1.94c-.4-.29-.9-4.39-1.43-5s-7.08-5.29-7.44-5.68-1.08-4.41-1.11-5a7.37,7.37,0,0,1,1.71-2.85,37.85,37.85,0,0,0,4-2.62,33.12,33.12,0,0,0,2.94-4,5.21,5.21,0,0,0-.62-2.42c-.17-.22,1.75-4.95,2.35-5.8s4.17-5.45,4.52-6.65-1.17-3.93-1.51-4.37a10.3,10.3,0,0,1-1-1.27c-.12-.32-1-3-1.84-3s-3.49,2.85-3.64,3.2A10.48,10.48,0,0,1,323,282c-.31.22-2.17,1.13-2.64,1.52s-2.63,2.12-3.14,2.07a3.11,3.11,0,0,1-1.67-1.29,10.1,10.1,0,0,1-.51-2.07,11.36,11.36,0,0,1,.6-1.45c.1-.37-.68-1.53-.63-2.23s3.94-2.18,4.82-2.75,2.05-3.7,2.68-4.38,2.89-.52,3.28-.57,1.94-.76,2-1.18-1.68-1.82-2.24-1.84-4.82-.11-5.45,0-6,2-6.32,2.24a12.24,12.24,0,0,1-1.94,1.31c-.42.09-1.46-.16-2.05-.09a23.82,23.82,0,0,0-4.1.77c-3.11,2-12.63,11.6-16.82,19.66a43,43,0,0,0-5.33,21.16C283.57,320.23,284.26,325.43,284.72,326.54Z" style="fill:#8bd8aa"></path><path d="M368.64,264.15a6.2,6.2,0,0,1,2.27-.9c.48,0,14,7.84,18.66,13.16s9.09,13,12.82,24.59,4,17.21,3.73,20.34S403,336,401.77,338.22c-.41.73-1.6-.64-1.82-1.09s0-2.41-.25-3.34-2.76-3.26-3.19-4.16,1-3.05.9-3.76-1.45-2.95-1.56-3.77.06-4,0-4.86-2.58-3.13-3.4-3-1.06,1.69-1.61,2.09a2.33,2.33,0,0,1-1.44.57c-.24-.08-1.15-.84-1.68-.67s-1.26,1.4-1.54,1.58-4.93,1.65-5.5,1.81-4.95,2.38-5.4,2.37a32.73,32.73,0,0,1-4.1-1.87c-.29-.15-5-6-5.54-7.47s3.1-9.42,3.35-10.25-.24-4.67-.1-5.46,1.51-1.58,1.77-2,.18-1.42.79-2.15,2.82-2.54,3.48-3.46a10.85,10.85,0,0,0,1.13-3.11c.15-.51,1.14-2,1.27-2.46s.18-1.63.68-2a8.76,8.76,0,0,1,4.23-.6c.92.25,2.43,1.79,3,1.8a3.59,3.59,0,0,0,2.1-.91,14.17,14.17,0,0,0,.52-3.89c-.07-.39-1-1.79-1.45-1.73s-3.33,1.49-4.14,1.47-4.32-.66-5.14-.49a30,30,0,0,0-4.78,2.3,35.73,35.73,0,0,0-2.88,5.59c-.16.68-.06,4.76-.73,5.64s-4.34,1.64-5.6,1.55-2.92-4.69-2.94-5.36,2.86-5.55,3.19-6.11,2.74-2.89,3.14-3.44,1.14-2.42,1.56-3,1.53-1.67,1.54-2-.28-1.07-.57-1.15-2.15,0-2.5-.64.77-3.76.92-4.31A6.34,6.34,0,0,1,368.64,264.15Z" style="fill:#8bd8aa"></path><path d="M367.31,294.07a1.8,1.8,0,0,0-2.86.43,2.13,2.13,0,0,0-.47,1.16,1.15,1.15,0,0,0,1.38,1.33,2.27,2.27,0,0,0,.87-.52c.26-.21.54-.37.78-.6A1.37,1.37,0,0,0,367.31,294.07Z" style="fill:#8bd8aa"></path><path d="M364.94,297.9a.86.86,0,0,0-1,.68.43.43,0,0,0,0,.16.81.81,0,0,0,.14.69.9.9,0,0,0,1.52-.19A1,1,0,0,0,364.94,297.9Z" style="fill:#8bd8aa"></path><path d="M352.69,325.11a6.93,6.93,0,0,0-2.36-.47,1.25,1.25,0,0,0-1.12,1.29,2.33,2.33,0,0,0,.05.28.85.85,0,0,0,.25.66,3.5,3.5,0,0,0,1.74.94,3.25,3.25,0,0,0,2,0,1.45,1.45,0,0,0,.91-1.6C354,325.49,353.33,325.27,352.69,325.11Z" style="fill:#8bd8aa"></path><path d="M358.38,325.91a1.16,1.16,0,0,0-1.11-.41,1.55,1.55,0,0,0-1.1.37.92.92,0,0,0,.29,1.42h0a1.35,1.35,0,0,0,.68.25,1.3,1.3,0,0,0,1.13-.37A1,1,0,0,0,358.38,325.91Z" style="fill:#8bd8aa"></path><path d="M355.52,323.9h0a.78.78,0,0,0-.4-.09.61.61,0,0,0-.34,1.06.61.61,0,0,0,1-.46A.47.47,0,0,0,355.52,323.9Z" style="fill:#8bd8aa"></path><path d="M331.36,322.86h0a1,1,0,0,0-.9-.32.74.74,0,0,0-.54.33.66.66,0,0,0-.08.62,1.18,1.18,0,0,0,.7.65,1.09,1.09,0,0,0,.93-.11A.67.67,0,0,0,331.36,322.86Z" style="fill:#8bd8aa"></path><path d="M328.34,342.73a1,1,0,0,0-.38.29.79.79,0,0,0-.3.48,5.25,5.25,0,0,0-.1,1.37,1.42,1.42,0,0,0,.45,1.19,1,1,0,0,0,1.37-.26,2.41,2.41,0,0,0,.37-1.26C329.81,343.75,329.44,342.24,328.34,342.73Z" style="fill:#8bd8aa"></path><path d="M328.63,340.05a.57.57,0,0,0-.78-.13.88.88,0,0,0-.25.29.54.54,0,0,0,0,.55.87.87,0,0,0,.24.5.52.52,0,0,0,.73-.07A.89.89,0,0,0,328.63,340.05Z" style="fill:#8bd8aa"></path><path d="M334.68,323.58a3.31,3.31,0,0,0-1.82,0,1,1,0,0,0-.48,1.32c.48,1,1.88,1.07,2.8.61a1.2,1.2,0,0,0,.81-1.05C336,323.74,335.2,323.68,334.68,323.58Z" style="fill:#8bd8aa"></path><path d="M333.36,276.16c-.82-.13-1.66.54-1.42,1.35a5.3,5.3,0,0,0,.28,1.18c.19.59.38,1.17.56,1.76a3.39,3.39,0,0,0,.52,1.25,1.14,1.14,0,0,0,1.57.1,2.58,2.58,0,0,0,.77-2.06C335.64,278.58,334.85,276.18,333.36,276.16Z" style="fill:#8bd8aa"></path><path d="M331.2,274.47a1.09,1.09,0,0,0-1.44-.39,1.21,1.21,0,0,0-.16.16.86.86,0,0,0-.24.9,2.42,2.42,0,0,0,.31.57,2.14,2.14,0,0,0,.43.56.88.88,0,0,0,1.39-.61A1.5,1.5,0,0,0,331.2,274.47Z" style="fill:#8bd8aa"></path><path d="M333.6,273.58a.62.62,0,0,0-.73.57.59.59,0,0,0,.05.27.62.62,0,0,0,.15.45.7.7,0,0,0,.9.08A.77.77,0,0,0,333.6,273.58Z" style="fill:#8bd8aa"></path><path d="M287.73,312.76a1.36,1.36,0,0,0-1.93.13,3.33,3.33,0,0,0-.64,3.18,2.12,2.12,0,0,0,.52,1.4,1.14,1.14,0,0,0,1.65-.17A4.7,4.7,0,0,0,288,315C288.11,314.29,288.28,313.3,287.73,312.76Z" style="fill:#acefc8"></path><path d="M287.86,307.6a1,1,0,0,0-1.22,0,1.19,1.19,0,0,0-.43,1.11c0,.05,0,.09,0,.14a1.29,1.29,0,0,0,.1,1.08,1,1,0,0,0,1.83-.23A2,2,0,0,0,287.86,307.6Z" style="fill:#acefc8"></path><path d="M289.49,310.5a.92.92,0,0,0-.55.49.7.7,0,0,0,0,.58,1.32,1.32,0,0,0,0,.4.67.67,0,0,0,.53.59.85.85,0,0,0,1-.61,1.56,1.56,0,0,0,0-1A.75.75,0,0,0,289.49,310.5Z" style="fill:#acefc8"></path><path d="M289.31,303.11a1.5,1.5,0,0,0-.35.7.91.91,0,0,0,0,.33,1.28,1.28,0,0,0,.05.58.64.64,0,0,0,1,.31,1.47,1.47,0,0,0,.48-1.71A.69.69,0,0,0,289.31,303.11Z" style="fill:#acefc8"></path><path d="M295.12,286.85a3.48,3.48,0,0,0-2.06,1.78,4,4,0,0,0-.32.69,3.42,3.42,0,0,0-.3.57,1.91,1.91,0,0,0,.7,2.47c1,.47,1.77-.5,2.29-1.22a5.77,5.77,0,0,0,1.21-2.63C296.76,287.54,296.21,286.64,295.12,286.85Z" style="fill:#acefc8"></path><path d="M302.16,278.64A8.13,8.13,0,0,0,299,281.3c-.13.18-.26.38-.39.58l0,.05c-.56.77-1.43,2-.9,3a1.56,1.56,0,0,0,2.28.34,17.79,17.79,0,0,0,3.5-3.16c.65-.75,1.41-1.88,1-2.9S303,278.26,302.16,278.64Z" style="fill:#acefc8"></path><path d="M300.41,287a2,2,0,0,0-1.75,1.17,1.37,1.37,0,0,0-.36,1.05,1.19,1.19,0,0,0,1.2,1,1.6,1.6,0,0,0,1.31-.73c.3-.4.74-.9.7-1.42A1.13,1.13,0,0,0,300.41,287Z" style="fill:#acefc8"></path><path d="M295.8,293.8a1.3,1.3,0,0,0-.68.13,1,1,0,0,0-.34,1.56.84.84,0,0,0,1.05.06,1.58,1.58,0,0,0,.5-1A.66.66,0,0,0,295.8,293.8Z" style="fill:#acefc8"></path><path d="M350.21,352.37a.86.86,0,0,0-1,.67.89.89,0,0,0,.57,1l.24.15a1.32,1.32,0,0,0,1,.16.87.87,0,0,0,.63-.88C351.57,352.72,350.82,352.43,350.21,352.37Z" style="fill:#acefc8"></path><path d="M354.83,351.64c-.75-.39-2.18-.56-2.42.51v0a.4.4,0,0,0,0,.15.58.58,0,0,0,.06.32,1.43,1.43,0,0,0,.67.8,1.55,1.55,0,0,0,.81.24,1.66,1.66,0,0,0,.53.1,1,1,0,0,0,1.06-.88A1.24,1.24,0,0,0,354.83,351.64Z" style="fill:#acefc8"></path><path d="M354.94,354.93a.75.75,0,0,0-1.27-.22.6.6,0,0,0,.07.84,2.17,2.17,0,0,0,.33.19.59.59,0,0,0,.71-.17A.58.58,0,0,0,354.94,354.93Z" style="fill:#acefc8"></path><path d="M357.51,354.59h0a.49.49,0,0,0-.44-.2h0a.45.45,0,0,0-.45.27h0a.51.51,0,0,0,.62.69h0A.5.5,0,0,0,357.51,354.59Z" style="fill:#acefc8"></path><path d="M395.23,287.05c-.54-1.23-1.49-3.19-3-3.48a.77.77,0,0,0-.74.37c-.74.88.18,2.43.54,3.18.49,1,1.08,2.82,2.51,2.63S395.62,287.93,395.23,287.05Z" style="fill:#acefc8"></path><path d="M391.09,280.75a1.43,1.43,0,0,0-.76-.84.85.85,0,0,0-1.05.41,1.75,1.75,0,0,0,.7,2,.71.71,0,0,0,1.06-.17.61.61,0,0,0,.07-.14,1.09,1.09,0,0,0,.08-.15A1.48,1.48,0,0,0,391.09,280.75Z" style="fill:#acefc8"></path><path d="M395.89,290.72c-.7.08-.9.65-.85,1.28a4.07,4.07,0,0,0,.8,2.1,1.26,1.26,0,0,0,1.42.59,1.21,1.21,0,0,0,.65-1.37C397.77,292.37,397.12,290.59,395.89,290.72Z" style="fill:#acefc8"></path><path d="M393.53,290.48a.77.77,0,0,0-.68,0,.3.3,0,0,0-.24.15c-.84.56,0,2.21.92,2.19C394.82,292.83,394.41,290.84,393.53,290.48Z" style="fill:#acefc8"></path><path d="M402.82,318.69a1.81,1.81,0,0,0-.62,1.45c0,.23,0,.5,0,.76a1.28,1.28,0,0,0,.51,1.38,1.2,1.2,0,0,0,1.41-.2,2.1,2.1,0,0,0,.5-1.53C404.58,319.7,404,317.94,402.82,318.69Z" style="fill:#acefc8"></path><path d="M402.62,323.79a1.19,1.19,0,0,0-.74,1.1c0,.12,0,.25-.05.38a1.2,1.2,0,0,0,.09.93.77.77,0,0,0,.52.43,1,1,0,0,0,.72,0,1.23,1.23,0,0,0,.68-1.05,2.7,2.7,0,0,0,0-1.13A1,1,0,0,0,402.62,323.79Z" style="fill:#acefc8"></path><path d="M400.34,322a2.12,2.12,0,0,0-.15,1.29.75.75,0,0,0,.62.71c1,.13,1.06-1.28.84-1.94A.72.72,0,0,0,400.34,322Z" style="fill:#acefc8"></path><path d="M404,315.62a.68.68,0,0,0-.43.74,1,1,0,0,0-.07.29.72.72,0,0,0,.57.82.64.64,0,0,0,.61-.22,1.31,1.31,0,0,0,.17-1.23A.66.66,0,0,0,404,315.62Z" style="fill:#acefc8"></path><path d="M287,297.41c-7.56,17.72,1.54,48.33,9.85,58.84,9.75,12.33,29.78,23.21,47.16,23a63.24,63.24,0,0,0,44.4-19.67c10.36-11.2,16.85-31,16.78-40.53s-6.77-29.87-13.4-38.49c-7.37-9.56-24-19.93-39.93-22.52-12.91-2.1-37.76,7.79-45,14.1C300.74,277.46,291.13,287.81,287,297.41Z" style="fill:#37474f"></path><path d="M293.35,293c-6.75,15.82,1.37,43.16,8.79,52.54,8.71,11,26.59,20.73,42.12,20.55a56.49,56.49,0,0,0,39.65-17.56c9.24-10,15-27.65,15-36.19s-6-26.67-12-34.36c-6.58-8.55-21.42-17.81-35.65-20.12-11.53-1.87-33.72,7-40.22,12.59C305.58,275.2,297,284.44,293.35,293Z" style="fill:#455a64"></path><g style="opacity:0.1"><path d="M331.42,373.25a3.93,3.93,0,0,0-1.79-1.45,2.67,2.67,0,0,0-2.17-.2,1.34,1.34,0,0,0-.56,1.9,3.28,3.28,0,0,0,1.83,1.33,1.32,1.32,0,0,0,.3.09,2.78,2.78,0,0,0,1.77.13A1.24,1.24,0,0,0,331.42,373.25Z" style="fill:#fff"></path><path d="M332.68,370a2.21,2.21,0,0,0-1-.57.91.91,0,0,0-1.06.69,1.06,1.06,0,0,0,.39,1,1.83,1.83,0,0,0,.6.28h0a1.73,1.73,0,0,0,.34.14.89.89,0,0,0,1.15-.36C333.36,370.77,333,370.34,332.68,370Z" style="fill:#fff"></path><path d="M336.86,374a2.21,2.21,0,0,0-2.24-1.1,1,1,0,0,0-.94,1.11,1.2,1.2,0,0,0,.76.95,2.24,2.24,0,0,0,.4.22,2.09,2.09,0,0,0,1.85-.17A.75.75,0,0,0,336.86,374Z" style="fill:#fff"></path><path d="M291.89,338.84a1.27,1.27,0,0,0-.29.52,3.15,3.15,0,0,0-.07,2.51,12,12,0,0,0,2.11,4.79,1.44,1.44,0,0,0,2.19.17c.87-.93.2-2.4-.14-3.39S293.75,336.82,291.89,338.84Z" style="fill:#fff"></path><path d="M300.08,342.8a1.41,1.41,0,0,0-1.83-.22c-.6.5-.36,1.3-.13,1.93a4.49,4.49,0,0,0,.23.51l.08.17c.3.6.78,1.4,1.56,1.21C301.47,346,300.85,343.54,300.08,342.8Z" style="fill:#fff"></path><path d="M299.7,349.3a2,2,0,0,0-.67-.85.93.93,0,0,0-1.4.3,1.77,1.77,0,0,0,.53,1.85,1.06,1.06,0,0,0,.67.54.89.89,0,0,0,1-.73A1.92,1.92,0,0,0,299.7,349.3Z" style="fill:#fff"></path><path d="M296,340.88a1.38,1.38,0,0,0,.41.63.65.65,0,0,0,1-.12,1.23,1.23,0,0,0-.24-1.32.78.78,0,0,0-.44-.42.62.62,0,0,0-.76.44A1.42,1.42,0,0,0,296,340.88Z" style="fill:#fff"></path><path d="M397.76,338a1,1,0,0,0-.68.45,7.2,7.2,0,0,0-1.24,1.88,6.11,6.11,0,0,0-1.11,2.63.92.92,0,0,0,1.11,1c.88-.14,1.44-1.22,1.87-1.87a5.54,5.54,0,0,0,1-2.65C398.73,338.82,398.59,337.86,397.76,338Z" style="fill:#fff"></path><path d="M394.18,345.42a1.18,1.18,0,0,0-.87.71c-.1.2-.22.42-.31.65a1,1,0,0,0-.09,1.16c.31.44.85.31,1.25.09a2.08,2.08,0,0,0,.73-.77,1.75,1.75,0,0,0,.24-1A.89.89,0,0,0,394.18,345.42Z" style="fill:#fff"></path><path d="M393.06,341.86c-.69-.33-1.24.48-1.55,1.34-.16.44-.76,1.17-.55,1.62a1,1,0,0,0,1.13.52,2,2,0,0,0,1.11-1C393.62,343.68,394,342.32,393.06,341.86Z" style="fill:#fff"></path><path d="M394.18,338a1.53,1.53,0,0,0-.27.64.14.14,0,0,0,0,.06.6.6,0,0,0,.29.73,1,1,0,0,0,.86-.06,1.38,1.38,0,0,0,.51-1.42C395.3,337.31,394.49,337.58,394.18,338Z" style="fill:#fff"></path><path d="M392.18,349.32a.87.87,0,0,0-.7.58.72.72,0,0,0-.05.71c.3.55,1.05.3,1.33-.11A.72.72,0,0,0,392.18,349.32Z" style="fill:#fff"></path><path d="M396.93,332.32a.84.84,0,0,0-.42.34c-.37.34-.39,1.25-.45,1.66a1.22,1.22,0,0,0,.27,1.16.91.91,0,0,0,1.23-.06,2.72,2.72,0,0,0,.47-2.48A.9.9,0,0,0,396.93,332.32Z" style="fill:#fff"></path><path d="M323.51,369.93a2.65,2.65,0,0,0-1.17-.38.83.83,0,0,0-.8.74.72.72,0,0,0-.07.33,1.31,1.31,0,0,0,.72.95c.66.42,1.92.42,2-.6A1.12,1.12,0,0,0,323.51,369.93Z" style="fill:#fff"></path><path d="M352.93,261.8c-.71,0-1.81.68-1.25,1.51a1.06,1.06,0,0,0,.94.41l.65,0c.73.17,1.64.2,1.79-.62C355.25,262.12,353.64,261.77,352.93,261.8Z" style="fill:#fff"></path><path d="M355.49,260.48a.75.75,0,0,0-.18,1.34,2.63,2.63,0,0,0,.67.22,4.34,4.34,0,0,0,.62.16.59.59,0,0,0,.72-.66C357.52,260.68,356.15,260.24,355.49,260.48Z" style="fill:#fff"></path><path d="M357.67,262.8s0,0-.06,0a.34.34,0,0,0-.25.52s0,0,0,.06a.47.47,0,1,0,.28-.6Z" style="fill:#fff"></path></g><path d="M284.72,326.54c.44,1.08,1.6,1.15,2.19,1.82s2,4.37,4.25,5,6.18-.13,6.84-.31,1.78-1.11,2.84-1.12,1.63,2.07,2.75,2.2.64-1.4,1.36-1.43,2.9,1.75,3.82,1.88,2-.18,2.71.16,1.75,1.65,3.69,1.75,4.92-2.36,6-2.37a12.46,12.46,0,0,0,2.69.11c1-.19,3.68-2.06,4.26-2.29s1.21.26,2.19-.22,2.18-1.91,3.05-1.47.48,1.74.05,2.64-.23,2-.88,2.65-2.26,2.61-2.38,3.43.75,2.54.54,3.68.49,4.57-.54,6.12,2,4.63,3.2,4.81,4.67-1.67,6.41-1.62,3.1,2.06,5.17,2.31a69.86,69.86,0,0,1,10.14,3.07c1.29.56,5.52,2.25,5.86,3.18s-.11,3.73.78,4.53,6.56,2.92,7.7,3.53,6.19.92,7.09.89a2,2,0,0,0,1.36-.76c0-.14-2.66-.88-3.23-1.17s-1.26-1.33-1.49-1.51a12.79,12.79,0,0,1-2.23-.94,13.88,13.88,0,0,1-2.27-3.52c-.21-.74.83-5.55,1-6.39s-1.27-3.15-1.25-3.93,1.1-2.61,1.08-3.5-1.55-2.18-1.72-2.61a63,63,0,0,1-.08-7.92c.16-.63,1-1.84.91-2.49s-1.24-1.57-1.48-1.78,0-1.83-.33-2.18a22.92,22.92,0,0,0-2.88-1.63c-.64-.37-1.3-1-1.76-1s-2.83,1-3.22,1.05a25.61,25.61,0,0,0-2.81.27c-.43.14-1.3.82-1.64.83s-3.65-.59-4.44-.65-1.73.28-2,.15-3.05-2.67-3.65-2.87a20.71,20.71,0,0,0-4.61-.57c-1.07.09-7.43.91-8,.81a32,32,0,0,1-4.37-1.94c-.4-.29-.9-4.39-1.43-5s-7.08-5.29-7.44-5.68-1.08-4.41-1.11-5a7.37,7.37,0,0,1,1.71-2.85,37.85,37.85,0,0,0,4-2.62,33.12,33.12,0,0,0,2.94-4,5.21,5.21,0,0,0-.62-2.42c-.17-.22,1.75-4.95,2.35-5.8s4.17-5.45,4.52-6.65-1.17-3.93-1.51-4.37a10.3,10.3,0,0,1-1-1.27c-.12-.32-1-3-1.84-3s-3.49,2.85-3.64,3.2A10.48,10.48,0,0,1,323,282c-.31.22-2.17,1.13-2.64,1.52s-2.63,2.12-3.14,2.07a3.11,3.11,0,0,1-1.67-1.29,10.1,10.1,0,0,1-.51-2.07,11.36,11.36,0,0,1,.6-1.45c.1-.37-.68-1.53-.63-2.23s3.94-2.18,4.82-2.75,2.05-3.7,2.68-4.38,2.89-.52,3.28-.57,1.94-.76,2-1.18-1.68-1.82-2.24-1.84-4.82-.11-5.45,0-6,2-6.32,2.24a12.24,12.24,0,0,1-1.94,1.31c-.42.09-1.46-.16-2.05-.09a23.82,23.82,0,0,0-4.1.77c-3.11,2-12.63,11.6-16.82,19.66a43,43,0,0,0-5.33,21.16C283.57,320.23,284.26,325.43,284.72,326.54Z" style="fill:#37474f"></path><path d="M368.64,264.15a6.2,6.2,0,0,1,2.27-.9c.48,0,14,7.84,18.66,13.16s9.09,13,12.82,24.59,4,17.21,3.73,20.34S403,336,401.77,338.22c-.41.73-1.6-.64-1.82-1.09s0-2.41-.25-3.34-2.76-3.26-3.19-4.16,1-3.05.9-3.76-1.45-2.95-1.56-3.77.06-4,0-4.86-2.58-3.13-3.4-3-1.06,1.69-1.61,2.09a2.33,2.33,0,0,1-1.44.57c-.24-.08-1.15-.84-1.68-.67s-1.26,1.4-1.54,1.58-4.93,1.65-5.5,1.81-4.95,2.38-5.4,2.37a32.73,32.73,0,0,1-4.1-1.87c-.29-.15-5-6-5.54-7.47s3.1-9.42,3.35-10.25-.24-4.67-.1-5.46,1.51-1.58,1.77-2,.18-1.42.79-2.15,2.82-2.54,3.48-3.46a10.85,10.85,0,0,0,1.13-3.11c.15-.51,1.14-2,1.27-2.46s.18-1.63.68-2a8.76,8.76,0,0,1,4.23-.6c.92.25,2.43,1.79,3,1.8a3.59,3.59,0,0,0,2.1-.91,14.17,14.17,0,0,0,.52-3.89c-.07-.39-1-1.79-1.45-1.73s-3.33,1.49-4.14,1.47-4.32-.66-5.14-.49a30,30,0,0,0-4.78,2.3,35.73,35.73,0,0,0-2.88,5.59c-.16.68-.06,4.76-.73,5.64s-4.34,1.64-5.6,1.55-2.92-4.69-2.94-5.36,2.86-5.55,3.19-6.11,2.74-2.89,3.14-3.44,1.14-2.42,1.56-3,1.53-1.67,1.54-2-.28-1.07-.57-1.15-2.15,0-2.5-.64.77-3.76.92-4.31A6.34,6.34,0,0,1,368.64,264.15Z" style="fill:#37474f"></path><path d="M367.31,294.07a1.8,1.8,0,0,0-2.86.43,2.13,2.13,0,0,0-.47,1.16,1.15,1.15,0,0,0,1.38,1.33,2.27,2.27,0,0,0,.87-.52c.26-.21.54-.37.78-.6A1.37,1.37,0,0,0,367.31,294.07Z" style="fill:#37474f"></path><path d="M364.94,297.9a.86.86,0,0,0-1,.68.43.43,0,0,0,0,.16.81.81,0,0,0,.14.69.9.9,0,0,0,1.52-.19A1,1,0,0,0,364.94,297.9Z" style="fill:#37474f"></path><path d="M352.69,325.11a6.93,6.93,0,0,0-2.36-.47,1.25,1.25,0,0,0-1.12,1.29,2.33,2.33,0,0,0,.05.28.85.85,0,0,0,.25.66,3.5,3.5,0,0,0,1.74.94,3.25,3.25,0,0,0,2,0,1.45,1.45,0,0,0,.91-1.6C354,325.49,353.33,325.27,352.69,325.11Z" style="fill:#37474f"></path><path d="M358.38,325.91a1.16,1.16,0,0,0-1.11-.41,1.55,1.55,0,0,0-1.1.37.92.92,0,0,0,.29,1.42h0a1.35,1.35,0,0,0,.68.25,1.3,1.3,0,0,0,1.13-.37A1,1,0,0,0,358.38,325.91Z" style="fill:#37474f"></path><path d="M355.52,323.9h0a.78.78,0,0,0-.4-.09.61.61,0,0,0-.34,1.06.61.61,0,0,0,1-.46A.47.47,0,0,0,355.52,323.9Z" style="fill:#37474f"></path><path d="M331.36,322.86h0a1,1,0,0,0-.9-.32.74.74,0,0,0-.54.33.66.66,0,0,0-.08.62,1.18,1.18,0,0,0,.7.65,1.09,1.09,0,0,0,.93-.11A.67.67,0,0,0,331.36,322.86Z" style="fill:#37474f"></path><path d="M328.34,342.73a1,1,0,0,0-.38.29.79.79,0,0,0-.3.48,5.25,5.25,0,0,0-.1,1.37,1.42,1.42,0,0,0,.45,1.19,1,1,0,0,0,1.37-.26,2.41,2.41,0,0,0,.37-1.26C329.81,343.75,329.44,342.24,328.34,342.73Z" style="fill:#37474f"></path><path d="M328.63,340.05a.57.57,0,0,0-.78-.13.88.88,0,0,0-.25.29.54.54,0,0,0,0,.55.87.87,0,0,0,.24.5.52.52,0,0,0,.73-.07A.89.89,0,0,0,328.63,340.05Z" style="fill:#37474f"></path><path d="M334.68,323.58a3.31,3.31,0,0,0-1.82,0,1,1,0,0,0-.48,1.32c.48,1,1.88,1.07,2.8.61a1.2,1.2,0,0,0,.81-1.05C336,323.74,335.2,323.68,334.68,323.58Z" style="fill:#37474f"></path><path d="M333.36,276.16c-.82-.13-1.66.54-1.42,1.35a5.3,5.3,0,0,0,.28,1.18c.19.59.38,1.17.56,1.76a3.39,3.39,0,0,0,.52,1.25,1.14,1.14,0,0,0,1.57.1,2.58,2.58,0,0,0,.77-2.06C335.64,278.58,334.85,276.18,333.36,276.16Z" style="fill:#37474f"></path><path d="M331.2,274.47a1.09,1.09,0,0,0-1.44-.39,1.21,1.21,0,0,0-.16.16.86.86,0,0,0-.24.9,2.42,2.42,0,0,0,.31.57,2.14,2.14,0,0,0,.43.56.88.88,0,0,0,1.39-.61A1.5,1.5,0,0,0,331.2,274.47Z" style="fill:#37474f"></path><path d="M333.6,273.58a.62.62,0,0,0-.73.57.59.59,0,0,0,.05.27.62.62,0,0,0,.15.45.7.7,0,0,0,.9.08A.77.77,0,0,0,333.6,273.58Z" style="fill:#37474f"></path><path d="M287.73,312.76a1.36,1.36,0,0,0-1.93.13,3.33,3.33,0,0,0-.64,3.18,2.12,2.12,0,0,0,.52,1.4,1.14,1.14,0,0,0,1.65-.17A4.7,4.7,0,0,0,288,315C288.11,314.29,288.28,313.3,287.73,312.76Z" style="fill:#455a64"></path><path d="M287.86,307.6a1,1,0,0,0-1.22,0,1.19,1.19,0,0,0-.43,1.11c0,.05,0,.09,0,.14a1.29,1.29,0,0,0,.1,1.08,1,1,0,0,0,1.83-.23A2,2,0,0,0,287.86,307.6Z" style="fill:#455a64"></path><path d="M289.49,310.5a.92.92,0,0,0-.55.49.7.7,0,0,0,0,.58,1.32,1.32,0,0,0,0,.4.67.67,0,0,0,.53.59.85.85,0,0,0,1-.61,1.56,1.56,0,0,0,0-1A.75.75,0,0,0,289.49,310.5Z" style="fill:#455a64"></path><path d="M289.31,303.11a1.5,1.5,0,0,0-.35.7.91.91,0,0,0,0,.33,1.28,1.28,0,0,0,.05.58.64.64,0,0,0,1,.31,1.47,1.47,0,0,0,.48-1.71A.69.69,0,0,0,289.31,303.11Z" style="fill:#455a64"></path><path d="M296.87,284.63a2.18,2.18,0,0,0-1.29,1.11,2,2,0,0,0-.2.44,2.43,2.43,0,0,0-.2.35,1.2,1.2,0,0,0,.45,1.55c.63.3,1.1-.31,1.43-.76a3.67,3.67,0,0,0,.76-1.65C297.89,285.06,297.55,284.5,296.87,284.63Z" style="fill:#455a64"></path><path d="M301.28,279.48a5,5,0,0,0-2,1.67l-.25.36,0,0c-.36.49-.9,1.28-.57,1.9a1,1,0,0,0,1.43.22,11.5,11.5,0,0,0,2.2-2c.41-.47.88-1.18.64-1.82S301.81,279.24,301.28,279.48Z" style="fill:#455a64"></path><path d="M300.18,284.75a1.24,1.24,0,0,0-1.09.73.85.85,0,0,0-.23.66.74.74,0,0,0,.75.6,1.06,1.06,0,0,0,.83-.46c.18-.25.46-.56.43-.89A.7.7,0,0,0,300.18,284.75Z" style="fill:#455a64"></path><path d="M296.1,290.13a1.17,1.17,0,0,0-.67.13,1,1,0,0,0-.35,1.55.86.86,0,0,0,1.06.07,1.52,1.52,0,0,0,.49-1A.66.66,0,0,0,296.1,290.13Z" style="fill:#455a64"></path><path d="M350.21,352.37a.86.86,0,0,0-1,.67.89.89,0,0,0,.57,1l.24.15a1.32,1.32,0,0,0,1,.16.87.87,0,0,0,.63-.88C351.57,352.72,350.82,352.43,350.21,352.37Z" style="fill:#455a64"></path><path d="M354.83,351.64c-.75-.39-2.18-.56-2.42.51v0a.4.4,0,0,0,0,.15.58.58,0,0,0,.06.32,1.43,1.43,0,0,0,.67.8,1.55,1.55,0,0,0,.81.24,1.66,1.66,0,0,0,.53.1,1,1,0,0,0,1.06-.88A1.24,1.24,0,0,0,354.83,351.64Z" style="fill:#455a64"></path><path d="M354.94,354.93a.75.75,0,0,0-1.27-.22.6.6,0,0,0,.07.84,2.17,2.17,0,0,0,.33.19.59.59,0,0,0,.71-.17A.58.58,0,0,0,354.94,354.93Z" style="fill:#455a64"></path><path d="M357.51,354.59h0a.49.49,0,0,0-.44-.2h0a.45.45,0,0,0-.45.27h0a.51.51,0,0,0,.62.69h0A.5.5,0,0,0,357.51,354.59Z" style="fill:#455a64"></path><path d="M395.23,287.05c-.54-1.23-1.49-3.19-3-3.48a.77.77,0,0,0-.74.37c-.74.88.18,2.43.54,3.18.49,1,1.08,2.82,2.51,2.63S395.62,287.93,395.23,287.05Z" style="fill:#455a64"></path><path d="M391.09,280.75a1.43,1.43,0,0,0-.76-.84.85.85,0,0,0-1.05.41,1.75,1.75,0,0,0,.7,2,.71.71,0,0,0,1.06-.17.61.61,0,0,0,.07-.14,1.09,1.09,0,0,0,.08-.15A1.48,1.48,0,0,0,391.09,280.75Z" style="fill:#455a64"></path><path d="M395.89,290.72c-.7.08-.9.65-.85,1.28a4.07,4.07,0,0,0,.8,2.1,1.26,1.26,0,0,0,1.42.59,1.21,1.21,0,0,0,.65-1.37C397.77,292.37,397.12,290.59,395.89,290.72Z" style="fill:#455a64"></path><path d="M393.53,290.48a.77.77,0,0,0-.68,0,.3.3,0,0,0-.24.15c-.84.56,0,2.21.92,2.19C394.82,292.83,394.41,290.84,393.53,290.48Z" style="fill:#455a64"></path><path d="M402.82,318.69a1.81,1.81,0,0,0-.62,1.45c0,.23,0,.5,0,.76a1.28,1.28,0,0,0,.51,1.38,1.2,1.2,0,0,0,1.41-.2,2.1,2.1,0,0,0,.5-1.53C404.58,319.7,404,317.94,402.82,318.69Z" style="fill:#455a64"></path><path d="M402.62,323.79a1.19,1.19,0,0,0-.74,1.1c0,.12,0,.25-.05.38a1.2,1.2,0,0,0,.09.93.77.77,0,0,0,.52.43,1,1,0,0,0,.72,0,1.23,1.23,0,0,0,.68-1.05,2.7,2.7,0,0,0,0-1.13A1,1,0,0,0,402.62,323.79Z" style="fill:#455a64"></path><path d="M400.34,322a2.12,2.12,0,0,0-.15,1.29.75.75,0,0,0,.62.71c1,.13,1.06-1.28.84-1.94A.72.72,0,0,0,400.34,322Z" style="fill:#455a64"></path><path d="M404,315.62a.68.68,0,0,0-.43.74,1,1,0,0,0-.07.29.72.72,0,0,0,.57.82.64.64,0,0,0,.61-.22,1.31,1.31,0,0,0,.17-1.23A.66.66,0,0,0,404,315.62Z" style="fill:#455a64"></path><g style="opacity:0.2"><path d="M359.06,290.4c-10.73,2.18-27.15-14-21.27-22,4.82-6.47,14.92-5.77,20.47-3.38s11.35,8.42,10.35,14.68C367.76,285,363,289.6,359.06,290.4Z" style="fill:#fff"></path><path d="M331.55,266.85c2.57,2.27.17,8.39-3.28,9.3s-6.66-3.4-5.87-6S329.23,264.8,331.55,266.85Z" style="fill:#fff"></path></g><path d="M283,352.61s12.59-.59,19.13-3.93S313.46,336,313.46,336A25.06,25.06,0,0,1,316,325.72c2.61-5.56,8.4-8.62,11.21-7.26,3.95,1.91.48,9.53,2.83,16.27,0,0,14.77,43.38-33,54.74C297,389.47,280.17,374.14,283,352.61Z" style="fill:#F448FF"></path><g style="opacity:0.2"><path d="M324.18,329c2.36-.88,4-6.39,2.66-8.26s-5,.37-5.77,2.63S322.05,329.83,324.18,329Z" style="fill:#fff"></path></g><path d="M283,352.61q4.59-.45,9.12-1.31a40.54,40.54,0,0,0,8.75-2.53,14.55,14.55,0,0,0,1.94-1.07l.9-.66.86-.72a31.14,31.14,0,0,0,3.12-3.27,52.88,52.88,0,0,0,5.17-7.47l-.09.38a25.8,25.8,0,0,1,1-7.51,18.39,18.39,0,0,1,1.49-3.56,15.6,15.6,0,0,1,2.34-3.09,20,20,0,0,1,2.87-2.56,11.69,11.69,0,0,1,3.53-1.82,6.29,6.29,0,0,1,2.15-.26,4,4,0,0,1,2.2.92,4.39,4.39,0,0,1,1.23,1.94,9.32,9.32,0,0,1,.42,2c.27,2.6,0,5.08.06,7.44a11,11,0,0,0,.15,1.68c.08.49.29,1.1.44,1.7.32,1.2.61,2.41.86,3.63a55.52,55.52,0,0,1,1.1,14.89,43.41,43.41,0,0,1-1.09,7.42c-.26,1.22-.65,2.42-1,3.62s-.82,2.37-1.37,3.5a39.14,39.14,0,0,1-3.74,6.5,40.08,40.08,0,0,1-4.94,5.61,47.1,47.1,0,0,1-12.27,8.31,72.93,72.93,0,0,1-13.91,4.88,80.63,80.63,0,0,0,13.56-5.56,49.79,49.79,0,0,0,11.72-8.54,36.07,36.07,0,0,0,8-11.88c.52-1.08.86-2.24,1.28-3.36s.7-2.3.93-3.48a39.85,39.85,0,0,0,1-7.13,53.41,53.41,0,0,0-1.2-14.37c-.24-1.18-.54-2.35-.86-3.52-.14-.59-.33-1.15-.46-1.87a12.59,12.59,0,0,1-.16-2c0-2.53.24-5,0-7.27a4.32,4.32,0,0,0-1-2.74A2,2,0,0,0,326,319a4.32,4.32,0,0,0-1.48.18,10,10,0,0,0-3,1.52,19.16,19.16,0,0,0-2.64,2.31,14.42,14.42,0,0,0-2.12,2.73,17.92,17.92,0,0,0-1.37,3.21,24.79,24.79,0,0,0-1.17,7v.23l-.09.15a55.21,55.21,0,0,1-5.53,7.53,33.47,33.47,0,0,1-3.34,3.29l-.93.74-1,.68a13.3,13.3,0,0,1-2.14,1.06,28.06,28.06,0,0,1-4.48,1.35c-1.51.35-3,.61-4.56.83A81,81,0,0,1,283,352.61Z" style="fill:#263238"></path><path d="M285.1,350.77a9.09,9.09,0,0,1,3.24-.1,10.45,10.45,0,0,1,1.57.34,5.66,5.66,0,0,1,1.52.66,10.92,10.92,0,0,1-3.23,0A10,10,0,0,1,285.1,350.77Z" style="fill:#263238"></path><path d="M297.68,392.24a9,9,0,0,1,2.17-2.41,11.15,11.15,0,0,1,1.33-.91,5.56,5.56,0,0,1,1.52-.64,11,11,0,0,1-2.23,2.33A10,10,0,0,1,297.68,392.24Z" style="fill:#263238"></path><path d="M302.31,414.39c-1-9.23,9.08-36.9,23.43-44.4s45.73-10.07,45.73-10.07S373,346.55,378,347.6c3.06.65,15.57,41.21,13.71,43.48s-30.92,16.35-30.92,16.35-9.45,20.66-25.3,26.6S303.86,428.68,302.31,414.39Z" style="fill:#F448FF"></path><path d="M371.47,359.92c-7.39,1-14.74,2.23-22,3.65-3.63.76-7.26,1.52-10.83,2.5a63,63,0,0,0-10.38,3.6,19.9,19.9,0,0,0-4.52,2.8,48.76,48.76,0,0,0-4,3.74,60.59,60.59,0,0,0-6.83,8.62,73.11,73.11,0,0,0-5.37,9.69,81.57,81.57,0,0,0-4,10.39A65.75,65.75,0,0,1,311.55,384a56.33,56.33,0,0,1,6.77-9.09c.63-.71,1.32-1.37,2-2s1.41-1.28,2.13-1.91a21.12,21.12,0,0,1,4.92-3.1,61.94,61.94,0,0,1,10.76-3.63q5.47-1.33,11-2.2A183.82,183.82,0,0,1,371.47,359.92Z" style="fill:#263238"></path><path d="M306.86,394.79a19.54,19.54,0,0,1-1.82,2.67,23.34,23.34,0,0,1-2.11,2.43,5.94,5.94,0,0,1,1.33-3A6.36,6.36,0,0,1,306.86,394.79Z" style="fill:#263238"></path><path d="M379.74,268.59s-4-10.54-9.37-12.49-12.64.07-15.29,1.72-5.81,8.67-2.22,9.86c5.33,1.76,16.18-4.14,16.18-4.14S371.82,263.92,379.74,268.59Z" style="fill:#F448FF"></path></g></svg>
